<svg width="41" height="40" viewBox="0 0 41 40" fill="none" xmlns="http://www.w3.org/2000/svg">
<path d="M21.484 17.82C21.4395 17.5741 21.3045 17.3538 21.1057 17.2024C20.9068 17.0511 20.6585 16.9797 20.4096 17.0022C20.1608 17.0248 19.9294 17.1398 19.761 17.3244C19.5927 17.5091 19.4995 17.7501 19.5 18V27.004L19.516 27.184C19.5605 27.4299 19.6955 27.6502 19.8943 27.8016C20.0932 27.9529 20.3415 28.0243 20.5904 28.0018C20.8392 27.9792 21.0706 27.8642 21.239 27.6796C21.4073 27.4949 21.5005 27.2539 21.5 27.004V18L21.484 17.82ZM22.098 13.5C22.098 13.1022 21.94 12.7206 21.6587 12.4393C21.3774 12.158 20.9958 12 20.598 12C20.2002 12 19.8186 12.158 19.5373 12.4393C19.256 12.7206 19.098 13.1022 19.098 13.5C19.098 13.8978 19.256 14.2794 19.5373 14.5607C19.8186 14.842 20.2002 15 20.598 15C20.9958 15 21.3774 14.842 21.6587 14.5607C21.94 14.2794 22.098 13.8978 22.098 13.5ZM36.5 20C36.5 15.7565 34.8143 11.6869 31.8137 8.68629C28.8131 5.68571 24.7435 4 20.5 4C16.2565 4 12.1869 5.68571 9.18629 8.68629C6.18571 11.6869 4.5 15.7565 4.5 20C4.5 24.2435 6.18571 28.3131 9.18629 31.3137C12.1869 34.3143 16.2565 36 20.5 36C24.7435 36 28.8131 34.3143 31.8137 31.3137C34.8143 28.3131 36.5 24.2435 36.5 20ZM6.5 20C6.5 18.1615 6.86212 16.341 7.56569 14.6424C8.26925 12.9439 9.30048 11.4005 10.6005 10.1005C11.9005 8.80048 13.4439 7.76925 15.1424 7.06569C16.841 6.36212 18.6615 6 20.5 6C22.3385 6 24.159 6.36212 25.8576 7.06569C27.5561 7.76925 29.0995 8.80048 30.3995 10.1005C31.6995 11.4005 32.7307 12.9439 33.4343 14.6424C34.1379 16.341 34.5 18.1615 34.5 20C34.5 23.713 33.025 27.274 30.3995 29.8995C27.774 32.525 24.213 34 20.5 34C16.787 34 13.226 32.525 10.6005 29.8995C7.975 27.274 6.5 23.713 6.5 20Z" fill="white"/>
</svg>
