<svg width="40" height="40" viewBox="0 0 40 40" fill="none" xmlns="http://www.w3.org/2000/svg">
<path d="M24.1719 22.3047C25.2207 21.6671 26.0322 20.704 26.4826 19.5623C26.933 18.4206 26.9976 17.1628 26.6665 15.9809C26.3355 14.799 25.627 13.7579 24.649 13.0162C23.6711 12.2745 22.4774 11.8731 21.25 11.8731C20.0226 11.8731 18.8289 12.2745 17.851 13.0162C16.873 13.7579 16.1645 14.799 15.8335 15.9809C15.5024 17.1628 15.567 18.4206 16.0174 19.5623C16.4678 20.704 17.2793 21.6671 18.3281 22.3047C16.2976 22.9221 14.5181 24.1733 13.25 25.875C13.2008 25.9407 13.1649 26.0154 13.1446 26.0949C13.1242 26.1744 13.1197 26.2571 13.1313 26.3384C13.1429 26.4196 13.1704 26.4978 13.2122 26.5684C13.254 26.6391 13.3093 26.7008 13.375 26.75C13.4407 26.7992 13.5154 26.8351 13.5949 26.8554C13.6744 26.8758 13.7571 26.8803 13.8384 26.8687C14.0025 26.8453 14.1505 26.7576 14.25 26.625C15.065 25.5383 16.1219 24.6563 17.3369 24.0488C18.5519 23.4413 19.8916 23.125 21.25 23.125C22.6084 23.125 23.9481 23.4413 25.1631 24.0488C26.3781 24.6563 27.435 25.5383 28.25 26.625C28.3495 26.7576 28.4975 26.8453 28.6616 26.8687C28.8257 26.8922 28.9924 26.8495 29.125 26.75C29.2576 26.6505 29.3453 26.5025 29.3687 26.3384C29.3922 26.1743 29.3495 26.0076 29.25 25.875C27.9816 24.1736 26.2022 22.9225 24.1719 22.3047ZM16.875 17.5C16.875 16.6347 17.1316 15.7888 17.6123 15.0694C18.0931 14.3499 18.7763 13.7892 19.5758 13.458C20.3752 13.1269 21.2549 13.0403 22.1035 13.2091C22.9522 13.3779 23.7317 13.7946 24.3436 14.4064C24.9554 15.0183 25.3721 15.7978 25.5409 16.6465C25.7097 17.4951 25.6231 18.3748 25.292 19.1742C24.9608 19.9737 24.4001 20.6569 23.6806 21.1377C22.9612 21.6184 22.1153 21.875 21.25 21.875C20.0897 21.875 18.9769 21.4141 18.1564 20.5936C17.3359 19.7731 16.875 18.6603 16.875 17.5ZM32.5 4.375H10C9.50272 4.375 9.02581 4.57254 8.67417 4.92417C8.32254 5.27581 8.125 5.75272 8.125 6.25V10.625H5C4.83424 10.625 4.67527 10.6908 4.55806 10.8081C4.44085 10.9253 4.375 11.0842 4.375 11.25C4.375 11.4158 4.44085 11.5747 4.55806 11.6919C4.67527 11.8092 4.83424 11.875 5 11.875H8.125V19.375H5C4.83424 19.375 4.67527 19.4408 4.55806 19.5581C4.44085 19.6753 4.375 19.8342 4.375 20C4.375 20.1658 4.44085 20.3247 4.55806 20.4419C4.67527 20.5592 4.83424 20.625 5 20.625H8.125V28.125H5C4.83424 28.125 4.67527 28.1908 4.55806 28.3081C4.44085 28.4253 4.375 28.5842 4.375 28.75C4.375 28.9158 4.44085 29.0747 4.55806 29.1919C4.67527 29.3092 4.83424 29.375 5 29.375H8.125V33.75C8.125 34.2473 8.32254 34.7242 8.67417 35.0758C9.02581 35.4275 9.50272 35.625 10 35.625H32.5C32.9973 35.625 33.4742 35.4275 33.8258 35.0758C34.1775 34.7242 34.375 34.2473 34.375 33.75V6.25C34.375 5.75272 34.1775 5.27581 33.8258 4.92417C33.4742 4.57254 32.9973 4.375 32.5 4.375ZM33.125 33.75C33.125 33.9158 33.0592 34.0747 32.9419 34.1919C32.8247 34.3092 32.6658 34.375 32.5 34.375H10C9.83424 34.375 9.67527 34.3092 9.55806 34.1919C9.44085 34.0747 9.375 33.9158 9.375 33.75V6.25C9.375 6.08424 9.44085 5.92527 9.55806 5.80806C9.67527 5.69085 9.83424 5.625 10 5.625H32.5C32.6658 5.625 32.8247 5.69085 32.9419 5.80806C33.0592 5.92527 33.125 6.08424 33.125 6.25V33.75Z" fill="white"/>
</svg>
