<svg
      width="104"
      height="104"
      viewBox="0 0 104 104"
      fill="none"
      xmlns="http://www.w3.org/2000/svg"
    >
      <circle cx="52" cy="52" r="52" fill="#E88385" />
      <path
        d="M61.3774 76.2232H25.8401C25.4201 76.2232 25 75.8871 25 75.383C25 74.879 25.3361 74.5429 25.8401 74.5429H61.3774C61.7975 74.5429 62.2175 74.879 62.2175 75.383C62.2175 75.8871 61.7975 76.2232 61.3774 76.2232Z"
        fill="white"
      />
      <path
        d="M61.3777 76.2232H30.9651C30.5451 76.2232 30.125 75.8871 30.125 75.3831V53.9599C30.125 53.5398 30.4611 53.1198 30.9651 53.1198C31.4692 53.1198 31.8053 53.4558 31.8053 53.9599V74.5429H61.3777C61.7977 74.5429 62.2178 74.879 62.2178 75.3831C62.2178 75.8871 61.7977 76.2232 61.3777 76.2232Z"
        fill="white"
      />
      <path
        d="M28.7806 55.6401C27.7724 55.6401 26.8483 55.3041 26.0922 54.548C25.4201 53.8759 25 52.8677 25 51.8596C25 50.9354 25.4201 50.0113 26.0082 49.2552L45.247 30.0163C47.9354 27.3279 52.2201 27.3279 54.9085 30.0163L63.1417 38.2495C63.4777 38.5856 63.4777 39.0897 63.1417 39.4257C62.8056 39.7618 62.3016 39.7618 61.9655 39.4257L53.7323 31.1925C51.716 29.1762 48.4395 29.1762 46.4232 31.1925L27.2683 50.3473C26.9323 50.7674 26.6803 51.3555 26.6803 51.8596C26.6803 52.2796 26.7643 52.8677 27.2683 53.3718C28.1085 54.2119 29.5367 54.2119 30.3768 53.3718L49.5317 34.2169C49.8677 33.8809 50.3718 33.8809 50.7078 34.2169L57.6809 41.19C58.0169 41.526 58.0169 42.0301 57.6809 42.3661C57.3448 42.7022 56.8407 42.7022 56.5047 42.3661L50.1197 35.9812L31.553 54.548C30.7969 55.3041 29.7887 55.6401 28.7806 55.6401Z"
        fill="white"
      />
      <path
        d="M52.6371 76.2232H40.7073C40.2873 76.2232 39.8672 75.8871 39.8672 75.383V60.0928C39.8672 58.7486 40.9594 57.5724 42.3876 57.5724H51.0409C52.3851 57.5724 53.4772 58.7486 53.4772 60.0928V75.383C53.4772 75.8031 53.0572 76.2232 52.6371 76.2232ZM41.5474 74.5429H51.797V60.0928C51.797 59.5887 51.3769 59.2526 51.0409 59.2526H42.3876C41.8835 59.2526 41.5474 59.6727 41.5474 60.0928V74.5429Z"
        fill="white"
      />
      <path
        d="M66.5861 76.1392C65.494 76.1392 64.4858 75.5511 63.8977 74.6269C60.9573 69.7542 54.3203 57.9925 54.3203 52.9517C54.3203 46.2307 59.7811 40.7699 66.5021 40.7699C73.2231 40.7699 78.768 46.2307 78.768 52.9517C78.768 56.4802 75.5755 63.7053 69.3586 74.6269C68.6865 75.5511 67.6783 76.1392 66.5861 76.1392ZM66.5021 42.4501C60.7053 42.4501 56.0006 47.1548 56.0006 52.9517C56.0006 57.6564 63.1416 70.0903 65.326 73.7868C65.578 74.2069 66.0821 74.5429 66.6702 74.5429C67.2582 74.5429 67.6783 74.2909 68.0144 73.7868C75.4915 60.5969 77.0877 55.136 77.0877 52.9517C77.0877 47.1548 72.383 42.4501 66.5021 42.4501Z"
        fill="white"
      />
      <path
        d="M66.5866 60.7649C62.302 60.7649 58.7734 57.2364 58.7734 52.9517C58.7734 48.6671 62.302 45.1385 66.5866 45.1385C70.8712 45.1385 74.3998 48.6671 74.3998 52.9517C74.3998 57.2364 70.8712 60.7649 66.5866 60.7649ZM66.5866 46.8188C63.2261 46.8188 60.4537 49.5912 60.4537 52.9517C60.4537 56.3122 63.2261 59.0846 66.5866 59.0846C69.9471 59.0846 72.7195 56.3122 72.7195 52.9517C72.7195 49.5912 69.9471 46.8188 66.5866 46.8188Z"
        fill="white"
      />
      <path
        d="M43.2308 68.41C42.8107 68.41 42.3906 68.0739 42.3906 67.5699V66.4777C42.3906 66.0576 42.7267 65.6376 43.2308 65.6376C43.7348 65.6376 44.0709 65.9736 44.0709 66.4777V67.5699C44.0709 67.9899 43.6508 68.41 43.2308 68.41Z"
        fill="white"
      />
    </svg>