<svg width="31" height="24" viewBox="0 0 31 24" fill="none" xmlns="http://www.w3.org/2000/svg">
<path fill-rule="evenodd" clip-rule="evenodd" d="M7.70618 6.84985C8.61452 6.84985 9.48567 6.48901 10.128 5.84672C10.7703 5.20442 11.1311 4.33327 11.1311 3.42493C11.1311 2.51658 10.7703 1.64544 10.128 1.00314C9.48567 0.360839 8.61452 0 7.70618 0C6.79783 0 5.92669 0.360839 5.28439 1.00314C4.64209 1.64544 4.28125 2.51658 4.28125 3.42493C4.28125 4.33327 4.64209 5.20442 5.28439 5.84672C5.92669 6.48901 6.79783 6.84985 7.70618 6.84985ZM7.70618 5.13739C8.16035 5.13739 8.59592 4.95697 8.91707 4.63582C9.23822 4.31467 9.41864 3.8791 9.41864 3.42493C9.41864 2.97075 9.23822 2.53518 8.91707 2.21403C8.59592 1.89288 8.16035 1.71246 7.70618 1.71246C7.252 1.71246 6.81643 1.89288 6.49528 2.21403C6.17413 2.53518 5.99371 2.97075 5.99371 3.42493C5.99371 3.8791 6.17413 4.31467 6.49528 4.63582C6.81643 4.95697 7.252 5.13739 7.70618 5.13739Z" fill="#455A64"/>
<path d="M10.5041 11.4752L5.62354 9.41858L10.5041 11.477V11.4752ZM10.5041 11.4752L10.6513 11.5378L10.5041 11.3151V11.4752Z" fill="#455A64"/>
<path fill-rule="evenodd" clip-rule="evenodd" d="M3.27076 8.55376C3.75282 8.18814 4.56538 7.70609 5.62454 7.70609H9.90228C11.0693 7.70609 11.9401 8.32086 12.3639 8.66335C12.8606 9.06493 13.2904 9.54784 13.6226 9.96054C14.1526 10.6164 14.6415 11.3605 14.9207 11.7826L14.9266 11.7912C14.9943 11.8939 15.0457 11.9727 15.0842 12.0292C15.2614 12.2904 15.3839 12.5738 15.4549 12.8632C15.5174 12.531 15.6484 12.2064 15.8531 11.9093C15.9379 11.7869 16.0397 11.6336 16.1588 11.4555L16.1682 11.4401C16.4935 10.9503 16.9328 10.2902 17.3669 9.74991C17.6751 9.36546 18.0793 8.91337 18.5682 8.5392C19.0331 8.18301 19.8251 7.70609 20.8612 7.70609H24.9959C26.1373 7.70609 26.9858 8.31401 27.3934 8.64709C27.8746 9.0401 28.289 9.51188 28.6101 9.91431C29.1213 10.5548 29.5947 11.2817 29.8628 11.6936L29.8662 11.6996L29.8687 11.703L29.8739 11.7107C29.9372 11.8074 29.9852 11.8819 30.0212 11.935C30.2789 12.3193 30.4247 12.7677 30.4423 13.2301C30.4599 13.6925 30.3486 14.1507 30.1209 14.5535C29.8931 14.9563 29.5579 15.2879 29.1526 15.5112C28.7473 15.7345 28.288 15.8407 27.8258 15.818C28.0724 16.7111 28.3095 17.5228 28.4808 18.0947C28.7497 18.9964 28.2094 19.9708 27.2547 20.1703C24.1637 20.8167 21.9769 20.7962 18.6547 20.1617C18.4277 20.1177 18.2125 20.0262 18.0233 19.8933C17.8341 19.7604 17.675 19.5891 17.5565 19.3906C17.4381 19.192 17.3628 18.9706 17.3358 18.741C17.3087 18.5114 17.3304 18.2786 17.3994 18.0579C17.5758 17.4902 17.8173 16.6948 18.0639 15.8163C17.5058 15.852 16.9519 15.6985 16.4918 15.3805C15.9903 15.0358 15.6326 14.5191 15.4866 13.9283C15.4262 14.2649 15.299 14.5859 15.1125 14.8725C14.926 15.1591 14.6841 15.4055 14.4009 15.5971C14.0899 15.8086 13.7361 15.9491 13.3647 16.0086C12.9933 16.0681 12.6133 16.0451 12.2518 15.9413L12.2569 15.9841L12.828 21.1215C12.903 21.7871 12.7151 22.4557 12.3043 22.9847C11.8934 23.5137 11.2922 23.8613 10.6288 23.9535C9.96536 24.0456 9.29218 23.8749 8.75276 23.4779C8.21333 23.0808 7.85034 22.4888 7.74115 21.8279L7.70604 21.6181L7.67179 21.8279C7.56706 22.4929 7.2055 23.0901 6.6649 23.4912C6.1243 23.8923 5.44786 24.0651 4.78112 23.9725C4.11439 23.88 3.51063 23.5294 3.09974 22.9962C2.68886 22.463 2.50368 21.7898 2.58406 21.1215L3.02759 17.1358L3.06955 15.991C2.56705 16.0909 2.04616 16.0382 1.57381 15.8398C1.10147 15.6414 0.699255 15.3062 0.418857 14.8774C0.138459 14.4486 -0.00731006 13.9458 0.000282178 13.4335C0.00787442 12.9213 0.168481 12.4229 0.461463 12.0027C0.545374 11.8811 0.646409 11.7321 0.763713 11.5574L0.787687 11.5223C1.12333 11.0214 1.57799 10.345 2.02751 9.79272C2.34774 9.39886 2.76644 8.93563 3.27076 8.55376ZM5.6254 9.41855C5.09625 9.41855 4.64587 9.66086 4.30509 9.91859C3.95746 10.1823 3.63894 10.5265 3.35724 10.8724C2.96508 11.3553 2.55324 11.9658 2.20818 12.4796L2.19619 12.4967C2.07717 12.6739 1.96415 12.8426 1.8674 12.9822C1.79888 13.0742 1.74955 13.179 1.72234 13.2904C1.69512 13.4019 1.69057 13.5176 1.70896 13.6309C1.72735 13.7441 1.7683 13.8525 1.82938 13.9496C1.89047 14.0466 1.97043 14.1305 2.06454 14.1961C2.15865 14.2616 2.26497 14.3077 2.3772 14.3314C2.48944 14.3551 2.60529 14.356 2.71788 14.334C2.83046 14.3121 2.9375 14.2678 3.03262 14.2036C3.12775 14.1395 3.20902 14.057 3.27162 13.9609L4.94641 11.5548L4.73748 17.2616L4.28711 21.3116C4.26408 21.5325 4.32779 21.7537 4.46478 21.9285C4.60178 22.1034 4.80135 22.2181 5.02135 22.2485C5.24136 22.279 5.46458 22.2227 5.64391 22.0917C5.82323 21.9607 5.94462 21.7651 5.98245 21.5462L6.83354 16.4414L7.71203 16.2461L8.58197 16.4499L9.43135 21.5462C9.46887 21.7654 9.59023 21.9615 9.76973 22.0928C9.94924 22.2241 10.1728 22.2804 10.3931 22.2498C10.6134 22.2192 10.8131 22.1041 10.9501 21.9289C11.087 21.7536 11.1503 21.5319 11.1267 21.3108L10.5556 16.1734C10.5509 16.1318 10.5431 16.0906 10.5325 16.0501L10.5051 15.943V11.4769L10.6532 11.5394L12.0745 13.6886L12.2509 13.9523C12.3784 14.1402 12.5754 14.2698 12.7984 14.3125C13.0214 14.3552 13.2523 14.3076 13.4402 14.1801C13.6281 14.0525 13.7577 13.8556 13.8004 13.6326C13.8431 13.4095 13.7955 13.1787 13.668 12.9907L13.5019 12.7407L10.6532 11.5394L10.6523 11.5377L13.5002 12.7382L13.4967 12.7339C13.215 12.3058 12.7647 11.6225 12.2912 11.0351C11.9923 10.6652 11.6507 10.2876 11.2894 9.99565C10.952 9.72337 10.4691 9.41855 9.90313 9.41855H5.6254ZM19.5683 9.8441C19.8988 9.59151 20.3406 9.35005 20.862 9.35005H24.9968C25.555 9.35005 26.0285 9.65401 26.3548 9.9203C26.7058 10.2071 27.0372 10.577 27.3257 10.9392C27.7847 11.5137 28.2205 12.1825 28.4928 12.6003L28.4953 12.6046C28.557 12.6988 28.6135 12.7853 28.658 12.8512C28.7844 13.0385 28.8312 13.2684 28.7881 13.4902C28.745 13.7121 28.6155 13.9077 28.4281 14.0341C28.2408 14.1604 28.0109 14.2072 27.7891 14.1641C27.5672 14.121 27.3716 13.9915 27.2453 13.8042C27.1367 13.6446 26.9754 13.5283 26.7897 13.4757C26.604 13.4231 26.4057 13.4375 26.2295 13.5165C26.0534 13.5954 25.9106 13.7338 25.8263 13.9074C25.742 14.081 25.7214 14.2788 25.7683 14.466C26.1595 16.021 26.6245 17.6213 26.9062 18.564C24.0592 19.1582 22.0967 19.1445 18.9689 18.5485L18.9698 18.546C19.4004 17.1685 19.7933 15.7794 20.1479 14.3804C20.1942 14.1934 20.1734 13.9961 20.089 13.8229C20.0046 13.6497 19.8621 13.5117 19.6863 13.4329C19.5106 13.3541 19.3127 13.3395 19.1273 13.3917C18.9418 13.4439 18.7806 13.5596 18.6718 13.7185L18.6102 13.8093C18.4812 13.9937 18.2845 14.1196 18.0631 14.1596C17.8416 14.1995 17.6134 14.1502 17.4282 14.0224C17.2429 13.8946 17.1158 13.6987 17.0745 13.4775C17.0332 13.2563 17.081 13.0278 17.2076 12.8418C17.301 12.7065 17.4106 12.5421 17.5253 12.3691L17.5296 12.3631C17.8644 11.8588 18.2659 11.256 18.6487 10.78C18.921 10.4409 19.2301 10.1035 19.5683 9.8441ZM23.1182 6.84985C24.0266 6.84985 24.8977 6.48901 25.54 5.84672C26.1823 5.20442 26.5431 4.33327 26.5431 3.42493C26.5431 2.51658 26.1823 1.64544 25.54 1.00314C24.8977 0.360839 24.0266 0 23.1182 0C22.2099 0 21.3387 0.360839 20.6964 1.00314C20.0541 1.64544 19.6933 2.51658 19.6933 3.42493C19.6933 4.33327 20.0541 5.20442 20.6964 5.84672C21.3387 6.48901 22.2099 6.84985 23.1182 6.84985ZM23.1182 5.13739C23.5724 5.13739 24.008 4.95697 24.3291 4.63582C24.6503 4.31467 24.8307 3.8791 24.8307 3.42493C24.8307 2.97075 24.6503 2.53518 24.3291 2.21403C24.008 1.89288 23.5724 1.71246 23.1182 1.71246C22.664 1.71246 22.2285 1.89288 21.9073 2.21403C21.5862 2.53518 21.4058 2.97075 21.4058 3.42493C21.4058 3.8791 21.5862 4.31467 21.9073 4.63582C22.2285 4.95697 22.664 5.13739 23.1182 5.13739Z" fill="#455A64"/>
<path d="M20.3782 23.9634C20.07 23.9219 19.7873 23.77 19.5826 23.5358C19.3778 23.3017 19.2651 23.0012 19.2651 22.6902V21.6319C20.2078 21.7535 21.1555 21.8318 22.1053 21.8665L21.7885 23.0284C21.7066 23.3285 21.5186 23.5886 21.2594 23.7606C21.0002 23.9326 20.6874 24.0046 20.3791 23.9634H20.3782ZM24.4479 23.0284L24.1294 21.8622C25.0798 21.8233 26.028 21.7424 26.9712 21.6199V22.6902C26.9712 23.0012 26.8583 23.3017 26.6534 23.5357C26.4486 23.7698 26.1658 23.9216 25.8575 23.9629C25.5492 24.0043 25.2364 23.9323 24.9772 23.7604C24.7179 23.5885 24.5299 23.3284 24.4479 23.0284Z" fill="#455A64"/>
</svg>
