<svg width="16" height="17" viewBox="0 0 16 17" fill="none" xmlns="http://www.w3.org/2000/svg">
<path d="M6.32386 0.207994C6.46646 0.0750809 6.66001 0.000265121 6.86193 0C7.06386 -0.000265121 7.25764 0.0740414 7.40064 0.206579L15.753 7.94479C15.8313 8.01716 15.8934 8.10321 15.9358 8.19798C15.9782 8.29275 16 8.39437 16 8.49701C16 8.59965 15.9782 8.70128 15.9358 8.79605C15.8934 8.89082 15.8313 8.97686 15.753 9.04924L7.40064 16.7846C7.33029 16.8521 7.24618 16.906 7.15322 16.9429C7.06025 16.9799 6.9603 16.9993 6.85919 17C6.75808 17.0007 6.65783 16.9826 6.5643 16.9469C6.47077 16.9112 6.38583 16.8585 6.31443 16.7919C6.24304 16.7254 6.18661 16.6462 6.14846 16.5592C6.1103 16.4721 6.09117 16.3789 6.09219 16.2849C6.09321 16.1909 6.11435 16.098 6.15439 16.0117C6.19443 15.9254 6.25255 15.8473 6.32538 15.7821L14.1919 8.49701L6.32538 1.20908C6.18241 1.0765 6.10194 0.896559 6.10165 0.708828C6.10137 0.521097 6.18129 0.340948 6.32386 0.207994ZM0.231703 0.207994C0.374307 0.0750809 0.567854 0.000265121 0.769782 0C0.971709 -0.000265121 1.16548 0.0740414 1.30849 0.206579L9.66083 7.94479C9.73912 8.01716 9.80124 8.10321 9.84363 8.19798C9.88602 8.29275 9.90785 8.39437 9.90785 8.49701C9.90785 8.59965 9.88602 8.70128 9.84363 8.79605C9.80124 8.89082 9.73912 8.97686 9.66083 9.04924L1.30849 16.7846C1.23814 16.8521 1.15403 16.906 1.06106 16.9429C0.968102 16.9799 0.868149 16.9993 0.767037 17C0.665926 17.0007 0.56568 16.9826 0.472151 16.9469C0.378621 16.9112 0.29368 16.8585 0.222282 16.7919C0.150885 16.7254 0.0944616 16.6462 0.0563042 16.5592C0.0181468 16.4721 -0.000980065 16.3789 3.86539e-05 16.2849C0.00105737 16.1909 0.0222012 16.098 0.0622376 16.0117C0.102274 15.9254 0.160401 15.8473 0.233226 15.7821L8.09972 8.49701L0.233226 1.20908C0.090261 1.0765 0.00978719 0.896559 0.00950158 0.708828C0.00921596 0.521097 0.0891421 0.340948 0.231703 0.207994Z" fill="#455A64"/>
</svg>
