<svg width="32" height="30" viewBox="0 0 32 30" fill="none" xmlns="http://www.w3.org/2000/svg">
<path d="M20.4218 0C19.6498 0 18.5015 0.498729 18.5015 1.87492V11.2495H6.64072L4.86128 9.16462C3.95748 8.10591 2.62994 7.49969 1.21919 7.49969C0.86586 7.49969 0.579102 7.77968 0.579102 8.12466C0.579102 8.46965 0.86586 8.74964 1.21919 8.74964C2.24973 8.74964 3.21882 9.19212 3.87683 9.96583L5.69979 12.102V13.1257C5.69979 16.2268 8.28446 18.7505 11.4606 18.7505H17.1343L12.6691 23.9827C12.2952 23.834 11.8881 23.7503 11.4606 23.7503C9.69649 23.7503 8.26014 25.1527 8.26014 26.8751C8.26014 28.5976 9.69649 30 11.4606 30C13.2246 30 14.661 28.5976 14.661 26.8751C14.661 26.0214 14.309 25.2477 13.738 24.6827L18.5015 19.1017L23.265 24.6827C22.6954 25.2477 22.342 26.0214 22.342 26.8751C22.342 28.5976 23.7784 30 25.5425 30C27.3065 30 28.7429 28.5976 28.7429 26.8751C28.7429 25.1527 27.3065 23.7503 25.5425 23.7503C25.1149 23.7503 24.7065 23.8328 24.334 23.9827L19.8687 18.7505H25.5425C28.7186 18.7505 31.3032 16.2268 31.3032 13.1257V11.8758C31.3032 0.134995 20.5306 0 20.4218 0ZM11.4606 28.7488C10.4019 28.7488 9.54031 27.9076 9.54031 26.8739C9.54031 25.8402 10.4019 24.999 11.4606 24.999C12.5193 24.999 13.3808 25.8402 13.3808 26.8739C13.3808 27.9076 12.5193 28.7488 11.4606 28.7488ZM27.4627 26.8739C27.4627 27.9076 26.6012 28.7488 25.5425 28.7488C24.4838 28.7488 23.6222 27.9076 23.6222 26.8739C23.6222 25.8402 24.4838 24.999 25.5425 24.999C26.6012 24.999 27.4627 25.8402 27.4627 26.8739ZM19.7817 1.87492C19.7817 1.37119 20.1337 1.25745 20.4205 1.24995C20.8045 1.24995 29.6518 1.39744 30.0115 11.2495H19.7817V1.87492ZM30.0231 13.1245C30.0231 15.5369 28.0132 17.4993 25.5425 17.4993H11.4606C8.98983 17.4993 6.97996 15.5369 6.97996 13.1245V12.4995H30.0231V13.1245Z" fill="#455A64"/>
</svg>
