<svg width="26" height="28" viewBox="0 0 26 28" fill="none" xmlns="http://www.w3.org/2000/svg">
<path d="M25.1315 4.34835C24.1305 3.35197 22.4499 3.25397 21.2444 4.10217L17.2758 6.65844C17.5653 6.05409 17.7284 5.37856 17.7284 4.66686C17.7284 2.09309 15.6082 0 13.001 0C10.3939 0 8.27365 2.09309 8.27365 4.66686C8.27365 5.37856 8.43674 6.05409 8.72629 6.65844L4.77775 4.11617C3.55572 3.25397 1.87159 3.35197 0.870567 4.34835C0.25128 4.96321 -0.0619095 5.80674 0.0101831 6.65961C0.0834575 7.51365 0.530195 8.29068 1.25585 8.80287L7.0918 12.5982V16.8742L4.41138 19.5203C3.61481 20.3067 3.34181 21.4501 3.69872 22.5094L4.9113 26.0049C5.31431 27.1973 6.4406 28 7.71463 28C8.20274 28 8.68966 27.8775 9.12694 27.6442C10.3667 26.9815 10.9434 25.4204 10.466 24.0052L9.8845 22.3648L12.4491 19.833H13.5506L16.1199 22.3694L15.5645 24.0133C15.0893 25.4192 15.6661 26.9815 16.9082 27.6453C17.3502 27.8798 17.8241 28 18.3193 28C19.5922 28 20.7185 27.1973 21.1215 26.0049L22.3033 22.5048C22.6591 21.4501 22.3849 20.3055 21.5895 19.5191L18.9091 16.873V12.597L24.7628 8.78887C25.4695 8.28951 25.9174 7.51248 25.9895 6.65844C26.0628 5.80558 25.7496 4.96204 25.1291 4.34718L25.1315 4.34835ZM13.001 1.16555C14.9558 1.16555 16.5466 2.73595 16.5466 4.66569C16.5466 6.59544 14.9558 8.16584 13.001 8.16584C11.0463 8.16584 9.45549 6.59544 9.45549 4.66569C9.45549 2.73595 11.0463 1.16555 13.001 1.16555ZM8.5242 22.0591L9.34913 24.382C9.64577 25.2594 9.30894 26.2208 8.56674 26.6174C7.61063 27.1308 6.37088 26.6326 6.03169 25.6304L4.81911 22.1349C4.6052 21.5014 4.76947 20.8154 5.24694 20.344L7.54445 18.0759L11.0533 19.5611L8.5242 22.0591ZM11.961 18.6663L8.27365 17.1145V15.1661H17.7284V17.1145L14.0411 18.6663H11.961ZM20.7539 20.344C21.2314 20.8154 21.3957 21.5014 21.1818 22.1349L19.9999 25.6351C19.6655 26.6303 18.4233 27.1273 17.4696 26.6186C16.7262 26.2208 16.3894 25.2594 16.686 24.382L17.472 22.0544L14.9463 19.5611L18.4552 18.0759L20.7539 20.344ZM24.8136 6.56161C24.7698 7.07496 24.5004 7.54165 24.095 7.82749L17.7284 11.9693V13.9994H8.27365V11.9693L1.92595 7.84033C1.50167 7.54165 1.23221 7.07613 1.18848 6.56161C1.14475 6.04242 1.32912 5.54773 1.7085 5.17088C2.30769 4.57469 3.33117 4.52919 4.11119 5.07988L9.53586 8.57302C10.2426 9.07004 11.0734 9.33256 11.9409 9.33256H14.06C14.9274 9.33256 15.7595 9.06888 16.4449 8.58586L21.9098 5.06471C22.6721 4.52686 23.6944 4.57352 24.2936 5.16972C24.6729 5.54656 24.8585 6.04242 24.8136 6.56161Z" fill="#455A64"/>
</svg>
