<svg width="22" height="21" viewBox="0 0 22 21" fill="none" xmlns="http://www.w3.org/2000/svg">
<path d="M20.9371 20.8248C21.5063 21.3651 22.3848 20.5312 21.8156 20.0027L17.1753 15.5863C18.803 13.8768 19.7028 11.6537 19.6996 9.34945C19.6996 4.19316 15.2821 0 9.84982 0C4.41757 0 0 4.19316 0 9.34945C0 14.5057 4.41757 18.6989 9.84982 18.6989C12.2999 18.6989 14.5644 17.8415 16.2968 16.4203L20.9371 20.8248ZM1.23618 9.34945C1.23618 4.83916 5.10928 1.17455 9.84858 1.17455C14.6003 1.17455 18.461 4.83916 18.461 9.34945C18.461 13.8597 14.6003 17.5243 9.84858 17.5243C5.10928 17.5243 1.23618 13.8597 1.23618 9.34945Z" fill="white"/>
</svg>
