<svg width="27" height="29" viewBox="0 0 27 29" fill="none" xmlns="http://www.w3.org/2000/svg">
<path d="M26 5.41177H1M23.5485 9.08824L22.8721 19.2353C22.6118 23.1382 22.4824 25.0897 21.2103 26.2794C19.9382 27.4706 17.9809 27.4706 14.0691 27.4706H12.9309C9.01912 27.4706 7.06176 27.4706 5.78971 26.2794C4.51765 25.0897 4.38676 23.1382 4.12794 19.2353L3.45147 9.08824" stroke="#467888" stroke-width="1.5" stroke-linecap="round"/>
<path d="M5.41016 5.41176H5.57192C6.16375 5.39664 6.73725 5.20327 7.2174 4.85693C7.69755 4.51059 8.062 4.02741 8.2631 3.47059L8.3131 3.31912L8.45574 2.89118C8.5778 2.525 8.63957 2.34265 8.72045 2.18676C8.87958 1.88146 9.10796 1.61763 9.38733 1.41641C9.66669 1.21519 9.98928 1.08215 10.3293 1.02794C10.5013 1 10.694 1 11.0793 1H15.9175C16.3028 1 16.4954 1 16.6675 1.02794C17.0075 1.08215 17.3301 1.21519 17.6095 1.41641C17.8888 1.61763 18.1172 1.88146 18.2763 2.18676C18.3572 2.34265 18.419 2.525 18.541 2.89118L18.6837 3.31912C18.87 3.93864 19.2555 4.47943 19.7803 4.85774C20.3051 5.23605 20.94 5.43078 21.5866 5.41176" stroke="#467888" stroke-width="1.5"/>
</svg>
