<svg width="216" height="216" viewBox="0 0 216 216" fill="none" xmlns="http://www.w3.org/2000/svg">
<g filter="url(#filter0_d_253_1236)">
<circle cx="108" cy="104" r="104" fill="#457888"/>
<path d="M120.772 144.046H110.772C109.348 144.046 108.195 145.198 108.195 146.62C108.195 148.042 109.348 149.194 110.772 149.194H120.772C122.315 149.194 123.571 150.448 123.571 151.989C123.571 153.531 122.316 154.785 120.772 154.785H93.852C89.8054 154.785 86 153.003 83.4122 149.896L76.9745 142.168C73.5202 138.021 68.4928 135.592 63.1136 135.438V120.233H72.6028C77.2825 120.233 81.7134 122.021 85.0798 125.266L98.9744 138.661C99.9567 139.608 100.003 141.194 99.0765 142.196C98.1326 143.217 96.5305 143.283 95.5049 142.344L84.5963 132.358C83.5475 131.397 81.917 131.468 80.9554 132.516C79.9935 133.564 80.0643 135.192 81.1136 136.152L92.0222 146.139C93.4934 147.486 95.3551 148.151 97.2122 148.151C99.2855 148.151 101.353 147.322 102.864 145.687C105.675 142.646 105.536 137.832 102.554 134.957L88.6597 121.563C84.3272 117.386 78.6248 115.085 72.6028 115.085H62.6131C61.6435 112.793 59.3694 111.181 56.7254 111.181H44.5941C43.1708 111.181 42.0168 112.333 42.0168 113.754V132.576C42.0168 133.998 43.1708 135.15 44.5941 135.15C46.0173 135.15 47.1713 133.998 47.1713 132.576V116.328H56.7257C57.4061 116.328 57.9595 116.881 57.9595 117.56V138.191C57.9595 138.87 57.4061 139.423 56.7257 139.423H54.049C52.6257 139.423 51.4718 140.575 51.4718 141.997C51.4718 143.419 52.6257 144.571 54.049 144.571H56.7254C59.4049 144.571 61.7027 142.914 62.65 140.573C66.6677 140.596 70.4409 142.373 73.0121 145.46L79.4499 153.188C83.0202 157.475 88.2694 159.933 93.852 159.933H120.772C125.157 159.933 128.725 156.369 128.725 151.989C128.725 147.609 125.157 144.046 120.772 144.046Z" fill="#FFE8AC"/>
<path d="M171.406 72.2811C169.982 72.2811 168.829 73.4333 168.829 74.8551V92.1087H159.274C158.594 92.1087 158.04 91.5558 158.04 90.8764V70.2459C158.04 69.5666 158.594 69.0137 159.274 69.0137H161.762C163.185 69.0137 164.339 67.8614 164.339 66.4397C164.339 65.0182 163.185 63.8658 161.762 63.8658H159.274C156.595 63.8658 154.297 65.5225 153.35 67.8638C149.332 67.8408 145.559 66.0639 142.987 62.9769L136.55 55.2488C132.98 50.9625 127.73 48.5042 122.147 48.5042H95.2278C90.8425 48.5042 87.2745 52.0674 87.2745 56.4471C87.2745 60.8269 90.8425 64.3901 95.2278 64.3901H106.236C107.659 64.3901 108.813 63.2379 108.813 61.8162C108.813 60.3944 107.659 59.2422 106.236 59.2422H95.2278C93.6844 59.2422 92.4287 57.9883 92.4287 56.4469C92.4287 54.9057 93.6841 53.6515 95.2278 53.6515H122.148C126.194 53.6515 130 55.4334 132.588 58.5405L139.025 66.2685C142.479 70.4156 147.507 72.8443 152.886 72.9983V88.2034H143.397C138.717 88.2034 134.286 86.4158 130.92 83.1703L117.025 69.7754C116.043 68.8283 115.997 67.2429 116.923 66.2407C117.867 65.2195 119.469 65.1531 120.495 66.0919L131.404 76.0788C132.453 77.0393 134.083 76.9687 135.045 75.9208C136.007 74.8728 135.936 73.2446 134.886 72.2842L123.978 62.2975C120.864 59.4471 116.001 59.6502 113.136 62.7496C110.325 65.7913 110.464 70.6045 113.446 73.4791L127.34 86.874C131.673 91.051 137.375 93.3513 143.397 93.3513H153.387C154.356 95.6434 156.63 97.2561 159.274 97.2561H171.406C172.829 97.2561 173.983 96.1039 173.983 94.6821V74.8545C173.983 73.4333 172.829 72.2811 171.406 72.2811Z" fill="#FFE8AC"/>
<path d="M125.227 136.047C124.641 134.751 123.118 134.173 121.822 134.758C120.517 135.326 119.92 136.843 120.488 138.146C120.91 139.115 121.858 139.693 122.852 139.693C123.196 139.693 123.545 139.624 123.88 139.478C123.891 139.473 123.925 139.458 123.935 139.454C125.232 138.868 125.813 137.342 125.227 136.047Z" fill="#FFE8AC"/>
<path d="M131.633 131.713C130.791 130.57 129.171 130.332 128.026 131.17C126.878 132.01 126.628 133.62 127.469 134.767C127.974 135.456 128.756 135.821 129.55 135.821C130.078 135.821 130.612 135.659 131.071 135.324C131.075 135.321 131.099 135.303 131.103 135.3C132.244 134.456 132.476 132.856 131.633 131.713Z" fill="#FFE8AC"/>
<path d="M118.022 138.936C117.729 137.55 116.366 136.662 114.977 136.949C113.589 137.224 112.682 138.567 112.948 139.957C113.184 141.19 114.264 142.048 115.476 142.048C115.636 142.048 115.8 142.033 115.963 142.002C115.98 141.998 116.022 141.99 116.039 141.986C117.431 141.691 118.317 140.327 118.022 138.936Z" fill="#FFE8AC"/>
<path d="M137.017 126.115C135.96 125.163 134.331 125.247 133.378 126.302C133.365 126.316 133.335 126.35 133.323 126.364C132.393 127.44 132.513 129.066 133.591 129.994C134.078 130.414 134.677 130.619 135.273 130.619C135.989 130.619 136.7 130.323 137.209 129.746C138.158 128.69 138.073 127.066 137.017 126.115ZM135.578 128.285L135.291 128.026L135.602 128.306L135.578 128.285Z" fill="#FFE8AC"/>
<path d="M143.577 112.166C142.215 111.753 140.774 112.529 140.361 113.89C139.942 115.248 140.706 116.689 142.066 117.107C142.319 117.184 142.574 117.221 142.825 117.221C143.926 117.221 144.946 116.51 145.287 115.404L145.298 115.368C145.711 114.008 144.939 112.578 143.577 112.166Z" fill="#FFE8AC"/>
<path d="M146.878 98.8812C146.872 98.8485 146.866 98.8158 146.859 98.7831C146.568 97.392 145.203 96.5021 143.811 96.7922C142.423 97.0811 141.531 98.4361 141.811 99.8216C142.047 101.05 143.125 101.909 144.338 101.909C144.489 101.909 144.642 101.896 144.795 101.869C146.196 101.618 147.129 100.281 146.878 98.8812Z" fill="#FFE8AC"/>
<path d="M144.514 104.466C143.101 104.341 141.846 105.388 141.721 106.804C141.718 106.829 141.715 106.879 141.713 106.904C141.63 108.323 142.714 109.542 144.135 109.625C144.186 109.628 144.237 109.63 144.288 109.63C145.63 109.63 146.758 108.593 146.856 107.244C146.974 105.833 145.928 104.591 144.514 104.466Z" fill="#FFE8AC"/>
<path d="M141.054 119.49C139.817 118.789 138.243 119.223 137.542 120.46L137.506 120.525C136.827 121.774 137.285 123.348 138.536 124.026C138.929 124.239 139.353 124.34 139.77 124.34C140.68 124.34 141.558 123.858 142.024 123.001L139.783 121.729L142.026 122.998C142.727 121.761 142.293 120.191 141.054 119.49Z" fill="#FFE8AC"/>
<path d="M94.3122 70.4705C93.6759 69.1988 92.1271 68.6832 90.8548 69.3193L90.8319 69.3306C89.5586 69.9664 89.0542 71.5066 89.6908 72.778C90.1416 73.6787 91.0551 74.1971 92.0021 74.1971C92.3923 74.1971 92.7882 74.1091 93.1596 73.9238C94.4329 73.2882 94.9486 71.7421 94.3122 70.4705Z" fill="#FFE8AC"/>
<path d="M101.768 68.3243C101.433 66.9433 100.042 66.0943 98.6562 66.4294C98.6443 66.4323 98.6077 66.4415 98.5959 66.4446C97.2174 66.7994 96.3826 68.2041 96.7375 69.5805C97.0373 70.742 98.0804 71.514 99.2271 71.514C99.4395 71.514 99.6555 71.4875 99.8709 71.4322C101.254 71.0973 102.104 69.7059 101.768 68.3243Z" fill="#FFE8AC"/>
<path d="M87.4978 74.1822C86.6065 73.0761 84.9838 72.9023 83.8749 73.7904L85.4727 75.8099L83.8672 73.7963C82.7537 74.6819 82.57 76.301 83.4564 77.4131C83.9657 78.0515 84.7165 78.3838 85.4745 78.3838C86.0369 78.3838 86.6037 78.2006 87.0782 77.8234L87.1122 77.7961C88.218 76.9042 88.3891 75.2884 87.4978 74.1822Z" fill="#FFE8AC"/>
<path d="M73.7564 92.4956C72.3832 92.1219 70.9666 92.9299 70.5921 94.3014C70.5856 94.3249 70.5733 94.3735 70.5673 94.3972C70.2323 95.7783 71.0818 97.1671 72.4644 97.5025C72.6685 97.5519 72.8726 97.5756 73.0737 97.5756C74.2299 97.5756 75.2805 96.792 75.5733 95.6241C75.9267 94.2628 75.1191 92.8668 73.7564 92.4956Z" fill="#FFE8AC"/>
<path d="M72.1146 100.058C70.6901 99.9794 69.475 101.06 69.3926 102.479C69.3905 102.512 69.3892 102.545 69.3882 102.578C69.3464 103.999 70.4653 105.182 71.8875 105.224C71.9138 105.225 71.9396 105.226 71.9656 105.226C73.3472 105.226 74.4887 104.131 74.5398 102.745C74.6042 101.34 73.5248 100.14 72.1146 100.058Z" fill="#FFE8AC"/>
<path d="M77.0001 85.4616C75.7394 84.8011 74.1819 85.2863 73.5207 86.5451L73.4787 86.628C72.8506 87.903 73.3774 89.4429 74.6538 90.0707C75.0193 90.2507 75.4067 90.3356 75.7889 90.3356C76.7354 90.3356 77.6465 89.8125 78.0981 88.9116C78.7398 87.6572 78.2522 86.1178 77.0001 85.4616Z" fill="#FFE8AC"/>
<path d="M81.6544 79.2689C80.5592 78.3609 78.9344 78.5115 78.0253 79.605C78.0129 79.6202 77.9846 79.6552 77.9722 79.6704C77.0887 80.7843 77.2776 82.4004 78.3923 83.2833C78.8656 83.6584 79.43 83.8401 79.9909 83.8401C80.7469 83.8401 81.4964 83.5096 82.0054 82.8758C82.8983 81.7826 82.7436 80.1721 81.6544 79.2689Z" fill="#FFE8AC"/>
<path d="M75.0271 109.889C74.7763 108.489 73.4363 107.558 72.036 107.809C70.6349 108.06 69.7026 109.397 69.9534 110.796L69.958 110.822C70.1812 112.066 71.263 112.93 72.485 112.93C72.6373 112.93 72.7917 112.917 72.9468 112.889C74.3479 112.638 75.2782 111.288 75.0271 109.889Z" fill="#FFE8AC"/>
<path d="M116.849 90.3498C113.494 90.3498 110.386 91.7314 108.171 94.0628C105.956 91.7314 102.848 90.3498 99.4938 90.3498C92.8947 90.3498 87.5261 95.7116 87.5261 102.302C87.5261 105.859 89.0965 109.206 91.8343 111.485C91.8508 111.499 91.8678 111.513 91.8848 111.527L106.571 123.139C107.04 123.51 107.606 123.695 108.171 123.695C108.739 123.695 109.307 123.508 109.777 123.134L125.086 110.956C125.161 110.896 125.232 110.833 125.3 110.765C127.568 108.506 128.817 105.501 128.817 102.302C128.817 95.7116 123.448 90.3498 116.849 90.3498ZM121.753 107.026L108.167 117.835L95.1118 107.513C93.5664 106.214 92.6805 104.317 92.6805 102.303C92.6802 98.5504 95.7368 95.4977 99.4938 95.4977C102.26 95.4977 104.731 97.1475 105.791 99.7006C106.19 100.662 107.129 101.289 108.171 101.289C109.213 101.289 110.153 100.662 110.552 99.7006C111.611 97.1475 114.083 95.4977 116.849 95.4977C120.606 95.4977 123.662 98.5504 123.662 102.303C123.662 104.079 122.985 105.752 121.753 107.026Z" fill="#FFE8AC"/>
<path d="M44.594 144.562C46.0124 144.562 47.1622 143.414 47.1622 141.997C47.1622 140.581 46.0124 139.432 44.594 139.432C43.1757 139.432 42.0258 140.581 42.0258 141.997C42.0258 143.414 43.1757 144.562 44.594 144.562Z" fill="#FFE8AC"/>
<path d="M171.406 69.0041C172.824 69.0041 173.974 67.8558 173.974 66.4392C173.974 65.0226 172.824 63.8742 171.406 63.8742C169.987 63.8742 168.837 65.0226 168.837 66.4392C168.837 67.8558 169.987 69.0041 171.406 69.0041Z" fill="#FFE8AC"/>
</g>
<defs>
<filter id="filter0_d_253_1236" x="0" y="0" width="216" height="216" filterUnits="userSpaceOnUse" color-interpolation-filters="sRGB">
<feFlood flood-opacity="0" result="BackgroundImageFix"/>
<feColorMatrix in="SourceAlpha" type="matrix" values="0 0 0 0 0 0 0 0 0 0 0 0 0 0 0 0 0 0 127 0" result="hardAlpha"/>
<feOffset dy="4"/>
<feGaussianBlur stdDeviation="2"/>
<feComposite in2="hardAlpha" operator="out"/>
<feColorMatrix type="matrix" values="0 0 0 0 0 0 0 0 0 0 0 0 0 0 0 0 0 0 0.25 0"/>
<feBlend mode="normal" in2="BackgroundImageFix" result="effect1_dropShadow_253_1236"/>
<feBlend mode="normal" in="SourceGraphic" in2="effect1_dropShadow_253_1236" result="shape"/>
</filter>
</defs>
</svg>
