<svg width="44" height="44" viewBox="0 0 44 44" fill="none" xmlns="http://www.w3.org/2000/svg">
<g filter="url(#filter0_d_1172_2590)">
<path d="M35.6431 10.3159C36.3968 8.74185 36.29 6.835 34.9962 5.5412L34.4575 5.00259C33.1638 3.7088 31.2056 3.50296 29.6829 4.3557C28.6112 4.95587 26.3433 3.70794 26.1754 2.89962C25.8228 1.20207 24.1846 0 22.3669 0L21.4414 0.0470143C19.313 0.155154 17.6428 1.91239 17.6428 4.04352C17.7155 4.96782 16.1316 5.65179 15.2115 5.05047C13.6325 3.47142 11.0723 3.47142 9.49325 5.05047L9.0504 5.49333C7.69634 6.84745 7.53903 8.90161 8.4719 10.4828C9.11181 11.5675 8.48781 13.4875 7.43651 13.746C5.52354 14.2163 4 15.6234 4 17.6968V18.3662C4 20.2024 5.33757 21.5724 7.00143 22.1627C8.72778 22.7751 8.59163 25.3074 8.41466 25.6109C7.51174 27.159 7.72363 29.1785 9.05047 30.5054L9.49333 30.9482C10.8135 32.2683 12.7851 32.4222 14.3645 31.5975C15.4956 31.0068 17.6076 32.1108 17.7827 33.0134C18.1222 34.7624 19.8193 35.9987 21.6864 35.9987H22.2625C24.0928 35.9987 25.6426 34.7975 26.1663 33.1403C26.5089 32.0566 28.1672 30.9589 29.8168 31.6528C31.3861 32.3131 33.3191 32.1344 34.5455 30.9081L34.9483 30.5054C36.5273 28.9263 36.5273 26.3661 34.9483 24.7872C34.239 24.1432 35.151 22.3672 35.9552 22.3559C38.1884 22.3559 39.9988 20.5455 39.9988 18.3124V17.6201C39.9988 15.7607 38.7644 14.1021 37.0271 13.7203C35.8588 13.4635 35.2649 11.1056 35.6431 10.3159Z" fill="#45C9A5"/>
</g>
<path d="M18.8483 23.4947L14.1562 18.8025C13.5938 18.2402 13.5938 17.3285 14.1562 16.7662C14.7185 16.2038 15.6302 16.2038 16.1925 16.7662L19.8665 20.4401L27.803 12.5036C28.3654 11.9412 29.2771 11.9412 29.8394 12.5036C30.4017 13.0659 30.4018 13.9776 29.8394 14.5399L20.8847 23.4947C20.2939 23.9989 19.2379 23.9269 18.8483 23.4947Z" fill="white"/>
<defs>
<filter id="filter0_d_1172_2590" x="0" y="0" width="44" height="43.9987" filterUnits="userSpaceOnUse" color-interpolation-filters="sRGB">
<feFlood flood-opacity="0" result="BackgroundImageFix"/>
<feColorMatrix in="SourceAlpha" type="matrix" values="0 0 0 0 0 0 0 0 0 0 0 0 0 0 0 0 0 0 127 0" result="hardAlpha"/>
<feOffset dy="4"/>
<feGaussianBlur stdDeviation="2"/>
<feComposite in2="hardAlpha" operator="out"/>
<feColorMatrix type="matrix" values="0 0 0 0 0 0 0 0 0 0 0 0 0 0 0 0 0 0 0.25 0"/>
<feBlend mode="normal" in2="BackgroundImageFix" result="effect1_dropShadow_1172_2590"/>
<feBlend mode="normal" in="SourceGraphic" in2="effect1_dropShadow_1172_2590" result="shape"/>
</filter>
</defs>
</svg>
