<svg width="18" height="18" viewBox="0 0 18 18" fill="none" xmlns="http://www.w3.org/2000/svg">
<path d="M9 18C4.02353 18 0 13.9765 0 9C0 4.02353 4.02353 0 9 0C13.9765 0 18 4.02353 18 9C18 13.9765 13.9765 18 9 18ZM9 1.05882C4.60588 1.05882 1.05882 4.60588 1.05882 9C1.05882 13.3941 4.60588 16.9412 9 16.9412C13.3941 16.9412 16.9412 13.3941 16.9412 9C16.9412 4.60588 13.3941 1.05882 9 1.05882Z" fill="#F74D4D"/>
<path d="M8.46875 12.7059H9.52757V13.7648H8.46875V12.7059ZM9.31581 11.6471H8.68051L8.46875 7.41182V4.23535H9.52757V7.41182L9.31581 11.6471Z" fill="#F74D4D"/>
</svg>
