<svg width="20" height="20" viewBox="0 0 20 20" fill="none" xmlns="http://www.w3.org/2000/svg">
<path d="M9.99728 3.26091C10.2364 3.26091 10.4321 3.06525 10.4321 2.82612V2.60873C10.4321 2.3696 10.2364 2.17395 9.99728 2.17395C9.75815 2.17395 9.5625 2.3696 9.5625 2.60873V2.82612C9.5625 3.06525 9.75815 3.26091 9.99728 3.26091Z" fill="#C7C7C7"/>
<path d="M9.99728 16.739C9.75815 16.739 9.5625 16.9347 9.5625 17.1738V17.3912C9.5625 17.6303 9.75815 17.826 9.99728 17.826C10.2364 17.826 10.4321 17.6303 10.4321 17.3912V17.1738C10.4321 16.9347 10.2364 16.739 9.99728 16.739Z" fill="#C7C7C7"/>
<path d="M2.82405 9.56506H2.60666C2.36753 9.56506 2.17188 9.76072 2.17188 9.99985C2.17188 10.239 2.36753 10.4346 2.60666 10.4346H2.82405C3.06318 10.4346 3.25883 10.239 3.25883 9.99985C3.25883 9.76072 3.06318 9.56506 2.82405 9.56506Z" fill="#C7C7C7"/>
<path d="M17.3905 9.56506H17.1731C16.9339 9.56506 16.7383 9.76072 16.7383 9.99985C16.7383 10.239 16.9339 10.4346 17.1731 10.4346H17.3905C17.6296 10.4346 17.8252 10.239 17.8252 9.99985C17.8252 9.76072 17.6296 9.56506 17.3905 9.56506Z" fill="#C7C7C7"/>
<path d="M5.08679 4.4784C4.91287 4.30448 4.652 4.30448 4.47809 4.4784C4.30418 4.65231 4.30418 4.91318 4.47809 5.08709L4.63026 5.23927C4.71722 5.32622 4.82592 5.3697 4.93461 5.3697C5.04331 5.3697 5.152 5.32622 5.23896 5.23927C5.41287 5.06535 5.41287 4.80448 5.23896 4.63057L5.08679 4.4784Z" fill="#C7C7C7"/>
<path d="M4.63026 14.7609L4.47809 14.913C4.30418 15.087 4.30418 15.3478 4.47809 15.5217C4.56505 15.6087 4.67374 15.6522 4.78244 15.6522C4.89113 15.6522 4.99983 15.6087 5.08679 15.5217L5.23896 15.3696C5.41287 15.1956 5.41287 14.9348 5.23896 14.7609C5.06505 14.587 4.80418 14.587 4.63026 14.7609Z" fill="#C7C7C7"/>
<path d="M14.9115 4.4784L14.7593 4.63057C14.5854 4.80448 14.5854 5.06535 14.7593 5.23927C14.8463 5.32622 14.955 5.3697 15.0637 5.3697C15.1724 5.3697 15.2811 5.32622 15.368 5.23927L15.5202 5.08709C15.6941 4.91318 15.6941 4.65231 15.5202 4.4784C15.3463 4.30448 15.0854 4.30448 14.9115 4.4784Z" fill="#C7C7C7"/>
<path d="M10.4321 9.82624V5.86972C10.4321 5.63059 10.2364 5.43494 9.99728 5.43494C9.75815 5.43494 9.5625 5.63059 9.5625 5.86972V10.0002C9.5625 10.1088 9.60598 10.2175 9.69293 10.3045L14.4538 15.0654C14.5408 15.1523 14.6495 15.1958 14.7582 15.1958C14.8668 15.1958 14.9755 15.1523 15.0625 15.0654C15.2364 14.8915 15.2364 14.6306 15.0625 14.4567L10.4321 9.82624Z" fill="#C7C7C7"/>
<path d="M10 0C4.47826 0 0 4.47826 0 10C0 15.5217 4.47826 20 10 20C15.5217 20 20 15.5217 20 10C20 4.47826 15.5217 0 10 0ZM10 19.1304C4.95652 19.1304 0.869565 15.0435 0.869565 10C0.869565 4.95652 4.95652 0.869565 10 0.869565C15.0435 0.869565 19.1304 4.95652 19.1304 10C19.1304 15.0435 15.0435 19.1304 10 19.1304Z" fill="#C7C7C7"/>
</svg>
