<svg width="35" height="26" viewBox="0 0 35 26" fill="none" xmlns="http://www.w3.org/2000/svg">
<path d="M0.835938 5.70833C0.835938 4.327 1.38467 3.00224 2.36142 2.02549C3.33817 1.04873 4.66293 0.5 6.04427 0.5H28.9609C30.3423 0.5 31.667 1.04873 32.6438 2.02549C33.6205 3.00224 34.1693 4.327 34.1693 5.70833V20.2917C34.1693 21.673 33.6205 22.9978 32.6438 23.9745C31.667 24.9513 30.3423 25.5 28.9609 25.5H6.04427C4.66293 25.5 3.33817 24.9513 2.36142 23.9745C1.38467 22.9978 0.835938 21.673 0.835938 20.2917V5.70833ZM6.04427 2.58333C5.21547 2.58333 4.42061 2.91257 3.83456 3.49862C3.24851 4.08468 2.91927 4.87953 2.91927 5.70833V8.41667H32.0859V5.70833C32.0859 4.87953 31.7567 4.08468 31.1706 3.49862C30.5846 2.91257 29.7897 2.58333 28.9609 2.58333H6.04427ZM2.91927 20.2917C2.91927 21.1205 3.24851 21.9153 3.83456 22.5014C4.42061 23.0874 5.21547 23.4167 6.04427 23.4167H28.9609C29.7897 23.4167 30.5846 23.0874 31.1706 22.5014C31.7567 21.9153 32.0859 21.1205 32.0859 20.2917V10.5H2.91927V20.2917ZM23.5443 17.5833C23.268 17.5833 23.003 17.6931 22.8077 17.8884C22.6124 18.0838 22.5026 18.3487 22.5026 18.625C22.5026 18.9013 22.6124 19.1662 22.8077 19.3616C23.003 19.5569 23.268 19.6667 23.5443 19.6667H28.1276C28.4039 19.6667 28.6688 19.5569 28.8642 19.3616C29.0595 19.1662 29.1693 18.9013 29.1693 18.625C29.1693 18.3487 29.0595 18.0838 28.8642 17.8884C28.6688 17.6931 28.4039 17.5833 28.1276 17.5833H23.5443Z" fill="white"/>
</svg>
