<svg width="17" height="16" viewBox="0 0 17 16" fill="none" xmlns="http://www.w3.org/2000/svg">
<path d="M16.792 6.32386C16.9249 6.46646 16.9997 6.66001 17 6.86193C17.0003 7.06386 16.926 7.25764 16.7934 7.40064L9.05521 15.753C8.98284 15.8313 8.89679 15.8934 8.80202 15.9358C8.70725 15.9782 8.60563 16 8.50299 16C8.40035 16 8.29872 15.9782 8.20395 15.9358C8.10918 15.8934 8.02314 15.8313 7.95076 15.753L0.215388 7.40064C0.147868 7.33029 0.0940489 7.24618 0.0570717 7.15322C0.0200946 7.06025 0.000699768 6.9603 1.8589e-05 6.85919C-0.00066259 6.75808 0.0173836 6.65783 0.0531044 6.5643C0.0888252 6.47077 0.141505 6.38583 0.208071 6.31443C0.274636 6.24304 0.353754 6.18661 0.440809 6.14846C0.527864 6.1103 0.621111 6.09117 0.715111 6.09219C0.809112 6.09321 0.901982 6.11435 0.988305 6.15439C1.07463 6.19443 1.15267 6.25255 1.21789 6.32538L8.50299 14.1919L15.7909 6.32538C15.9235 6.18241 16.1034 6.10194 16.2912 6.10165C16.4789 6.10137 16.6591 6.18129 16.792 6.32386ZM16.792 0.231703C16.9249 0.374307 16.9997 0.567854 17 0.769782C17.0003 0.971709 16.926 1.16548 16.7934 1.30849L9.05521 9.66083C8.98284 9.73912 8.89679 9.80124 8.80202 9.84363C8.70725 9.88602 8.60563 9.90785 8.50299 9.90785C8.40035 9.90785 8.29872 9.88602 8.20395 9.84363C8.10918 9.80124 8.02314 9.73912 7.95076 9.66083L0.215388 1.30849C0.147868 1.23814 0.0940489 1.15403 0.0570717 1.06106C0.0200946 0.968102 0.000699768 0.868149 1.8589e-05 0.767037C-0.00066259 0.665926 0.0173836 0.56568 0.0531044 0.472151C0.0888252 0.378621 0.141505 0.29368 0.208071 0.222282C0.274636 0.150885 0.353754 0.0944616 0.440809 0.0563042C0.527864 0.0181468 0.621111 -0.000980065 0.715111 3.86539e-05C0.809112 0.00105737 0.901982 0.0222012 0.988305 0.0622376C1.07463 0.102274 1.15267 0.160401 1.21789 0.233226L8.50299 8.09972L15.7909 0.233226C15.9235 0.090261 16.1034 0.00978719 16.2912 0.00950158C16.4789 0.00921596 16.6591 0.0891421 16.792 0.231703Z" fill="#2D83AC"/>
</svg>
