<svg width="24" height="24" viewBox="0 0 24 24" fill="currentColor" xmlns="http://www.w3.org/2000/svg">
<path d="M7.68 12.96C7.49013 12.96 7.30453 12.9037 7.14666 12.7982C6.98879 12.6927 6.86574 12.5428 6.79308 12.3674C6.72042 12.192 6.70141 11.9989 6.73845 11.8127C6.77549 11.6265 6.86692 11.4554 7.00118 11.3212C7.13544 11.1869 7.3065 11.0955 7.49272 11.0584C7.67894 11.0214 7.87196 11.0404 8.04738 11.1131C8.2228 11.1857 8.37273 11.3088 8.47821 11.4667C8.5837 11.6245 8.64 11.8101 8.64 12C8.64 12.2546 8.53886 12.4988 8.35883 12.6788C8.17879 12.8589 7.93461 12.96 7.68 12.96ZM16.32 11.04C16.1301 11.04 15.9445 11.0963 15.7867 11.2018C15.6288 11.3073 15.5057 11.4572 15.4331 11.6326C15.3604 11.808 15.3414 12.0011 15.3784 12.1873C15.4155 12.3735 15.5069 12.5446 15.6412 12.6788C15.7754 12.8131 15.9465 12.9045 16.1327 12.9416C16.3189 12.9786 16.512 12.9596 16.6874 12.8869C16.8628 12.8143 17.0127 12.6912 17.1182 12.5333C17.2237 12.3755 17.28 12.1899 17.28 12C17.28 11.7454 17.1789 11.5012 16.9988 11.3212C16.8188 11.1411 16.5746 11.04 16.32 11.04ZM15.1044 16.3944C14.1726 16.9737 13.0972 17.2807 12 17.2807C10.9028 17.2807 9.82744 16.9737 8.8956 16.3944C8.78825 16.3339 8.66176 16.317 8.5423 16.3472C8.42284 16.3774 8.31958 16.4524 8.25388 16.5567C8.18819 16.6609 8.1651 16.7864 8.1894 16.9072C8.2137 17.028 8.28352 17.1349 8.3844 17.2056C9.46936 17.8812 10.7219 18.2393 12 18.2393C13.2781 18.2393 14.5307 17.8812 15.6156 17.2056C15.6723 17.1737 15.7218 17.1306 15.7613 17.0789C15.8008 17.0273 15.8294 16.9681 15.8453 16.9051C15.8613 16.8421 15.8642 16.7764 15.854 16.7122C15.8439 16.648 15.8207 16.5865 15.7861 16.5315C15.7514 16.4765 15.7059 16.4291 15.6524 16.3922C15.5988 16.3553 15.5384 16.3297 15.4746 16.3168C15.4109 16.304 15.3452 16.3043 15.2816 16.3176C15.2179 16.3309 15.1576 16.3571 15.1044 16.3944ZM24 12C24 14.3734 23.2962 16.6934 21.9776 18.6668C20.6591 20.6402 18.7849 22.1783 16.5922 23.0865C14.3995 23.9948 11.9867 24.2324 9.65892 23.7694C7.33115 23.3064 5.19295 22.1635 3.51472 20.4853C1.83649 18.807 0.693605 16.6689 0.230582 14.3411C-0.232441 12.0133 0.00519922 9.60051 0.913451 7.4078C1.8217 5.21508 3.35977 3.34094 5.33316 2.02236C7.30655 0.703788 9.62663 0 12 0C15.1815 0.00349392 18.2317 1.2689 20.4814 3.51858C22.7311 5.76826 23.9965 8.81847 24 12ZM23.04 12C23.0373 9.11292 21.905 6.3415 19.8854 4.27839C17.8658 2.21528 15.1192 1.02425 12.2328 0.96C10.5912 3.1284 10.56 5.2596 10.56 5.28C10.56 5.66191 10.7117 6.02818 10.9818 6.29823C11.2518 6.56828 11.6181 6.72 12 6.72C12.3819 6.72 12.7482 6.56828 13.0182 6.29823C13.2883 6.02818 13.44 5.66191 13.44 5.28C13.44 5.1527 13.4906 5.0306 13.5806 4.94059C13.6706 4.85057 13.7927 4.8 13.92 4.8C14.0473 4.8 14.1694 4.85057 14.2594 4.94059C14.3494 5.0306 14.4 5.1527 14.4 5.28C14.4 5.91652 14.1471 6.52697 13.6971 6.97705C13.247 7.42714 12.6365 7.68 12 7.68C11.3635 7.68 10.753 7.42714 10.3029 6.97705C9.85286 6.52697 9.6 5.91652 9.6 5.28C9.6 5.1864 9.6192 3.2028 11.04 1.0032C8.90547 1.18952 6.87128 1.99295 5.18552 3.31551C3.49976 4.63806 2.23529 6.42259 1.54632 8.45145C0.857345 10.4803 0.773649 12.6658 1.30544 14.7414C1.83722 16.817 2.96151 18.693 4.54118 20.1406C6.12086 21.5883 8.08764 22.5449 10.2017 22.8939C12.3157 23.2429 14.4856 22.9693 16.4468 22.1062C18.4079 21.2432 20.0756 19.8281 21.2463 18.0336C22.417 16.2391 23.0403 14.1426 23.04 12Z" fill="#C7C7C7"/>
</svg>
