<svg width="56" height="56" viewBox="0 0 56 56" fill="none" xmlns="http://www.w3.org/2000/svg">
<path d="M27.9986 9.13051C28.6682 9.13051 29.216 8.58269 29.216 7.91312V7.30443C29.216 6.63486 28.6682 6.08704 27.9986 6.08704C27.3291 6.08704 26.7812 6.63486 26.7812 7.30443V7.91312C26.7812 8.58269 27.3291 9.13051 27.9986 9.13051Z" fill="#467888"/>
<path d="M27.9986 46.8696C27.3291 46.8696 26.7812 47.4175 26.7812 48.087V48.6957C26.7812 49.3653 27.3291 49.9131 27.9986 49.9131C28.6682 49.9131 29.216 49.3653 29.216 48.6957V48.087C29.216 47.4175 28.6682 46.8696 27.9986 46.8696Z" fill="#467888"/>
<path d="M7.91202 26.7826H7.30333C6.63376 26.7826 6.08594 27.3304 6.08594 28C6.08594 28.6695 6.63376 29.2174 7.30333 29.2174H7.91202C8.58159 29.2174 9.12942 28.6695 9.12942 28C9.12942 27.3304 8.58159 26.7826 7.91202 26.7826Z" fill="#467888"/>
<path d="M48.6933 26.7826H48.0846C47.415 26.7826 46.8672 27.3304 46.8672 28C46.8672 28.6695 47.415 29.2174 48.0846 29.2174H48.6933C49.3628 29.2174 49.9107 28.6695 49.9107 28C49.9107 27.3304 49.3628 26.7826 48.6933 26.7826Z" fill="#467888"/>
<path d="M14.2414 12.5392C13.7545 12.0522 13.024 12.0522 12.5371 12.5392C12.0501 13.0261 12.0501 13.7566 12.5371 14.2435L12.9632 14.6696C13.2067 14.9131 13.511 15.0348 13.8154 15.0348C14.1197 15.0348 14.424 14.9131 14.6675 14.6696C15.1545 14.1826 15.1545 13.4522 14.6675 12.9653L14.2414 12.5392Z" fill="#467888"/>
<path d="M12.9632 41.3304L12.5371 41.7565C12.0501 42.2435 12.0501 42.9739 12.5371 43.4609C12.7806 43.7043 13.0849 43.8261 13.3893 43.8261C13.6936 43.8261 13.998 43.7043 14.2414 43.4609L14.6675 43.0348C15.1545 42.5478 15.1545 41.8174 14.6675 41.3304C14.1806 40.8435 13.4501 40.8435 12.9632 41.3304Z" fill="#467888"/>
<path d="M41.7601 12.5392L41.334 12.9653C40.847 13.4522 40.847 14.1826 41.334 14.6696C41.5774 14.9131 41.8818 15.0348 42.1861 15.0348C42.4905 15.0348 42.7948 14.9131 43.0383 14.6696L43.4644 14.2435C43.9514 13.7566 43.9514 13.0261 43.4644 12.5392C42.9774 12.0522 42.247 12.0522 41.7601 12.5392Z" fill="#467888"/>
<path d="M29.216 27.5131V16.4348C29.216 15.7652 28.6682 15.2174 27.9986 15.2174C27.3291 15.2174 26.7812 15.7652 26.7812 16.4348V28C26.7812 28.3044 26.903 28.6087 27.1465 28.8522L40.4769 42.1826C40.7204 42.4261 41.0247 42.5478 41.3291 42.5478C41.6334 42.5478 41.9378 42.4261 42.1813 42.1826C42.6682 41.6957 42.6682 40.9652 42.1813 40.4783L29.216 27.5131Z" fill="#467888"/>
<path d="M28 0C12.5391 0 0 12.5391 0 28C0 43.4609 12.5391 56 28 56C43.4609 56 56 43.4609 56 28C56 12.5391 43.4609 0 28 0ZM28 53.5652C13.8783 53.5652 2.43478 42.1217 2.43478 28C2.43478 13.8783 13.8783 2.43478 28 2.43478C42.1217 2.43478 53.5652 13.8783 53.5652 28C53.5652 42.1217 42.1217 53.5652 28 53.5652Z" fill="#467888"/>
</svg>
