<svg width="58" height="58" viewBox="0 0 58 58" fill="none" xmlns="http://www.w3.org/2000/svg">
<path d="M28.9943 10.2885C25.1093 10.2885 21.3116 11.4405 18.0814 13.5988C14.8512 15.7572 12.3335 18.825 10.8468 22.4142C9.36007 26.0035 8.97108 29.953 9.729 33.7633C10.4869 37.5736 12.3577 41.0736 15.1048 43.8207C17.8519 46.5678 21.3519 48.4385 25.1622 49.1965C28.9725 49.9544 32.922 49.5654 36.5112 48.0787C40.1005 46.592 43.1682 44.0743 45.3266 40.8441C47.485 37.6138 48.637 33.8161 48.637 29.9312C48.6313 24.7233 46.56 19.7305 42.8775 16.048C39.195 12.3655 34.2021 10.2941 28.9943 10.2885ZM28.9943 47.7032C25.4793 47.7032 22.0433 46.6608 19.1207 44.708C16.1981 42.7552 13.9202 39.9796 12.5751 36.7322C11.23 33.4848 10.8781 29.9115 11.5638 26.464C12.2495 23.0166 13.9421 19.8499 16.4276 17.3645C18.9131 14.879 22.0797 13.1864 25.5271 12.5007C28.9746 11.8149 32.5479 12.1669 35.7953 13.512C39.0427 14.8571 41.8183 17.135 43.7712 20.0576C45.724 22.9802 46.7663 26.4162 46.7663 29.9312C46.7611 34.643 44.887 39.1604 41.5552 42.4921C38.2235 45.8239 33.7061 47.698 28.9943 47.7032Z" fill="#467888"/>
<path d="M30.205 9.07898L31.5276 7.75637L30.3612 6.58997C36.3136 6.94471 41.9064 9.55745 45.9982 13.895C50.09 18.2326 52.3724 23.9681 52.3797 29.9311H54.2505C54.2428 23.4587 51.7535 17.2355 47.2952 12.5434C42.8369 7.8512 36.749 5.04724 30.2854 4.70894L31.5276 3.46677L30.205 2.14417L27.3989 4.95027C27.2235 5.12567 27.125 5.36355 27.125 5.61157C27.125 5.8596 27.2235 6.09747 27.3989 6.27288L30.205 9.07898Z" fill="#467888"/>
<path d="M27.7877 50.7833L26.4651 52.1059L27.6315 53.2723C21.679 52.9176 16.0863 50.3048 11.9945 45.9672C7.90266 41.6297 5.62023 35.8942 5.61292 29.9312H3.74219C3.74986 36.4036 6.23918 42.6267 10.6975 47.3189C15.1558 52.0111 21.2436 54.815 27.7072 55.1533L26.4651 56.3955L27.7877 57.7181L30.5938 54.912C30.7691 54.7366 30.8676 54.4987 30.8676 54.2507C30.8676 54.0027 30.7691 53.7648 30.5938 53.5894L27.7877 50.7833Z" fill="#467888"/>
<path d="M28.995 14.0299C25.85 14.0299 22.7757 14.9625 20.1607 16.7098C17.5458 18.457 15.5077 20.9404 14.3042 23.846C13.1006 26.7516 12.7857 29.9488 13.3993 33.0333C14.0128 36.1179 15.5273 38.9512 17.7511 41.175C19.975 43.3989 22.8083 44.9133 25.8928 45.5269C28.9774 46.1404 32.1746 45.8255 35.0801 44.622C37.9857 43.4185 40.4692 41.3804 42.2164 38.7654C43.9637 36.1505 44.8963 33.0761 44.8963 29.9312C44.8915 25.7153 43.2147 21.6735 40.2337 18.6925C37.2526 15.7114 33.2108 14.0346 28.995 14.0299ZM39.5413 39.1548L37.1392 36.7528L35.8166 38.0754L38.2187 40.4774C35.9098 42.5045 32.9962 43.7126 29.9304 43.914V41.1556H28.0596V43.914C24.9938 43.7126 22.0802 42.5045 19.7713 40.4774L22.1734 38.0754L20.8508 36.7528L18.4487 39.1548C16.4216 36.8459 15.2136 33.9324 15.0122 30.8665H17.7706V28.9958H15.0122C15.2136 25.9299 16.4216 23.0164 18.4487 20.7075L20.8508 23.1095L22.1734 21.7869L19.7713 19.3849C22.0802 17.3578 24.9938 16.1497 28.0596 15.9483V18.7067H29.9304V15.9483C32.9962 16.1497 35.9098 17.3578 38.2187 19.3849L35.8166 21.7869L37.1392 23.1095L39.5413 20.7075C41.5684 23.0164 42.7764 25.9299 42.9778 28.9958H40.2194V30.8665H42.9778C42.7764 33.9324 41.5684 36.8459 39.5413 39.1548Z" fill="#467888"/>
<path d="M29.9283 27.2971V23.7708L30.2023 24.0448L31.5249 22.7222L29.6542 20.8515C29.4788 20.6761 29.2409 20.5776 28.9929 20.5776C28.7449 20.5776 28.507 20.6761 28.3316 20.8515L26.4608 22.7222L27.7835 24.0448L28.0575 23.7708V27.2971C27.5123 27.4899 27.0399 27.8464 26.7051 28.3179C26.3702 28.7894 26.1892 29.3528 26.1868 29.9311C26.1894 30.3599 26.2915 30.7823 26.4852 31.1649L26.4608 31.1405L24.316 33.2853V32.7372H22.4453V35.5433C22.4453 35.7914 22.5439 36.0293 22.7193 36.2047C22.8947 36.3801 23.1326 36.4787 23.3807 36.4787H26.1868V34.608H25.6387L27.7835 32.4632L27.7591 32.4388C28.1417 32.6325 28.5641 32.7346 28.9929 32.7372C29.654 32.7385 30.2943 32.5057 30.8002 32.0801C31.3062 31.6545 31.6452 31.0636 31.7573 30.4121C31.8693 29.7605 31.7471 29.0903 31.4123 28.5201C31.0776 27.95 30.5518 27.5168 29.9283 27.2971ZM28.9929 30.8665C28.8079 30.8665 28.627 30.8116 28.4732 30.7088C28.3194 30.6061 28.1995 30.46 28.1287 30.2891C28.0579 30.1181 28.0394 29.9301 28.0755 29.7486C28.1116 29.5672 28.2007 29.4005 28.3315 29.2697C28.4623 29.1389 28.629 29.0498 28.8104 29.0137C28.9918 28.9776 29.1799 28.9962 29.3508 29.0669C29.5218 29.1377 29.6678 29.2576 29.7706 29.4115C29.8734 29.5653 29.9283 29.7461 29.9283 29.9311C29.9283 30.1792 29.8297 30.4171 29.6543 30.5925C29.4789 30.7679 29.241 30.8665 28.9929 30.8665Z" fill="#467888"/>
<path d="M13.8659 11.6784C13.9715 11.5251 14.029 11.3437 14.0309 11.1576C14.0329 10.9714 13.9792 10.7889 13.8769 10.6335C13.7745 10.478 13.6281 10.3565 13.4563 10.2847C13.2846 10.2129 13.0953 10.194 12.9127 10.2304C12.5012 10.3136 12.0764 10.3057 11.6683 10.207C11.2601 10.1084 10.8786 9.92153 10.5504 9.65955C10.2223 9.39758 9.95557 9.06688 9.769 8.69072C9.58244 8.31456 9.48058 7.90208 9.4706 7.48232C9.48058 7.06255 9.58244 6.65008 9.769 6.27392C9.95557 5.89776 10.2223 5.56705 10.5504 5.30508C10.8786 5.04311 11.2601 4.85623 11.6683 4.7576C12.0764 4.65897 12.5012 4.65099 12.9127 4.73421C13.0953 4.7706 13.2846 4.75169 13.4563 4.67989C13.6281 4.60809 13.7745 4.48668 13.8769 4.33118C13.9792 4.17569 14.0329 3.99319 14.0309 3.80704C14.029 3.62089 13.9715 3.43956 13.8659 3.28626C12.9506 1.95991 11.6378 0.958515 10.1166 0.426488C8.59546 -0.105539 6.94466 -0.140707 5.40224 0.326056C3.85981 0.79282 2.50549 1.73739 1.53457 3.02356C0.563642 4.30973 0.0262901 5.87103 0 7.48232C0.0262901 9.0936 0.563642 10.6549 1.53457 11.9411C2.50549 13.2272 3.85981 14.1718 5.40224 14.6386C6.94466 15.1053 8.59546 15.0702 10.1166 14.5381C11.6378 14.0061 12.9506 13.0047 13.8659 11.6784ZM1.87074 7.48232C1.88605 5.98092 2.49623 4.54688 3.56745 3.49477C4.63868 2.44267 6.08346 1.85839 7.5849 1.87011C8.81784 1.86869 10.0189 2.26204 11.0121 2.99255C10.0315 3.26591 9.16729 3.85279 8.55163 4.66354C7.93598 5.47429 7.60268 6.46431 7.60268 7.48232C7.60268 8.50033 7.93598 9.49035 8.55163 10.3011C9.16729 11.1118 10.0315 11.6987 11.0121 11.9721C10.0189 12.7026 8.81784 13.0959 7.5849 13.0945C6.08346 13.1062 4.63868 12.522 3.56745 11.4699C2.49623 10.4178 1.88605 8.98372 1.87074 7.48232Z" fill="#467888"/>
<path d="M50.5128 55.1861C51.4378 55.1861 52.342 54.9118 53.1111 54.3979C53.8802 53.884 54.4796 53.1536 54.8336 52.299C55.1876 51.4444 55.2802 50.504 55.0997 49.5968C54.9193 48.6896 54.4739 47.8563 53.8198 47.2022C53.1657 46.5481 52.3324 46.1027 51.4252 45.9223C50.518 45.7418 49.5776 45.8344 48.723 46.1884C47.8684 46.5424 47.138 47.1418 46.6241 47.9109C46.1102 48.68 45.8359 49.5842 45.8359 50.5092C45.8374 51.7492 46.3306 52.9379 47.2074 53.8146C48.0841 54.6914 49.2729 55.1846 50.5128 55.1861ZM50.5128 47.7031C51.0678 47.7031 51.6103 47.8677 52.0718 48.176C52.5332 48.4844 52.8929 48.9226 53.1053 49.4354C53.3177 49.9481 53.3732 50.5123 53.265 51.0567C53.1567 51.601 52.8894 52.101 52.497 52.4935C52.1045 52.8859 51.6045 53.1531 51.0602 53.2614C50.5159 53.3697 49.9517 53.3141 49.4389 53.1017C48.9262 52.8893 48.4879 52.5297 48.1796 52.0682C47.8712 51.6068 47.7067 51.0642 47.7067 50.5092C47.7067 49.765 48.0023 49.0513 48.5286 48.525C49.0548 47.9988 49.7686 47.7031 50.5128 47.7031Z" fill="#467888"/>
<path d="M49.5703 43.0262H51.441V44.897H49.5703V43.0262Z" fill="#467888"/>
<path d="M49.5703 56.1213H51.441V57.9921H49.5703V56.1213Z" fill="#467888"/>
<path d="M56.125 49.5739H57.9957V51.4446H56.125V49.5739Z" fill="#467888"/>
<path d="M43.0234 49.5739H44.8942V51.4446H43.0234V49.5739Z" fill="#467888"/>
<path d="M53.5781 46.1071L55.4486 44.2366L56.7714 45.5594L54.9009 47.4299L53.5781 46.1071Z" fill="#467888"/>
<path d="M44.2266 45.5586L45.5494 44.2358L47.4198 46.1062L46.097 47.429L44.2266 45.5586Z" fill="#467888"/>
<path d="M53.5781 54.9122L54.9009 53.5894L56.7714 55.4599L55.4486 56.7827L53.5781 54.9122Z" fill="#467888"/>
<path d="M44.2266 55.459L46.097 53.5885L47.4198 54.9113L45.5494 56.7818L44.2266 55.459Z" fill="#467888"/>
</svg>
