<svg width="70" height="70" viewBox="0 0 70 70" fill="none" xmlns="http://www.w3.org/2000/svg">
<path fill-rule="evenodd" clip-rule="evenodd" d="M7.19735 20.3263C7.40055 20.1225 7.64194 19.9609 7.9077 19.8506C8.17346 19.7404 8.45837 19.6836 8.7461 19.6836C9.03383 19.6836 9.31874 19.7404 9.5845 19.8506C9.85026 19.9609 10.0916 20.1225 10.2948 20.3263L34.9961 45.0319L59.6973 20.3263C59.9007 20.1229 60.1422 19.9615 60.4079 19.8515C60.6736 19.7414 60.9585 19.6847 61.2461 19.6847C61.5337 19.6847 61.8185 19.7414 62.0843 19.8515C62.35 19.9615 62.5915 20.1229 62.7948 20.3263C62.9982 20.5296 63.1596 20.7711 63.2696 21.0368C63.3797 21.3026 63.4364 21.5874 63.4364 21.875C63.4364 22.1626 63.3797 22.4474 63.2696 22.7132C63.1596 22.9789 62.9982 23.2204 62.7948 23.4238L36.5448 49.6738C36.3416 49.8775 36.1002 50.0391 35.8345 50.1494C35.5687 50.2596 35.2838 50.3164 34.9961 50.3164C34.7084 50.3164 34.4235 50.2596 34.1577 50.1494C33.8919 50.0391 33.6505 49.8775 33.4473 49.6738L7.19735 23.4238C6.99363 23.2206 6.83201 22.9792 6.72173 22.7134C6.61145 22.4476 6.55469 22.1627 6.55469 21.875C6.55469 21.5873 6.61145 21.3024 6.72173 21.0366C6.83201 20.7708 6.99363 20.5295 7.19735 20.3263Z" fill="black"/>
</svg>
