<svg width="49" height="48" viewBox="0 0 49 48" fill="none" xmlns="http://www.w3.org/2000/svg">
<path d="M33.5 40.77L29.615 36.885L27.5 39L33.5 45L45.5 33L43.385 30.885L33.5 40.77Z" fill="white"/>
<path d="M38 7.5H33.5V6C33.4976 5.20508 33.1808 4.4434 32.6187 3.8813C32.0566 3.31921 31.2949 3.00237 30.5 3H18.5C17.7051 3.00237 16.9434 3.31921 16.3813 3.8813C15.8192 4.4434 15.5024 5.20508 15.5 6V7.5H11C10.2051 7.50237 9.4434 7.81921 8.8813 8.3813C8.31921 8.9434 8.00237 9.70508 8 10.5V42C8.00237 42.7949 8.31921 43.5566 8.8813 44.1187C9.4434 44.6808 10.2051 44.9976 11 45H24.5V42H11V10.5H15.5V15H33.5V10.5H38V27H41V10.5C40.9976 9.70508 40.6808 8.9434 40.1187 8.3813C39.5566 7.81921 38.7949 7.50237 38 7.5ZM30.5 12H18.5V6H30.5V12Z" fill="white"/>
</svg>
