<svg width="644" height="640" viewBox="0 0 644 640" fill="none" xmlns="http://www.w3.org/2000/svg">
<path d="M629.319 325.148H445.017C445.017 325.148 463.3 275.229 491.429 275.229C519.559 275.229 528.363 309.682 528.363 309.682C528.363 309.682 547.351 290.97 562.939 290.97C578.527 290.97 592.033 315.7 592.033 315.7C592.033 315.7 614.114 302.348 629.319 325.148Z" fill="#EBEBEB"/>
<path d="M410.426 65.3539H324.277C324.277 65.3539 343.525 37.439 358.7 37.439C373.875 37.439 378.346 56.0591 378.346 56.0591C378.346 56.0591 389.065 47.3922 398.957 48.9388C408.849 50.4853 410.426 65.3539 410.426 65.3539Z" fill="#EBEBEB"/>
<path d="M574.194 123.603H488.03C488.03 123.603 507.278 95.7036 522.438 95.7036C537.597 95.7036 542.038 114.308 542.038 114.308C542.038 114.308 552.757 105.626 562.649 107.173C572.541 108.719 574.194 123.603 574.194 123.603Z" fill="#EBEBEB"/>
<path d="M452.98 262.979H366.831C366.831 262.979 386.079 235.079 401.239 235.079C416.398 235.079 420.885 253.684 420.885 253.684C420.885 253.684 431.604 245.002 441.511 246.548C451.418 248.095 452.98 262.979 452.98 262.979Z" fill="#EBEBEB"/>
<path d="M99.8549 322.499H13.752C13.752 322.499 32.954 294.691 48.1135 294.691C63.273 294.691 67.7749 313.281 67.7749 313.281C67.7749 313.281 78.4938 304.599 88.3858 306.161C98.2777 307.722 99.8549 322.499 99.8549 322.499Z" fill="#EBEBEB"/>
<path d="M214.21 149.635H46.3984C46.3984 149.635 69.3674 98.3373 93.9595 95.1217C118.552 91.906 130.296 133.25 130.296 133.25C130.296 133.25 146.16 118.642 158.625 118.642C171.089 118.642 180.66 137.875 180.66 137.875C180.66 137.875 205.65 124.721 214.21 149.635Z" fill="#EBEBEB"/>
<path d="M507.171 362.986H456.395V629.196H507.171V362.986Z" fill="#DBDBDB"/>
<path d="M474.142 371.637H464.266V381.805H474.142V371.637Z" fill="#EBEBEB"/>
<path d="M486.774 371.637H476.897V381.805H486.774V371.637Z" fill="#EBEBEB"/>
<path d="M474.142 388.879H464.266V399.047H474.142V388.879Z" fill="#EBEBEB"/>
<path d="M486.774 388.879H476.897V399.047H486.774V388.879Z" fill="#EBEBEB"/>
<path d="M474.142 406.137H464.266V416.304H474.142V406.137Z" fill="#EBEBEB"/>
<path d="M486.774 406.137H476.897V416.304H486.774V406.137Z" fill="#EBEBEB"/>
<path d="M474.142 423.394H464.266V433.562H474.142V423.394Z" fill="#EBEBEB"/>
<path d="M486.774 423.394H476.897V433.562H486.774V423.394Z" fill="#EBEBEB"/>
<path d="M474.142 440.651H464.266V450.819H474.142V440.651Z" fill="#EBEBEB"/>
<path d="M486.774 440.651H476.897V450.819H486.774V440.651Z" fill="#EBEBEB"/>
<path d="M474.142 457.909H464.266V468.076H474.142V457.909Z" fill="#EBEBEB"/>
<path d="M486.774 457.909H476.897V468.076H486.774V457.909Z" fill="#EBEBEB"/>
<path d="M474.142 475.166H464.266V485.334H474.142V475.166Z" fill="#EBEBEB"/>
<path d="M486.774 475.166H476.897V485.334H486.774V475.166Z" fill="#EBEBEB"/>
<path d="M474.142 492.423H464.266V502.591H474.142V492.423Z" fill="#EBEBEB"/>
<path d="M486.774 492.423H476.897V502.591H486.774V492.423Z" fill="#EBEBEB"/>
<path d="M474.142 509.681H464.266V519.848H474.142V509.681Z" fill="#EBEBEB"/>
<path d="M486.774 509.681H476.897V519.848H486.774V509.681Z" fill="#EBEBEB"/>
<path d="M474.142 526.938H464.266V537.106H474.142V526.938Z" fill="#EBEBEB"/>
<path d="M486.774 526.938H476.897V537.106H486.774V526.938Z" fill="#EBEBEB"/>
<path d="M474.142 544.195H464.266V554.363H474.142V544.195Z" fill="#EBEBEB"/>
<path d="M486.774 544.195H476.897V554.363H486.774V544.195Z" fill="#EBEBEB"/>
<path d="M474.142 561.453H464.266V571.62H474.142V561.453Z" fill="#EBEBEB"/>
<path d="M486.774 561.453H476.897V571.62H486.774V561.453Z" fill="#EBEBEB"/>
<path d="M474.142 578.71H464.266V588.878H474.142V578.71Z" fill="#EBEBEB"/>
<path d="M486.774 578.71H476.897V588.878H486.774V578.71Z" fill="#EBEBEB"/>
<path d="M474.142 595.967H464.266V606.135H474.142V595.967Z" fill="#EBEBEB"/>
<path d="M489.409 606.135H499.285V595.968H489.409V606.135Z" fill="#EBEBEB"/>
<path d="M489.409 588.878H499.285V578.71H489.409V588.878Z" fill="#EBEBEB"/>
<path d="M489.409 571.62H499.285V561.453H489.409V571.62Z" fill="#EBEBEB"/>
<path d="M489.409 554.363H499.285V544.196H489.409V554.363Z" fill="#EBEBEB"/>
<path d="M489.409 537.106H499.285V526.938H489.409V537.106Z" fill="#EBEBEB"/>
<path d="M489.409 519.864H499.285V509.696H489.409V519.864Z" fill="#EBEBEB"/>
<path d="M489.409 502.606H499.285V492.439H489.409V502.606Z" fill="#EBEBEB"/>
<path d="M489.409 485.349H499.285V475.182H489.409V485.349Z" fill="#EBEBEB"/>
<path d="M489.409 468.092H499.285V457.924H489.409V468.092Z" fill="#EBEBEB"/>
<path d="M489.409 450.834H499.285V440.667H489.409V450.834Z" fill="#EBEBEB"/>
<path d="M489.409 433.577H499.285V423.41H489.409V433.577Z" fill="#EBEBEB"/>
<path d="M489.409 416.32H499.285V406.152H489.409V416.32Z" fill="#EBEBEB"/>
<path d="M489.409 399.062H499.285V388.894H489.409V399.062Z" fill="#EBEBEB"/>
<path d="M489.409 381.79H499.285V371.622H489.409V381.79Z" fill="#EBEBEB"/>
<path d="M486.774 595.967H476.897V606.135H486.774V595.967Z" fill="#EBEBEB"/>
<path d="M547.213 362.986H507.171V629.196H547.213V362.986Z" fill="#A6A6A6"/>
<path d="M534.933 606.135H543.079V595.968H534.933V606.135Z" fill="#C7C7C7"/>
<path d="M524.505 606.135H532.651V595.968H524.505V606.135Z" fill="#C7C7C7"/>
<path d="M534.933 588.878H543.079V578.71H534.933V588.878Z" fill="#C7C7C7"/>
<path d="M524.505 588.878H532.651V578.71H524.505V588.878Z" fill="#C7C7C7"/>
<path d="M534.933 571.62H543.079V561.453H534.933V571.62Z" fill="#C7C7C7"/>
<path d="M524.505 571.62H532.651V561.453H524.505V571.62Z" fill="#C7C7C7"/>
<path d="M534.933 554.363H543.079V544.196H534.933V554.363Z" fill="#C7C7C7"/>
<path d="M524.505 554.363H532.651V544.196H524.505V554.363Z" fill="#C7C7C7"/>
<path d="M534.933 537.106H543.079V526.938H534.933V537.106Z" fill="#C7C7C7"/>
<path d="M524.505 537.106H532.651V526.938H524.505V537.106Z" fill="#C7C7C7"/>
<path d="M534.933 519.864H543.079V509.696H534.933V519.864Z" fill="#C7C7C7"/>
<path d="M524.505 519.864H532.651V509.696H524.505V519.864Z" fill="#C7C7C7"/>
<path d="M534.933 502.606H543.079V492.439H534.933V502.606Z" fill="#C7C7C7"/>
<path d="M524.505 502.606H532.651V492.439H524.505V502.606Z" fill="#C7C7C7"/>
<path d="M534.933 485.349H543.079V475.182H534.933V485.349Z" fill="#C7C7C7"/>
<path d="M524.505 485.349H532.651V475.182H524.505V485.349Z" fill="#C7C7C7"/>
<path d="M534.933 468.092H543.079V457.924H534.933V468.092Z" fill="#C7C7C7"/>
<path d="M524.505 468.092H532.651V457.924H524.505V468.092Z" fill="#C7C7C7"/>
<path d="M534.933 450.834H543.079V440.667H534.933V450.834Z" fill="#C7C7C7"/>
<path d="M524.505 450.834H532.651V440.667H524.505V450.834Z" fill="#C7C7C7"/>
<path d="M534.933 433.577H543.079V423.41H534.933V433.577Z" fill="#C7C7C7"/>
<path d="M524.505 433.577H532.651V423.41H524.505V433.577Z" fill="#C7C7C7"/>
<path d="M534.933 416.32H543.079V406.152H534.933V416.32Z" fill="#C7C7C7"/>
<path d="M524.505 416.32H532.651V406.152H524.505V416.32Z" fill="#C7C7C7"/>
<path d="M534.933 399.062H543.079V388.894H534.933V399.062Z" fill="#C7C7C7"/>
<path d="M524.505 399.062H532.651V388.894H524.505V399.062Z" fill="#C7C7C7"/>
<path d="M534.933 381.79H543.079V371.622H534.933V381.79Z" fill="#C7C7C7"/>
<path d="M522.315 371.637H514.169V381.805H522.315V371.637Z" fill="#C7C7C7"/>
<path d="M522.315 388.879H514.169V399.047H522.315V388.879Z" fill="#C7C7C7"/>
<path d="M522.315 406.137H514.169V416.304H522.315V406.137Z" fill="#C7C7C7"/>
<path d="M522.315 423.394H514.169V433.562H522.315V423.394Z" fill="#C7C7C7"/>
<path d="M522.315 440.651H514.169V450.819H522.315V440.651Z" fill="#C7C7C7"/>
<path d="M522.315 457.909H514.169V468.076H522.315V457.909Z" fill="#C7C7C7"/>
<path d="M522.315 475.166H514.169V485.334H522.315V475.166Z" fill="#C7C7C7"/>
<path d="M522.315 492.423H514.169V502.591H522.315V492.423Z" fill="#C7C7C7"/>
<path d="M522.315 509.681H514.169V519.848H522.315V509.681Z" fill="#C7C7C7"/>
<path d="M522.315 526.938H514.169V537.106H522.315V526.938Z" fill="#C7C7C7"/>
<path d="M522.315 544.195H514.169V554.363H522.315V544.195Z" fill="#C7C7C7"/>
<path d="M522.315 561.453H514.169V571.62H522.315V561.453Z" fill="#C7C7C7"/>
<path d="M522.315 578.71H514.169V588.878H522.315V578.71Z" fill="#C7C7C7"/>
<path d="M522.315 595.967H514.169V606.135H522.315V595.967Z" fill="#C7C7C7"/>
<path d="M524.505 381.79H532.651V371.622H524.505V381.79Z" fill="#C7C7C7"/>
<path d="M146.604 348.623H86.5322V629.181H146.604V348.623Z" fill="#EBEBEB"/>
<path d="M146.604 342.482H85.0781V348.622H146.604V342.482Z" fill="#C7C7C7"/>
<path d="M98.0322 357.688H91.9531V629.196H98.0322V357.688Z" fill="white"/>
<path d="M108.828 357.688H102.749V629.196H108.828V357.688Z" fill="white"/>
<path d="M119.608 357.688H113.529V629.196H119.608V357.688Z" fill="white"/>
<path d="M130.403 357.688H124.309V629.196H130.403V357.688Z" fill="white"/>
<path d="M141.168 357.688H135.089V629.196H141.168V357.688Z" fill="white"/>
<path d="M98.0322 365.451H91.9531V377.579H98.0322V365.451Z" fill="#EBEBEB"/>
<path d="M108.828 365.451H102.749V377.579H108.828V365.451Z" fill="#EBEBEB"/>
<path d="M119.608 365.451H113.529V377.579H119.608V365.451Z" fill="#EBEBEB"/>
<path d="M130.403 365.451H124.309V377.579H130.403V365.451Z" fill="#EBEBEB"/>
<path d="M141.168 365.451H135.089V377.579H141.168V365.451Z" fill="#EBEBEB"/>
<path d="M98.0322 385.143H91.9531V397.271H98.0322V385.143Z" fill="#EBEBEB"/>
<path d="M108.828 385.143H102.749V397.271H108.828V385.143Z" fill="#EBEBEB"/>
<path d="M119.608 385.143H113.529V397.271H119.608V385.143Z" fill="#EBEBEB"/>
<path d="M130.403 385.143H124.309V397.271H130.403V385.143Z" fill="#EBEBEB"/>
<path d="M141.168 385.143H135.089V397.271H141.168V385.143Z" fill="#EBEBEB"/>
<path d="M98.0322 404.851H91.9531V416.978H98.0322V404.851Z" fill="#EBEBEB"/>
<path d="M108.828 404.851H102.749V416.978H108.828V404.851Z" fill="#EBEBEB"/>
<path d="M119.608 404.851H113.529V416.978H119.608V404.851Z" fill="#EBEBEB"/>
<path d="M130.403 404.851H124.309V416.978H130.403V404.851Z" fill="#EBEBEB"/>
<path d="M141.168 404.851H135.089V416.978H141.168V404.851Z" fill="#EBEBEB"/>
<path d="M98.0322 424.558H91.9531V436.685H98.0322V424.558Z" fill="#EBEBEB"/>
<path d="M108.828 424.558H102.749V436.685H108.828V424.558Z" fill="#EBEBEB"/>
<path d="M119.608 424.558H113.529V436.685H119.608V424.558Z" fill="#EBEBEB"/>
<path d="M130.403 424.558H124.309V436.685H130.403V424.558Z" fill="#EBEBEB"/>
<path d="M141.168 424.558H135.089V436.685H141.168V424.558Z" fill="#EBEBEB"/>
<path d="M98.0322 444.265H91.9531V456.393H98.0322V444.265Z" fill="#EBEBEB"/>
<path d="M108.828 444.265H102.749V456.393H108.828V444.265Z" fill="#EBEBEB"/>
<path d="M119.608 444.265H113.529V456.393H119.608V444.265Z" fill="#EBEBEB"/>
<path d="M130.403 444.265H124.309V456.393H130.403V444.265Z" fill="#EBEBEB"/>
<path d="M141.168 444.265H135.089V456.393H141.168V444.265Z" fill="#EBEBEB"/>
<path d="M98.0322 463.973H91.9531V476.1H98.0322V463.973Z" fill="#EBEBEB"/>
<path d="M108.828 463.973H102.749V476.1H108.828V463.973Z" fill="#EBEBEB"/>
<path d="M119.608 463.973H113.529V476.1H119.608V463.973Z" fill="#EBEBEB"/>
<path d="M130.403 463.973H124.309V476.1H130.403V463.973Z" fill="#EBEBEB"/>
<path d="M141.168 463.973H135.089V476.1H141.168V463.973Z" fill="#EBEBEB"/>
<path d="M98.0322 483.68H91.9531V495.808H98.0322V483.68Z" fill="#EBEBEB"/>
<path d="M108.828 483.68H102.749V495.808H108.828V483.68Z" fill="#EBEBEB"/>
<path d="M119.608 483.68H113.529V495.808H119.608V483.68Z" fill="#EBEBEB"/>
<path d="M130.403 483.68H124.309V495.808H130.403V483.68Z" fill="#EBEBEB"/>
<path d="M141.168 483.68H135.089V495.808H141.168V483.68Z" fill="#EBEBEB"/>
<path d="M98.0322 503.387H91.9531V515.515H98.0322V503.387Z" fill="#EBEBEB"/>
<path d="M108.828 503.387H102.749V515.515H108.828V503.387Z" fill="#EBEBEB"/>
<path d="M119.608 503.387H113.529V515.515H119.608V503.387Z" fill="#EBEBEB"/>
<path d="M130.403 503.387H124.309V515.515H130.403V503.387Z" fill="#EBEBEB"/>
<path d="M141.168 503.387H135.089V515.515H141.168V503.387Z" fill="#EBEBEB"/>
<path d="M98.0322 523.095H91.9531V535.222H98.0322V523.095Z" fill="#EBEBEB"/>
<path d="M108.828 523.095H102.749V535.222H108.828V523.095Z" fill="#EBEBEB"/>
<path d="M119.608 523.095H113.529V535.222H119.608V523.095Z" fill="#EBEBEB"/>
<path d="M130.403 523.095H124.309V535.222H130.403V523.095Z" fill="#EBEBEB"/>
<path d="M141.168 523.095H135.089V535.222H141.168V523.095Z" fill="#EBEBEB"/>
<path d="M98.0322 542.802H91.9531V554.929H98.0322V542.802Z" fill="#EBEBEB"/>
<path d="M108.828 542.802H102.749V554.929H108.828V542.802Z" fill="#EBEBEB"/>
<path d="M119.608 542.802H113.529V554.929H119.608V542.802Z" fill="#EBEBEB"/>
<path d="M130.403 542.802H124.309V554.929H130.403V542.802Z" fill="#EBEBEB"/>
<path d="M141.168 542.802H135.089V554.929H141.168V542.802Z" fill="#EBEBEB"/>
<path d="M98.0322 562.509H91.9531V574.637H98.0322V562.509Z" fill="#EBEBEB"/>
<path d="M108.828 562.509H102.749V574.637H108.828V562.509Z" fill="#EBEBEB"/>
<path d="M119.608 562.509H113.529V574.637H119.608V562.509Z" fill="#EBEBEB"/>
<path d="M130.403 562.509H124.309V574.637H130.403V562.509Z" fill="#EBEBEB"/>
<path d="M141.168 562.509H135.089V574.637H141.168V562.509Z" fill="#EBEBEB"/>
<path d="M98.0322 582.216H91.9531V594.344H98.0322V582.216Z" fill="#EBEBEB"/>
<path d="M108.828 582.216H102.749V594.344H108.828V582.216Z" fill="#EBEBEB"/>
<path d="M119.608 582.216H113.529V594.344H119.608V582.216Z" fill="#EBEBEB"/>
<path d="M130.403 582.216H124.309V594.344H130.403V582.216Z" fill="#EBEBEB"/>
<path d="M141.168 582.216H135.089V594.344H141.168V582.216Z" fill="#EBEBEB"/>
<path d="M98.0322 601.924H91.9531V614.051H98.0322V601.924Z" fill="#EBEBEB"/>
<path d="M108.828 601.924H102.749V614.051H108.828V601.924Z" fill="#EBEBEB"/>
<path d="M119.608 601.924H113.529V614.051H119.608V601.924Z" fill="#EBEBEB"/>
<path d="M130.403 601.924H124.309V614.051H130.403V601.924Z" fill="#EBEBEB"/>
<path d="M141.168 601.924H135.089V614.051H141.168V601.924Z" fill="#EBEBEB"/>
<path d="M98.0322 621.631H91.9531V629.196H98.0322V621.631Z" fill="#EBEBEB"/>
<path d="M108.828 621.631H102.749V629.196H108.828V621.631Z" fill="#EBEBEB"/>
<path d="M119.608 621.631H113.529V629.196H119.608V621.631Z" fill="#EBEBEB"/>
<path d="M130.403 621.631H124.309V629.196H130.403V621.631Z" fill="#EBEBEB"/>
<path d="M141.168 621.631H135.089V629.196H141.168V621.631Z" fill="#EBEBEB"/>
<path d="M185.177 348.623H146.604V629.181H185.177V348.623Z" fill="#DBDBDB"/>
<path d="M186.846 342.482H146.604V348.622H186.846V342.482Z" fill="#C7C7C7"/>
<path d="M158.134 357.688H152.04V629.196H158.134V357.688Z" fill="#C7C7C7"/>
<path d="M168.899 357.688H162.82V629.196H168.899V357.688Z" fill="#C7C7C7"/>
<path d="M179.68 357.688H173.601V629.196H179.68V357.688Z" fill="#C7C7C7"/>
<path d="M158.134 365.451H152.04V377.579H158.134V365.451Z" fill="#DBDBDB"/>
<path d="M168.899 365.451H162.82V377.579H168.899V365.451Z" fill="#DBDBDB"/>
<path d="M179.68 365.451H173.601V377.579H179.68V365.451Z" fill="#DBDBDB"/>
<path d="M158.134 385.143H152.04V397.271H158.134V385.143Z" fill="#DBDBDB"/>
<path d="M168.899 385.143H162.82V397.271H168.899V385.143Z" fill="#DBDBDB"/>
<path d="M179.68 385.143H173.601V397.271H179.68V385.143Z" fill="#DBDBDB"/>
<path d="M158.134 404.851H152.04V416.978H158.134V404.851Z" fill="#DBDBDB"/>
<path d="M168.899 404.851H162.82V416.978H168.899V404.851Z" fill="#DBDBDB"/>
<path d="M179.68 404.851H173.601V416.978H179.68V404.851Z" fill="#DBDBDB"/>
<path d="M158.134 424.558H152.04V436.685H158.134V424.558Z" fill="#DBDBDB"/>
<path d="M168.899 424.558H162.82V436.685H168.899V424.558Z" fill="#DBDBDB"/>
<path d="M179.68 424.558H173.601V436.685H179.68V424.558Z" fill="#DBDBDB"/>
<path d="M158.134 444.265H152.04V456.393H158.134V444.265Z" fill="#DBDBDB"/>
<path d="M168.899 444.265H162.82V456.393H168.899V444.265Z" fill="#DBDBDB"/>
<path d="M179.68 444.265H173.601V456.393H179.68V444.265Z" fill="#DBDBDB"/>
<path d="M158.134 463.973H152.04V476.1H158.134V463.973Z" fill="#DBDBDB"/>
<path d="M168.899 463.973H162.82V476.1H168.899V463.973Z" fill="#DBDBDB"/>
<path d="M179.68 463.973H173.601V476.1H179.68V463.973Z" fill="#DBDBDB"/>
<path d="M158.134 483.68H152.04V495.808H158.134V483.68Z" fill="#DBDBDB"/>
<path d="M168.899 483.68H162.82V495.808H168.899V483.68Z" fill="#DBDBDB"/>
<path d="M179.68 483.68H173.601V495.808H179.68V483.68Z" fill="#DBDBDB"/>
<path d="M158.134 503.387H152.04V515.515H158.134V503.387Z" fill="#DBDBDB"/>
<path d="M168.899 503.387H162.82V515.515H168.899V503.387Z" fill="#DBDBDB"/>
<path d="M179.68 503.387H173.601V515.515H179.68V503.387Z" fill="#DBDBDB"/>
<path d="M158.134 523.095H152.04V535.222H158.134V523.095Z" fill="#DBDBDB"/>
<path d="M168.899 523.095H162.82V535.222H168.899V523.095Z" fill="#DBDBDB"/>
<path d="M179.68 523.095H173.601V535.222H179.68V523.095Z" fill="#DBDBDB"/>
<path d="M158.134 542.802H152.04V554.929H158.134V542.802Z" fill="#DBDBDB"/>
<path d="M168.899 542.802H162.82V554.929H168.899V542.802Z" fill="#DBDBDB"/>
<path d="M179.68 542.802H173.601V554.929H179.68V542.802Z" fill="#DBDBDB"/>
<path d="M158.134 562.509H152.04V574.637H158.134V562.509Z" fill="#DBDBDB"/>
<path d="M168.899 562.509H162.82V574.637H168.899V562.509Z" fill="#DBDBDB"/>
<path d="M179.68 562.509H173.601V574.637H179.68V562.509Z" fill="#DBDBDB"/>
<path d="M158.134 582.216H152.04V594.344H158.134V582.216Z" fill="#DBDBDB"/>
<path d="M168.899 582.216H162.82V594.344H168.899V582.216Z" fill="#DBDBDB"/>
<path d="M179.68 582.216H173.601V594.344H179.68V582.216Z" fill="#DBDBDB"/>
<path d="M158.134 601.924H152.04V614.051H158.134V601.924Z" fill="#DBDBDB"/>
<path d="M168.899 601.924H162.82V614.051H168.899V601.924Z" fill="#DBDBDB"/>
<path d="M179.68 601.924H173.601V614.051H179.68V601.924Z" fill="#DBDBDB"/>
<path d="M158.134 621.631H152.04V629.196H158.134V621.631Z" fill="#DBDBDB"/>
<path d="M168.899 621.631H162.82V629.196H168.899V621.631Z" fill="#DBDBDB"/>
<path d="M179.68 621.631H173.601V629.196H179.68V621.631Z" fill="#DBDBDB"/>
<path d="M70.929 451.738H11.1025V629.196H70.929V451.738Z" fill="#EBEBEB"/>
<path d="M70.9289 436.686H19.6162V451.738H70.9289V436.686Z" fill="#C7C7C7"/>
<path d="M64.3754 459.593H17.6719V629.196H64.3754V459.593Z" fill="#DBDBDB"/>
<path d="M64.3754 475.779H17.6719V479.791H64.3754V475.779Z" fill="white"/>
<path d="M64.3754 492.377H17.6719V496.389H64.3754V492.377Z" fill="white"/>
<path d="M64.3754 508.977H17.6719V512.988H64.3754V508.977Z" fill="white"/>
<path d="M64.3754 525.575H17.6719V529.587H64.3754V525.575Z" fill="white"/>
<path d="M64.3754 542.174H17.6719V546.186H64.3754V542.174Z" fill="white"/>
<path d="M64.3754 558.773H17.6719V562.785H64.3754V558.773Z" fill="white"/>
<path d="M64.3754 575.372H17.6719V579.384H64.3754V575.372Z" fill="white"/>
<path d="M64.3754 591.971H17.6719V595.983H64.3754V591.971Z" fill="white"/>
<path d="M64.3754 608.585H17.6719V612.597H64.3754V608.585Z" fill="white"/>
<path d="M64.3754 625.184H17.6719V629.196H64.3754V625.184Z" fill="white"/>
<path d="M108.4 451.738H70.9297V629.196H108.4V451.738Z" fill="#DBDBDB"/>
<path d="M102.78 436.686H70.9297V451.738H102.78V436.686Z" fill="#A6A6A6"/>
<path d="M104.893 459.593H76.0898V629.196H104.893V459.593Z" fill="#C7C7C7"/>
<path d="M104.893 475.779H76.0898V479.791H104.893V475.779Z" fill="white"/>
<path d="M104.893 492.377H76.0898V496.389H104.893V492.377Z" fill="white"/>
<path d="M104.893 508.977H76.0898V512.988H104.893V508.977Z" fill="white"/>
<path d="M104.893 525.575H76.0898V529.587H104.893V525.575Z" fill="white"/>
<path d="M104.893 542.174H76.0898V546.186H104.893V542.174Z" fill="white"/>
<path d="M104.893 558.773H76.0898V562.785H104.893V558.773Z" fill="white"/>
<path d="M104.893 575.372H76.0898V579.384H104.893V575.372Z" fill="white"/>
<path d="M104.893 591.971H76.0898V595.983H104.893V591.971Z" fill="white"/>
<path d="M104.893 608.585H76.0898V612.597H104.893V608.585Z" fill="white"/>
<path d="M104.893 625.184H76.0898V629.196H104.893V625.184Z" fill="white"/>
<path d="M238.587 525.3H192.343V629.181H238.587V525.3Z" fill="#DBDBDB"/>
<path d="M207.793 534.288H199.616V540.658H207.793V534.288Z" fill="#C7C7C7"/>
<path d="M207.793 547.886H199.616V554.256H207.793V547.886Z" fill="#C7C7C7"/>
<path d="M207.793 561.483H199.616V567.853H207.793V561.483Z" fill="#C7C7C7"/>
<path d="M207.793 575.081H199.616V581.451H207.793V575.081Z" fill="#C7C7C7"/>
<path d="M207.793 588.679H199.616V595.049H207.793V588.679Z" fill="#C7C7C7"/>
<path d="M207.793 602.261H199.616V608.631H207.793V602.261Z" fill="#C7C7C7"/>
<path d="M207.793 615.858H199.616V622.228H207.793V615.858Z" fill="#C7C7C7"/>
<path d="M219.569 534.288H211.392V540.658H219.569V534.288Z" fill="#C7C7C7"/>
<path d="M219.569 547.886H211.392V554.256H219.569V547.886Z" fill="#C7C7C7"/>
<path d="M219.569 561.483H211.392V567.853H219.569V561.483Z" fill="#C7C7C7"/>
<path d="M219.569 575.081H211.392V581.451H219.569V575.081Z" fill="#C7C7C7"/>
<path d="M219.569 588.679H211.392V595.049H219.569V588.679Z" fill="#C7C7C7"/>
<path d="M219.569 602.261H211.392V608.631H219.569V602.261Z" fill="#C7C7C7"/>
<path d="M219.569 615.858H211.392V622.228H219.569V615.858Z" fill="#C7C7C7"/>
<path d="M231.314 534.288H223.137V540.658H231.314V534.288Z" fill="#C7C7C7"/>
<path d="M231.314 547.886H223.137V554.256H231.314V547.886Z" fill="#C7C7C7"/>
<path d="M231.314 561.483H223.137V567.853H231.314V561.483Z" fill="#C7C7C7"/>
<path d="M231.314 575.081H223.137V581.451H231.314V575.081Z" fill="#C7C7C7"/>
<path d="M231.314 588.679H223.137V595.049H231.314V588.679Z" fill="#C7C7C7"/>
<path d="M231.314 602.261H223.137V608.631H231.314V602.261Z" fill="#C7C7C7"/>
<path d="M231.314 615.858H223.137V622.228H231.314V615.858Z" fill="#C7C7C7"/>
<path d="M271.034 525.3H238.587V629.181H271.034V525.3Z" fill="#A6A6A6"/>
<path d="M261.051 621.203H267.712V614.833H261.051V621.203Z" fill="#C7C7C7"/>
<path d="M261.051 607.62H267.712V601.25H261.051V607.62Z" fill="#C7C7C7"/>
<path d="M261.051 594.023H267.712V587.653H261.051V594.023Z" fill="#C7C7C7"/>
<path d="M261.051 580.44H267.712V574.07H261.051V580.44Z" fill="#C7C7C7"/>
<path d="M261.051 566.828H267.712V560.458H261.051V566.828Z" fill="#C7C7C7"/>
<path d="M261.051 553.229H267.712V546.859H261.051V553.229Z" fill="#C7C7C7"/>
<path d="M261.051 539.647H267.712V533.277H261.051V539.647Z" fill="#C7C7C7"/>
<path d="M251.465 621.203H258.126V614.833H251.465V621.203Z" fill="#C7C7C7"/>
<path d="M251.465 607.62H258.126V601.25H251.465V607.62Z" fill="#C7C7C7"/>
<path d="M251.465 594.023H258.126V587.653H251.465V594.023Z" fill="#C7C7C7"/>
<path d="M251.465 580.44H258.126V574.07H251.465V580.44Z" fill="#C7C7C7"/>
<path d="M251.465 566.828H258.126V560.458H251.465V566.828Z" fill="#C7C7C7"/>
<path d="M251.465 553.229H258.126V546.859H251.465V553.229Z" fill="#C7C7C7"/>
<path d="M251.465 539.647H258.126V533.277H251.465V539.647Z" fill="#C7C7C7"/>
<path d="M241.91 621.203H248.571V614.833H241.91V621.203Z" fill="#C7C7C7"/>
<path d="M241.91 607.62H248.571V601.25H241.91V607.62Z" fill="#C7C7C7"/>
<path d="M241.91 594.023H248.571V587.653H241.91V594.023Z" fill="#C7C7C7"/>
<path d="M241.91 580.44H248.571V574.07H241.91V580.44Z" fill="#C7C7C7"/>
<path d="M241.91 566.828H248.571V560.458H241.91V566.828Z" fill="#C7C7C7"/>
<path d="M241.91 553.229H248.571V546.859H241.91V553.229Z" fill="#C7C7C7"/>
<path d="M241.91 539.647H248.571V533.277H241.91V539.647Z" fill="#C7C7C7"/>
<path d="M582.632 406.137H550.689V443.882H582.632V406.137Z" fill="#DBDBDB"/>
<path d="M602.905 406.137H582.646V445.26H602.905V406.137Z" fill="#C7C7C7"/>
<path d="M604.253 422.812H584.147V445.276H604.253V422.812Z" fill="#DBDBDB"/>
<path d="M616.794 422.812H604.253V445.276H616.794V422.812Z" fill="#C7C7C7"/>
<path d="M590.104 441.432H538.439V629.18H590.104V441.432Z" fill="#EBEBEB"/>
<path d="M560.597 449.502H544.351V456.132H560.597V449.502Z" fill="white"/>
<path d="M581.377 449.502H565.13V456.132H581.377V449.502Z" fill="white"/>
<path d="M560.597 460.772H544.351V467.403H560.597V460.772Z" fill="white"/>
<path d="M581.377 460.772H565.13V467.403H581.377V460.772Z" fill="white"/>
<path d="M560.597 472.042H544.351V478.673H560.597V472.042Z" fill="white"/>
<path d="M581.377 472.042H565.13V478.673H581.377V472.042Z" fill="white"/>
<path d="M560.597 483.312H544.351V489.943H560.597V483.312Z" fill="white"/>
<path d="M581.377 483.312H565.13V489.943H581.377V483.312Z" fill="white"/>
<path d="M560.597 494.583H544.351V501.213H560.597V494.583Z" fill="white"/>
<path d="M581.377 494.583H565.13V501.213H581.377V494.583Z" fill="white"/>
<path d="M560.597 505.853H544.351V512.483H560.597V505.853Z" fill="white"/>
<path d="M581.377 505.853H565.13V512.483H581.377V505.853Z" fill="white"/>
<path d="M560.597 517.123H544.351V523.753H560.597V517.123Z" fill="white"/>
<path d="M581.377 517.123H565.13V523.753H581.377V517.123Z" fill="white"/>
<path d="M560.597 528.393H544.351V535.023H560.597V528.393Z" fill="white"/>
<path d="M581.377 528.393H565.13V535.023H581.377V528.393Z" fill="white"/>
<path d="M560.597 539.663H544.351V546.293H560.597V539.663Z" fill="white"/>
<path d="M581.377 539.663H565.13V546.293H581.377V539.663Z" fill="white"/>
<path d="M560.597 550.933H544.351V557.563H560.597V550.933Z" fill="white"/>
<path d="M581.377 550.933H565.13V557.563H581.377V550.933Z" fill="white"/>
<path d="M560.597 562.203H544.351V568.833H560.597V562.203Z" fill="white"/>
<path d="M581.377 562.203H565.13V568.833H581.377V562.203Z" fill="white"/>
<path d="M560.597 573.474H544.351V580.119H560.597V573.474Z" fill="white"/>
<path d="M581.377 573.474H565.13V580.119H581.377V573.474Z" fill="white"/>
<path d="M560.597 584.743H544.351V591.374H560.597V584.743Z" fill="white"/>
<path d="M581.377 584.743H565.13V591.374H581.377V584.743Z" fill="white"/>
<path d="M560.597 596.013H544.351V602.644H560.597V596.013Z" fill="white"/>
<path d="M581.377 596.013H565.13V602.644H581.377V596.013Z" fill="white"/>
<path d="M631.969 441.432H590.104V629.18H631.969V441.432Z" fill="#C7C7C7"/>
<path d="M614.436 602.644H627.773V596.013H614.436V602.644Z" fill="#EBEBEB"/>
<path d="M597.362 602.644H610.699V596.013H597.362V602.644Z" fill="#EBEBEB"/>
<path d="M614.436 591.374H627.773V584.743H614.436V591.374Z" fill="#EBEBEB"/>
<path d="M597.362 591.374H610.699V584.743H597.362V591.374Z" fill="#EBEBEB"/>
<path d="M614.436 580.104H627.773V573.458H614.436V580.104Z" fill="#EBEBEB"/>
<path d="M597.362 580.104H610.699V573.458H597.362V580.104Z" fill="#EBEBEB"/>
<path d="M614.436 568.833H627.773V562.203H614.436V568.833Z" fill="#EBEBEB"/>
<path d="M597.362 568.833H610.699V562.203H597.362V568.833Z" fill="#EBEBEB"/>
<path d="M614.436 557.563H627.773V550.933H614.436V557.563Z" fill="#EBEBEB"/>
<path d="M597.362 557.563H610.699V550.933H597.362V557.563Z" fill="#EBEBEB"/>
<path d="M614.436 546.293H627.773V539.663H614.436V546.293Z" fill="#EBEBEB"/>
<path d="M597.362 546.293H610.699V539.663H597.362V546.293Z" fill="#EBEBEB"/>
<path d="M614.436 535.023H627.773V528.393H614.436V535.023Z" fill="#EBEBEB"/>
<path d="M597.362 535.023H610.699V528.393H597.362V535.023Z" fill="#EBEBEB"/>
<path d="M614.436 523.753H627.773V517.123H614.436V523.753Z" fill="#EBEBEB"/>
<path d="M597.362 523.753H610.699V517.123H597.362V523.753Z" fill="#EBEBEB"/>
<path d="M614.436 512.483H627.773V505.853H614.436V512.483Z" fill="#EBEBEB"/>
<path d="M597.362 512.483H610.699V505.853H597.362V512.483Z" fill="#EBEBEB"/>
<path d="M614.436 501.213H627.773V494.583H614.436V501.213Z" fill="#EBEBEB"/>
<path d="M597.362 501.213H610.699V494.583H597.362V501.213Z" fill="#EBEBEB"/>
<path d="M614.436 489.943H627.773V483.312H614.436V489.943Z" fill="#EBEBEB"/>
<path d="M597.362 489.943H610.699V483.312H597.362V489.943Z" fill="#EBEBEB"/>
<path d="M614.436 478.673H627.773V472.043H614.436V478.673Z" fill="#EBEBEB"/>
<path d="M597.362 478.673H610.699V472.043H597.362V478.673Z" fill="#EBEBEB"/>
<path d="M614.436 467.402H627.773V460.772H614.436V467.402Z" fill="#EBEBEB"/>
<path d="M597.362 467.402H610.699V460.772H597.362V467.402Z" fill="#EBEBEB"/>
<path d="M614.436 456.148H627.773V449.518H614.436V456.148Z" fill="#EBEBEB"/>
<path d="M597.362 456.148H610.699V449.518H597.362V456.148Z" fill="#EBEBEB"/>
<path d="M371.516 506.848H310.587V629.196H371.516V506.848Z" fill="#C7C7C7"/>
<path d="M330.953 517.429H320.173V524.917H330.953V517.429Z" fill="#DBDBDB"/>
<path d="M330.953 533.446H320.173V540.949H330.953V533.446Z" fill="#DBDBDB"/>
<path d="M330.953 549.448H320.173V556.951H330.953V549.448Z" fill="#DBDBDB"/>
<path d="M330.953 565.465H320.173V572.968H330.953V565.465Z" fill="#DBDBDB"/>
<path d="M330.953 581.466H320.173V588.969H330.953V581.466Z" fill="#DBDBDB"/>
<path d="M330.953 597.483H320.173V604.987H330.953V597.483Z" fill="#DBDBDB"/>
<path d="M330.953 613.485H320.173V620.988H330.953V613.485Z" fill="#DBDBDB"/>
<path d="M346.465 517.429H335.685V524.917H346.465V517.429Z" fill="#DBDBDB"/>
<path d="M346.465 533.446H335.685V540.949H346.465V533.446Z" fill="#DBDBDB"/>
<path d="M346.465 549.448H335.685V556.951H346.465V549.448Z" fill="#DBDBDB"/>
<path d="M346.465 565.465H335.685V572.968H346.465V565.465Z" fill="#DBDBDB"/>
<path d="M346.465 581.466H335.685V588.969H346.465V581.466Z" fill="#DBDBDB"/>
<path d="M346.465 597.483H335.685V604.987H346.465V597.483Z" fill="#DBDBDB"/>
<path d="M346.465 613.485H335.685V620.988H346.465V613.485Z" fill="#DBDBDB"/>
<path d="M361.931 517.429H351.15V524.917H361.931V517.429Z" fill="#DBDBDB"/>
<path d="M361.931 533.446H351.15V540.949H361.931V533.446Z" fill="#DBDBDB"/>
<path d="M361.931 549.448H351.15V556.951H361.931V549.448Z" fill="#DBDBDB"/>
<path d="M361.931 565.465H351.15V572.968H361.931V565.465Z" fill="#DBDBDB"/>
<path d="M361.931 581.466H351.15V588.969H361.931V581.466Z" fill="#DBDBDB"/>
<path d="M361.931 597.483H351.15V604.987H361.931V597.483Z" fill="#DBDBDB"/>
<path d="M361.931 613.485H351.15V620.988H361.931V613.485Z" fill="#DBDBDB"/>
<path d="M371.516 494.093H330.953V506.833H371.516V494.093Z" fill="#DBDBDB"/>
<path d="M371.531 486.207H345.806V494.093H371.531V486.207Z" fill="#EBEBEB"/>
<path d="M414.268 506.848H371.516V629.196H414.268V506.848Z" fill="#A6A6A6"/>
<path d="M401.131 619.794H409.905V612.291H401.131V619.794Z" fill="#C7C7C7"/>
<path d="M401.131 603.777H409.905V596.274H401.131V603.777Z" fill="#C7C7C7"/>
<path d="M401.131 587.775H409.905V580.272H401.131V587.775Z" fill="#C7C7C7"/>
<path d="M401.131 571.758H409.905V564.255H401.131V571.758Z" fill="#C7C7C7"/>
<path d="M401.131 555.756H409.905V548.253H401.131V555.756Z" fill="#C7C7C7"/>
<path d="M401.131 539.739H409.905V532.236H401.131V539.739Z" fill="#C7C7C7"/>
<path d="M401.131 523.738H409.905V516.235H401.131V523.738Z" fill="#C7C7C7"/>
<path d="M388.498 619.794H397.272V612.291H388.498V619.794Z" fill="#C7C7C7"/>
<path d="M388.498 603.777H397.272V596.274H388.498V603.777Z" fill="#C7C7C7"/>
<path d="M388.498 587.775H397.272V580.272H388.498V587.775Z" fill="#C7C7C7"/>
<path d="M388.498 571.758H397.272V564.255H388.498V571.758Z" fill="#C7C7C7"/>
<path d="M388.498 555.756H397.272V548.253H388.498V555.756Z" fill="#C7C7C7"/>
<path d="M388.498 539.739H397.272V532.236H388.498V539.739Z" fill="#C7C7C7"/>
<path d="M388.498 523.738H397.272V516.235H388.498V523.738Z" fill="#C7C7C7"/>
<path d="M375.911 619.794H384.686V612.291H375.911V619.794Z" fill="#C7C7C7"/>
<path d="M375.911 603.777H384.686V596.274H375.911V603.777Z" fill="#C7C7C7"/>
<path d="M375.911 587.775H384.686V580.272H375.911V587.775Z" fill="#C7C7C7"/>
<path d="M375.911 571.758H384.686V564.255H375.911V571.758Z" fill="#C7C7C7"/>
<path d="M375.911 555.756H384.686V548.253H375.911V555.756Z" fill="#C7C7C7"/>
<path d="M375.911 539.739H384.686V532.236H375.911V539.739Z" fill="#C7C7C7"/>
<path d="M375.911 523.738H384.686V516.235H375.911V523.738Z" fill="#C7C7C7"/>
<path d="M407.791 494.093H371.516V506.833H407.791V494.093Z" fill="#C7C7C7"/>
<path d="M391.177 486.207H371.516V494.093H391.177V486.207Z" fill="#DBDBDB"/>
<path d="M643.07 638.905L562.694 639.272L482.302 639.41L321.535 639.67L160.767 639.41L80.3913 639.272L0 638.905L80.3913 638.522L160.767 638.399L321.535 638.139L482.302 638.399L562.694 638.537L643.07 638.905Z" fill="#263238"/>
<path d="M643.07 629.181H0V638.506H643.07V629.181Z" fill="#C7C7C7"/>
<path d="M45.0803 629.181C45.6167 630.678 45.8762 632.261 45.8459 633.851C45.8762 635.417 45.6166 636.974 45.0803 638.445C44.0592 635.42 44.0592 632.144 45.0803 629.12V629.181Z" fill="#263238"/>
<path d="M95.3513 629.181C96.3723 632.205 96.3723 635.481 95.3513 638.506C94.8149 637.035 94.5554 635.478 94.5856 633.912C94.5479 632.301 94.8074 630.697 95.3513 629.181Z" fill="#263238"/>
<path d="M145.608 629.181C146.144 630.678 146.404 632.261 146.373 633.851C146.403 635.417 146.144 636.974 145.608 638.445C144.587 635.42 144.587 632.144 145.608 629.12V629.181Z" fill="#263238"/>
<path d="M195.88 629.181C196.901 632.205 196.901 635.481 195.88 638.506C195.343 637.035 195.084 635.478 195.114 633.912C195.076 632.301 195.336 630.697 195.88 629.181Z" fill="#263238"/>
<path d="M246.136 629.181C246.672 630.678 246.932 632.261 246.902 633.851C246.932 635.417 246.672 636.974 246.136 638.445C245.115 635.42 245.115 632.144 246.136 629.12V629.181Z" fill="#263238"/>
<path d="M296.407 629.181C297.428 632.205 297.428 635.481 296.407 638.506C295.871 637.035 295.611 635.478 295.641 633.912C295.604 632.301 295.863 630.697 296.407 629.181Z" fill="#263238"/>
<path d="M346.662 629.181C347.199 630.678 347.458 632.261 347.428 633.851C347.458 635.417 347.199 636.974 346.662 638.445C345.641 635.42 345.641 632.144 346.662 629.12V629.181Z" fill="#263238"/>
<path d="M396.934 629.181C397.955 632.205 397.955 635.481 396.934 638.506C396.398 637.035 396.138 635.478 396.169 633.912C396.131 632.301 396.39 630.697 396.934 629.181Z" fill="#263238"/>
<path d="M447.19 629.181C447.726 630.678 447.986 632.261 447.955 633.851C447.986 635.417 447.726 636.974 447.19 638.445C446.169 635.42 446.169 632.144 447.19 629.12V629.181Z" fill="#263238"/>
<path d="M497.462 629.181C498.483 632.205 498.483 635.481 497.462 638.506C496.925 637.035 496.666 635.478 496.696 633.912C496.658 632.301 496.918 630.697 497.462 629.181Z" fill="#263238"/>
<path d="M547.718 629.181C548.254 630.678 548.514 632.261 548.484 633.851C548.514 635.417 548.254 636.974 547.718 638.445C546.697 635.42 546.697 632.144 547.718 629.12V629.181Z" fill="#263238"/>
<path d="M597.989 629.181C599.01 632.205 599.01 635.481 597.989 638.506C597.453 637.035 597.193 635.478 597.223 633.912C597.186 632.301 597.445 630.697 597.989 629.181Z" fill="#263238"/>
<path d="M527.107 42.2934L526.739 41.2062C527.704 40.8693 528.684 40.5631 529.664 40.2568L530.001 41.344L527.107 42.2934Z" fill="#263238"/>
<path d="M381.942 166.066L381.697 164.933C383.719 164.519 385.724 164.014 387.669 163.401L387.975 164.504C386.015 165.132 383.979 165.637 381.942 166.066ZM395.341 162.069L394.927 160.997C396.811 160.262 398.71 159.466 400.547 158.547L401.037 159.588C399.169 160.492 397.255 161.319 395.341 162.069ZM407.882 155.944L407.285 154.964C409.015 153.923 410.745 152.79 412.43 151.611L413.088 152.545C411.373 153.693 409.628 154.826 407.882 155.883V155.944ZM419.259 147.828L418.524 146.94C420.055 145.669 421.587 144.291 423.118 142.867L423.899 143.709C422.383 145.087 420.821 146.466 419.259 147.767V147.828ZM429.473 138.243L428.63 137.446C430.009 136.022 431.402 134.491 432.811 132.853L433.668 133.618C432.26 135.195 430.851 136.742 429.473 138.181V138.243ZM438.66 127.738L437.772 127.003C439.074 125.472 440.345 123.803 441.616 122.164L442.519 122.869C441.263 124.461 439.982 126.064 438.676 127.677L438.66 127.738ZM447.205 116.682L446.286 116.009L449.961 111.017L450.88 111.691L447.205 116.682ZM455.428 105.412L454.494 104.739L458.153 99.716L459.072 100.39L455.428 105.412ZM463.681 94.0963L462.762 93.4072C464.003 91.7535 465.258 90.0997 466.529 88.4612L467.433 89.1656C466.162 90.8041 464.921 92.4425 463.681 94.0963ZM472.241 83.1171L471.353 82.3821C472.67 80.8509 474.002 79.1971 475.365 77.6352L476.222 78.3855C474.875 79.9474 473.542 81.5246 472.241 83.1171ZM481.428 72.6586L480.586 71.8777C482.041 70.3464 483.511 68.8151 484.95 67.437L485.762 68.2639C484.307 69.5961 482.837 71.1273 481.413 72.6586H481.428ZM491.428 63.0423L490.677 62.1694C492.209 60.7913 493.878 59.4591 495.47 58.2188L496.19 59.1222C494.567 60.4085 493.035 61.6641 491.412 63.0423H491.428ZM502.407 54.5897L501.764 53.6403C503.479 52.4765 505.24 51.3434 507.001 50.3021L507.598 51.2822C505.837 52.3234 504.091 53.4412 502.391 54.5897H502.407ZM514.335 47.6071L513.83 46.5812C515.668 45.6624 517.582 44.7896 519.48 43.978L519.924 45.0346C518.026 45.8309 516.158 46.7037 514.32 47.6071H514.335Z" fill="#263238"/>
<path d="M371.071 167.689L370.964 166.54C371.985 166.448 373.006 166.341 374.026 166.219L374.164 167.352L371.071 167.689Z" fill="#263238"/>
<path d="M541.562 21.3916L529.833 40.8081L548.269 31.4674L613.731 21.3457L541.562 21.3916Z" fill="#FFC727"/>
<path opacity="0.1" d="M541.562 21.3916L529.833 40.8081L548.269 31.4674L613.731 21.3457L541.562 21.3916Z" fill="black"/>
<path d="M549.372 36.7501L529.833 40.808L548.269 31.4673L549.372 36.7501Z" fill="#263238"/>
<path d="M548.269 31.4674L613.73 21.3457L553.98 60.3776L548.269 31.4674Z" fill="#FFC727"/>
<path d="M541.562 21.3918L519.404 0L613.73 21.3458L541.562 21.3918Z" fill="#FFC727"/>
<path d="M176.585 185.666H156.847V629.196H176.585V185.666Z" fill="#37474F"/>
<path d="M176.6 629.181H187.304L187.304 185.65H176.6L176.6 629.181Z" fill="#455A64"/>
<path d="M176.585 180.077H155.024V185.65H176.585V180.077Z" fill="#263238"/>
<path d="M176.585 185.666H189.156V180.092H176.585V185.666Z" fill="#37474F"/>
<path d="M176.584 175.146H159.373V180.092H176.584V175.146Z" fill="#37474F"/>
<path d="M185.191 175.146H176.585V180.092H185.191V175.146Z" fill="#455A64"/>
<path d="M183.491 164.014C183.488 166.215 182.833 168.366 181.608 170.194C180.382 172.023 178.643 173.448 176.608 174.288C174.574 175.128 172.336 175.346 170.178 174.915C168.019 174.484 166.037 173.422 164.482 171.865C162.926 170.307 161.868 168.324 161.439 166.165C161.011 164.006 161.232 161.768 162.075 159.735C162.918 157.702 164.345 155.964 166.176 154.741C168.006 153.519 170.158 152.866 172.359 152.866C173.822 152.866 175.271 153.155 176.623 153.715C177.974 154.275 179.202 155.097 180.236 156.132C181.27 157.168 182.09 158.397 182.648 159.749C183.207 161.101 183.493 162.551 183.491 164.014Z" fill="#37474F"/>
<path d="M91.722 224.009V271.478H40.5625V224.453C40.5605 221.149 41.2094 217.878 42.472 214.826C43.7347 211.774 45.5864 209 47.9214 206.664C50.2564 204.327 53.0288 202.474 56.0804 201.209C59.1319 199.945 62.4027 199.294 65.7059 199.294H67.0074C73.5621 199.294 79.8484 201.898 84.4833 206.533C89.1182 211.168 91.722 217.454 91.722 224.009Z" fill="#FFC727"/>
<path d="M172.359 220.15V271.524H91.7224V224.054C91.7284 220.805 91.0936 217.586 89.8543 214.583C88.615 211.579 86.7955 208.849 84.4999 206.549C82.2044 204.249 79.4778 202.425 76.4763 201.18C73.4748 199.935 70.2572 199.294 67.0078 199.294H151.564C157.085 199.31 162.374 201.515 166.272 205.424C170.17 209.334 172.359 214.629 172.359 220.15Z" fill="#FFC727"/>
<path opacity="0.1" d="M172.359 220.15V271.524H91.7224V224.054C91.7284 220.805 91.0936 217.586 89.8543 214.583C88.615 211.579 86.7955 208.849 84.4999 206.549C82.2044 204.249 79.4778 202.425 76.4763 201.18C73.4748 199.935 70.2572 199.294 67.0078 199.294H151.564C157.085 199.31 162.374 201.515 166.272 205.424C170.17 209.334 172.359 214.629 172.359 220.15Z" fill="#020100"/>
<path opacity="0.1" d="M105.718 223.09V271.524H102.426V224.054C102.432 220.806 101.798 217.589 100.559 214.586C99.3209 211.583 97.5027 208.854 95.2088 206.554C92.9148 204.255 90.1901 202.43 87.1903 201.184C84.1906 199.938 80.9747 199.296 77.7266 199.294H81.9222C88.2333 199.294 94.2858 201.801 98.7484 206.264C103.211 210.726 105.718 216.779 105.718 223.09Z" fill="#020100"/>
<path opacity="0.1" d="M164.87 223.09V271.524H161.578V224.054C161.578 217.502 158.976 211.218 154.345 206.584C149.713 201.95 143.431 199.344 136.879 199.34H141.075C147.378 199.34 153.423 201.841 157.885 206.293C162.346 210.746 164.858 216.787 164.87 223.09Z" fill="#020100"/>
<g opacity="0.1">
<path d="M123.619 258.784V251.127L120.848 256.701H119.316L116.545 251.127V258.784H113.574V245.982H116.79L120.113 252.659L123.436 245.982H126.636V258.784H123.619Z" fill="#020100"/>
<path d="M132.501 245.982H135.18L139.774 258.784H136.712L135.716 255.905H131.735L130.755 258.784H127.692L132.501 245.982ZM135.333 253.868L133.802 249.275L132.271 253.868H135.333Z" fill="#020100"/>
<path d="M141.106 258.784V245.982H144.062V258.784H141.106Z" fill="#020100"/>
<path d="M146.512 258.784V245.982H149.467V256.181H155.669V258.784H146.512Z" fill="#020100"/>
</g>
<path opacity="0.3" d="M89.1039 225.172V267.833H43.166V225.57C43.166 222.599 43.7522 219.657 44.8911 216.913C46.03 214.168 47.6992 211.676 49.803 209.578C51.9068 207.479 54.4039 205.817 57.1513 204.686C59.8986 203.554 62.8422 202.976 65.8134 202.984H66.9772C72.8512 203 78.4791 205.345 82.6269 209.504C86.7747 213.664 89.104 219.298 89.1039 225.172Z" fill="#020100"/>
<path d="M34.8817 276.316L40.5627 271.569H91.7222L86.5772 275.872C70.0242 289.761 47.3768 301.031 33.4882 301.031H30.1501C16.5065 300.985 14.5312 291.981 34.8817 276.316Z" fill="#37474F"/>
<path d="M91.7071 271.523L86.5774 275.826C70.0244 289.715 47.377 300.985 33.4885 300.985H29.8594C16.4761 300.847 14.6692 291.797 34.8819 276.27L40.5476 271.523H91.7071Z" fill="#37474F"/>
<path d="M87.9249 271.523L82.7951 275.826C66.3034 289.608 43.7632 300.893 29.8594 300.985C16.4761 300.847 14.6692 291.797 34.8819 276.27L40.5476 271.523H87.9249Z" fill="#455A64"/>
<path d="M164.442 292.594V305.655L137.293 271.523H147.69L164.442 292.594Z" fill="#455A64"/>
<path d="M164.442 305.655H160.614L133.465 271.523H137.308L164.442 305.655Z" fill="#37474F"/>
<path d="M122.471 177.198V189.295H111.399V234.728C111.399 235.743 110.996 236.717 110.278 237.434C109.56 238.152 108.587 238.556 107.571 238.556C106.556 238.556 105.582 238.152 104.864 237.434C104.146 236.717 103.743 235.743 103.743 234.728V174.166L111.399 175.406L122.471 177.198Z" fill="#455A64"/>
<path d="M122.47 177.198V189.295H111.399V234.728C111.396 235.607 111.089 236.459 110.531 237.14C109.974 237.82 109.198 238.288 108.336 238.464C108.075 238.525 107.808 238.556 107.54 238.556C107.326 238.58 107.111 238.58 106.897 238.556C106.112 238.435 105.387 238.064 104.83 237.499C104.115 236.778 103.713 235.804 103.712 234.789V174.166L111.368 175.406L122.47 177.198Z" fill="#455A64"/>
<path d="M107.524 238.556H104.538C103.701 238.565 102.893 238.252 102.28 237.682C101.667 237.112 101.297 236.329 101.246 235.493V174.166H103.696V234.728C103.698 235.743 104.099 236.717 104.814 237.438C105.566 238.104 106.521 238.498 107.524 238.556Z" fill="#37474F"/>
<path d="M89.104 225.172V255.17L81.4477 251.97L76.9764 250.086L75.001 249.259L73.7148 248.708L72.3519 248.141L71.9385 247.973L71.4026 247.743L60.1631 242.996L62.5365 237.346L62.9959 236.274L65.0325 231.466L65.8441 229.506L66.181 228.74L67.5897 225.371L69.121 221.574L75.246 206.935L83.2699 210.319C85.6448 212.936 87.3522 216.088 88.2465 219.507C88.7762 221.35 89.0644 223.255 89.104 225.172Z" fill="#EBEBEB"/>
<path d="M89.1039 232.982V236.32L88.9201 235.937V235.769L88.7823 235.478C88.7253 235.384 88.6742 235.287 88.6292 235.187L86.807 231.435C86.807 231.282 86.6538 231.129 86.5773 230.96L84.9695 227.592C84.6326 226.918 84.311 226.244 83.9895 225.555L83.8976 225.341L81.4629 220.211C80.8657 218.909 80.2532 217.608 79.656 216.291C78.2472 213.228 76.7925 210.074 75.4297 206.904C77.0835 209.829 78.63 212.8 80.2379 215.755C81.0035 217.286 81.7691 218.649 82.5348 220.104L84.9542 224.698L85.2757 225.325L86.3017 227.316L87.5573 229.781C87.5573 229.904 87.6951 230.026 87.7564 230.149L89.1039 232.982Z" fill="#DBDBDB"/>
<path d="M89.1035 235.738V235.876H88.9197L88.4603 236.014C86.5156 236.611 84.5709 237.147 82.6109 237.652L81.9678 237.806L80.5437 238.158H80.3753L78.6909 238.556L75.3987 239.291C73.0711 239.781 70.8049 240.24 68.4008 240.638H68.1252L66.7011 240.868C64.7257 241.205 62.7504 241.481 60.7598 241.695C62.4748 241.128 64.1898 240.638 65.9201 240.164L67.4514 239.766L67.9261 239.628C70.3149 239.015 72.7342 238.479 75.1383 237.943L77.2974 237.484C77.9405 237.377 78.5684 237.239 79.2115 237.116C79.8546 236.994 80.7428 236.81 81.539 236.688L82.4272 236.535L82.9172 236.443C84.6934 236.136 86.485 235.861 88.3072 235.646H88.8585L89.1035 235.738Z" fill="#DBDBDB"/>
<path d="M89.1194 228.143H49.4902V267.282H89.1194V228.143Z" fill="white"/>
<path d="M89.1037 246.212V248.126L88.7362 248.447L88.0318 249.075C87.9464 249.142 87.8646 249.214 87.7868 249.29L87.5724 249.489L87.4193 249.626L81.4933 254.772L80.6818 255.461L80.3296 255.752L79.9774 255.461L77.0067 252.873L75.4755 251.602C75.1692 251.326 74.8476 251.066 74.5414 250.775C74.4597 250.727 74.3872 250.664 74.327 250.591L73.2551 249.672L73.1173 249.55L72.8723 249.336L72.6273 249.136C70.5856 247.411 68.6052 245.666 66.686 243.9L65.8898 243.195L64.6188 242.062L62.5057 240.179C60.9744 238.862 59.5503 237.529 58.0956 236.182L57.575 235.723L57.0084 235.217C54.4972 232.874 51.9553 230.623 49.4746 228.204C52.1237 230.241 54.7268 232.4 57.3453 234.482C57.5444 234.651 57.7587 234.804 57.9578 234.988L58.6163 235.524L62.965 239.091L65.1701 240.914L67.421 242.797L68.3857 243.609C70.2028 245.13 72.0148 246.661 73.8217 248.202L74.2198 248.539L75.2764 249.443L75.7511 249.841L76.6392 250.606L80.2989 253.669C82.4427 251.832 84.6018 249.979 86.7609 248.156L87.404 247.605C87.8175 247.253 88.2156 246.901 88.6443 246.564L89.1037 246.212Z" fill="#DBDBDB"/>
<path d="M73.9446 249.029L72.9646 249.856C71.4334 251.158 69.9021 252.413 68.2177 253.623C66.2577 255.154 64.2517 256.563 62.2305 257.987C60.2092 259.411 58.1573 260.774 56.1054 262.106C54.0535 263.439 51.9097 264.755 49.7354 265.95C51.6035 264.311 53.5635 262.78 55.5235 261.279C57.4835 259.779 59.5048 258.339 61.5108 256.915C63.5167 255.491 65.5992 254.113 67.6358 252.781C69.2896 251.724 70.974 250.668 72.7043 249.718L73.914 249.045L73.9446 249.029Z" fill="#DBDBDB"/>
<path d="M89.1035 250.392V251.035L87.7866 249.933L87.4191 249.627L86.8066 249.106H86.9138L87.6488 249.519L88.1082 249.795L89.1035 250.392Z" fill="#DBDBDB"/>
<path d="M229.491 464.663C229.491 464.663 180.95 505.808 180.904 505.823C171.579 513.648 163.539 520.676 159.727 524.688C158.738 525.521 157.953 526.569 157.43 527.751C157.43 527.751 157.43 527.827 157.43 527.858C157.874 532.207 218.19 608.555 221.192 610.546C224.193 612.537 229.996 604.115 230.012 599.276C230.027 594.437 220.012 554.869 220.012 554.869L268.14 513.28L229.491 464.663Z" fill="#EB9481"/>
<path d="M190.872 497.355C190.872 497.355 180.95 505.777 180.904 505.792C171.579 513.617 163.539 520.645 159.727 524.657C158.843 525.584 158.072 526.612 157.43 527.72C157.43 527.72 157.43 527.796 157.43 527.827C157.874 532.176 218.19 608.525 221.192 610.515C224.193 612.506 229.996 604.084 230.012 599.245C230.027 594.406 220.012 554.839 220.012 554.839L230.241 546.401L190.872 497.355Z" fill="#EBEBEB"/>
<path d="M221.114 610.576C218.052 608.632 157.796 532.283 157.352 527.888C157.153 526.219 167.765 516.786 180.903 505.761L181.332 505.409L220.777 554.226L219.935 554.869C219.935 554.869 229.95 594.422 229.934 599.276C229.919 604.13 224.1 612.552 221.114 610.576Z" fill="#FFC727"/>
<path d="M223.38 607.376C213.534 594.269 172.573 542.282 161.839 530.063C161.747 529.971 161.67 530.063 161.762 530.063C171.241 543.278 212.615 594.927 223.181 607.483C223.396 607.805 223.533 607.652 223.38 607.376Z" fill="#263238"/>
<path d="M223.059 559.172C219.996 553.368 214.331 547.779 207.67 546.769C207.409 546.769 207.348 547.09 207.532 547.213C212.917 550.821 217.902 554.994 222.4 559.662C222.47 559.735 222.564 559.78 222.665 559.789C222.765 559.797 222.865 559.768 222.946 559.708C223.027 559.648 223.083 559.56 223.104 559.461C223.125 559.362 223.109 559.26 223.059 559.172Z" fill="#263238"/>
<path d="M223.733 564.562C220.67 558.759 215.005 553.185 208.42 552.159C208.16 552.159 208.114 552.481 208.298 552.603C213.679 556.211 218.658 560.385 223.151 565.052C223.223 565.089 223.305 565.103 223.385 565.094C223.466 565.085 223.542 565.052 223.604 565C223.666 564.947 223.711 564.878 223.734 564.8C223.757 564.723 223.757 564.64 223.733 564.562Z" fill="#263238"/>
<path d="M224.422 569.967C221.359 564.149 215.694 558.575 209.033 557.549C208.772 557.549 208.726 557.886 208.91 558.008C214.291 561.611 219.27 565.779 223.763 570.442C223.833 570.508 223.924 570.547 224.02 570.553C224.115 570.56 224.21 570.532 224.288 570.476C224.366 570.42 224.422 570.339 224.446 570.246C224.471 570.153 224.462 570.054 224.422 569.967Z" fill="#263238"/>
<path d="M255.139 416.351C252.077 433.746 181.822 504.506 181.822 504.506L233.242 561.163C233.242 561.163 332.774 457.037 326.649 418.878C321.244 385.71 268.308 253.072 268.308 253.072L210.84 254.42C210.84 254.42 258.186 399.247 255.139 416.351Z" fill="#37474F"/>
<path d="M238.617 547.259C231.772 539.128 233.855 541.363 226.918 533.309C223.519 529.374 201.193 503.51 197.38 500.387C197.288 500.387 197.15 500.387 197.211 500.54C199.815 504.72 222.6 530.185 226.06 534.059C233.15 541.976 231.206 539.633 238.311 547.458C238.324 547.478 238.341 547.495 238.36 547.509C238.38 547.522 238.402 547.532 238.426 547.537C238.449 547.542 238.474 547.542 238.497 547.538C238.521 547.533 238.543 547.524 238.563 547.511C238.583 547.498 238.601 547.481 238.614 547.462C238.628 547.442 238.637 547.42 238.642 547.396C238.647 547.373 238.648 547.348 238.643 547.325C238.639 547.301 238.63 547.279 238.617 547.259Z" fill="#263238"/>
<path d="M264.879 410.425C263.96 406.122 262.919 401.835 261.908 397.563C259.866 388.824 257.687 380.106 255.369 371.409C250.816 354.167 245.911 337.032 240.654 320.004C235.356 302.93 229.782 285.872 223.427 269.151C222.631 267.084 221.819 265.032 221.023 263.026C221.011 262.991 220.986 262.963 220.953 262.947C220.92 262.931 220.882 262.929 220.847 262.941C220.813 262.954 220.784 262.979 220.768 263.012C220.753 263.045 220.751 263.083 220.763 263.118C226.321 279.885 232.048 296.606 237.285 313.481C242.522 330.355 247.361 347.169 251.97 364.181C254.282 372.71 256.441 381.27 258.57 389.845C259.591 394.061 260.611 398.282 261.632 402.509C262.855 406.785 263.761 411.145 264.343 415.555C264.596 419.744 263.525 423.907 261.28 427.453C259.213 431.021 256.686 434.405 254.389 437.774C249.627 444.557 204.072 497.768 202.602 499.208C202.48 499.33 202.602 499.499 202.786 499.376C208.911 493.603 247.621 449.717 252.506 442.949C254.91 439.611 257.268 436.212 259.58 432.797C261.891 429.683 263.732 426.247 265.047 422.599C266.052 418.595 265.994 414.399 264.879 410.425Z" fill="#263238"/>
<path d="M256.487 253.348L254.328 405.755C247.866 367.718 210.84 254.42 210.84 254.42L256.487 253.348Z" fill="#263238"/>
<path d="M240.286 535.759C240.286 535.759 254.068 595.876 254.068 595.907C254.512 608.157 255.124 618.723 255.966 624.204C255.959 624.235 255.959 624.266 255.966 624.296C256.017 625.599 256.368 626.872 256.992 628.017L257.069 628.094C260.774 630.421 358.132 629.625 361.455 628.492C364.778 627.359 361.777 617.574 357.979 614.603C354.182 611.633 316.788 595.248 316.788 595.248L302.364 535.177L240.286 535.759Z" fill="#EB9481"/>
<path d="M361.5 628.508C358.116 629.687 260.82 630.452 257.114 628.125L257.037 628.048C256.403 626.908 256.052 625.632 256.011 624.327C256.005 624.313 256.001 624.297 256.001 624.281C256.001 624.265 256.005 624.25 256.011 624.235C255.185 618.753 254.587 608.111 254.128 595.953L251.739 585.479L314.154 584.024L316.849 595.264C316.849 595.264 354.227 611.648 358.055 614.634C361.883 617.62 364.9 627.329 361.5 628.508Z" fill="#EBEBEB"/>
<path d="M361.501 628.508C358.116 629.672 260.835 630.437 257.114 628.11C255.675 627.252 254.741 613.088 254.052 595.953C254.052 595.785 254.052 595.601 254.052 595.417L316.834 594.238V595.295C316.834 595.295 354.196 611.664 358.025 614.65C361.853 617.636 364.885 627.329 361.501 628.508Z" fill="#FFC727"/>
<path d="M360.368 624.726C343.968 624.45 277.787 624.894 261.556 625.859C261.418 625.859 261.418 625.966 261.556 625.966C277.802 626.594 343.983 625.614 360.368 625.001C360.72 624.986 360.72 624.726 360.368 624.726Z" fill="#263238"/>
<path d="M322.101 595.402C315.639 594.238 307.753 595.295 302.869 599.996C302.67 600.179 302.869 600.44 303.144 600.379C309.292 598.33 315.642 596.955 322.086 596.275C322.143 596.276 322.2 596.265 322.254 596.244C322.307 596.223 322.356 596.192 322.397 596.152C322.438 596.112 322.471 596.065 322.494 596.012C322.517 595.96 322.529 595.903 322.53 595.846C322.531 595.789 322.521 595.732 322.5 595.678C322.479 595.625 322.448 595.576 322.408 595.535C322.368 595.494 322.32 595.461 322.268 595.438C322.215 595.415 322.159 595.403 322.101 595.402Z" fill="#263238"/>
<path d="M326.787 598.173C320.325 597.01 312.439 598.066 307.539 602.767C307.355 602.951 307.539 603.211 307.814 603.15C313.967 601.103 320.323 599.728 326.771 599.046C326.829 599.047 326.886 599.037 326.939 599.016C326.992 598.995 327.041 598.964 327.082 598.924C327.124 598.884 327.157 598.836 327.179 598.784C327.202 598.731 327.215 598.675 327.216 598.617C327.217 598.56 327.206 598.503 327.185 598.45C327.164 598.397 327.133 598.348 327.093 598.307C327.053 598.265 327.006 598.232 326.953 598.21C326.901 598.187 326.844 598.174 326.787 598.173Z" fill="#263238"/>
<path d="M331.457 600.945C324.995 599.781 317.109 600.838 312.224 605.539C312.025 605.722 312.224 605.983 312.5 605.921C318.647 603.875 324.998 602.499 331.442 601.818C331.557 601.82 331.669 601.776 331.752 601.695C331.836 601.615 331.884 601.505 331.886 601.389C331.888 601.273 331.844 601.161 331.763 601.078C331.683 600.995 331.573 600.947 331.457 600.945Z" fill="#263238"/>
<path d="M262.749 253.18C262.749 254.389 258.079 303.711 256.517 305.105C254.955 306.498 244.787 313.634 241.771 315.579C241.771 315.579 271.324 400.747 279.287 429.183C290.848 470.42 319.099 594.269 319.099 594.269L251.494 595.8C251.494 595.8 228.173 477.816 218.266 438.539C209.783 404.851 177.902 303.987 177.902 303.987C173.647 287.904 174.077 270.94 179.142 255.094C179.142 255.094 262.764 253.134 262.749 253.18Z" fill="#37474F"/>
<path d="M316.374 581.176C305.747 581.36 308.795 581.176 298.168 581.467C292.977 581.62 258.814 582.646 253.991 583.642C253.884 583.642 253.899 583.841 253.991 583.856C258.876 584.468 293.007 582.845 298.198 582.6C308.81 582.08 305.763 582.11 316.374 581.483C316.415 581.483 316.454 581.466 316.483 581.438C316.511 581.409 316.528 581.37 316.528 581.329C316.528 581.289 316.511 581.25 316.483 581.221C316.454 581.192 316.415 581.176 316.374 581.176Z" fill="#263238"/>
<path d="M259.457 302.547C252.967 306.311 246.818 310.636 241.082 315.471C241.057 315.488 241.035 315.51 241.018 315.536C241.002 315.561 240.99 315.59 240.985 315.619C240.979 315.649 240.979 315.68 240.985 315.71C240.991 315.739 241.003 315.768 241.021 315.793C241.038 315.818 241.059 315.839 241.085 315.856C241.11 315.873 241.139 315.884 241.169 315.89C241.198 315.896 241.229 315.895 241.259 315.889C241.289 315.883 241.317 315.871 241.342 315.854C247.559 311.735 253.944 307.738 259.947 303.298C260.02 303.223 260.064 303.126 260.074 303.022C260.084 302.918 260.059 302.814 260.002 302.727C259.945 302.639 259.86 302.574 259.761 302.542C259.662 302.509 259.555 302.511 259.457 302.547Z" fill="#263238"/>
<path d="M253.194 255.967C253.194 255.737 252.719 255.768 252.765 255.967C254.123 263.513 255.099 271.123 255.69 278.767C255.996 282.289 256.639 301.996 250.377 301.736C249.32 301.736 248.631 300.787 248.187 299.301C247.86 297.308 247.777 295.282 247.942 293.268C247.942 289.119 247.697 284.999 247.314 280.865C246.666 273.176 245.219 265.576 242.996 258.187C242.978 258.143 242.945 258.107 242.902 258.085C242.86 258.063 242.811 258.057 242.765 258.068C242.719 258.079 242.678 258.107 242.65 258.145C242.622 258.184 242.609 258.231 242.613 258.279C244.674 268.734 245.939 279.33 246.395 289.976C246.548 295.106 245.369 303.084 250.744 302.915C256.119 302.747 257.39 289.532 257.42 285.964C257.323 275.824 255.902 265.739 253.194 255.967Z" fill="#263238"/>
<path d="M250.607 302.165C250.309 303.559 250.094 304.971 249.964 306.391C249.749 307.509 249.749 308.657 249.964 309.775C249.964 309.974 250.301 309.943 250.392 309.775C250.847 308.682 251.126 307.525 251.219 306.345C251.464 305.028 251.725 303.726 251.924 302.41C251.915 302.255 251.856 302.108 251.754 301.992C251.652 301.876 251.514 301.797 251.362 301.769C251.21 301.741 251.053 301.764 250.916 301.836C250.779 301.908 250.67 302.024 250.607 302.165Z" fill="#263238"/>
<path d="M242.491 545.636C242.277 544.104 242.032 542.573 241.771 540.965C241.281 537.979 240.7 535.009 240.24 532.023C239.168 526.036 238.005 520.064 236.795 514.107C234.391 502.224 231.665 490.372 228.817 478.597C227.194 471.936 225.341 465.352 223.396 458.782C223.258 458.323 222.615 458.568 222.707 459.012C223.932 465.03 225.127 471.063 226.505 477.066C227.883 483.068 229.246 489.025 230.593 495.012C233.227 506.849 235.708 518.731 238.326 530.568C239.076 533.906 239.75 537.26 240.485 540.598C240.853 542.272 241.235 543.941 241.634 545.605C242.032 547.259 242.583 548.882 242.905 550.551C242.905 550.704 243.165 550.628 243.134 550.551C242.782 548.882 242.721 547.244 242.491 545.636Z" fill="#263238"/>
<path d="M287.005 454.724C284.493 443.561 281.201 432.567 277.894 421.618C271.233 399.583 263.484 377.885 255.767 356.203L249.091 337.46C247.973 334.398 242.475 317.477 241.817 315.885C241.805 315.85 241.779 315.822 241.746 315.806C241.713 315.79 241.675 315.788 241.641 315.8C241.606 315.813 241.578 315.838 241.562 315.871C241.547 315.904 241.545 315.942 241.557 315.976C243.088 321.719 245.354 330.095 247.161 335.791C248.968 341.487 250.913 346.969 252.811 352.635C256.517 363.614 260.284 374.578 263.898 385.603C271.034 407.378 278.123 429.152 284.034 451.31C285.672 457.511 287.326 463.713 288.842 469.96C290.358 476.208 291.69 482.455 293.145 488.703C293.145 488.871 293.467 488.81 293.451 488.703C291.873 477.276 289.721 465.935 287.005 454.724Z" fill="#263238"/>
<path d="M246.35 514.383C242.139 493.067 237.162 471.89 231.741 450.866C226.321 429.841 220.272 408.725 213.688 387.915C207.103 367.106 199.906 346.495 192.158 326.068C188.291 316.465 184.993 306.643 182.282 296.652C179.832 286.699 178.438 275.919 180.536 265.782C181.058 263.21 181.775 260.681 182.68 258.217C182.68 258.049 182.481 257.911 182.419 258.08C174.763 277.22 180.49 297.816 187.12 316.268C190.749 326.42 194.593 336.496 198.176 346.663C201.872 357.096 205.409 367.58 208.788 378.115C215.525 399.002 221.803 420.011 227.484 441.203C233.165 462.396 238.295 483.711 242.797 505.164C247.299 526.617 251.326 548.315 255.308 569.952C255.828 572.77 256.257 575.602 256.686 578.435C256.686 578.588 256.961 578.588 256.946 578.435C253.899 557.044 250.561 535.667 246.35 514.383Z" fill="#263238"/>
<path d="M232.721 165.622C239.719 191.47 256.149 231.466 269.839 230.976C282.319 230.486 309.652 207.686 321.182 200.152C332.713 192.618 305.87 164.627 299.255 169.419C289.041 176.831 273.82 190 271.171 189.219C267.879 188.239 263.515 180.307 244.343 157.062C236.411 147.507 229.659 154.612 232.721 165.622Z" fill="#EB9481"/>
<path d="M311.474 158.104C316.925 156.021 323.02 153.204 329.145 153.173C335.27 153.142 340.522 161.105 340.583 163.417C340.645 165.729 338.654 180.261 332.544 180.353C326.435 180.445 329.865 169.328 329.604 168.103C329.344 166.878 329.068 165.224 327.92 165.377C326.771 165.53 306.804 175.56 306.804 175.56L311.474 158.104Z" fill="#EB9481"/>
<path d="M311.872 158.93C312.224 158.93 328.456 152.085 334.581 152.055C340.706 152.024 346.035 159.941 346.035 162.284C346.035 164.626 344.105 179.128 337.995 179.219C331.886 179.311 335.316 168.194 335.055 166.969C334.795 165.744 334.519 164.075 333.371 164.228C332.223 164.381 312.255 174.427 312.255 174.427L311.872 158.93Z" fill="#EB9481"/>
<path d="M335.882 178.5C335.214 177.414 334.834 176.175 334.779 174.901C334.626 173.6 334.673 172.284 334.917 170.997C335.228 169.888 335.448 168.756 335.576 167.612C335.542 166.481 335.226 165.376 334.657 164.397C334.167 163.555 333.264 163.861 332.498 164.152C331.374 164.603 330.275 165.115 329.206 165.683L325.776 167.597C324.566 168.204 323.395 168.884 322.269 169.634C322.247 169.644 322.229 169.663 322.221 169.686C322.212 169.708 322.213 169.734 322.223 169.756C322.233 169.779 322.252 169.796 322.275 169.805C322.298 169.813 322.323 169.812 322.346 169.802C323.392 169.345 324.414 168.834 325.408 168.271L328.869 166.587C329.956 166.081 331.013 165.499 332.115 165.055C332.498 164.887 333.264 164.443 333.646 164.535C334.029 164.627 334.366 165.775 334.489 166.142C334.765 167.235 334.717 168.384 334.351 169.45C334.053 170.551 333.869 171.68 333.8 172.819C333.714 173.891 333.823 174.97 334.121 176.004C334.527 176.924 335.041 177.793 335.652 178.592C335.775 178.729 335.974 178.592 335.882 178.5Z" fill="#263238"/>
<path d="M292.854 175.437C292.854 175.437 309.437 159.589 312.898 156.45C319.834 150.125 349.357 137.248 353.507 136.712C357.657 136.176 359.341 144.659 339.312 153.984C328.762 158.884 327.062 165.04 327.292 168.424C327.521 171.808 330.951 178.04 336.632 177.749C342.313 177.459 345.82 169.067 351.042 168.026C356.263 166.985 353.017 176.647 349.51 182.267C345.759 187.691 340.544 191.939 334.473 194.517C329.589 196.477 314.567 203.398 314.567 203.398L292.854 175.437Z" fill="#EB9481"/>
<path d="M343.615 173.584C341.502 175.299 339.128 177.504 336.311 177.673C333.493 177.841 331.457 176.004 330.048 173.661C328.502 171.36 327.899 168.553 328.364 165.821C328.972 163.348 330.273 161.101 332.115 159.343C334.401 157.216 336.979 155.427 339.771 154.03C339.894 154.03 339.771 153.785 339.649 153.846C337.061 155.087 328.93 158.608 327.537 165.836C327.084 168.627 327.714 171.486 329.298 173.829C330.614 176.065 332.498 178.209 335.27 178.423C338.638 178.622 341.471 175.82 343.845 173.722C343.875 173.569 343.722 173.492 343.615 173.584Z" fill="#263238"/>
<path d="M292.808 173.278L319.069 212.004C319.069 212.004 279.379 235.509 267.94 232.14C256.502 228.771 238.525 196.553 230.777 168.103C223.028 139.652 240.868 150.187 247.896 158.915C254.925 167.643 270.191 187.703 271.003 187.412C271.814 187.121 292.808 173.278 292.808 173.278Z" fill="#FFC727"/>
<path d="M307.661 218.358C305.196 219.675 302.486 221.069 299.638 222.462L276.745 183.752C279.042 182.221 281.706 180.536 284.202 178.913C291.415 191.01 300.173 205.726 307.661 218.358Z" fill="#EBEBEB"/>
<path d="M296.544 223.963L293.91 225.173L271.37 187.151C271.86 186.876 272.687 186.355 273.759 185.62C280.849 197.564 289.286 211.743 296.544 223.963Z" fill="#EBEBEB"/>
<path d="M291.047 226.444C281.967 230.394 273.039 233.319 268.323 232.247L267.91 232.14C256.456 228.771 238.509 196.569 230.746 168.102C229.591 164.295 228.947 160.35 228.832 156.373C228.832 156.22 228.832 156.097 228.832 155.944C228.832 155.791 228.832 155.5 228.832 155.27C228.824 155.179 228.824 155.087 228.832 154.995C228.815 154.791 228.815 154.586 228.832 154.382L291.047 226.444Z" fill="#263238"/>
<path d="M304.829 208.497C304.002 207.119 303.145 205.741 302.302 204.378C300.603 201.637 290.404 185.391 286.408 180.475C286.301 180.337 286.102 180.475 286.163 180.644C289.011 186.34 299.561 202.28 301.322 204.914C302.226 206.246 303.114 207.594 304.033 208.926C304.951 210.258 306.023 211.499 306.942 212.846C307.034 212.969 307.248 212.846 307.172 212.724C306.33 211.346 305.656 209.876 304.829 208.497Z" fill="#263238"/>
<path d="M173.462 280.099C173.707 280.36 275 268.278 275.888 267.191C277.144 265.659 251.25 164.719 240.302 151.397C237.959 148.548 230.532 147.982 224.269 148.977C222.636 149.217 221.027 149.602 219.461 150.126H219.308C218.041 150.535 216.854 151.162 215.801 151.978C198.774 166.541 185.681 215.863 182.741 230.655C177.841 255.063 172.589 279.165 173.462 280.099Z" fill="#FFC727"/>
<path d="M273.805 256.242C249.305 259.412 196.155 266.302 175.023 268.829C175.758 265.077 176.647 260.606 177.657 255.675L270.804 244.022C271.983 248.616 273.009 252.781 273.805 256.242Z" fill="#EBEBEB"/>
<path d="M269.549 239.046C245.355 242.185 200.642 247.958 178.684 250.638L179.541 246.442L268.553 235.218C268.89 236.504 269.227 237.79 269.549 239.046Z" fill="#EBEBEB"/>
<path d="M208.91 178.454C214.039 204.868 237.452 253.93 252.061 258.263C268.981 263.271 326.817 243.288 338.057 234.636C342.528 231.206 317.584 202.479 312.025 204.623C288.505 213.903 267.618 218.879 264.479 216.873C259.702 213.811 239.979 186.815 227.086 170.093C210.9 149.084 206.598 166.617 208.91 178.454Z" fill="#EB9481"/>
<path d="M336.572 235.478C339.144 234.482 356.693 221.115 361.807 214.913C367.366 208.487 371.836 201.193 375.037 193.322C380.044 180.858 382.326 171.777 380.963 167.765C379.432 163.095 378.927 162.345 367.059 183.078C360.352 194.823 353.722 196.277 347.949 196.293C333.736 196.359 319.747 199.835 307.156 206.43C307.156 206.43 326.695 239.26 336.572 235.478Z" fill="#EB9481"/>
<path d="M389.462 152.284L359.541 191.898C359.112 192.442 358.538 192.853 357.885 193.083C357.231 193.314 356.526 193.354 355.851 193.2L334.183 186.554C333.905 186.497 333.647 186.363 333.44 186.167C333.233 185.972 333.085 185.723 333.011 185.447C332.938 185.172 332.943 184.882 333.026 184.61C333.108 184.337 333.265 184.093 333.479 183.905L363.4 144.291C363.826 143.744 364.401 143.331 365.055 143.1C365.709 142.87 366.415 142.831 367.09 142.989L388.758 149.635C389.037 149.692 389.294 149.826 389.501 150.022C389.708 150.217 389.857 150.466 389.93 150.742C390.003 151.017 389.998 151.307 389.915 151.579C389.833 151.852 389.676 152.096 389.462 152.284Z" fill="#37474F"/>
<path d="M386.812 148.977L365.145 142.331C364.468 142.178 363.762 142.221 363.109 142.454C362.455 142.687 361.882 143.101 361.454 143.648L331.549 183.262C331.317 183.446 331.143 183.694 331.049 183.975C330.955 184.257 330.944 184.559 331.019 184.846C331.094 185.133 331.25 185.392 331.469 185.592C331.688 185.792 331.961 185.924 332.253 185.972L353.921 192.618C354.596 192.769 355.3 192.727 355.952 192.496C356.605 192.266 357.18 191.857 357.611 191.316L387.517 151.702C387.754 151.519 387.932 151.27 388.029 150.987C388.126 150.703 388.138 150.398 388.063 150.107C387.988 149.817 387.83 149.555 387.607 149.354C387.385 149.153 387.108 149.022 386.812 148.977ZM357.152 189.601C356.764 190.114 356.239 190.507 355.637 190.734C355.036 190.962 354.382 191.015 353.752 190.888L334.382 184.946C333.295 184.609 333.05 183.415 333.846 182.45L361.699 145.562C363.231 143.449 364.257 143.602 365.344 143.939L369.218 145.133C369.448 145.133 369.463 145.486 369.218 145.761L369.126 145.884C368.621 146.557 369.034 146.68 369.54 146.833L378.513 149.589C378.751 149.723 379.032 149.758 379.295 149.686C379.559 149.615 379.784 149.442 379.921 149.207L380.013 149.084C380.096 148.951 380.215 148.845 380.356 148.777C380.497 148.71 380.654 148.683 380.81 148.701L384.699 149.896C385.771 150.217 386.445 150.768 384.975 152.713L357.152 189.601Z" fill="#263238"/>
<path d="M375.895 147.768L373.46 147.002C373.447 146.992 373.437 146.979 373.43 146.964C373.423 146.95 373.419 146.934 373.419 146.918C373.419 146.901 373.423 146.885 373.43 146.871C373.437 146.856 373.447 146.843 373.46 146.833C373.489 146.794 373.529 146.764 373.576 146.747C373.622 146.731 373.673 146.729 373.72 146.742L376.17 147.492C376.186 147.501 376.199 147.515 376.208 147.531C376.217 147.547 376.222 147.565 376.222 147.584C376.222 147.602 376.217 147.62 376.208 147.637C376.199 147.653 376.186 147.666 376.17 147.676C376.137 147.715 376.094 147.745 376.045 147.761C375.997 147.777 375.944 147.779 375.895 147.768Z" fill="white"/>
<path d="M385.006 152.714L357.152 189.602C356.764 190.114 356.239 190.507 355.638 190.735C355.036 190.962 354.383 191.015 353.753 190.888L334.382 184.947C333.295 184.61 333.05 183.415 333.846 182.451L361.7 145.563C363.231 143.449 364.257 143.603 365.344 143.939L369.219 145.134C369.448 145.134 369.464 145.486 369.219 145.762L369.127 145.884C368.621 146.558 369.035 146.68 369.54 146.834L378.513 149.59C378.751 149.723 379.033 149.758 379.296 149.687C379.56 149.615 379.784 149.443 379.922 149.207L380.014 149.085C380.097 148.952 380.216 148.846 380.357 148.778C380.498 148.71 380.655 148.684 380.81 148.702L384.7 149.896C385.848 150.218 386.476 150.754 385.006 152.714Z" fill="white"/>
<path d="M385.006 152.714L382.923 155.47L359.617 148.319L361.7 145.563C363.231 143.449 364.257 143.603 365.344 143.939L369.218 145.134C369.448 145.134 369.463 145.486 369.218 145.762L369.126 145.884C368.621 146.558 369.034 146.68 369.54 146.834L378.513 149.59C378.751 149.723 379.032 149.758 379.296 149.687C379.559 149.615 379.784 149.443 379.922 149.207L380.014 149.085C380.097 148.952 380.215 148.846 380.356 148.778C380.497 148.71 380.655 148.684 380.81 148.702L384.684 149.896C385.848 150.218 386.476 150.754 385.006 152.714Z" fill="#FFC727"/>
<path d="M362.986 147.691L362.741 146.91L363.859 146.558L363.89 146.68L362.971 146.986L363.17 147.629L362.986 147.691Z" fill="white"/>
<path d="M382.878 152.805C382.846 152.826 382.808 152.837 382.77 152.837C382.732 152.837 382.695 152.826 382.663 152.805C382.651 152.797 382.64 152.785 382.633 152.772C382.626 152.759 382.622 152.744 382.622 152.729C382.622 152.714 382.626 152.699 382.633 152.685C382.64 152.672 382.651 152.661 382.663 152.652C382.686 152.618 382.719 152.591 382.757 152.574C382.795 152.558 382.837 152.553 382.878 152.56C382.908 152.667 382.939 152.744 382.878 152.805Z" fill="white"/>
<path d="M382.556 153.234C382.522 153.256 382.482 153.267 382.441 153.267C382.4 153.267 382.361 153.256 382.326 153.234C382.314 153.225 382.303 153.214 382.296 153.201C382.289 153.187 382.285 153.172 382.285 153.157C382.285 153.142 382.289 153.127 382.296 153.114C382.303 153.1 382.314 153.089 382.326 153.081C382.348 153.045 382.38 153.016 382.419 153C382.457 152.983 382.5 152.98 382.541 152.989C382.573 152.987 382.605 152.998 382.63 153.019C382.654 153.041 382.669 153.071 382.671 153.104C382.673 153.136 382.662 153.168 382.64 153.192C382.619 153.217 382.588 153.232 382.556 153.234Z" fill="white"/>
<path d="M382.233 153.663C382.199 153.685 382.159 153.696 382.119 153.696C382.078 153.696 382.038 153.685 382.004 153.663C381.927 153.663 381.912 153.571 382.004 153.495C382.033 153.464 382.069 153.441 382.109 153.428C382.149 153.415 382.192 153.411 382.233 153.418C382.266 153.418 382.297 153.431 382.32 153.454C382.343 153.477 382.356 153.508 382.356 153.54C382.356 153.573 382.343 153.604 382.32 153.627C382.297 153.65 382.266 153.663 382.233 153.663Z" fill="white"/>
<path d="M367.931 145.762H367.824C367.808 145.701 367.775 145.645 367.729 145.602C367.683 145.559 367.626 145.529 367.564 145.517C367.414 145.472 367.254 145.472 367.104 145.517H367.181H367.334H367.594H367.702V145.609L367.931 145.762Z" fill="white"/>
<path d="M367.15 145.716C367.255 145.685 367.367 145.685 367.472 145.716C367.535 145.717 367.596 145.738 367.645 145.777C367.695 145.815 367.731 145.869 367.748 145.93H367.656C367.639 145.892 367.613 145.859 367.581 145.832C367.549 145.806 367.512 145.787 367.472 145.777C367.377 145.715 367.261 145.693 367.15 145.716Z" fill="white"/>
<path d="M367.471 145.899H367.379C367.373 145.878 367.361 145.858 367.345 145.842C367.329 145.826 367.309 145.814 367.288 145.808C367.232 145.793 367.174 145.793 367.119 145.808C367.334 145.716 367.471 145.762 367.471 145.899Z" fill="white"/>
<path d="M367.334 145.945C367.334 145.945 367.334 145.945 367.242 145.945H367.319C367.319 145.945 367.349 145.93 367.334 145.945Z" fill="white"/>
<path d="M364.196 144.735C364.22 144.701 364.252 144.673 364.289 144.654C364.327 144.635 364.369 144.626 364.41 144.628C364.426 144.638 364.439 144.651 364.449 144.667C364.458 144.683 364.462 144.702 364.462 144.72C364.462 144.739 364.458 144.757 364.449 144.773C364.439 144.789 364.426 144.802 364.41 144.812C364.381 144.852 364.341 144.882 364.295 144.898C364.248 144.914 364.198 144.916 364.15 144.904C364.139 144.891 364.132 144.875 364.128 144.858C364.125 144.842 364.125 144.824 364.13 144.808C364.134 144.791 364.143 144.776 364.154 144.764C364.166 144.751 364.18 144.741 364.196 144.735Z" fill="white"/>
<path d="M364.686 144.889C364.715 144.849 364.755 144.819 364.802 144.803C364.848 144.786 364.898 144.784 364.946 144.797C364.962 144.806 364.975 144.82 364.984 144.836C364.993 144.852 364.998 144.87 364.998 144.889C364.998 144.907 364.993 144.925 364.984 144.941C364.975 144.958 364.962 144.971 364.946 144.981C364.915 145.017 364.874 145.045 364.828 145.061C364.783 145.078 364.733 145.081 364.686 145.072C364.67 145.063 364.657 145.049 364.648 145.033C364.639 145.017 364.634 144.999 364.634 144.981C364.634 144.962 364.639 144.944 364.648 144.928C364.657 144.912 364.67 144.898 364.686 144.889Z" fill="white"/>
<path d="M365.176 145.026C365.203 144.989 365.242 144.961 365.286 144.947C365.33 144.933 365.377 144.934 365.421 144.95C365.513 144.95 365.528 145.057 365.421 145.133C365.382 145.158 365.337 145.171 365.291 145.171C365.245 145.171 365.2 145.158 365.161 145.133C365.13 145.195 365.115 145.103 365.176 145.026Z" fill="white"/>
<path d="M365.651 145.179C365.683 145.144 365.724 145.117 365.769 145.101C365.815 145.085 365.863 145.08 365.911 145.087C365.927 145.097 365.94 145.11 365.949 145.127C365.958 145.143 365.963 145.161 365.963 145.179C365.963 145.198 365.958 145.216 365.949 145.232C365.94 145.248 365.927 145.262 365.911 145.271C365.881 145.309 365.84 145.338 365.794 145.355C365.748 145.371 365.698 145.374 365.651 145.363C365.635 145.354 365.622 145.34 365.613 145.324C365.603 145.308 365.599 145.29 365.599 145.271C365.599 145.253 365.603 145.235 365.613 145.218C365.622 145.202 365.635 145.189 365.651 145.179Z" fill="white"/>
<path d="M366.14 145.332C366.169 145.293 366.209 145.263 366.256 145.246C366.302 145.23 366.353 145.228 366.4 145.241C366.492 145.241 366.507 145.348 366.4 145.424C366.371 145.464 366.331 145.494 366.284 145.51C366.238 145.527 366.187 145.529 366.14 145.516C366.124 145.507 366.111 145.493 366.102 145.477C366.093 145.461 366.088 145.443 366.088 145.424C366.088 145.406 366.093 145.388 366.102 145.372C366.111 145.355 366.124 145.342 366.14 145.332Z" fill="white"/>
<path d="M384.148 151.595L382.173 150.983L383.015 149.88L384.99 150.478L384.148 151.595Z" fill="white"/>
<path d="M383.995 150.646L383.183 150.401L382.923 150.738L383.734 150.998L383.995 150.646Z" fill="white"/>
<path d="M384.21 151.09L384.103 151.059L384.317 150.784L384.424 150.814L384.21 151.09Z" fill="white"/>
<path d="M337.659 183.17L337.491 183.109L336.939 183.844L336.602 183.737L336.878 183.37L336.296 183.186L336.02 183.553L335.684 183.461L336.235 182.726L336.051 182.68L337.414 182.19L337.659 183.17Z" fill="#EBEBEB"/>
<path d="M355.866 188.147L353.921 187.55L354.105 187.32L356.049 187.902L355.866 188.147Z" fill="#EBEBEB"/>
<path d="M355.406 188.759L353.477 188.162L353.66 187.917L355.59 188.514L355.406 188.759Z" fill="#EBEBEB"/>
<path d="M354.946 189.372L353.017 188.775L353.2 188.53L355.13 189.127L354.946 189.372Z" fill="#EBEBEB"/>
<path d="M346.402 185.727L345.453 186.079L345.3 185.39L345.453 185.329L345.591 185.911L346.356 185.605L346.402 185.727Z" fill="#EBEBEB"/>
<path d="M345.437 187.366C345.25 187.397 345.058 187.397 344.871 187.366C344.648 187.297 344.444 187.179 344.275 187.02C344.105 186.86 343.973 186.665 343.891 186.447C343.823 186.209 343.814 185.957 343.864 185.714C343.915 185.472 344.024 185.245 344.182 185.054C344.46 184.703 344.833 184.44 345.256 184.296C345.68 184.152 346.136 184.133 346.57 184.242C346.794 184.305 346.999 184.421 347.167 184.582C347.335 184.742 347.461 184.941 347.535 185.161C347.605 185.398 347.617 185.649 347.569 185.891C347.521 186.134 347.414 186.362 347.259 186.554C347.034 186.815 346.754 187.023 346.439 187.164C346.124 187.304 345.782 187.373 345.437 187.366ZM345.973 185.62C345.786 185.636 345.609 185.712 345.468 185.835C345.675 185.828 345.875 185.753 346.034 185.62H345.973Z" fill="#EBEBEB"/>
<path d="M370.535 149.528C370.659 149.378 370.821 149.265 371.005 149.2C371.188 149.136 371.386 149.122 371.576 149.161C371.642 149.177 371.704 149.207 371.757 149.249C371.81 149.291 371.853 149.345 371.882 149.406C371.882 149.406 371.882 149.513 371.806 149.528C371.729 149.544 371.683 149.528 371.668 149.528C371.648 149.486 371.618 149.448 371.581 149.419C371.543 149.39 371.5 149.37 371.454 149.36C371.325 149.314 371.184 149.314 371.056 149.36C370.932 149.404 370.822 149.478 370.734 149.574C370.698 149.616 370.673 149.665 370.659 149.718C370.646 149.772 370.645 149.827 370.657 149.881C370.676 149.932 370.707 149.978 370.747 150.015C370.787 150.052 370.835 150.079 370.887 150.095C370.997 150.126 371.114 150.126 371.224 150.095H371.346C371.343 150.122 371.331 150.148 371.311 150.167C371.292 150.187 371.267 150.199 371.239 150.202C371.079 150.248 370.909 150.248 370.749 150.202C370.685 150.179 370.627 150.142 370.579 150.092C370.531 150.043 370.496 149.984 370.475 149.918C370.454 149.853 370.449 149.784 370.459 149.716C370.47 149.649 370.496 149.584 370.535 149.528Z" fill="white"/>
<path d="M371.484 150.401L372.158 149.513C372.184 149.499 372.213 149.492 372.242 149.492C372.272 149.492 372.3 149.499 372.327 149.513C372.336 149.52 372.344 149.529 372.349 149.54C372.354 149.55 372.357 149.562 372.357 149.574C372.357 149.586 372.354 149.597 372.349 149.608C372.344 149.619 372.336 149.628 372.327 149.635L372.051 149.987L372.495 150.125L372.771 149.758C372.794 149.744 372.82 149.737 372.847 149.737C372.874 149.737 372.9 149.744 372.924 149.758C372.924 149.758 373 149.758 372.924 149.865L372.25 150.768C372.227 150.782 372.2 150.789 372.173 150.789C372.147 150.789 372.12 150.782 372.097 150.768C372.097 150.768 372.02 150.768 372.097 150.646L372.372 150.278L371.928 150.14L371.653 150.508C371.627 150.521 371.598 150.528 371.569 150.528C371.539 150.528 371.51 150.521 371.484 150.508C371.484 150.508 371.454 150.462 371.484 150.401Z" fill="white"/>
<path d="M373.338 150.753L372.909 150.631L372.679 150.799C372.66 150.81 372.639 150.816 372.618 150.816C372.596 150.816 372.575 150.81 372.557 150.799C372.557 150.799 372.557 150.708 372.557 150.662L373.613 149.881C373.635 149.87 373.658 149.864 373.682 149.864C373.706 149.864 373.73 149.87 373.751 149.881C373.751 149.881 373.751 149.881 373.751 149.957L373.46 150.968C373.448 150.995 373.429 151.018 373.405 151.034C373.38 151.05 373.352 151.059 373.322 151.06C373.322 151.06 373.322 151.06 373.322 150.983L373.338 150.753ZM373.338 150.57L373.445 150.187L373.062 150.478L373.338 150.57Z" fill="white"/>
<path d="M374.868 150.447L374.608 150.355L373.996 151.182C373.97 151.197 373.941 151.205 373.911 151.205C373.882 151.205 373.853 151.197 373.827 151.182V151.075L374.44 150.264L374.179 150.172C374.179 150.172 374.103 150.172 374.179 150.064C374.203 150.051 374.229 150.044 374.256 150.044C374.283 150.044 374.309 150.051 374.332 150.064L375.067 150.294V150.401C375.044 150.43 375.012 150.45 374.976 150.458C374.94 150.466 374.902 150.462 374.868 150.447Z" fill="white"/>
<path d="M350.536 164.504L367.196 169.619L370.718 164.964L354.043 159.849L350.536 164.504Z" fill="#455A64"/>
<path d="M368.743 170.093L367.196 169.619L368.283 168.179L368.743 170.093Z" fill="#455A64"/>
<path d="M369.095 165.561L354.334 161.028L354.395 160.952L369.157 165.469L369.095 165.561Z" fill="white"/>
<path d="M365.666 165.101L353.967 161.518L354.028 161.426L365.727 165.009L365.666 165.101Z" fill="white"/>
<path d="M366.799 166.617L353.247 162.467L353.308 162.375L366.86 166.541L366.799 166.617Z" fill="white"/>
<path d="M367.641 167.475L352.895 162.942L352.956 162.85L367.717 167.383L367.641 167.475Z" fill="white"/>
<path d="M367.289 167.949L352.527 163.417L352.589 163.325L367.35 167.857L367.289 167.949Z" fill="white"/>
<path d="M362.833 167.168L352.16 163.892L352.237 163.815L362.91 167.077L362.833 167.168Z" fill="white"/>
<path d="M342.237 175.483L358.913 180.598L362.419 175.943L345.759 170.828L342.237 175.483Z" fill="#455A64"/>
<path d="M360.46 181.072L358.913 180.597L359.985 179.173L360.46 181.072Z" fill="#455A64"/>
<path d="M360.797 176.54L346.035 172.007L346.096 171.931L360.858 176.448L360.797 176.54Z" fill="white"/>
<path d="M357.367 176.08L345.668 172.497L345.745 172.405L357.443 175.988L357.367 176.08Z" fill="white"/>
<path d="M358.499 177.596L344.963 173.446L345.024 173.354L358.561 177.52L358.499 177.596Z" fill="white"/>
<path d="M359.356 178.454L344.595 173.921L344.656 173.829L359.417 178.362L359.356 178.454Z" fill="white"/>
<path d="M358.989 178.929L344.228 174.396L344.304 174.304L359.065 178.837L358.989 178.929Z" fill="white"/>
<path d="M354.549 178.147L343.876 174.871L343.937 174.794L354.61 178.071L354.549 178.147Z" fill="white"/>
<path d="M375.741 160.829L359.081 155.715L362.036 151.779L378.712 156.894L375.741 160.829Z" fill="#FFC727"/>
<path d="M357.534 155.24L359.081 155.715L360.153 154.275L357.534 155.24Z" fill="#FFC727"/>
<path d="M374.685 156.664L362.404 152.897L362.466 152.805L374.762 156.587L374.685 156.664Z" fill="white"/>
<path d="M376.798 157.904L362.037 153.372L362.114 153.28L376.86 157.812L376.798 157.904Z" fill="white"/>
<path d="M376.431 158.379L361.685 153.846L361.746 153.77L376.507 158.287L376.431 158.379Z" fill="white"/>
<path d="M374.915 158.502L361.317 154.337L361.379 154.245L374.976 158.41L374.915 158.502Z" fill="white"/>
<path d="M375.711 159.328L360.965 154.811L361.026 154.719L375.787 159.252L375.711 159.328Z" fill="white"/>
<path d="M371.499 158.624L360.597 155.286L360.658 155.194L371.576 158.547L371.499 158.624Z" fill="white"/>
<path d="M373.062 164.366L356.401 159.252L358.591 156.342L375.267 161.457L373.062 164.366Z" fill="#FFC727"/>
<path d="M354.855 158.777L356.402 159.252L357.474 157.828L354.855 158.777Z" fill="#FFC727"/>
<path d="M373.689 161.977L358.958 157.46L359.019 157.368L373.75 161.885L373.689 161.977Z" fill="white"/>
<path d="M370.718 161.656L358.591 157.935L358.667 157.843L370.795 161.564L370.718 161.656Z" fill="white"/>
<path d="M371.577 162.498L358.239 158.41L358.301 158.318L371.653 162.422L371.577 162.498Z" fill="white"/>
<path d="M368.161 162.039L357.871 158.884L357.948 158.792L368.238 161.962L368.161 162.039Z" fill="white"/>
<path d="M364.793 175.33L348.117 170.216L351.226 166.112L367.886 171.226L364.793 175.33Z" fill="#DBDBDB"/>
<path d="M346.586 169.741L348.117 170.216L349.204 168.776L346.586 169.741Z" fill="#DBDBDB"/>
<path d="M364.44 172.911L350.506 168.639L350.582 168.547L364.517 172.834L364.44 172.911Z" fill="white"/>
<path d="M362.956 173.049L350.154 169.113L350.216 169.021L363.017 172.957L362.956 173.049Z" fill="white"/>
<path d="M364.364 171.716L351.226 167.689L351.302 167.597L364.425 171.624L364.364 171.716Z" fill="white"/>
<path d="M366.17 171.686L351.593 167.214L351.654 167.123L366.232 171.594L366.17 171.686Z" fill="white"/>
<path d="M363.048 173.661L349.787 169.588L349.864 169.511L363.109 173.569L363.048 173.661Z" fill="white"/>
<path d="M356.967 185.697L340.292 180.582L342.88 177.167L359.54 182.282L356.967 185.697Z" fill="#FFC727"/>
<path d="M338.746 180.108L340.293 180.582L341.365 179.143L338.746 180.108Z" fill="#FFC727"/>
<path d="M358.01 182.772L343.264 178.24L343.325 178.163L358.086 182.68L358.01 182.772Z" fill="white"/>
<path d="M357.658 183.247L342.896 178.714L342.958 178.638L357.719 183.155L357.658 183.247Z" fill="white"/>
<path d="M356.126 183.369L342.528 179.204L342.605 179.112L356.187 183.277L356.126 183.369Z" fill="white"/>
<path d="M356.937 184.196L342.176 179.679L342.237 179.587L356.998 184.119L356.937 184.196Z" fill="white"/>
<path d="M352.727 183.492L341.809 180.153L341.885 180.062L352.788 183.415L352.727 183.492Z" fill="white"/>
<path d="M350.828 196.171C344.871 196.4 363.966 183.921 364.104 177.045C364.241 170.17 357.672 172.543 352.543 176.494C334.765 190.275 321.09 189.893 312.209 202.816C303.328 215.74 350.828 196.171 350.828 196.171Z" fill="#EB9481"/>
<path d="M332.605 188.315C328.741 189.373 325.026 190.916 321.55 192.909C318.458 194.937 315.782 197.536 313.664 200.566C313.572 200.703 313.755 200.872 313.863 200.734C318.61 194.609 325.776 191.439 332.651 188.377C332.648 188.364 332.643 188.352 332.635 188.341C332.627 188.33 332.617 188.322 332.605 188.315Z" fill="#263238"/>
<path d="M265.644 215.204C270.314 216.353 302.394 206.752 302.394 206.752L321.535 250.286C321.535 250.286 265.583 264.68 252.352 260.438C239.122 256.196 217.685 212.004 210.472 186.233C203.689 162.008 211.605 145.915 229.598 170.752C229.659 170.752 263.209 214.607 265.644 215.204Z" fill="#FFC727"/>
<path d="M311.367 252.705C307.753 253.532 303.435 254.512 298.764 255.507L281.231 212.632C285.427 211.606 289.822 210.411 293.482 209.385C298.887 222.401 305.441 238.28 311.367 252.705Z" fill="#EBEBEB"/>
<path d="M293.864 256.502L289.806 257.314L272.319 214.576C273.544 214.347 274.877 214.071 276.255 213.765C281.553 226.566 287.999 242.185 293.864 256.502Z" fill="#EBEBEB"/>
<path d="M251.679 259.044C240.546 253.67 226.29 224.499 223.549 218.772C221.788 215.112 220.181 211.376 218.588 207.64C215.418 200.137 212.463 192.557 209.661 184.931C209.667 184.915 209.67 184.897 209.668 184.88C209.666 184.862 209.66 184.846 209.65 184.831C209.64 184.817 209.627 184.805 209.612 184.797C209.596 184.788 209.579 184.784 209.561 184.784C209.544 184.784 209.527 184.788 209.511 184.797C209.496 184.805 209.482 184.817 209.473 184.831C209.463 184.846 209.457 184.862 209.455 184.88C209.453 184.897 209.455 184.915 209.462 184.931C211.044 190.842 212.917 196.671 215.081 202.418C213.701 200.29 212.448 198.081 211.33 195.803C211.33 195.696 211.085 195.803 211.131 195.895C212.273 198.613 213.738 201.184 215.495 203.551C217.7 209.324 220.165 214.99 222.891 220.502C223.672 222.034 240.21 257.85 252.582 260.912C256.885 261.984 271.493 260.591 274.586 259.81C274.709 259.81 274.74 259.611 274.586 259.611C270.375 259.672 255.691 261.004 251.679 259.044Z" fill="#263238"/>
<path d="M309.285 245.186C308.703 243.655 308.121 242.124 307.524 240.685C306.329 237.699 299.132 219.905 296.07 214.362C296.07 214.209 295.763 214.362 295.809 214.485C297.601 220.61 305.196 238.143 306.528 241.037C307.171 242.568 307.814 243.992 308.488 245.462C309.162 246.932 310.02 248.356 310.663 249.841C310.663 249.979 310.969 249.841 310.908 249.75C310.295 248.264 309.897 246.687 309.285 245.186Z" fill="#263238"/>
<path d="M302.424 206.813C299.744 206.996 275.703 213.183 270.39 214.469C269.129 214.925 267.795 215.143 266.454 215.112C265.143 214.753 264.003 213.939 263.239 212.815C261.462 210.87 241.969 186.324 240.561 185.13C240.04 184.671 239.626 184.594 240.132 185.375C241.005 186.707 259.962 210.947 261.677 212.938C263.392 214.928 264.739 216.567 267.388 216.398C268.521 216.322 300.969 208.252 302.607 207.548C302.883 207.41 302.837 206.782 302.424 206.813Z" fill="#263238"/>
<path d="M238.846 165.944C234.008 166.832 221.65 161.151 218.588 154.153C218.373 153.663 219.507 148.916 220.609 143.067C221.252 139.514 221.895 135.533 222.14 131.873C222.14 131.123 244.635 139.529 244.635 139.529C242.917 144 241.755 148.664 241.174 153.418C241.119 153.927 241.119 154.44 241.174 154.949C241.182 155.031 241.182 155.113 241.174 155.194C241.526 158.042 244.053 164.979 238.846 165.944Z" fill="#EB9481"/>
<path d="M241.312 154.888V155.133C240.525 155.166 239.737 155.141 238.954 155.056C225.448 153.525 223.366 136.298 223.06 131.949C227.102 132.899 244.742 139.483 244.742 139.483C243.025 143.954 241.863 148.618 241.282 153.372C241.245 153.877 241.255 154.384 241.312 154.888Z" fill="#263238"/>
<path d="M212.938 107.878C212.095 116.392 220.961 138.718 227.714 142.745C237.484 148.594 251.173 146.588 255.537 135.379C259.779 124.507 247.713 95.5665 240.393 92.1824C229.659 87.1292 214.178 95.2909 212.938 107.878Z" fill="#EB9481"/>
<path d="M238.326 117.219C238.326 117.219 238.234 117.341 238.326 117.387C238.954 118.918 239.444 120.695 238.326 121.736C239.827 120.924 239.168 118.597 238.326 117.219Z" fill="#263238"/>
<path d="M236.366 116.162C233.87 116.927 235.585 121.873 237.897 121.154C240.209 120.434 238.448 115.534 236.366 116.162Z" fill="#263238"/>
<path d="M247.253 114.386C247.253 114.386 247.406 114.386 247.421 114.478C247.911 116.009 248.723 117.724 250.285 117.755C248.524 118.183 247.467 115.932 247.253 114.386Z" fill="#263238"/>
<path d="M248.034 112.318C250.438 111.277 252.337 116.147 250.117 117.111C247.896 118.076 246.059 113.191 248.034 112.318Z" fill="#263238"/>
<path d="M233.625 114.585C234.209 114.171 234.772 113.727 235.309 113.253C235.962 112.862 236.473 112.272 236.764 111.568C236.806 111.328 236.769 111.08 236.658 110.862C236.548 110.644 236.37 110.467 236.151 110.359C235.685 110.215 235.19 110.199 234.716 110.312C234.242 110.425 233.807 110.663 233.456 111.002C232.632 111.571 232.052 112.429 231.833 113.406C231.791 113.631 231.817 113.863 231.907 114.074C231.996 114.285 232.146 114.464 232.337 114.59C232.529 114.716 232.753 114.782 232.982 114.782C233.211 114.781 233.434 114.712 233.625 114.585Z" fill="#263238"/>
<path d="M249.121 109.18C248.386 109.302 247.713 109.287 246.978 109.348C246.23 109.507 245.452 109.421 244.757 109.103C244.561 108.961 244.417 108.758 244.348 108.525C244.278 108.292 244.288 108.044 244.374 107.817C244.618 107.391 244.971 107.038 245.396 106.793C245.821 106.548 246.303 106.421 246.794 106.423C247.782 106.291 248.784 106.525 249.611 107.082C249.793 107.22 249.931 107.407 250.008 107.621C250.086 107.836 250.099 108.068 250.048 108.29C249.996 108.512 249.881 108.714 249.716 108.872C249.552 109.03 249.345 109.137 249.121 109.18Z" fill="#263238"/>
<path d="M241.908 126.759C242.506 127.228 243.193 127.569 243.928 127.761C244.663 127.954 245.43 127.993 246.181 127.876C246.837 127.779 247.477 127.588 248.079 127.31L248.432 127.141L248.738 126.973C248.812 126.928 248.871 126.861 248.906 126.782C248.942 126.703 248.953 126.614 248.937 126.529C248.945 126.478 248.945 126.426 248.937 126.376V126.253C248.569 125.059 247.834 123.313 247.834 123.313C248.34 123.313 250.897 123.604 250.621 122.992C248.638 117.735 246.129 112.692 243.133 107.939C243.042 107.786 242.797 107.939 242.858 108.077C244.665 112.947 247.314 117.464 249.197 122.333C248.293 122.243 247.381 122.279 246.487 122.44C246.334 122.548 248.018 125.794 248.018 126.345C247.087 126.777 246.078 127.017 245.052 127.051C244.026 127.085 243.004 126.913 242.046 126.544C241.801 126.529 241.725 126.667 241.908 126.759Z" fill="#263238"/>
<path d="M247.13 126.957C246.776 128.021 246.153 128.975 245.323 129.729C244.857 130.125 244.279 130.366 243.67 130.418C242.337 130.525 241.924 129.407 241.817 128.381C241.754 127.827 241.754 127.267 241.817 126.712C243.516 127.363 245.379 127.449 247.13 126.957Z" fill="#263238"/>
<path d="M245.324 129.729C244.858 130.125 244.28 130.366 243.67 130.418C242.338 130.525 241.925 129.407 241.817 128.381C242.469 128.185 243.167 128.21 243.802 128.454C244.436 128.698 244.972 129.147 245.324 129.729Z" fill="#FF9BBC"/>
<path d="M220.686 128.534C225.065 126.727 219.537 114.6 219.537 114.6C221.333 113.702 222.837 112.314 223.875 110.595C224.914 108.877 225.443 106.899 225.402 104.892C225.402 104.892 244.191 103.36 246.84 96.041C249.489 88.7215 244.298 79.3655 241.986 79.488C239.673 79.6105 237.392 83.6224 237.392 83.6224C237.392 83.6224 234.957 80.6518 233.058 80.8661C230.134 81.1877 229.674 85.0771 228.464 86.3481C225.157 89.6709 213.764 93.3459 211.299 96.6075C210.593 97.4111 210.096 98.3767 209.853 99.4186C209.61 100.46 209.628 101.546 209.906 102.579C208.874 103.257 208.025 104.179 207.434 105.264C206.844 106.348 206.53 107.562 206.521 108.796C206.154 114.324 216.276 130.372 220.686 128.534Z" fill="#263238"/>
<path d="M221.068 127.478C224.268 122.885 221.16 116.622 218.128 112.686C218.128 112.686 218.128 112.564 218.235 112.686C221.298 116.285 224.942 123.405 221.298 127.693C221.269 127.723 221.23 127.741 221.188 127.742C221.147 127.744 221.106 127.729 221.076 127.7C221.045 127.672 221.027 127.633 221.026 127.591C221.024 127.549 221.04 127.509 221.068 127.478Z" fill="#263238"/>
<path d="M222.339 104.218C226.64 104.785 231.001 104.708 235.278 103.988C237.221 103.581 239.112 102.954 240.913 102.12C242.705 101.293 245.89 99.8691 246.594 97.8325C245.881 99.4449 244.608 100.745 243.011 101.492C240.942 102.763 238.691 103.708 236.335 104.294C231.716 105.495 226.879 105.59 222.217 104.57C222.002 104.539 222.109 104.203 222.339 104.218Z" fill="#263238"/>
<path d="M213.136 93.8057C215.222 92.589 217.386 91.5097 219.613 90.5748C222.339 89.2426 225.646 87.941 227.805 85.7666H227.882C226.365 87.3185 224.58 88.5842 222.614 89.5029C220.685 90.5595 218.71 91.5395 216.719 92.4735C214.453 93.5454 211.957 94.7704 210.594 97.0673C209.231 99.3642 209.69 101.661 209.981 103.973C209.981 104.019 209.965 104.064 209.936 104.1C209.907 104.135 209.867 104.16 209.821 104.169C209.776 104.178 209.729 104.171 209.689 104.149C209.648 104.127 209.616 104.092 209.599 104.05C208.945 102.194 208.938 100.171 209.581 98.3109C210.223 96.4508 211.476 94.8629 213.136 93.8057Z" fill="#263238"/>
<path d="M208.865 103.682C204.056 107.173 206.506 114.278 208.972 118.459C211.128 122.557 214.534 125.861 218.695 127.891C218.894 127.968 218.695 128.274 218.542 128.198C213.55 126.238 209.875 121.46 207.578 116.774C205.863 113.237 203.934 105.78 208.865 103.682Z" fill="#263238"/>
<path d="M222.631 125.84C222.631 125.84 215.755 119.531 212.785 122.15C209.814 124.768 216.123 134.706 220.441 135.303C220.988 135.418 221.552 135.422 222.1 135.313C222.649 135.205 223.169 134.987 223.631 134.672C224.093 134.357 224.487 133.953 224.788 133.482C225.09 133.012 225.294 132.485 225.387 131.934L222.631 125.84Z" fill="#EB9481"/>
<path d="M214.668 124.951V125.059C217.73 125.579 219.752 127.83 221.36 130.296C221.138 130.051 220.866 129.858 220.562 129.73C220.258 129.602 219.93 129.542 219.601 129.553C219.271 129.565 218.948 129.648 218.654 129.798C218.36 129.947 218.103 130.159 217.899 130.418C217.899 130.418 217.899 130.586 218.006 130.556C218.459 130.287 218.986 130.167 219.51 130.214C220.035 130.261 220.532 130.471 220.931 130.816C221.597 131.386 222.198 132.028 222.722 132.73C222.921 132.96 223.335 132.73 223.182 132.455C222.431 128.826 218.557 124.461 214.668 124.951Z" fill="#263238"/>
<path d="M242.95 154.306H242.873C244.405 158.716 247.651 169.006 240.699 170.246C237.801 170.492 234.895 169.885 232.338 168.5C229.706 167.284 227.211 165.79 224.896 164.044C222.219 162.159 219.7 160.06 217.362 157.766C217.255 157.659 217.133 157.766 217.225 157.919C219.598 160.216 221.818 162.697 224.33 164.764C226.786 166.783 229.506 168.457 232.415 169.741C235.118 171.14 238.187 171.674 241.204 171.272C242.496 170.969 243.641 170.222 244.438 169.161C245.236 168.101 245.636 166.794 245.568 165.469C245.503 161.603 244.61 157.797 242.95 154.306Z" fill="#263238"/>
<path d="M381.958 629.472H631.003V524.933H381.958V629.472Z" fill="#263238"/>
<path d="M386.675 524.933C386.675 524.933 390.105 509.544 396.95 507.186C403.794 504.827 407.975 511.779 407.975 511.779C407.975 511.779 409.582 497.079 419.291 492.684C428.999 488.29 436.303 497.278 436.303 497.278C436.303 497.278 443.76 478.627 457.067 478.627C470.374 478.627 477.096 505.915 477.096 505.915C477.096 505.915 484.967 497.784 493.021 502.377C501.076 506.971 501.076 524.979 501.076 524.979L386.675 524.933Z" fill="#37474F"/>
<path d="M523.126 524.933H626.257C626.257 524.933 622.857 510.952 616.012 509.957C609.168 508.962 605.983 515.454 605.983 515.454C605.983 515.454 606.289 495.961 593.518 492.638C580.747 489.316 570.029 506.542 570.029 506.542C570.029 506.542 562.005 496.727 551.087 497.355C540.169 497.983 537.397 514.199 537.397 514.199C537.397 514.199 527.505 508.579 523.126 524.933Z" fill="#37474F"/>
<path d="M493.68 524.933H557.074C557.074 524.933 556.921 515.868 550.689 513.464C549.003 512.747 547.134 512.582 545.349 512.992C543.565 513.402 541.955 514.365 540.751 515.745C540.751 515.745 538.209 499.07 526.602 499.07C514.995 499.07 509.421 513.464 509.421 513.464C508.413 512.07 507.025 510.996 505.423 510.369C503.821 509.742 502.073 509.588 500.387 509.926C493.94 510.723 493.68 524.933 493.68 524.933Z" fill="#455A64"/>
<path d="M431.449 629.181H639.686V616.839H431.449V629.181Z" fill="#FFC727"/>
<path d="M431.449 613.869H639.686V601.527H431.449V613.869Z" fill="#FFC727"/>
<path d="M431.449 598.541H639.686V586.199H431.449V598.541Z" fill="#FFC727"/>
<path d="M431.449 583.228H639.686V570.886H431.449V583.228Z" fill="#FFC727"/>
<path d="M431.449 567.9H639.686V555.558H431.449V567.9Z" fill="#FFC727"/>
<path d="M431.449 552.587H639.686V540.245H431.449V552.587Z" fill="#FFC727"/>
<path d="M431.449 537.26H639.686V524.918H431.449V537.26Z" fill="#FFC727"/>
<path d="M373.277 629.181H431.449V616.839H373.277V629.181Z" fill="#FFC727"/>
<path opacity="0.2" d="M373.277 629.181H431.449V616.839H373.277V629.181Z" fill="#020100"/>
<path d="M373.277 613.869H431.449V601.527H373.277V613.869Z" fill="#FFC727"/>
<path opacity="0.2" d="M373.277 613.869H431.449V601.527H373.277V613.869Z" fill="#020100"/>
<path d="M373.277 598.541H431.449V586.199H373.277V598.541Z" fill="#FFC727"/>
<path opacity="0.2" d="M373.277 598.541H431.449V586.199H373.277V598.541Z" fill="#020100"/>
<path d="M373.277 583.228H431.449V570.886H373.277V583.228Z" fill="#FFC727"/>
<path opacity="0.2" d="M373.277 583.228H431.449V570.886H373.277V583.228Z" fill="#020100"/>
<path d="M373.277 567.9H431.449V555.558H373.277V567.9Z" fill="#FFC727"/>
<path opacity="0.2" d="M373.277 567.9H431.449V555.558H373.277V567.9Z" fill="#020100"/>
<path d="M373.277 552.587H431.449V540.245H373.277V552.587Z" fill="#FFC727"/>
<path opacity="0.2" d="M373.277 552.587H431.449V540.245H373.277V552.587Z" fill="#020100"/>
<path d="M373.277 537.26H431.449V524.918H373.277V537.26Z" fill="#FFC727"/>
<path opacity="0.2" d="M373.277 537.26H431.449V524.918H373.277V537.26Z" fill="#020100"/>
</svg>
