<svg width="32" height="22" viewBox="0 0 32 22" fill="none" xmlns="http://www.w3.org/2000/svg">
<path d="M2.97675 22C2.15814 22 1.45712 21.7305 0.873677 21.1915C0.290235 20.6525 -0.000989721 20.0053 2.52695e-06 19.25V2.75C2.52695e-06 1.99375 0.291723 1.34613 0.875165 0.807127C1.45861 0.268127 2.15913 -0.000914332 2.97675 2.33447e-06H11.907L14.8837 2.75H26.7907C27.6093 2.75 28.3103 3.0195 28.8938 3.5585C29.4772 4.0975 29.7684 4.74467 29.7674 5.5H13.6558L10.6791 2.75H2.97675V19.25L6.54884 8.25H32L28.1674 20.0406C27.969 20.6365 27.6029 21.1122 27.069 21.4679C26.5352 21.8235 25.9463 22.0009 25.3023 22H2.97675ZM6.10233 19.25H25.3023L27.9814 11H8.7814L6.10233 19.25Z" fill="#467888"/>
</svg>
