<svg width="40" height="37" viewBox="0 0 40 37" fill="none" xmlns="http://www.w3.org/2000/svg">
<path d="M24.1533 36.3325H22.0622C21.6801 36.3325 21.3655 36.0767 21.3476 35.7526C21.2464 33.8916 22.094 30.1179 26.032 29.1515C26.417 29.0578 26.8081 29.2461 26.9182 29.5676C27.0284 29.89 26.8081 30.2277 26.4289 30.3213C23.399 31.0641 22.872 33.8797 22.7897 35.1154H24.1553C24.5512 35.1154 24.8708 35.388 24.8708 35.7239C24.8708 36.0599 24.5503 36.3325 24.1553 36.3325H24.1533Z" fill="#455A64"/>
<path d="M27.9669 36.3328H26.5993C26.2034 36.3328 25.8838 36.0602 25.8838 35.7243C25.8838 35.3883 26.2043 35.1157 26.5993 35.1157H27.9669C28.3629 35.1157 28.6825 35.3883 28.6825 35.7243C28.6825 36.0602 28.3619 36.3328 27.9669 36.3328Z" fill="#455A64"/>
<path d="M39.0853 36.3327H30.3181C29.9221 36.3327 29.6025 36.06 29.6025 35.7241C29.6025 35.3882 29.9231 35.1156 30.3181 35.1156H38.3598C38.2765 33.8799 37.7505 31.0651 34.7206 30.3215C34.3414 30.2278 34.1211 29.8911 34.2313 29.5678C34.3414 29.2462 34.7335 29.0589 35.1175 29.1517C39.0555 30.1181 39.9031 33.8917 39.8019 35.7528C39.784 36.0778 39.4694 36.3327 39.0863 36.3327H39.0853Z" fill="#455A64"/>
<path d="M30.5731 27.9998C27.9878 27.9998 25.8838 25.7142 25.8838 22.9045C25.8838 20.0947 27.9878 17.8091 30.5731 17.8091C33.1584 17.8091 35.2624 20.0947 35.2624 22.9045C35.2624 25.7142 33.1584 27.9998 30.5731 27.9998ZM30.5731 19.0262C28.7768 19.0262 27.3149 20.7665 27.3149 22.9045C27.3149 25.0424 28.7768 26.7827 30.5731 26.7827C32.3694 26.7827 33.8313 25.0424 33.8313 22.9045C33.8313 20.7665 32.3694 19.0262 30.5731 19.0262Z" fill="#455A64"/>
<path d="M9.82664 36.3372H7.40012C7.00414 36.3372 6.68457 36.0646 6.68457 35.7287C6.68457 35.3927 7.00513 35.1201 7.40012 35.1201H9.82664C10.2226 35.1201 10.5422 35.3927 10.5422 35.7287C10.5422 36.0646 10.2216 36.3372 9.82664 36.3372Z" fill="#455A64"/>
<path d="M18.5106 36.3372H12.8269C12.4309 36.3372 12.1113 36.0646 12.1113 35.7287C12.1113 35.3927 12.4319 35.1201 12.8269 35.1201H18.5106C18.9066 35.1201 19.2261 35.3927 19.2261 35.7287C19.2261 36.0646 18.9056 36.3372 18.5106 36.3372Z" fill="#455A64"/>
<path d="M4.37667 36.3369H0.71555C0.319566 36.3369 0 36.0643 0 35.7284V0.608541C0 0.27262 0.320559 0 0.71555 0H25.1514C25.337 0 25.5147 0.0607697 25.6477 0.169649L34.4169 7.33794C34.5568 7.45273 34.6362 7.61056 34.6362 7.77683V17.0459C34.6362 17.3827 34.3157 17.6544 33.9207 17.6544C33.5257 17.6544 33.2051 17.3818 33.2051 17.0459V8.03595L24.8636 1.21708H1.4311V35.1198H4.37567C4.77166 35.1198 5.09122 35.3924 5.09122 35.7284C5.09122 36.0643 4.77067 36.3369 4.37567 36.3369H4.37667Z" fill="#455A64"/>
<path d="M33.922 9.14669H23.7048C23.3088 9.14669 22.9893 8.87407 22.9893 8.53814V0.608541C22.9893 0.271776 23.3098 0 23.7048 0C24.0998 0 24.4204 0.27262 24.4204 0.608541V7.92876H33.922C34.318 7.92876 34.6375 8.20138 34.6375 8.5373C34.6375 8.87322 34.317 9.14584 33.922 9.14584V9.14669Z" fill="#455A64"/>
<path d="M15.2759 8.02421H4.54758C4.1516 8.02421 3.83203 7.75159 3.83203 7.41567C3.83203 7.07975 4.15259 6.80713 4.54758 6.80713H15.2759C15.6719 6.80713 15.9914 7.07975 15.9914 7.41567C15.9914 7.75159 15.6709 8.02421 15.2759 8.02421Z" fill="#455A64"/>
<path d="M15.2759 17.7278H4.54758C4.1516 17.7278 3.83203 17.4552 3.83203 17.1193C3.83203 16.7834 4.15259 16.5107 4.54758 16.5107H15.2759C15.6719 16.5107 15.9914 16.7834 15.9914 17.1193C15.9914 17.4552 15.6709 17.7278 15.2759 17.7278Z" fill="#455A64"/>
<path d="M26.5992 17.7278H20.3835C19.9875 17.7278 19.668 17.4552 19.668 17.1193C19.668 16.7834 19.9885 16.5107 20.3835 16.5107H26.5992C26.9952 16.5107 27.3147 16.7834 27.3147 17.1193C27.3147 17.4552 26.9942 17.7278 26.5992 17.7278Z" fill="#455A64"/>
<path d="M22.0582 22.1809H4.54758C4.1516 22.1809 3.83203 21.9083 3.83203 21.5724C3.83203 21.2365 4.15259 20.9639 4.54758 20.9639H22.0592C22.4552 20.9639 22.7748 21.2365 22.7748 21.5724C22.7748 21.9083 22.4542 22.1809 22.0592 22.1809H22.0582Z" fill="#455A64"/>
<path d="M22.0582 27.0325H4.54758C4.1516 27.0325 3.83203 26.7599 3.83203 26.424C3.83203 26.0881 4.15259 25.8154 4.54758 25.8154H22.0592C22.4552 25.8154 22.7748 26.0881 22.7748 26.424C22.7748 26.7599 22.4542 27.0325 22.0592 27.0325H22.0582Z" fill="#455A64"/>
<path d="M12.0395 31.9202H4.54758C4.1516 31.9202 3.83203 31.6476 3.83203 31.3117C3.83203 30.9757 4.15259 30.7031 4.54758 30.7031H12.0405C12.4365 30.7031 12.7561 30.9757 12.7561 31.3117C12.7561 31.6476 12.4355 31.9202 12.0405 31.9202H12.0395Z" fill="#455A64"/>
<path d="M15.2759 12.8758H4.54758C4.1516 12.8758 3.83203 12.6032 3.83203 12.2672C3.83203 11.9313 4.15259 11.6587 4.54758 11.6587H15.2759C15.6719 11.6587 15.9914 11.9313 15.9914 12.2672C15.9914 12.6032 15.6709 12.8758 15.2759 12.8758Z" fill="#455A64"/>
<path d="M26.6421 12.8758H20.4265C20.0305 12.8758 19.7109 12.6032 19.7109 12.2672C19.7109 11.9313 20.0315 11.6587 20.4265 11.6587H26.6421C27.0381 11.6587 27.3577 11.9313 27.3577 12.2672C27.3577 12.6032 27.0371 12.8758 26.6421 12.8758Z" fill="#455A64"/>
</svg>
