<svg width="19" height="11" viewBox="0 0 19 11" fill="none" xmlns="http://www.w3.org/2000/svg">
<path d="M0.468613 0.461829C0.781019 0.153942 1.17863 -7.78997e-07 1.66144 -7.57893e-07C2.14425 -7.36788e-07 2.54185 0.153942 2.85426 0.46183L9.5 7.01143L16.1457 0.46183C16.4581 0.153943 16.8558 -9.37279e-08 17.3386 -7.26236e-08C17.8214 -5.15193e-08 18.219 0.153943 18.5314 0.46183C18.8438 0.769718 19 1.16157 19 1.6374C19 2.11323 18.8438 2.50508 18.5314 2.81297L10.6928 10.5381C10.5224 10.7061 10.3378 10.8253 10.139 10.8959C9.94021 10.9664 9.7272 11.0011 9.5 11C9.2728 11 9.05979 10.9647 8.86099 10.8942C8.66218 10.8236 8.47758 10.705 8.30718 10.5381L0.468613 2.81297C0.156206 2.50508 -9.2372e-08 2.11322 -7.1573e-08 1.6374C-5.0774e-08 1.16157 0.156206 0.769717 0.468613 0.461829Z" fill="#455A64"/>
</svg>
