<svg width="40" height="40" viewBox="0 0 40 40" fill="none" xmlns="http://www.w3.org/2000/svg">
<path fill-rule="evenodd" clip-rule="evenodd" d="M19.9964 31.825C18.4004 31.825 16.8518 31.5123 15.3935 30.8955C13.9853 30.3 12.7209 29.4474 11.6352 28.3617C10.5495 27.276 9.69694 26.0115 9.10134 24.6034C8.48459 23.1452 8.17188 21.5966 8.17188 20.0005C8.17188 18.4045 8.48459 16.8559 9.10134 15.3977C9.69694 13.9895 10.5495 12.7251 11.6352 11.6394C12.7209 10.5536 13.9854 9.70111 15.3935 9.10552C16.8518 8.48877 18.4004 8.17606 19.9964 8.17606C21.5924 8.17606 23.141 8.48877 24.5992 9.10552C26.0073 9.70111 27.2719 10.5536 28.3576 11.6394C29.4433 12.7251 30.2958 13.9896 30.8914 15.3977C31.5082 16.8559 31.8209 18.4045 31.8209 20.0005C31.8209 21.5966 31.5082 23.1452 30.8914 24.6034C30.2958 26.0115 29.4433 27.276 28.3576 28.3617C27.2719 29.4474 26.0073 30.3 24.5992 30.8955C23.1411 31.5123 21.5924 31.825 19.9964 31.825ZM19.9964 9.42583C14.1655 9.42583 9.42176 14.1696 9.42176 20.0004C9.42176 25.8312 14.1655 30.575 19.9964 30.575C25.8273 30.575 30.571 25.8312 30.571 20.0004C30.571 14.1695 25.8273 9.42583 19.9964 9.42583Z" fill="white"/>
<path fill-rule="evenodd" clip-rule="evenodd" d="M19.9999 40C19.0741 40 18.1868 39.7357 17.434 39.2355C16.6207 38.6951 16.0106 37.9028 15.6697 36.9439C15.353 36.0535 14.6706 35.3354 13.7976 34.9738C12.9244 34.6121 11.9342 34.6374 11.0808 35.0431C10.1618 35.48 9.17 35.6089 8.21287 35.4158C7.32691 35.2372 6.51257 34.7967 5.85784 34.1421C5.20322 33.4874 4.76268 32.6731 4.58408 31.787C4.39105 30.8299 4.51995 29.8383 4.9568 28.9191C5.36251 28.0656 5.38779 27.0753 5.02614 26.2022C4.66448 25.3291 3.94639 24.6468 3.05598 24.3302C2.09711 23.9891 1.30479 23.3791 0.764429 22.5658C0.264322 21.813 0 20.9258 0 19.9999C0 19.074 0.264322 18.1868 0.764538 17.4339C1.3049 16.6207 2.09722 16.0105 3.05598 15.6696C3.94639 15.353 4.66448 14.6706 5.02614 13.7976C5.38779 12.9245 5.36251 11.9342 4.9568 11.0808C4.51995 10.1617 4.39105 9.16998 4.58408 8.21285C4.76279 7.32689 5.20322 6.51255 5.85784 5.85782C6.51246 5.20321 7.3268 4.76267 8.21287 4.58407C9.17 4.39104 10.1616 4.51994 11.0808 4.95679C11.9343 5.36249 12.9247 5.38777 13.7977 5.02612C14.6707 4.66447 15.3531 3.94638 15.6698 3.05597C16.0107 2.09721 16.6208 1.30479 17.4341 0.764427C18.1869 0.264321 19.0742 0 19.9999 0C20.9258 0 21.8131 0.264321 22.5659 0.764536C23.3792 1.3049 23.9892 2.09721 24.3302 3.05597C24.6469 3.94638 25.3292 4.66447 26.2024 5.02612C27.0754 5.38777 28.0657 5.36249 28.9192 4.95679C29.8382 4.51983 30.83 4.39104 31.7871 4.58407C32.6731 4.76278 33.4874 5.20321 34.1422 5.85782C34.7968 6.51244 35.2373 7.32678 35.4159 8.21285C35.609 9.16998 35.48 10.1616 35.0432 11.0808C34.6375 11.9343 34.6122 12.9246 34.9739 13.7977C35.3355 14.6707 36.0536 15.3531 36.944 15.6697C37.9028 16.0107 38.6952 16.6208 39.2355 17.434C39.7356 18.1869 40 19.0741 40 19.9999C40 20.9258 39.7357 21.813 39.2355 22.5658C38.6951 23.3791 37.9028 23.9891 36.9439 24.3302C36.0535 24.6468 35.3354 25.3292 34.9738 26.2023C34.6121 27.0754 34.6374 28.0657 35.0431 28.9191C35.4799 29.8382 35.6088 30.8299 35.4158 31.787C35.2372 32.673 34.7967 33.4873 34.1421 34.1421C33.4874 34.7967 32.6731 35.2372 31.787 35.4158C30.83 35.6089 29.8382 35.48 28.9191 35.0431C28.0656 34.6374 27.0753 34.6121 26.2022 34.9738C25.3291 35.3354 24.6467 36.0535 24.3301 36.9439C23.9891 37.9027 23.3791 38.6951 22.5658 39.2354C21.8131 39.7356 20.9257 40 19.9999 40ZM12.5175 33.4698C13.1151 33.4698 13.7131 33.5859 14.2759 33.8189C15.4752 34.3157 16.4124 35.302 16.8474 36.5251C17.4307 38.1655 18.8583 38.75 19.9998 38.75C21.1413 38.75 22.5691 38.1656 23.1523 36.5252C23.5873 35.3021 24.5245 34.3158 25.7238 33.819C26.9231 33.3223 28.2832 33.357 29.4556 33.9143C31.0281 34.6617 32.4509 34.0656 33.258 33.2583C34.0652 32.4511 34.6615 31.0284 33.914 29.456C33.3567 28.2836 33.322 26.9234 33.8187 25.7241C34.3154 24.5248 35.3018 23.5877 36.5249 23.1528C38.1653 22.5694 38.7497 21.1418 38.7497 20.0002C38.7497 18.8586 38.1653 17.431 36.5249 16.8478C35.3018 16.4129 34.3154 15.4756 33.8187 14.2763C33.322 13.077 33.3567 11.7167 33.914 10.5444C34.6614 8.97206 34.0652 7.54922 33.258 6.74204C32.4509 5.93486 31.0281 5.33862 29.4556 6.08601C28.2832 6.6433 26.9231 6.67802 25.7238 6.18128C24.5245 5.68454 23.5872 4.69822 23.1523 3.47513C22.5689 1.83473 21.1413 1.25032 19.9998 1.25032C18.8583 1.25032 17.4306 1.83473 16.8473 3.47513C16.4124 4.69822 15.4751 5.68454 14.2758 6.18128C13.0765 6.67802 11.7163 6.6433 10.5439 6.08601C8.97155 5.33851 7.5487 5.93476 6.74152 6.74204C5.93434 7.54922 5.33809 8.97196 6.0856 10.5443C6.64289 11.7167 6.67761 13.0769 6.18086 14.2762C5.68412 15.4755 4.69779 16.4127 3.47471 16.8477C1.83441 17.431 1.24989 18.8586 1.24989 20.0002C1.24989 21.1417 1.8343 22.5694 3.47471 23.1527C4.69779 23.5877 5.68412 24.5248 6.18086 25.7241C6.67761 26.9235 6.64289 28.2836 6.0856 29.456C5.33809 31.0284 5.93434 32.4512 6.74152 33.2584C7.5487 34.0656 8.97155 34.6618 10.5439 33.9143C11.1663 33.6184 11.8417 33.4698 12.5175 33.4698Z" fill="white"/>
<path fill-rule="evenodd" clip-rule="evenodd" d="M18.064 24.9411C17.904 24.9411 17.7441 24.8801 17.622 24.758L13.7534 20.8894C13.5093 20.6453 13.5093 20.2497 13.7534 20.0055C13.9976 19.7615 14.3932 19.7615 14.6373 20.0055L18.064 23.4322L25.3592 16.137C25.6033 15.8929 25.9989 15.8929 26.2431 16.137C26.4871 16.3811 26.4871 16.7768 26.2431 17.0209L18.5059 24.7579C18.3838 24.8801 18.2239 24.9411 18.064 24.9411Z" fill="white"/>
</svg>
