<svg width="16" height="9" viewBox="0 0 16 9" fill="none" xmlns="http://www.w3.org/2000/svg">
<path d="M6.22818 8.5214L4.94085 8.17607L5.46551 6.21674C4.68016 5.92709 3.95026 5.50498 3.30751 4.96874L1.87218 6.40474L0.928846 5.46141L2.36485 4.02607C1.55423 3.05524 1.00957 1.89058 0.78418 0.646071L2.09618 0.406738C2.60218 3.20807 5.05285 5.33341 8.00018 5.33341C10.9468 5.33341 13.3982 3.20807 13.9042 0.406738L15.2162 0.645405C14.9911 1.89008 14.4467 3.05498 13.6362 4.02607L15.0715 5.46141L14.1282 6.40474L12.6928 4.96874C12.0501 5.50498 11.3202 5.92709 10.5348 6.21674L11.0595 8.17674L9.77218 8.5214L9.24685 6.56141C8.42175 6.70279 7.57861 6.70279 6.75351 6.56141L6.22818 8.5214Z" fill="#455A64"/>
</svg>
