<svg width="41" height="40" viewBox="0 0 41 40" fill="none" xmlns="http://www.w3.org/2000/svg">
<path d="M5.5 10C5.23478 10 4.98043 10.1054 4.79289 10.2929C4.60536 10.4804 4.5 10.7348 4.5 11C4.5 11.2652 4.60536 11.5196 4.79289 11.7071C4.98043 11.8946 5.23478 12 5.5 12H35.5C35.7652 12 36.0196 11.8946 36.2071 11.7071C36.3946 11.5196 36.5 11.2652 36.5 11C36.5 10.7348 36.3946 10.4804 36.2071 10.2929C36.0196 10.1054 35.7652 10 35.5 10H5.5ZM5.5 16C5.23478 16 4.98043 16.1054 4.79289 16.2929C4.60536 16.4804 4.5 16.7348 4.5 17C4.5 17.2652 4.60536 17.5196 4.79289 17.7071C4.98043 17.8946 5.23478 18 5.5 18H35.5C35.7652 18 36.0196 17.8946 36.2071 17.7071C36.3946 17.5196 36.5 17.2652 36.5 17C36.5 16.7348 36.3946 16.4804 36.2071 16.2929C36.0196 16.1054 35.7652 16 35.5 16H5.5ZM4.5 23C4.5 22.7348 4.60536 22.4804 4.79289 22.2929C4.98043 22.1054 5.23478 22 5.5 22H35.5C35.7652 22 36.0196 22.1054 36.2071 22.2929C36.3946 22.4804 36.5 22.7348 36.5 23C36.5 23.2652 36.3946 23.5196 36.2071 23.7071C36.0196 23.8946 35.7652 24 35.5 24H5.5C5.23478 24 4.98043 23.8946 4.79289 23.7071C4.60536 23.5196 4.5 23.2652 4.5 23ZM5.5 28C5.23478 28 4.98043 28.1054 4.79289 28.2929C4.60536 28.4804 4.5 28.7348 4.5 29C4.5 29.2652 4.60536 29.5196 4.79289 29.7071C4.98043 29.8946 5.23478 30 5.5 30H25.5C25.7652 30 26.0196 29.8946 26.2071 29.7071C26.3946 29.5196 26.5 29.2652 26.5 29C26.5 28.7348 26.3946 28.4804 26.2071 28.2929C26.0196 28.1054 25.7652 28 25.5 28H5.5Z" fill="white"/>
</svg>
