<svg width="30" height="31" viewBox="0 0 30 31" fill="none" xmlns="http://www.w3.org/2000/svg">
<path d="M30 15.8444C30 14.57 29.8979 13.64 29.6769 12.6755H15.3062V18.4277H23.7415C23.5715 19.8572 22.6531 22.01 20.6122 23.4566L20.5836 23.6491L25.1274 27.2137L25.4422 27.2455C28.3333 24.5416 30 20.5633 30 15.8444Z" fill="#4285F4"/>
<path d="M15.3063 31C19.4389 31 22.9083 29.6221 25.4424 27.2456L20.6124 23.4566C19.3199 24.3694 17.5852 25.0066 15.3063 25.0066C11.2587 25.0066 7.82338 22.3028 6.59878 18.5656L6.41928 18.581L1.6946 22.2838L1.63281 22.4577C4.1498 27.521 9.31988 31 15.3063 31Z" fill="#34A853"/>
<path d="M6.59858 18.5656C6.27546 17.6012 6.08845 16.5678 6.08845 15.5C6.08845 14.4322 6.27546 13.3989 6.58158 12.4345L6.57302 12.2291L1.78914 8.4668L1.63262 8.54219C0.595245 10.6433 0 13.0028 0 15.5C0 17.9972 0.595245 20.3566 1.63262 22.4578L6.59858 18.5656Z" fill="#FBBC05"/>
<path d="M15.3063 5.99329C18.1804 5.99329 20.1192 7.25051 21.2247 8.30114L25.5444 4.03C22.8914 1.53278 19.4389 0 15.3063 0C9.31988 0 4.1498 3.47886 1.63281 8.54216L6.58178 12.4344C7.82338 8.69722 11.2587 5.99329 15.3063 5.99329Z" fill="#EB4335"/>
</svg>
