<svg width="172" height="172" viewBox="0 0 172 172" fill="none" xmlns="http://www.w3.org/2000/svg">
<circle cx="86" cy="86" r="84.5" stroke="#FFE8AC" stroke-width="3"/>
<path d="M144.85 94.3401L117.53 67.02C116.898 66.3881 115.873 66.3881 115.241 67.02L104.657 77.6041C104.025 78.2359 104.025 79.2607 104.657 79.8926L107.417 82.6526L104.967 85.1029L99.1063 79.2422C98.8027 78.9386 98.3912 78.7676 97.9628 78.7676H92.2778C91.384 78.7676 90.6597 79.4919 90.6597 80.3857C90.6597 81.2795 91.384 82.0038 92.2778 82.0038H97.2924L103.824 88.5349C104.455 89.1668 105.48 89.1668 106.112 88.5349L109.638 85.0089L127.1 102.471L114.418 115.152L88.9367 89.6707C88.3049 89.0388 87.2801 89.0388 86.6483 89.6707L81.0572 95.2617C79.4129 96.906 77.2261 97.8122 74.9006 97.8122C73.1238 97.8122 71.4286 97.2836 69.9939 96.3004L77.7563 88.538C77.7563 88.538 77.7578 88.5365 77.7593 88.5349L84.7635 81.5307L92.5875 73.7067C92.5968 73.6975 92.6014 73.6882 92.6107 73.679L100.197 66.0923C103.56 62.7312 105.411 58.2605 105.411 53.5063V34.2028C105.411 33.4878 104.942 32.8575 104.257 32.6525L86.8933 27.4514C86.5912 27.3604 86.2691 27.3604 85.9671 27.4514L68.5006 32.6525C67.8148 32.8575 67.3448 33.4878 67.3448 34.2044V53.5063C67.3448 58.2605 69.1956 62.7312 72.5582 66.0923L81.1913 74.7254C81.8231 75.3572 82.848 75.3572 83.4798 74.7254C84.1116 74.0935 84.1116 73.0687 83.4798 72.4369L74.8467 63.8053C72.0959 61.0545 70.581 57.3975 70.581 53.5078V35.4095L86.4279 30.6907L102.173 35.4079V53.5048C102.173 57.3944 100.658 61.0514 97.9073 63.8022L85.7113 75.9983C85.7036 76.006 85.6974 76.0168 85.6897 76.0245L82.4735 79.2392L75.9424 85.7702H68.4759L65.4246 82.7174L68.066 80.076C68.3696 79.7724 68.5406 79.3609 68.5406 78.9325C68.5406 78.5041 68.3696 78.0911 68.066 77.789L57.619 67.3421C56.9872 66.7102 55.9624 66.7102 55.3305 67.3421L28.0089 94.6638C27.377 95.2956 27.377 96.3204 28.0089 96.9523L38.4558 107.399C38.7594 107.703 39.1709 107.874 39.5993 107.874C40.0277 107.874 40.4407 107.703 40.7427 107.399L43.3841 104.758L46.6728 108.046L44.9607 109.759C42.4009 112.318 42.4009 116.484 44.9607 119.042C46.2398 120.323 47.9211 120.962 49.6024 120.962C49.7549 120.962 49.906 120.951 50.0585 120.941C49.9322 122.77 50.5609 124.644 51.9556 126.038C53.2347 127.319 54.916 127.959 56.5973 127.959C56.7499 127.959 56.904 127.948 57.0566 127.937C57.0458 128.088 57.035 128.239 57.035 128.393C57.035 130.15 57.7161 131.799 58.9521 133.035C60.188 134.271 61.837 134.952 63.5938 134.952C63.7479 134.952 63.8989 134.94 64.0499 134.93C63.922 136.761 64.5508 138.635 65.947 140.031C67.2261 141.312 68.9074 141.952 70.5887 141.952C72.27 141.952 73.9513 141.312 75.2304 140.031L76.9426 138.319L82.7031 144.08C83.9837 145.36 85.6635 146 87.3448 146C89.0261 146 90.7074 145.36 91.9865 144.08C93.0976 142.969 93.7249 141.554 93.8713 140.101C94.4661 140.272 95.081 140.36 95.6944 140.36C97.3757 140.36 99.057 139.72 100.336 138.44C101.447 137.328 102.074 135.914 102.221 134.46C102.816 134.632 103.431 134.719 104.044 134.719C105.725 134.719 107.407 134.08 108.686 132.799C109.69 131.796 110.294 130.545 110.51 129.239C111.31 129.578 112.176 129.759 113.072 129.759C114.825 129.759 116.473 129.076 117.713 127.835C120.273 125.276 120.273 121.112 117.713 118.552L116.653 117.492L129.452 104.693L131.974 107.216C132.278 107.519 132.689 107.69 133.118 107.69C133.546 107.69 133.959 107.519 134.261 107.216L144.845 96.6317C145.477 95.9999 145.477 94.9751 144.845 94.3432L144.85 94.3401ZM39.5993 103.967L31.4408 95.8088L56.4725 70.7771L64.6309 78.9356L39.5993 103.967ZM47.2492 116.754C45.9516 115.456 45.9516 113.343 47.2492 112.046L50.1048 109.19L52.9619 106.334C53.5861 105.709 54.4229 105.365 55.3151 105.365C56.2074 105.365 57.0442 105.709 57.6684 106.334C58.2925 106.96 58.6377 107.795 58.6377 108.688C58.6377 109.58 58.294 110.417 57.6684 111.041L51.9556 116.754C50.658 118.05 48.5467 118.05 47.2492 116.754ZM54.2441 123.75C52.9465 122.452 52.9465 120.34 54.2441 119.042L59.9569 113.329C60.6056 112.68 61.4579 112.357 62.3101 112.357C63.1623 112.357 64.0145 112.68 64.6633 113.329C65.9609 114.627 65.9609 116.74 64.6633 118.037L58.9505 123.75C57.6529 125.046 55.5417 125.048 54.2441 123.75ZM61.239 130.745C60.6149 130.119 60.2697 129.284 60.2697 128.392C60.2697 127.499 60.6133 126.663 61.239 126.038L66.9518 120.326C67.5759 119.7 68.4127 119.356 69.305 119.356C70.1973 119.356 71.0341 119.7 71.6582 120.326C72.9558 121.623 72.9558 123.735 71.6582 125.034L65.9455 130.746C65.3213 131.372 64.4845 131.716 63.5922 131.716C62.7 131.716 61.8632 131.372 61.239 130.746V130.745ZM72.9419 137.741C71.6444 139.039 69.5331 139.039 68.2355 137.741C66.9379 136.444 66.9379 134.331 68.2355 133.033L73.9483 127.321C74.5971 126.672 75.4493 126.347 76.3015 126.347C77.1537 126.347 78.0059 126.672 78.6547 127.321C79.2788 127.946 79.624 128.782 79.624 129.674C79.624 130.566 79.2804 131.403 78.6547 132.027L75.7991 134.883L72.9435 137.738L72.9419 137.741ZM115.428 125.545C114.799 126.174 113.962 126.521 113.075 126.521C112.187 126.521 111.35 126.174 110.721 125.545L101.507 116.331C100.875 115.699 99.8506 115.699 99.2188 116.331C98.587 116.963 98.587 117.988 99.2188 118.62L106.402 125.803C107.699 127.1 107.699 129.212 106.402 130.511C105.104 131.808 102.993 131.808 101.694 130.511L100.345 129.162C100.345 129.162 100.341 129.158 100.339 129.156C100.339 129.156 100.336 129.155 100.336 129.153L94.5262 123.343C93.8944 122.711 92.8696 122.711 92.2377 123.343C91.6059 123.975 91.6059 125 92.2377 125.632L98.0537 131.448C99.3482 132.747 99.3467 134.855 98.0507 136.153C96.7531 137.45 94.6418 137.45 93.3427 136.153L91.9927 134.803C91.9927 134.803 91.9896 134.799 91.9881 134.798C91.9881 134.798 91.9865 134.798 91.985 134.796L87.5297 130.34C86.8979 129.708 85.8731 129.708 85.2412 130.34C84.6094 130.971 84.6094 131.996 85.2412 132.628L89.7027 137.09C90.9972 138.389 90.9972 140.497 89.6996 141.794C88.402 143.09 86.2907 143.092 84.9916 141.794L79.2311 136.032L80.9432 134.32C82.1791 133.084 82.8603 131.435 82.8603 129.678C82.8603 127.922 82.1791 126.273 80.9432 125.037C79.5485 123.641 77.6746 123.012 75.8453 123.138C75.9717 121.309 75.3429 119.437 73.9467 118.04C72.7108 116.804 71.0618 116.123 69.305 116.123C69.1524 116.123 68.9999 116.136 68.8488 116.145C68.9768 114.314 68.348 112.44 66.9518 111.044C65.5556 109.648 63.6816 109.019 61.8508 109.145C61.8616 108.994 61.8724 108.843 61.8724 108.689C61.8724 106.932 61.1913 105.283 59.9553 104.047C58.7194 102.811 57.0704 102.13 55.3136 102.13C53.5568 102.13 51.9078 102.811 50.6719 104.047L48.9598 105.759L45.6726 102.471L57.7115 90.432L63.1345 85.0089L66.6605 88.5349C66.9641 88.8385 67.3756 89.0096 67.804 89.0096H72.7046L66.4525 95.2602C66.1489 95.5638 65.9778 95.9752 65.9778 96.4036C65.9778 96.8321 66.1489 97.2451 66.4525 97.5471C71.1081 102.203 78.6855 102.204 83.3427 97.5471L87.7902 93.0996L105.947 111.257C106.02 111.386 106.103 111.512 106.214 111.622L115.429 120.837C116.727 122.135 116.727 124.246 115.429 125.544L115.428 125.545ZM133.121 103.781L108.089 78.7491L116.385 70.4535L141.416 95.4852L133.121 103.781Z" fill="#FFE8AC"/>
<path d="M95.374 43.4601C94.7421 42.8282 93.7173 42.8282 93.0855 43.4601L83.8282 52.7173L79.7721 48.6612C79.1403 48.0294 78.1155 48.0294 77.4836 48.6612C76.8518 49.2931 76.8518 50.3179 77.4836 50.9497L82.6848 56.1508C83.0007 56.4667 83.4152 56.6255 83.8282 56.6255C84.2413 56.6255 84.6573 56.4667 84.9717 56.1508L95.374 45.7486C96.0058 45.1167 96.0058 44.0919 95.374 43.4601Z" fill="#FFE8AC"/>
</svg>
