<svg width="172" height="172" viewBox="0 0 172 172" fill="none" xmlns="http://www.w3.org/2000/svg">
<circle cx="86" cy="86" r="84.5" stroke="#FFE8AC" stroke-width="3"/>
<path d="M64.7551 58.812C64.7551 70.6314 74.3723 80.2485 86.1917 80.2485C98.0111 80.2485 107.628 70.6314 107.628 58.812C107.628 46.9926 98.0031 37.3755 86.1917 37.3755C74.3802 37.3755 64.7551 46.9926 64.7551 58.812ZM104.325 58.812C104.325 68.8094 96.189 76.9451 86.1917 76.9451C76.1943 76.9451 68.0585 68.8094 68.0585 58.812C68.0585 48.8146 76.1864 40.671 86.1917 40.671C96.197 40.671 104.325 48.8067 104.325 58.8041V58.812Z" fill="#FFE8AC"/>
<path d="M115.867 96.7261C105.87 96.7261 97.7338 104.862 97.7338 114.859C97.7338 124.857 105.87 132.992 115.867 132.992C125.864 132.992 134 124.857 134 114.859C134 104.862 125.864 96.7261 115.867 96.7261ZM115.867 129.697C107.684 129.697 101.029 123.042 101.029 114.859C101.029 106.676 107.684 100.022 115.867 100.022C124.05 100.022 130.705 106.676 130.705 114.859C130.705 123.042 124.05 129.697 115.867 129.697Z" fill="#FFE8AC"/>
<path d="M40.0232 133H102.146C103.057 133 103.794 132.263 103.794 131.352C103.794 130.441 103.057 129.705 102.146 129.705H41.7581C42.6374 105.923 62.2044 86.8395 86.1918 86.8395C95.4524 86.8395 104.325 89.6597 111.851 95.007C112.587 95.5377 113.625 95.3635 114.148 94.6188C114.679 93.8741 114.504 92.8443 113.76 92.3215C105.672 86.5781 96.1416 83.5361 86.1918 83.5361C59.8279 83.5361 38.3755 104.989 38.3755 131.352C38.3755 132.263 39.1122 133 40.0232 133Z" fill="#FFE8AC"/>
<path d="M122.458 113.219H117.515V108.276C117.515 107.365 116.778 106.628 115.867 106.628C114.956 106.628 114.219 107.365 114.219 108.276V113.219H109.276C108.365 113.219 107.628 113.956 107.628 114.867C107.628 115.778 108.365 116.515 109.276 116.515H114.219V121.458C114.219 122.369 114.956 123.106 115.867 123.106C116.778 123.106 117.515 122.369 117.515 121.458V116.515H122.458C123.369 116.515 124.106 115.778 124.106 114.867C124.106 113.956 123.369 113.219 122.458 113.219Z" fill="#FFE8AC"/>
<path d="M130.591 129.591L133.838 132.838" stroke="#D9D9D9" stroke-width="2" stroke-linecap="round"/>
</svg>
