<svg width="172" height="172" viewBox="0 0 172 172" fill="none" xmlns="http://www.w3.org/2000/svg">
<circle cx="86" cy="86" r="84.5" stroke="#FFE8AC" stroke-width="3"/>
<path d="M64.5218 127.768C61.7394 126.554 59.5154 125.283 58.1336 124.432C57.386 123.973 56.8087 123.581 56.4207 123.314C56.2314 123.18 56.0894 123.075 55.9569 122.979L55.8812 122.922C54.6698 121.995 52.9758 122.215 52.0388 123.419C51.1114 124.604 51.2912 126.354 52.4363 127.319C62.8088 136.017 72.2823 140.921 81.3961 142.298C83.2605 142.584 85.1154 142.718 86.9704 142.718C89.6014 142.718 92.2324 142.431 94.9296 141.867C98.5165 141.112 102.16 139.851 106.04 138.034L108.226 141.227C108.813 142.078 109.807 142.537 110.829 142.422C111.851 142.307 112.722 141.629 113.091 140.663L119.12 125.197C119.432 124.384 119.356 123.457 118.921 122.731C118.476 121.985 117.7 121.479 116.848 121.383L100.409 119.509C99.3493 119.385 98.3366 119.873 97.7688 120.771C97.201 121.66 97.182 122.826 97.712 123.734L99.425 126.631C94.9864 129.326 90.2071 130.942 85.2006 131.439C76.948 132.261 69.3958 129.89 64.5124 127.759L64.5218 127.768ZM102.936 128.772C103.75 128.227 103.996 127.128 103.495 126.287L101.782 123.4L115.296 124.939L110.299 137.757L108.16 134.641C107.64 133.886 106.655 133.628 105.842 134.039C101.696 136.104 97.8824 137.48 94.1725 138.264C90.0083 139.143 86.0051 139.267 81.9356 138.656C76.5032 137.834 70.8911 135.626 64.9572 131.955C70.2002 134.01 77.5443 135.931 85.5603 135.138C91.7308 134.526 97.5701 132.385 102.927 128.781L102.936 128.772Z" fill="#FFE8AC"/>
<path d="M112.466 46.6233C113.214 47.0821 113.791 47.4741 114.17 47.7321C114.359 47.866 114.501 47.9616 114.615 48.0476L114.709 48.1241C115.921 49.0513 117.615 48.8314 118.552 47.627C119.498 46.4226 119.318 44.7116 118.154 43.727C107.791 35.0285 98.3175 30.1343 89.2037 28.7483C84.6989 28.0696 80.2697 28.2034 75.6702 29.1784C72.0834 29.9336 68.4397 31.1954 64.5595 33.0115L62.3733 29.8189C61.7866 28.9682 60.7928 28.5093 59.7707 28.624C58.7486 28.7387 57.8779 29.4174 57.4994 30.3829L51.4708 45.8491C51.1585 46.6616 51.2342 47.5888 51.6696 48.3152C52.1144 49.0608 52.8904 49.5674 53.7422 49.663L70.1811 51.5366C70.2852 51.5461 70.3893 51.5557 70.4934 51.5557C71.4304 51.5557 72.301 51.0777 72.8216 50.2748C73.3894 49.3858 73.4083 48.2292 72.8783 47.3116L71.1654 44.4152C75.6134 41.7196 80.3833 40.1042 85.3897 39.6071C93.6423 38.7851 101.195 41.1557 106.078 43.2873C108.86 44.5013 111.094 45.7726 112.466 46.6233ZM85.0301 35.927C78.8596 36.5388 73.0203 38.6799 67.6637 42.2836C66.8498 42.8285 66.6037 43.9277 67.1053 44.7689L68.8183 47.6557L55.3037 46.1167L60.3007 33.2983L62.4301 36.4145C62.9506 37.1696 63.9349 37.4277 64.7488 37.0167C68.8845 34.9615 72.708 33.5755 76.4179 32.7917C80.582 31.9123 84.5853 31.788 88.6548 32.3998C94.0871 33.2218 99.6993 35.4299 105.633 39.1005C100.39 37.0454 93.0461 35.124 85.0301 35.9174V35.927Z" fill="#FFE8AC"/>
<path d="M52.3513 90.2212C56.4113 90.2212 60.2348 88.6249 63.1118 85.7095C65.9889 82.8036 67.5788 78.9418 67.5788 74.8411C67.5788 66.3624 60.7458 59.4705 52.3513 59.4705C48.2912 59.4705 44.4678 61.0763 41.5907 63.9822C38.7137 66.8881 37.1332 70.7499 37.1332 74.8506C37.1332 83.3197 43.9662 90.2212 52.3607 90.2212H52.3513ZM44.4394 66.8594C46.5593 64.7183 49.3701 63.5425 52.3513 63.5425C58.5218 63.5425 63.5472 68.6183 63.5472 74.8506C63.5472 77.8617 62.3831 80.7006 60.2632 82.8418C58.1432 84.983 55.3419 86.1587 52.3607 86.1587C46.1902 86.1587 41.1648 81.0925 41.1648 74.8602C41.1648 71.8396 42.3289 69.0102 44.4488 66.869L44.4394 66.8594Z" fill="#FFE8AC"/>
<path d="M71.6292 111.786C71.6481 111.241 71.9699 98.2602 63.8877 90.7756C63.1684 90.1065 62.0706 90.0587 61.304 90.6609C61.2188 90.7278 52.2754 97.5146 43.966 90.68C43.2089 90.0587 42.111 90.0778 41.3729 90.7182C41.0416 91.0146 33.2528 97.9925 33.0635 111.7C33.0635 112.245 33.2622 112.77 33.6408 113.153C34.0193 113.545 34.5399 113.755 35.0793 113.755H69.6228C70.7112 113.755 71.6008 112.876 71.6387 111.776L71.6292 111.786ZM37.1898 109.693C37.8049 101.931 41.1457 97.0462 42.9249 94.9528C50.1933 99.8278 57.9916 97.5146 62.2788 94.9146C66.3767 99.5984 67.3326 106.385 67.5502 109.693H37.1898Z" fill="#FFE8AC"/>
<path d="M108.946 63.9822C106.069 66.8881 104.488 70.7499 104.488 74.8506C104.488 83.3197 111.321 90.2212 119.716 90.2212C123.776 90.2212 127.599 88.6249 130.476 85.7095C133.353 82.8036 134.943 78.9418 134.943 74.8411C134.943 66.3624 128.11 59.4705 119.716 59.4705C115.656 59.4705 111.832 61.0763 108.955 63.9822H108.946ZM130.902 74.8411C130.902 77.8521 129.738 80.6911 127.618 82.8323C125.508 84.9734 122.697 86.1492 119.716 86.1492C113.545 86.1492 108.52 81.083 108.52 74.8506C108.52 71.83 109.684 69.0006 111.804 66.8594C113.924 64.7183 116.735 63.5425 119.716 63.5425C125.886 63.5425 130.912 68.6183 130.912 74.8506L130.902 74.8411Z" fill="#FFE8AC"/>
<path d="M131.252 90.7756C130.533 90.1065 129.445 90.0587 128.669 90.6609C128.583 90.7278 119.64 97.5146 111.331 90.68C110.573 90.0587 109.476 90.0778 108.737 90.7182C108.406 91.005 100.627 97.9925 100.428 111.69C100.428 112.235 100.627 112.761 101.005 113.143C101.384 113.535 101.904 113.745 102.434 113.745H136.978C138.066 113.745 138.956 112.866 138.994 111.767C139.013 111.222 139.344 98.241 131.252 90.7565V90.7756ZM104.545 109.693C105.16 101.931 108.501 97.0462 110.28 94.9528C117.548 99.8278 125.347 97.5146 129.634 94.9146C133.732 99.5984 134.688 106.385 134.905 109.693H104.554H104.545Z" fill="#FFE8AC"/>
</svg>
