<svg width="172" height="172" viewBox="0 0 172 172" fill="none" xmlns="http://www.w3.org/2000/svg">
<circle cx="86" cy="86" r="84.5" stroke="#FFE8AC" stroke-width="3"/>
<path d="M42.027 134.976H115.796C116.723 134.976 117.472 134.227 117.472 133.3C117.472 132.374 116.723 131.624 115.796 131.624H42.027C41.1005 131.624 40.3513 130.875 40.3513 129.949V71.2604H99.0317C99.9581 71.2604 100.707 70.5112 100.707 69.5847C100.707 68.6583 99.9581 67.9091 99.0317 67.9091H40.3513V49.4688C40.3513 48.5423 41.1005 47.7931 42.027 47.7931H57.116V51.4586C55.1664 52.1514 53.7647 53.9963 53.7647 56.1795C53.7647 58.9507 56.0204 61.2064 58.7916 61.2064C61.5629 61.2064 63.8186 58.9507 63.8186 56.1795C63.8186 53.9963 62.4088 52.1514 60.4673 51.4586V47.7931H105.734C106.661 47.7931 107.41 47.0439 107.41 46.1174C107.41 45.191 106.661 44.4418 105.734 44.4418H60.4754V39.4067C60.4754 38.4803 59.7262 37.7311 58.7997 37.7311C57.8733 37.7311 57.124 38.4803 57.124 39.4067V44.4337H42.027C39.2557 44.4337 37 46.6894 37 49.4607V129.941C37 132.712 39.2557 134.968 42.027 134.968V134.976Z" fill="#FFE8AC"/>
<path d="M100.715 76.2954C100.715 75.369 99.9663 74.6198 99.0398 74.6198H45.3865C44.46 74.6198 43.7108 75.369 43.7108 76.2954V126.597C43.7108 127.524 44.46 128.273 45.3865 128.273H112.453C113.38 128.273 114.129 127.524 114.129 126.597C114.129 125.671 113.38 124.922 112.453 124.922H47.0621V77.9791H99.0398C99.9663 77.9791 100.715 77.2299 100.715 76.3035V76.2954Z" fill="#FFE8AC"/>
<path d="M134.245 112.177V46.1174C134.245 41.4933 130.483 37.7311 125.859 37.7311H120.493C115.869 37.7311 112.107 41.4933 112.107 46.1174V52.5945L105.807 56.7917C105.759 56.8239 105.735 56.8723 105.694 56.9045C105.606 56.977 105.525 57.0576 105.453 57.1542C105.388 57.2348 105.332 57.3154 105.283 57.412C105.235 57.5087 105.195 57.6054 105.163 57.7101C105.13 57.8229 105.106 57.9276 105.098 58.0404C105.098 58.0968 105.066 58.1451 105.066 58.2015V76.9802C105.066 77.9067 105.815 78.6559 106.742 78.6559C107.668 78.6559 108.417 77.9067 108.417 76.9802V59.0958L112.107 56.6387V112.193C112.107 112.193 112.107 112.201 112.107 112.209C112.107 112.322 112.147 112.443 112.179 112.556C112.204 112.661 112.204 112.765 112.252 112.862C112.252 112.862 112.252 112.87 112.252 112.878L121.637 134.001C121.903 134.605 122.507 135 123.168 135C123.828 135 124.433 134.613 124.699 134.001L134.084 112.878C134.084 112.878 134.084 112.87 134.084 112.862C134.124 112.765 134.132 112.661 134.156 112.556C134.181 112.443 134.229 112.322 134.229 112.209C134.229 112.209 134.229 112.201 134.229 112.193L134.245 112.177ZM115.466 55.1725H130.894V110.501H115.466V55.1725ZM120.493 41.0905H125.859C128.63 41.0905 130.886 43.3462 130.886 46.1174V51.8211H115.458V46.1174C115.458 43.3462 117.714 41.0905 120.485 41.0905H120.493ZM123.176 129.175L116.369 113.853H129.983L123.176 129.175Z" fill="#FFE8AC"/>
<path d="M123.184 58.8541C122.257 58.8541 121.508 59.6033 121.508 60.5298V105.128C121.508 106.055 122.257 106.804 123.184 106.804C124.11 106.804 124.859 106.055 124.859 105.128V60.5298C124.859 59.6033 124.11 58.8541 123.184 58.8541Z" fill="#FFE8AC"/>
<path d="M67.178 103.791H57.116C56.1895 103.791 55.4403 104.54 55.4403 105.466V115.528C55.4403 116.455 56.1895 117.204 57.116 117.204H67.178C68.1044 117.204 68.8537 116.455 68.8537 115.528V105.466C68.8537 104.54 68.1044 103.791 67.178 103.791ZM65.5023 113.853H58.7997V107.15H65.5023V113.853Z" fill="#FFE8AC"/>
<path d="M83.9428 103.791H73.8807C72.9543 103.791 72.2051 104.54 72.2051 105.466V115.528C72.2051 116.455 72.9543 117.204 73.8807 117.204H83.9428C84.8692 117.204 85.6184 116.455 85.6184 115.528V105.466C85.6184 104.54 84.8692 103.791 83.9428 103.791ZM82.2671 113.853H75.5645V107.15H82.2671V113.853Z" fill="#FFE8AC"/>
<path d="M100.715 103.791H90.6534C89.727 103.791 88.9778 104.54 88.9778 105.466V115.528C88.9778 116.455 89.727 117.204 90.6534 117.204H100.715C101.642 117.204 102.391 116.455 102.391 115.528V105.466C102.391 104.54 101.642 103.791 100.715 103.791ZM99.0398 113.853H92.3372V107.15H99.0398V113.853Z" fill="#FFE8AC"/>
<path d="M83.9428 84.6738H73.8807C72.9543 84.6738 72.2051 85.423 72.2051 86.3495V96.4115C72.2051 97.338 72.9543 98.0872 73.8807 98.0872H83.9428C84.8692 98.0872 85.6184 97.338 85.6184 96.4115V86.3495C85.6184 85.423 84.8692 84.6738 83.9428 84.6738ZM82.2671 94.7359H75.5645V88.0332H82.2671V94.7359Z" fill="#FFE8AC"/>
<path d="M100.715 84.6738H90.6534C89.727 84.6738 88.9778 85.423 88.9778 86.3495V96.4115C88.9778 97.338 89.727 98.0872 90.6534 98.0872H100.715C101.642 98.0872 102.391 97.338 102.391 96.4115V86.3495C102.391 85.423 101.642 84.6738 100.715 84.6738ZM99.0398 94.7359H92.3372V88.0332H99.0398V94.7359Z" fill="#FFE8AC"/>
</svg>
