<svg width="172" height="172" viewBox="0 0 172 172" fill="none" xmlns="http://www.w3.org/2000/svg">
<circle cx="86" cy="86" r="84.5" stroke="#FFE8AC" stroke-width="3"/>
<path d="M80.3937 77.8977C80.794 78.3209 81.3316 78.5382 81.8577 78.5382C82.3724 78.5382 82.9213 78.3209 83.3102 77.8977L102.204 57.8827C102.216 57.8713 102.227 57.8598 102.227 57.8484C103.588 56.3844 104.663 54.6117 105.338 52.6216C105.853 51.1005 106.127 49.4649 106.127 47.7608C106.127 39.8577 100.111 33.4301 92.6887 33.4301C88.2053 33.4301 84.2481 35.809 81.8119 39.4117C79.3758 35.7975 75.4186 33.4301 70.9352 33.4301C63.5239 33.4301 57.4966 39.8577 57.4966 47.7608C57.4966 49.4192 57.7596 51.0318 58.2514 52.5187C58.8118 54.2228 59.6696 55.7668 60.7447 57.105C61.1793 57.6425 61.6482 58.1457 62.1629 58.6032L80.3823 77.8977H80.3937ZM61.511 51.3178C61.1336 50.174 60.9391 48.9846 60.9391 47.7608C60.9391 44.9015 61.9914 42.2138 63.8899 40.1894C65.7771 38.1765 68.2818 37.0671 70.9466 37.0556C74.8467 37.0556 78.4265 39.5261 80.0621 43.3461C80.3709 44.078 81.0685 44.547 81.8348 44.547C82.6011 44.547 83.2873 44.078 83.5961 43.3461C85.2317 39.5261 88.8 37.0671 92.7115 37.0671C95.3764 37.0671 97.8811 38.1765 99.7683 40.2008C101.667 42.2252 102.708 44.913 102.708 47.7722C102.708 49.0189 102.513 50.2427 102.113 51.4093C101.621 52.8732 100.809 54.2228 99.7568 55.3551L81.8577 74.3179L64.599 56.0299L64.4961 55.9384C64.0958 55.5724 63.7184 55.1721 63.3752 54.7489C62.5518 53.731 61.9227 52.5758 61.511 51.3292V51.3178Z" fill="#FFE8AC"/>
<path d="M140.382 98.599C139.97 98.0271 139.307 97.684 138.598 97.684C133.142 97.684 129.425 94.7332 125.113 91.325C124.175 90.5815 123.226 89.8267 122.254 89.1062C118.251 86.1325 113.184 83.0902 105.91 83.0902C102.788 83.0902 100.386 83.1245 98.4188 83.1817H83.1045C79.6504 83.1817 76.8369 86.1096 76.8369 89.7123C76.8369 93.315 79.6504 96.2429 83.1045 96.2429H97.2636C99.0822 96.6432 100.375 98.3817 100.375 100.44C100.375 101.916 99.6655 103.288 98.5217 104.066L93.295 105.541C91.5336 105.987 89.738 106.491 87.8737 107.074L87.5078 107.177C77.7862 109.922 74.4465 110.837 73.4401 111.1C73.0512 111.111 72.7195 111.1 72.4336 111.054L50.2112 95.694L46.151 92.5716C46.0824 92.5144 46.0023 92.4572 45.9223 92.4115C45.705 92.2628 45.4762 92.137 45.236 92.0112C44.79 91.771 44.3554 91.5766 43.8979 91.4279C43.5548 91.325 43.1888 91.2335 42.777 91.1648C41.702 90.9933 40.9128 91.039 40.0321 91.2106C35.5488 91.691 32.1748 95.591 32.1748 100.315C32.1748 102.705 33.0669 104.969 34.6795 106.696C34.7139 106.742 34.7482 106.777 34.7939 106.811C35.3886 107.428 36.0406 107.943 36.7382 108.343L73.6574 136.879C73.8632 137.039 74.0805 137.154 74.3093 137.222L74.6753 137.371C75.819 137.794 76.8941 138 77.9806 138C78.6211 138 79.2844 137.931 79.9592 137.794C80.005 137.794 80.0507 137.771 80.0965 137.76L80.268 137.714C93.5008 134.123 117.404 127.649 128.739 124.664C128.819 124.641 128.899 124.619 128.979 124.584L129.711 124.298C133.645 123.246 136.79 122.663 138.563 122.663C139.787 122.663 140.771 121.668 140.771 120.455V119.014C140.793 118.889 140.805 118.751 140.805 118.614L140.771 100.235C140.874 99.6512 140.725 99.045 140.382 98.5647V98.599ZM136.367 118.431C134.297 118.683 131.644 119.232 128.441 120.101C128.361 120.124 128.281 120.147 128.201 120.181L127.492 120.455C116.089 123.452 92.2999 129.902 79.1014 133.482L78.9985 133.505C78.0607 133.688 77.2029 133.62 76.2993 133.288L76.1278 133.219L39.3345 104.775C39.243 104.706 39.14 104.638 39.0485 104.581C38.6825 104.386 38.3394 104.112 38.0078 103.78C37.9963 103.757 37.9734 103.746 37.962 103.723C37.1042 102.819 36.6239 101.618 36.6239 100.337C36.6239 97.867 38.328 95.8426 40.5926 95.6253C40.684 95.6253 40.7641 95.6025 40.8556 95.5796C41.2788 95.4881 41.7363 95.4995 42.0908 95.5453C42.2624 95.5796 42.4339 95.6139 42.5597 95.6482C42.7313 95.7054 42.9257 95.7969 43.143 95.9113C43.2803 95.9799 43.4175 96.0599 43.5433 96.14C43.5548 96.14 43.5776 96.1629 43.5891 96.1743L47.5692 99.2395C47.5692 99.2395 47.6264 99.2852 47.6607 99.3081L70.2948 114.954C70.5007 115.103 70.7409 115.206 70.9925 115.274C71.8274 115.492 72.7767 115.572 73.8975 115.515C74.0348 115.515 74.172 115.48 74.3093 115.457C75.3501 115.194 80.188 113.845 88.7087 111.443L89.1204 111.329C90.9732 110.757 92.7002 110.276 94.4387 109.83L100.031 108.252C100.214 108.195 100.386 108.126 100.546 108.035C103.165 106.491 104.801 103.586 104.801 100.463C104.801 96.1858 101.884 92.5716 97.8584 91.8739C97.7326 91.8511 97.6068 91.8396 97.4809 91.8396H83.1045C82.0865 91.8396 81.2631 90.8904 81.2631 89.7352C81.2631 88.58 82.0865 87.6193 83.1045 87.6193H98.4874C100.443 87.5621 102.879 87.5278 105.91 87.5278C111.869 87.5278 116.021 89.9983 119.612 92.6745C120.55 93.3722 121.465 94.0928 122.368 94.8133C126.406 98.0157 130.569 101.31 136.356 101.996V116.235L136.379 118.351C136.379 118.351 136.379 118.408 136.367 118.442V118.431Z" fill="#FFE8AC"/>
</svg>
