<svg width="18" height="18" viewBox="0 0 18 18" fill="none" xmlns="http://www.w3.org/2000/svg">
<path d="M15.97 6.07989L10.637 1.93189C10.169 1.56779 9.59296 1.37012 9 1.37012C8.40704 1.37012 7.83101 1.56779 7.363 1.93189L2.029 6.07989C1.70844 6.32917 1.44909 6.64841 1.27076 7.01324C1.09242 7.37806 0.999809 7.77881 1 8.18489V15.3849C1 15.9153 1.21071 16.424 1.58579 16.7991C1.96086 17.1742 2.46957 17.3849 3 17.3849H15C15.5304 17.3849 16.0391 17.1742 16.4142 16.7991C16.7893 16.424 17 15.9153 17 15.3849V8.18489C17 7.36189 16.62 6.58489 15.97 6.07989Z" stroke="#455A64" stroke-linecap="round" stroke-linejoin="round"/>
<path d="M12.97 12.3701C10.76 13.7031 7.17797 13.7031 4.96997 12.3701" stroke="#455A64" stroke-linecap="round" stroke-linejoin="round"/>
</svg>
