<svg width="22" height="20" viewBox="0 0 22 20" fill="none" xmlns="http://www.w3.org/2000/svg">
<path d="M3.14286 8.0957V18.3077C3.14286 18.4913 3.21811 18.6674 3.35207 18.7972C3.48602 18.9271 3.6677 19 3.85714 19H8.14286V13.1151C8.14286 12.8397 8.25574 12.5756 8.45667 12.3808C8.6576 12.186 8.93013 12.0766 9.21429 12.0766H12.7857C13.0699 12.0766 13.3424 12.186 13.5433 12.3808C13.7443 12.5756 13.8571 12.8397 13.8571 13.1151V19H18.1429C18.3323 19 18.514 18.9271 18.6479 18.7972C18.7819 18.6674 18.8571 18.4913 18.8571 18.3077V8.0957M21 9.99962L11.4862 1.17233C11.2629 0.943857 10.7411 0.941261 10.5138 1.17233L1 9.99962M17.4286 6.66775V1.69158H15.2857V4.67728" stroke="#C7C7C7" stroke-width="2" stroke-linecap="round" stroke-linejoin="round"/>
</svg>
