<svg width="416" height="440" viewBox="0 0 416 440" fill="none" xmlns="http://www.w3.org/2000/svg">
<path d="M0 439.045C133.101 438.417 282.398 438.407 415.499 439.045C282.398 439.683 133.101 439.673 0 439.045Z" fill="#263238"/>
<path d="M150.255 316.487L124.854 353.554C119.963 360.597 115.803 366.867 113.95 370.306V370.368C113.416 371.122 113.063 371.989 112.92 372.901C112.914 372.928 112.914 372.956 112.92 372.983C114.032 375.856 169.231 416.589 171.609 417.361C173.988 418.133 176.397 411.337 175.522 408.094C174.647 404.851 160.469 379.748 160.469 379.748L185.489 342.527L150.255 316.487Z" fill="#FFC4C0"/>
<path d="M132.432 342.475L169.334 366.548C169.334 366.548 205.237 321.594 213.608 293.671C219.529 273.778 183.018 177.322 183.018 177.322L142.862 176.478C142.862 176.478 173.422 269.557 170.94 278.854C167.841 290.252 132.432 342.475 132.432 342.475Z" fill="#263238"/>
<path d="M169.303 266.488C163.208 238.688 142.78 176.498 142.78 176.498L165.741 176.972L169.303 266.488Z" fill="#37474F"/>
<path d="M112.931 372.87C112.931 372.87 112.931 372.922 112.931 372.932C114.053 375.815 169.252 416.548 171.62 417.32C173.988 418.092 176.418 411.296 175.533 408.053C175.049 406.261 170.714 398.158 166.812 391.064C170.415 397.942 177.54 417.835 120.2 360.319C117.389 364.499 115.144 368.031 113.919 370.307C113.915 370.316 113.912 370.327 113.912 370.337C113.912 370.348 113.915 370.359 113.919 370.368C113.408 371.118 113.07 371.973 112.931 372.87Z" fill="#263238"/>
<path d="M97.6611 241.447L72.0334 210.847C66.1027 204.669 57.7009 195.124 56.1152 194.928C53.0263 195.443 1.40037 241.746 0.164803 243.949C-1.07076 246.153 5.09676 249.849 8.50486 249.643C11.913 249.437 39.2807 240.562 39.2807 240.562L66.4528 271.101L97.6611 241.447Z" fill="#FFC4C0"/>
<path d="M8.49457 249.643C10.2141 249.53 17.9054 247.265 25.1747 245.02C16.8655 246.05 0.906149 244.917 70.9626 209.714C65.1451 203.536 57.5773 195.114 56.1255 194.939C53.0366 195.454 1.40037 241.746 0.16481 243.95C-1.07075 246.153 5.09677 249.849 8.49457 249.643Z" fill="#263238"/>
<path d="M182.647 177.332C182.647 177.332 173.38 208.777 172.104 209.498C170.652 210.311 163.928 212.443 161.581 213.369C161.581 213.369 146.466 277.207 134.471 295.092C130.352 301.269 110.665 308.086 100.595 302.145C76.9859 288.193 47.5383 249.839 47.5383 249.839L79.0452 219.207L109.008 252.372C115.34 239.172 117.893 213.019 117.893 213.019C117.893 213.019 118.264 187.278 127.16 176.158L182.647 177.332Z" fill="#263238"/>
<path d="M176.366 208.262C169.556 209.386 162.988 211.667 156.947 215.006C156.803 215.089 156.865 215.356 157.04 215.295C163.537 213.143 169.962 210.795 176.438 208.612C176.485 208.603 176.526 208.575 176.552 208.536C176.578 208.496 176.587 208.448 176.577 208.401C176.568 208.355 176.54 208.314 176.501 208.288C176.461 208.262 176.413 208.253 176.366 208.262Z" fill="#37474F"/>
<path d="M173.823 183.005C173.823 182.871 173.586 182.861 173.556 183.005C172.897 185.538 172.279 192.56 171.949 195.155C171.774 196.494 171.579 197.832 171.414 199.171C171.249 200.509 171.126 201.879 170.848 203.196C170.786 203.781 170.589 204.342 170.273 204.837C169.956 205.332 169.529 205.747 169.025 206.049C168.542 206.234 168.007 206.231 167.527 206.04C167.046 205.85 166.655 205.485 166.43 205.019C165.951 203.871 165.794 202.614 165.977 201.384C166.039 200.025 166.122 198.676 166.194 197.317C166.369 194.228 167.079 186.825 167.223 183.736C167.223 183.602 167.017 183.551 166.997 183.685C166.338 186.712 165.432 194.053 165.123 197.122C164.958 198.721 164.835 200.317 164.752 201.909C164.599 203.183 164.829 204.473 165.411 205.616C165.667 206.104 166.043 206.518 166.505 206.819C166.966 207.121 167.497 207.298 168.047 207.336C167.984 207.497 167.946 207.667 167.934 207.84C167.893 208.206 167.893 208.576 167.934 208.942C167.957 209.102 167.991 209.26 168.037 209.415C168.077 209.6 168.147 209.777 168.243 209.941L168.181 209.817C168.253 210.044 168.376 210.239 168.449 210.466C168.449 210.488 168.457 210.508 168.473 210.524C168.488 210.539 168.509 210.548 168.531 210.548C168.553 210.548 168.574 210.539 168.589 210.524C168.605 210.508 168.613 210.488 168.613 210.466C168.613 210.136 168.747 209.838 168.788 209.508C168.824 209.145 168.824 208.78 168.788 208.417C168.788 208.128 168.706 207.809 168.685 207.542C168.685 207.449 168.685 207.356 168.685 207.253C169.503 207.058 170.229 206.589 170.745 205.925C171.465 204.86 171.894 203.624 171.99 202.342C172.217 200.808 172.444 199.253 172.608 197.739C172.804 195.979 172.979 194.218 173.144 192.447C173.308 190.676 173.957 184.684 173.823 183.005Z" fill="#37474F"/>
<path d="M147.506 101.365C143.48 99.7284 132.205 100.882 127.654 105.844C123.103 110.807 121.857 119.899 123.536 121.093C125.214 122.288 133.317 122.978 139.299 120.887C145.282 118.797 149.483 102.179 147.506 101.365Z" fill="#263238"/>
<path d="M147.506 101.396C147.65 101.396 147.712 101.16 147.506 101.129C143.861 100.408 139.732 100.974 136.067 101.386C133.067 101.555 130.135 102.348 127.459 103.713C126.21 104.429 125.13 105.408 124.295 106.581C123.459 107.754 122.888 109.094 122.619 110.509C121.95 113.721 121.744 117.716 122.846 120.805C122.846 120.898 123.042 120.898 123.031 120.805C122.383 114.411 122.187 106.709 128.952 103.59C134.738 100.954 141.4 101.674 147.506 101.396Z" fill="#263238"/>
<path d="M124.442 119.611C120.704 119.456 110.027 124.759 107.226 131.472C104.426 138.185 108.328 149.398 109.986 150.459C111.644 151.519 120.879 146.217 124.349 141.779C126.676 138.803 125.935 134.746 125.78 130.813C125.564 125.016 125.019 119.631 124.442 119.611Z" fill="#263238"/>
<path d="M126.697 141.274C128.993 134.376 126.182 126.664 124.854 119.847C124.854 119.786 124.73 119.796 124.73 119.847C125.019 126.221 127.768 132.368 126.79 138.803C126.579 140.705 125.914 142.528 124.851 144.119C123.789 145.71 122.359 147.023 120.684 147.946C117.595 149.501 114.032 149.851 110.686 150.428C110.47 150.428 110.552 150.798 110.768 150.767C117.41 149.8 124.349 148.399 126.697 141.274Z" fill="#263238"/>
<path d="M123.536 120.125C123.742 120.074 123.659 119.755 123.464 119.816C117.842 121.382 110.964 123.935 107.278 128.702C103.283 133.85 105.291 140.389 107.093 146C107.097 146.011 107.105 146.021 107.115 146.027C107.125 146.034 107.137 146.037 107.149 146.037C107.161 146.037 107.173 146.034 107.183 146.027C107.193 146.021 107.201 146.011 107.206 146C105.445 140.317 103.767 133.356 108.143 128.373C111.911 124.069 118.223 121.701 123.536 120.125Z" fill="#263238"/>
<path d="M111.633 149.336C106.67 152.816 100.472 158.15 101.337 163.638C102.202 169.126 108.359 177.404 108.977 177.425C109.595 177.445 119.52 171.772 121.744 165.347C123.968 158.922 112.272 148.883 111.633 149.336Z" fill="#263238"/>
<path d="M109.461 177.867C105.486 174.202 100.863 169.208 100.812 163.453C100.812 157.882 106.763 152.878 110.882 149.944V149.861C106.403 152.507 100.585 157.45 100.41 163.102C100.235 168.755 104.992 175.005 109.399 178.042C109.44 178.094 109.543 177.94 109.461 177.867Z" fill="#263238"/>
<path d="M111.067 175.139C108.297 174.83 102.943 176.364 99.4937 180.05C93.5939 186.352 91.8538 183.139 82.8548 179.916C75.2561 177.157 68.9959 183.551 70.077 189.492C70.077 189.492 71.0551 183.623 76.9344 184.344C83.9668 185.198 92.3789 198.759 103.293 195.309C117.481 190.861 111.067 175.139 111.067 175.139Z" fill="#263238"/>
<path d="M106.104 176.57C106.14 176.562 106.17 176.54 106.19 176.509C106.209 176.478 106.215 176.441 106.207 176.405C106.199 176.37 106.177 176.339 106.146 176.32C106.115 176.301 106.078 176.294 106.042 176.302C104.559 176.601 103.143 177.166 101.862 177.97C100.194 179 99.082 180.627 97.5169 181.79C93.522 184.745 88.9195 181.482 85.3466 179.463C80.5691 176.745 75.0503 177.095 71.5701 181.708C71.5592 181.722 71.5541 181.739 71.5561 181.757C71.558 181.774 71.5668 181.79 71.5804 181.801C71.5941 181.812 71.6115 181.817 71.6289 181.815C71.6463 181.813 71.6621 181.804 71.6731 181.79C72.757 180.372 74.2105 179.28 75.8742 178.634C77.5379 177.987 79.3475 177.811 81.1045 178.125C84.5229 178.774 87.1382 181.368 90.3713 182.542C92.5644 183.345 94.984 183.788 97.0948 182.542C98.1901 181.752 99.2011 180.852 100.112 179.855C101.798 178.27 103.86 177.139 106.104 176.57Z" fill="#263238"/>
<path d="M111.695 176.797C111.695 176.735 111.571 176.797 111.582 176.797C112.467 181.07 113.507 185.446 111.767 189.677C109.893 194.228 105.146 196.885 100.379 197.194C95.0355 197.554 92.1422 193.744 88.6826 190.347C86.1909 187.886 83.5344 185.61 80.0543 184.725C79.9513 184.725 79.8998 184.869 80.0543 184.91C85.2642 186.866 88.5076 190.954 92.4099 194.62C95.6429 197.616 99.329 198.254 103.53 196.988C112.797 194.239 114.362 185.054 111.695 176.797Z" fill="#263238"/>
<path d="M144.201 93.6947C143.027 92.2017 140.72 94.055 141.904 95.5583C143.089 97.0616 145.385 95.1876 144.201 93.6947Z" fill="#FFC727"/>
<path d="M145.354 96.1966C145.105 95.8949 144.748 95.7034 144.359 95.664C143.97 95.6245 143.581 95.7402 143.277 95.9858C142.973 96.2315 142.779 96.5873 142.736 96.9757C142.693 97.3642 142.805 97.754 143.047 98.0603C143.296 98.362 143.653 98.5535 144.042 98.593C144.431 98.6324 144.82 98.5168 145.124 98.2711C145.428 98.0254 145.623 97.6697 145.666 97.2812C145.709 96.8927 145.597 96.5029 145.354 96.1966Z" fill="#FFC727"/>
<path d="M146.929 98.4825C146.672 98.2102 146.322 98.045 145.949 98.0201C145.575 97.9952 145.206 98.1125 144.916 98.3483C144.625 98.5842 144.435 98.9212 144.382 99.2917C144.33 99.6623 144.419 100.039 144.633 100.346C145.807 101.829 148.103 99.9858 146.929 98.4825Z" fill="#FFC727"/>
<path d="M148.741 100.49C148.485 100.218 148.134 100.053 147.761 100.028C147.388 100.003 147.019 100.12 146.728 100.356C146.437 100.592 146.247 100.929 146.194 101.299C146.142 101.67 146.231 102.047 146.445 102.354C147.619 103.888 149.925 101.983 148.741 100.49Z" fill="#FFC727"/>
<path d="M150.924 102.189C150.676 101.887 150.318 101.696 149.929 101.657C149.54 101.617 149.152 101.733 148.848 101.978C148.544 102.224 148.349 102.58 148.306 102.968C148.263 103.357 148.375 103.747 148.618 104.053C148.866 104.355 149.224 104.546 149.613 104.586C150.002 104.625 150.39 104.509 150.694 104.264C150.998 104.018 151.193 103.662 151.236 103.274C151.279 102.885 151.167 102.495 150.924 102.189Z" fill="#FFC727"/>
<path d="M153.282 103.425C153.034 103.123 152.676 102.932 152.287 102.892C151.898 102.853 151.51 102.968 151.206 103.214C150.902 103.46 150.707 103.815 150.664 104.204C150.621 104.592 150.733 104.982 150.976 105.288C152.149 106.781 154.456 104.918 153.282 103.425Z" fill="#FFC727"/>
<path d="M112.416 171.391C115.556 165.79 129.271 145.197 131.413 136.96C133.554 128.723 141.554 117.757 145.313 116.11C149.071 114.463 145.58 118.118 143.017 121.052C140.453 123.987 136.55 137.032 134.213 142.283C131.876 147.534 119.201 172.936 116.586 175.963C113.971 178.99 112.416 171.391 112.416 171.391Z" fill="#FFC727"/>
<path opacity="0.3" d="M112.416 171.391C115.556 165.79 129.271 145.197 131.413 136.96C133.554 128.723 141.554 117.757 145.313 116.11C149.071 114.463 145.58 118.118 143.017 121.052C140.453 123.987 136.55 137.032 134.213 142.283C131.876 147.534 119.201 172.936 116.586 175.963C113.971 178.99 112.416 171.391 112.416 171.391Z" fill="black"/>
<path d="M154.672 126.715C162.621 131.019 198.349 140.409 209.912 132.564C221.701 124.563 232.029 90.1116 233.594 85.8386C237.342 75.8306 205.794 72.6593 204.651 75.4084C200.738 85.1591 195.384 111.085 191.101 112.187C182.081 114.524 173.525 114.421 159.182 116.11C149.143 117.273 145.9 121.979 154.672 126.715Z" fill="#FFC4C0"/>
<path d="M232.235 88.2582C234.294 85.0354 242.459 69.3335 243.715 64.5045C244.971 59.6755 247.566 45.518 243.962 44.1795C240.358 42.8409 239.267 46.9286 239.267 46.9286C239.267 46.9286 239.421 40.7508 235.674 39.7211C231.926 38.6915 230.402 45.1988 230.402 45.1988C230.402 45.1988 230.103 38.8665 226.283 38.1252C222.463 37.3839 222.051 44.0765 222.051 44.0765C222.051 44.0765 222.051 38.2797 218.643 38.9283C214.525 39.7829 215.781 50.4705 214 55.7011C213.598 56.8852 204.074 79.1768 204.074 79.1768L232.235 88.2582Z" fill="#FFC4C0"/>
<path d="M222.165 43.4587C223.04 51.3251 222.072 54.9186 218.674 61.9304C218.602 62.0643 218.798 62.1981 218.88 62.054C222.824 55.4952 224.697 51.1707 222.535 43.3969C222.412 43.016 222.103 43.1395 222.165 43.4587Z" fill="#263238"/>
<path d="M230.402 44.5296C230.597 52.7666 229.578 56.6896 226.561 64.2883C226.561 64.4015 226.695 64.4839 226.746 64.3809C230.33 57.1735 232.1 52.8078 230.813 44.5913C230.721 44.2207 230.402 44.1692 230.402 44.5296Z" fill="#263238"/>
<path d="M239.102 47.3096C238.721 55.3099 237.784 59.6652 233.954 66.6462C233.934 66.6789 233.927 66.7185 233.936 66.7562C233.944 66.7938 233.968 66.8265 234 66.8469C234.033 66.8674 234.073 66.8741 234.11 66.8654C234.148 66.8567 234.181 66.8334 234.201 66.8006C238.845 60.0462 240.06 54.6509 239.349 47.3508C239.298 46.8463 239.133 46.8051 239.102 47.3096Z" fill="#263238"/>
<path d="M201.86 83.6249C201.86 83.6249 198.957 74.142 198.596 69.694C198.236 65.2459 203.003 48.1849 206.72 49.0086C211.559 50.0382 210.746 60.4581 209.685 65.4828C209.685 65.4828 220.867 67.923 221.907 75.5011C222.947 83.0792 201.86 83.6249 201.86 83.6249Z" fill="#FFC4C0"/>
<path d="M207.976 49.7292C211.693 53.8477 209.871 60.3962 209.202 65.3693C209.191 65.4417 209.197 65.5156 209.221 65.5849C209.244 65.6543 209.283 65.7171 209.336 65.7684C209.388 65.8196 209.451 65.8577 209.521 65.8796C209.591 65.9015 209.665 65.9066 209.737 65.8944C214.36 67.233 220.486 70.4557 222.093 75.2641C222.093 75.2942 222.105 75.323 222.126 75.3442C222.147 75.3655 222.176 75.3774 222.206 75.3774C222.236 75.3774 222.265 75.3655 222.286 75.3442C222.307 75.323 222.319 75.2942 222.319 75.2641C221.29 69.8688 215.513 66.2033 210.355 65.0707C211.117 59.9946 212.651 53.3638 207.997 49.7497C207.987 49.6777 207.956 49.7086 207.976 49.7292Z" fill="#263238"/>
<path d="M183.306 177.342L126.676 176.148C126.676 176.148 134.635 131.956 141.091 121.217C145.385 114.009 151.027 113.793 156.474 116.635C157.833 117.346 176.037 132.399 178.591 138.463C180.856 143.817 177.654 150.994 177.654 150.994L183.306 177.342Z" fill="#FFE8AC"/>
<path d="M158.327 151.179C160.756 150.845 163.207 150.69 165.658 150.716C166.884 150.716 168.088 150.829 169.303 150.942C169.911 150.994 170.508 151.035 171.115 151.066C171.751 151.114 172.39 151.09 173.02 150.994C173.072 150.994 173.092 151.056 173.02 151.076C172.443 151.241 171.854 151.365 171.26 151.447C170.682 151.512 170.1 151.536 169.519 151.519C168.284 151.519 167.048 151.426 165.813 151.396C163.321 151.323 160.829 151.262 158.338 151.396C158.327 151.385 158.255 151.19 158.327 151.179Z" fill="#263238"/>
<path d="M152.973 154.639C154.886 153.98 156.835 153.434 158.811 153.002C159.841 152.785 160.798 152.631 161.797 152.497L163.239 152.332C163.774 152.281 164.268 152.332 164.835 152.24C164.886 152.24 164.907 152.312 164.835 152.322C164.34 152.394 163.805 152.549 163.362 152.652L161.879 152.95L158.914 153.558C156.927 153.949 154.96 154.35 152.994 154.804C152.901 154.834 152.88 154.68 152.973 154.639Z" fill="#263238"/>
<path d="M145.385 117.397C151.799 116.367 147.671 145.743 139.866 155.215C135.016 161.115 132.947 144.919 134.8 137.619C136.653 130.319 142.594 117.85 145.385 117.397Z" fill="#FFC4C0"/>
<path d="M146.425 129.989C134.172 149.202 120.097 171.113 108.101 171.381C97.2594 171.628 79.56 163.02 60.2852 153.805C56.4549 151.972 72.2598 122.916 76.1416 125.294C83.7918 129.948 100.214 142.541 105.363 143.138C107.576 143.406 126.089 129.042 139.608 119.724C151.49 111.528 148.803 126.252 146.425 129.989Z" fill="#FFC4C0"/>
<path d="M139.114 142.644L138.291 143.405C139.361 141.882 140.391 140.306 141.38 138.679H141.328C140.01 140.317 138.733 141.974 137.487 143.694C136.901 144.507 134.944 147.493 134.265 148.389C134.193 148.492 134.347 148.729 134.429 148.626C135.068 147.761 137.107 145.135 137.652 144.384C137.875 144.22 138.088 144.045 138.291 143.859C138.63 143.55 138.95 143.241 139.269 142.901C139.897 142.232 140.504 141.542 141.112 140.842C140.453 141.449 139.794 142.057 139.114 142.644Z" fill="#263238"/>
<path d="M66.7823 156.4C63.0756 155.566 46.1895 150.284 41.8548 147.761C37.52 145.238 25.6895 137.084 27.2854 133.593C28.8814 130.103 32.5469 132.213 32.5469 132.213C32.5469 132.213 28.0885 127.971 30.014 124.604C31.9394 121.238 37.5303 124.707 37.5303 124.707C37.5303 124.707 33.2676 120.023 35.471 116.8C37.6745 113.577 42.6785 118.004 42.6785 118.004C42.6785 118.004 38.5599 113.886 41.4738 111.991C44.9643 109.706 51.6672 118.118 56.6301 120.548C57.7627 121.093 80.2602 130.092 80.2602 130.092L66.7823 156.4Z" fill="#FFC4C0"/>
<path d="M42.1843 117.603C47.1369 123.781 50.4214 125.624 57.7319 128.167C57.876 128.167 57.8348 128.445 57.7319 128.404C50.2155 126.54 45.8499 124.841 41.8755 117.819C41.6798 117.479 41.9784 117.273 42.1843 117.603Z" fill="#263238"/>
<path d="M37.1495 124.172C42.8433 130.144 46.3338 132.172 53.8502 135.405C53.9531 135.405 53.8502 135.642 53.7781 135.601C46.097 133.047 41.8034 131.225 36.892 124.481C36.6655 124.203 36.8817 123.904 37.1495 124.172Z" fill="#263238"/>
<path d="M32.9381 132.337C38.8688 137.712 42.5961 140.111 50.2978 142.304C50.336 142.312 50.3694 142.335 50.3907 142.368C50.4119 142.401 50.4192 142.441 50.4111 142.479C50.4029 142.517 50.3798 142.55 50.347 142.572C50.3142 142.593 50.2742 142.6 50.236 142.592C42.1637 141.109 37.4891 138.154 32.794 132.533C32.4748 132.141 32.5572 131.997 32.9381 132.337Z" fill="#263238"/>
<path d="M61.4946 74.5447L13.6506 115.22L19.3128 121.88L67.1568 81.2047L61.4946 74.5447Z" fill="#37474F"/>
<path d="M67.1516 81.1989L19.3076 121.874L42.9698 149.707L90.8138 109.031L67.1516 81.1989Z" fill="#455A64"/>
<path d="M62.0813 75.2351L14.2373 115.91L18.7257 121.19L66.5697 80.5145L62.0813 75.2351Z" fill="white"/>
<path d="M20.8914 117.479C35.1106 104.918 50.9876 91.4398 65.6599 79.4342C51.4407 91.9649 35.5637 105.463 20.912 117.479H20.8914Z" fill="#DBDBDB"/>
<path d="M20.0059 116.439C34.2251 103.909 50.1021 90.4101 64.7641 78.3943C50.5449 90.925 34.6679 104.424 20.0059 116.491V116.439Z" fill="#DBDBDB"/>
<path d="M19.1306 115.399C33.3499 102.858 49.1857 89.3702 63.8786 77.3646C49.6696 89.8953 33.7412 103.384 19.1306 115.399Z" fill="#DBDBDB"/>
<path d="M18.2966 114.37C32.4644 101.829 48.3414 88.3406 63.0034 76.3247C48.7841 88.8554 32.9071 102.354 18.2451 114.421L18.2966 114.37Z" fill="#DBDBDB"/>
<path d="M84.945 131.596C84.945 131.596 80.2808 122.844 77.3875 119.456C74.4942 116.069 59.0497 107.378 56.9904 110.612C54.3237 114.782 62.2519 121.546 66.566 124.347C66.566 124.347 60.3882 133.995 65.0422 140.08C69.6961 146.165 84.945 131.596 84.945 131.596Z" fill="#FFC4C0"/>
<path d="M56.6301 112.002C56.939 117.551 62.8079 120.867 66.8338 123.904C66.8954 123.946 66.9458 124.002 66.9807 124.067C67.0156 124.133 67.0338 124.206 67.0338 124.28C67.0338 124.354 67.0156 124.427 66.9807 124.493C66.9458 124.559 66.8954 124.614 66.8338 124.656C64.5171 128.867 62.4784 135.488 64.7745 140.039C64.7895 140.066 64.7931 140.098 64.7844 140.128C64.7757 140.158 64.7555 140.183 64.7282 140.198C64.7009 140.213 64.6687 140.217 64.6388 140.208C64.6089 140.199 64.5836 140.179 64.5686 140.152C61.4797 135.611 62.9727 128.939 65.8042 124.491C61.6856 121.402 55.8888 117.85 56.6198 112.002C56.5786 111.961 56.6301 111.961 56.6301 112.002Z" fill="#263238"/>
<path d="M133.018 217.312L150.871 182.288L146.037 179.824L128.184 214.847L133.018 217.312Z" fill="#FFC727"/>
<path d="M128.182 214.852L146.035 179.828L133.422 173.399L115.569 208.422L128.182 214.852Z" fill="#FFC727"/>
<path opacity="0.1" d="M128.182 214.852L146.035 179.828L133.422 173.399L115.569 208.422L128.182 214.852Z" fill="black"/>
<path d="M134.916 213.606L136.581 210.34L131.746 207.876L130.082 211.142L134.916 213.606Z" fill="#455A64"/>
<path d="M137.663 208.185L138.309 206.919L133.474 204.455L132.829 205.721L137.663 208.185Z" fill="#455A64"/>
<path d="M125.255 214.407L144.436 176.778L138.391 173.696L119.21 211.325L125.255 214.407Z" fill="#C7C7C7"/>
<path d="M141.366 182.763L143.231 179.103L137.186 176.022L135.32 179.682L141.366 182.763Z" fill="#FFC727"/>
<path d="M139.899 185.653L140.676 184.13L134.63 181.049L133.854 182.571L139.899 185.653Z" fill="#FFC727"/>
<path d="M127.585 209.822L129.451 206.162L123.406 203.081L121.54 206.741L127.585 209.822Z" fill="#FFC727"/>
<path d="M107.788 205.55L119.208 211.372L138.408 173.706L126.988 167.884L107.788 205.55Z" fill="#EBEBEB"/>
<path d="M118.32 210.178L136.028 175.439L131.01 172.881L113.302 207.62L118.32 210.178Z" fill="#455A64"/>
<path d="M113.306 207.611L131.015 172.872L118.282 166.382L100.574 201.121L113.306 207.611Z" fill="#37474F"/>
<path d="M117.797 209.912L135.505 175.172L131.524 173.143L113.815 207.882L117.797 209.912Z" fill="white"/>
<path d="M131.207 175.829C126.172 186.465 120.293 197.997 114.65 208.324C119.685 197.688 125.564 186.156 131.207 175.829Z" fill="#DBDBDB"/>
<path d="M131.989 176.23C126.944 186.856 121.075 198.388 115.433 208.715C120.468 198.079 126.347 186.558 131.989 176.23Z" fill="#DBDBDB"/>
<path d="M132.772 176.622C127.726 187.258 121.858 198.79 116.205 209.117C121.25 198.481 127.129 186.949 132.772 176.622Z" fill="#DBDBDB"/>
<path d="M133.554 176.992C128.509 187.628 122.63 199.16 116.987 209.488C122.033 198.851 127.912 187.32 133.554 176.992Z" fill="#DBDBDB"/>
<path d="M112.416 171.391C110.14 169.527 82.5562 207.634 83.349 214.996C84.008 220.762 110.696 240.737 130.661 239.11C138.136 238.492 152.963 189.358 152.623 186.969C152.376 185.301 140.391 188.37 128.344 184.138C123.031 182.274 118.645 176.519 112.416 171.391Z" fill="#FFC727"/>
<path opacity="0.3" d="M112.416 171.391C110.14 169.527 82.5562 207.634 83.349 214.996C84.008 220.762 110.696 240.737 130.661 239.11C138.136 238.492 152.963 189.358 152.623 186.969C152.376 185.301 140.391 188.37 128.344 184.138C123.031 182.274 118.645 176.519 112.416 171.391Z" fill="black"/>
<path opacity="0.1" d="M102.366 214.523C100.456 212.899 98.6276 211.181 96.8888 209.374C97.8144 207.45 98.867 205.589 100.039 203.804C100.039 203.753 100.039 203.804 100.039 203.804C98.8105 205.501 97.6761 207.264 96.6417 209.086C96.0445 208.448 95.4576 207.789 94.881 207.099C96.2712 204.309 97.8862 201.637 99.71 199.109C99.7615 199.037 99.6585 198.934 99.607 199.006C97.7619 201.445 96.0435 203.978 94.4589 206.594C93.7896 205.76 93.1409 204.895 92.5129 203.969C92.5047 203.956 92.4919 203.948 92.4774 203.945C92.463 203.942 92.4479 203.945 92.4356 203.953C92.4233 203.962 92.4148 203.974 92.4119 203.989C92.409 204.003 92.412 204.018 92.4202 204.031C92.9486 205.073 93.5436 206.081 94.2015 207.047C93.5322 208.19 92.9247 209.364 92.3584 210.558C91.6377 209.663 90.9478 208.726 90.2991 207.737C90.2882 207.718 90.2701 207.704 90.2489 207.698C90.2277 207.693 90.205 207.695 90.1859 207.706C90.1668 207.717 90.1528 207.735 90.147 207.757C90.1412 207.778 90.1441 207.801 90.155 207.82C90.7745 208.912 91.4623 209.964 92.2143 210.97C91.6707 212.164 91.1963 213.388 90.7934 214.636C90.7213 214.862 91.092 214.986 91.1949 214.77C91.6994 213.74 92.2246 212.659 92.6982 211.609C93.2542 212.309 93.8308 212.988 94.4486 213.668C93.5961 215.659 92.9375 217.728 92.482 219.846C92.4305 220.103 92.8012 220.165 92.8835 219.928C93.5116 217.962 94.1809 216.046 94.9428 214.152C96.2492 215.487 97.7035 216.668 99.2776 217.673C99.4114 217.756 99.5556 217.55 99.432 217.447C97.936 216.248 96.5061 214.97 95.1487 213.616C95.6224 212.443 96.1063 211.279 96.6314 210.147C98.2581 211.996 100.17 213.575 102.294 214.821C102.314 214.826 102.334 214.827 102.354 214.824C102.374 214.82 102.393 214.813 102.411 214.803C102.428 214.792 102.443 214.779 102.455 214.762C102.466 214.746 102.475 214.727 102.48 214.708C102.484 214.688 102.485 214.668 102.482 214.648C102.479 214.628 102.472 214.609 102.461 214.592C102.451 214.575 102.437 214.56 102.421 214.548C102.405 214.536 102.386 214.527 102.366 214.523ZM92.8526 211.125C93.4189 209.941 93.9852 208.757 94.5824 207.583C95.0972 208.314 95.6121 209.024 96.2298 209.704C95.6327 210.806 95.1075 211.938 94.603 213.081C93.9955 212.453 93.4601 211.794 92.8526 211.125Z" fill="black"/>
<path opacity="0.1" d="M143.459 208.489C142.773 208.324 142.124 208.149 141.513 207.964C141.822 207.068 142.11 206.162 142.409 205.256C143.002 205.419 143.608 205.526 144.221 205.575C144.365 205.575 144.386 205.348 144.221 205.328C143.634 205.204 143.068 205.04 142.502 204.875C143.089 203.032 143.655 201.178 144.232 199.346C144.232 199.263 144.118 199.232 144.087 199.346C143.511 201.189 142.842 203.001 142.152 204.792C141.657 204.638 141.174 204.453 140.69 204.257C141.719 201.436 142.533 198.563 143.367 195.742C143.367 195.639 143.233 195.608 143.202 195.742C142.244 198.543 141.143 201.292 140.113 204.051C138.652 203.392 137.232 202.646 135.861 201.817C135.861 201.817 135.789 201.817 135.861 201.879C137.171 202.817 138.548 203.66 139.979 204.401C139.619 205.317 139.258 206.244 138.95 207.161C137.813 206.718 136.718 206.177 135.675 205.544C135.675 205.544 135.593 205.544 135.675 205.616C136.656 206.282 137.689 206.868 138.764 207.366C138.301 208.592 137.848 209.827 137.426 211.063C137.354 211.279 137.704 211.392 137.796 211.197C138.373 210.044 138.898 208.849 139.392 207.644C139.853 207.837 140.324 208.005 140.803 208.149C139.773 210.672 138.744 213.184 137.868 215.737C137.786 215.954 138.146 216.077 138.249 215.871C139.444 213.423 140.476 210.898 141.338 208.314C142.013 208.496 142.702 208.62 143.398 208.684C143.542 208.695 143.593 208.52 143.459 208.489ZM139.547 207.336C139.907 206.43 140.247 205.523 140.576 204.607C141.048 204.819 141.533 205.001 142.028 205.153L140.998 207.809L139.547 207.336Z" fill="black"/>
<path d="M152.623 186.969C155.959 178.423 161.385 169.661 166.348 160.559C171.311 151.457 170.961 128.558 167.831 123.492C164.701 118.426 155.084 114.411 152.046 115.039C149.009 115.667 161.993 119.497 163.949 123.925C165.905 128.352 164.907 153.022 163.125 155.432C161.344 157.841 146.847 184.488 146.806 186.63C146.764 188.771 152.623 186.969 152.623 186.969Z" fill="#FFC727"/>
<path opacity="0.3" d="M152.623 186.969C155.959 178.423 161.385 169.661 166.348 160.559C171.311 151.457 170.961 128.558 167.831 123.492C164.701 118.426 155.084 114.411 152.046 115.039C149.009 115.667 161.993 119.497 163.949 123.925C165.905 128.352 164.907 153.022 163.125 155.432C161.344 157.841 146.847 184.488 146.806 186.63C146.764 188.771 152.623 186.969 152.623 186.969Z" fill="black"/>
<path d="M147.928 118.375C148.309 119.405 154.24 125.685 159.069 124.862C160.644 124.584 159.542 115.925 159.542 115.925L159.604 115.276L160.5 106.071L149.174 100.614L147.547 99.9137C147.547 99.9137 147.465 102.447 147.403 105.597C147.403 105.752 147.403 105.896 147.403 106.05C147.403 106.205 147.403 106.4 147.403 106.565C147.403 107.039 147.403 107.523 147.403 107.996C147.403 108.47 147.403 108.717 147.403 109.098C147.403 109.479 147.403 109.86 147.403 110.251C147.392 112.968 147.568 115.682 147.928 118.375Z" fill="#FFC4C0"/>
<path d="M147.372 105.597C148.585 108.003 150.308 110.115 152.42 111.786C154.533 113.458 156.984 114.649 159.604 115.276L160.5 106.071L149.174 100.614L147.547 99.9137C147.547 99.9137 147.434 102.447 147.372 105.597Z" fill="#263238"/>
<path d="M168.428 86.1578C176.222 100.387 168.582 106.668 165.504 108.346C162.714 109.87 153.025 114.699 143.799 101.345C134.574 87.9905 138.764 79.8667 144.942 76.0879C151.12 72.3092 160.634 71.9694 168.428 86.1578Z" fill="#FFC4C0"/>
<path d="M163.661 85.7769C163.323 85.8953 162.979 85.995 162.631 86.0755C162.265 86.2365 161.856 86.2727 161.468 86.1784C161.353 86.1227 161.259 86.0316 161.199 85.9186C161.14 85.8056 161.119 85.6765 161.138 85.5504C161.221 85.3091 161.367 85.0942 161.561 84.9278C161.754 84.7613 161.989 84.6493 162.24 84.6031C162.726 84.411 163.267 84.411 163.753 84.6031C163.875 84.6525 163.977 84.7393 164.046 84.8509C164.115 84.9625 164.146 85.0932 164.136 85.2239C164.126 85.3546 164.074 85.4786 163.989 85.578C163.903 85.6774 163.788 85.7471 163.661 85.7769Z" fill="#263238"/>
<path d="M153.848 91.1206C154.167 90.9043 154.425 90.6469 154.723 90.4101C155.063 90.2017 155.323 89.8866 155.465 89.5143C155.49 89.3878 155.47 89.2565 155.411 89.1423C155.351 89.0281 155.254 88.9378 155.135 88.8863C154.892 88.8153 154.634 88.8103 154.388 88.8718C154.142 88.9333 153.916 89.0591 153.735 89.2363C153.31 89.5452 153.013 89.9996 152.901 90.5131C152.884 90.6306 152.901 90.7505 152.95 90.8585C153 90.9665 153.079 91.058 153.179 91.1221C153.279 91.1862 153.395 91.2202 153.514 91.2199C153.632 91.2196 153.749 91.1851 153.848 91.1206Z" fill="#263238"/>
<path d="M157.967 93.4681C157.967 93.4681 157.967 93.5505 157.967 93.5917C158.523 94.5493 158.996 95.7333 158.317 96.5365C159.357 95.8466 158.657 94.2816 157.967 93.4681Z" fill="#263238"/>
<path d="M156.546 92.9328C154.93 93.6638 156.546 96.8557 158.029 96.1761C159.511 95.4965 157.915 92.315 156.546 92.9328Z" fill="#263238"/>
<path d="M156.011 93.4064C155.815 93.7359 155.702 94.1889 155.383 94.436C155.063 94.6832 154.559 94.436 154.137 94.2919C154.137 94.2919 154.085 94.2919 154.137 94.3537C154.435 94.9715 154.981 95.476 155.681 95.2392C155.977 95.0939 156.208 94.8432 156.328 94.5364C156.448 94.2295 156.448 93.8888 156.33 93.5814C156.268 93.4064 156.083 93.2829 156.011 93.4064Z" fill="#263238"/>
<path d="M163.28 90.2764C163.28 90.2764 163.383 90.2764 163.403 90.2764C163.856 91.306 164.546 92.3356 165.607 92.2533C165.607 92.2533 165.658 92.2533 165.607 92.315C164.505 92.7372 163.547 91.2957 163.28 90.2764Z" fill="#263238"/>
<path d="M163.661 88.804C165.195 87.8979 166.894 91.0383 165.463 91.8929C164.031 92.7475 162.374 89.5556 163.661 88.804Z" fill="#263238"/>
<path d="M164.423 88.6495C164.762 88.6495 165.174 88.8554 165.452 88.7215C165.73 88.5877 165.874 88.0729 165.916 87.6301C165.916 87.6301 165.916 87.6301 165.988 87.6301C166.327 88.2273 166.461 88.9584 165.988 89.3805C165.514 89.8027 164.855 89.4629 164.392 88.9378C164.299 88.8554 164.289 88.6392 164.423 88.6495Z" fill="#263238"/>
<path d="M165.185 97.6486C165.096 98.4194 164.809 99.1539 164.351 99.7799C164.086 100.11 163.727 100.351 163.321 100.47C162.435 100.727 161.993 100.037 161.776 99.3475C161.661 98.9835 161.592 98.6064 161.571 98.2252C162.806 98.4268 164.073 98.2245 165.185 97.6486Z" fill="#263238"/>
<path d="M164.35 99.7695C164.086 100.1 163.727 100.341 163.321 100.459C162.435 100.717 161.993 100.027 161.776 99.3371C162.189 99.1007 162.671 99.0146 163.141 99.0934C163.61 99.1722 164.037 99.4112 164.35 99.7695Z" fill="#FF9BBC"/>
<path d="M164.505 95.548C164.505 95.548 165.463 96.9071 165.813 97.6073C165.813 97.6794 165.699 97.7926 165.473 97.9265C164.933 98.3396 164.291 98.5964 163.615 98.6691C162.94 98.7417 162.257 98.6273 161.643 98.3383C161.56 98.3383 161.643 98.1736 161.704 98.1839C162.894 98.3356 164.101 98.0971 165.143 97.5043C165.143 97.2881 163.434 95.2185 163.537 95.1568C164.098 94.9296 164.687 94.7773 165.288 94.7037C163.383 91.8104 161.015 89.2363 159.11 86.3225C159.092 86.3006 159.084 86.2726 159.087 86.2446C159.089 86.2166 159.103 86.1909 159.125 86.1732C159.147 86.1554 159.175 86.1471 159.203 86.15C159.231 86.1529 159.257 86.1668 159.274 86.1886C161.893 88.8599 164.235 91.7886 166.266 94.9302C166.564 95.3112 164.834 95.5171 164.505 95.548Z" fill="#263238"/>
<path d="M144.355 101.767C145.941 100.882 148 94.3124 144.293 86.3225C144.293 86.3225 147.135 93.6844 147.104 94.9817C147.073 96.279 148.247 91.2956 145.344 84.8501C148.045 85.3078 150.798 85.3772 153.519 85.056C156.927 84.4279 158.749 83.5115 158.863 83.1924C158.976 82.8732 153.869 83.6248 152.005 82.832C152.005 82.832 161.797 82.657 165.617 81.1434C166.06 80.9683 162.281 73.4417 154.785 72.4944C147.29 71.5472 140.247 78.4766 138.96 81.998C138.96 81.998 136.767 83.3983 136.015 89.154C135.202 95.4038 142.646 102.735 144.355 101.767Z" fill="#263238"/>
<path d="M158.451 100.645C157.489 101.058 156.431 101.193 155.397 101.034C154.363 100.876 153.394 100.431 152.6 99.7487C151.806 99.0668 151.22 98.1759 150.908 97.1773C150.595 96.1787 150.569 95.1124 150.833 94.0998C151.096 93.0872 151.639 92.1689 152.398 91.4492C153.158 90.7296 154.104 90.2376 155.13 90.0291C156.155 89.8206 157.218 89.9041 158.198 90.2699C159.179 90.6358 160.037 91.2694 160.675 92.0987C161.577 93.2763 161.976 94.7637 161.782 96.2346C161.589 97.7055 160.821 99.0397 159.645 99.9446C159.28 100.231 158.879 100.466 158.451 100.645ZM154.332 91.0588C153.964 91.2161 153.618 91.4203 153.303 91.6663C152.322 92.4212 151.667 93.5214 151.47 94.7427C151.273 95.964 151.55 97.2145 152.243 98.2392C152.936 99.2639 153.993 99.9857 155.2 100.258C156.407 100.529 157.672 100.331 158.738 99.7021C159.803 99.0735 160.589 98.0622 160.934 96.8744C161.28 95.6866 161.16 94.4116 160.598 93.3095C160.036 92.2073 159.075 91.3608 157.911 90.9427C156.747 90.5245 155.467 90.566 154.332 91.0588Z" fill="#FFC727"/>
<path d="M169.097 94.3742C167.131 95.2185 164.474 93.9727 163.022 91.4398C162.309 90.243 161.985 88.8542 162.096 87.4654C162.109 86.8682 162.276 86.2845 162.58 85.7705C162.885 85.2565 163.316 84.8295 163.833 84.5306C164.35 84.2317 164.936 84.0709 165.533 84.0637C166.131 84.0566 166.72 84.2033 167.244 84.4897C168.505 85.0873 169.547 86.0673 170.219 87.2903C171.754 89.9571 171.393 93.0666 169.396 94.2095C169.3 94.2716 169.2 94.3266 169.097 94.3742ZM164.505 85.0457C164.419 85.0785 164.336 85.1199 164.258 85.1693C163.853 85.4255 163.517 85.7755 163.277 86.1896C163.037 86.6037 162.9 87.0696 162.878 87.5478C162.785 88.7796 163.076 90.0101 163.712 91.0691C165.04 93.3858 167.45 94.5081 169.087 93.5608C170.724 92.6136 170.961 89.9777 169.633 87.661C169.032 86.5781 168.112 85.7076 166.997 85.1693C166.613 84.9766 166.193 84.866 165.764 84.8448C165.335 84.8235 164.906 84.8919 164.505 85.0457Z" fill="#FFC727"/>
<path d="M160.891 92.7268L160.294 92.5106C160.613 91.6354 161.643 90.1116 163.259 90.6058L163.074 91.203C161.632 90.7602 160.922 92.6445 160.891 92.7268Z" fill="#FFC727"/>
<path d="M141.781 105.134H141.142C141.142 104.846 141.05 102.241 142.172 101.345C143.294 100.449 150.924 96.969 151.254 96.8248L151.521 97.4014C149.308 98.4311 143.377 101.18 142.574 101.829C141.771 102.478 141.75 104.424 141.781 105.134Z" fill="#FFC727"/>
<path d="M146.651 106.606C146.91 106.6 147.166 106.559 147.413 106.483C147.991 106.343 148.504 106.008 148.865 105.536C149.018 105.326 149.142 105.098 149.235 104.856C149.359 104.509 149.426 104.144 149.431 103.775L146.857 100.171C146.857 100.171 141.575 96.9587 139.979 99.0489C138.383 101.139 143.778 106.781 146.651 106.606Z" fill="#FFC4C0"/>
<path d="M141.565 100.624V100.696C143.624 100.634 145.23 101.839 146.6 103.229C146.423 103.099 146.221 103.009 146.006 102.964C145.791 102.92 145.569 102.923 145.356 102.973C145.143 103.023 144.942 103.119 144.77 103.254C144.597 103.389 144.455 103.559 144.355 103.754C144.355 103.754 144.406 103.857 144.448 103.826C144.709 103.595 145.036 103.451 145.383 103.414C145.73 103.377 146.079 103.449 146.383 103.62C146.891 103.914 147.367 104.259 147.804 104.65C147.948 104.763 148.196 104.557 148.062 104.413C147.104 102.138 144.036 99.7696 141.565 100.624Z" fill="#263238"/>
<path d="M146.579 105.947C146.694 106.111 146.869 106.223 147.066 106.257C147.263 106.292 147.465 106.247 147.629 106.133C147.793 106.018 147.905 105.843 147.939 105.646C147.974 105.449 147.929 105.246 147.815 105.082C147.7 104.919 147.525 104.807 147.328 104.772C147.131 104.737 146.928 104.782 146.764 104.897C146.6 105.012 146.489 105.187 146.454 105.384C146.419 105.581 146.464 105.783 146.579 105.947Z" fill="white"/>
<path d="M144.715 105.474C144.755 105.532 144.805 105.582 144.864 105.62C144.923 105.659 144.989 105.685 145.058 105.697C145.127 105.71 145.198 105.708 145.266 105.693C145.335 105.677 145.4 105.648 145.457 105.608C145.571 105.525 145.647 105.401 145.67 105.262C145.694 105.123 145.661 104.981 145.58 104.866C145.5 104.751 145.377 104.674 145.239 104.649C145.101 104.625 144.959 104.657 144.844 104.737C144.729 104.818 144.651 104.941 144.627 105.079C144.603 105.217 144.635 105.359 144.715 105.474Z" fill="white"/>
<path d="M376.002 238.307C377.115 240.685 370.381 244.021 366.87 243.538C363.869 242.733 360.925 241.732 358.056 240.541C348.717 236.979 335.61 231.563 335.61 231.563L329.648 237.483L298.965 262.37L269.765 229.668C269.765 229.668 284.035 216.098 297.75 203.598C299.809 201.672 301.951 199.799 303.928 197.976L304.309 197.636C313.576 189.399 321.349 182.861 322.513 183.17C325.694 183.963 374.89 235.918 376.002 238.307Z" fill="#FFC4C0"/>
<path d="M376.003 238.307C377.115 240.696 370.381 244.022 366.87 243.538C363.868 242.733 360.924 241.728 358.056 240.531C348.717 236.989 335.61 231.563 335.61 231.563L329.638 237.494L328.608 238.317L297.328 204L297.771 203.588L303.949 197.976C304.072 197.853 304.206 197.739 304.33 197.636C313.596 189.399 321.37 182.861 322.544 183.16C325.695 183.953 374.891 235.918 376.003 238.307Z" fill="#EBEBEB"/>
<path d="M376.96 238.976C375.869 236.526 326.436 182.995 323.254 182.151C322.06 181.811 313.833 188.565 304.144 196.998L303.835 197.266L335.342 232.16L335.919 231.604C335.919 231.604 364.007 243.63 367.601 244.186C371.194 244.742 378.072 241.417 376.96 238.976Z" fill="#FFC727"/>
<path opacity="0.1" d="M376.96 238.976C375.869 236.526 326.436 182.995 323.254 182.151C322.06 181.811 313.833 188.565 304.144 196.998L303.835 197.266L335.342 232.16L335.919 231.604C335.919 231.604 364.007 243.63 367.601 244.186C371.194 244.742 378.072 241.417 376.96 238.976Z" fill="black"/>
<path d="M374.324 240.284C365.778 231.47 332.109 195.093 324.315 185.713C324.253 185.641 324.315 185.59 324.377 185.713C333.046 194.269 366.417 230.914 374.479 240.191C374.644 240.346 374.551 240.469 374.324 240.284Z" fill="#263238"/>
<path d="M338.997 235.918C335.054 232.974 331.584 228.124 331.615 223.079C331.615 222.883 331.893 222.883 331.955 223.079C333.997 227.482 336.502 231.655 339.43 235.527C339.455 235.586 339.461 235.651 339.447 235.714C339.433 235.776 339.4 235.833 339.353 235.876C339.305 235.919 339.245 235.946 339.182 235.954C339.118 235.961 339.054 235.949 338.997 235.918Z" fill="#263238"/>
<path d="M342.9 237.051C338.966 234.116 335.497 229.267 335.517 224.211C335.517 224.016 335.805 224.026 335.867 224.211C337.904 228.617 340.411 232.791 343.342 236.66C343.37 236.72 343.377 236.787 343.363 236.852C343.35 236.917 343.315 236.975 343.266 237.019C343.216 237.063 343.154 237.09 343.088 237.095C343.022 237.101 342.956 237.086 342.9 237.051Z" fill="#263238"/>
<path d="M346.812 238.184C342.879 235.249 339.409 230.399 339.43 225.354C339.43 225.159 339.708 225.159 339.78 225.354C341.826 229.736 344.331 233.889 347.255 237.741C347.284 237.77 347.307 237.804 347.323 237.842C347.339 237.88 347.347 237.921 347.347 237.962C347.347 238.003 347.339 238.044 347.323 238.082C347.307 238.12 347.284 238.154 347.255 238.184C347.226 238.213 347.191 238.236 347.153 238.251C347.115 238.267 347.075 238.275 347.034 238.275C346.993 238.275 346.952 238.267 346.914 238.251C346.876 238.236 346.841 238.213 346.812 238.184Z" fill="#263238"/>
<path d="M339.1 241.427C338.73 237.102 336.516 233.097 334.889 229.164C334.844 229.082 334.781 229.011 334.704 228.957C334.627 228.903 334.539 228.868 334.446 228.854C334.353 228.84 334.259 228.848 334.169 228.876C334.08 228.905 333.999 228.954 333.932 229.02C333.92 229.003 333.905 228.989 333.887 228.979C333.869 228.97 333.849 228.965 333.829 228.965C333.808 228.965 333.788 228.97 333.77 228.979C333.752 228.989 333.737 229.003 333.726 229.02C331.573 233.001 330.507 237.479 330.637 242.004C330.76 244.639 332.294 248.027 335.507 247.656C338.513 247.327 339.317 243.919 339.1 241.427ZM337.041 244.969C333.715 249.19 331.893 243.115 331.893 241.169C331.907 239.912 332.003 238.656 332.181 237.411C332.597 234.845 333.144 232.302 333.818 229.792C334.498 231.779 335.342 233.684 336.084 235.63C337.021 237.967 338.905 242.632 337.082 244.948L337.041 244.969Z" fill="#263238"/>
<path d="M317.375 222.193C315.944 225.097 318.641 227.671 321.092 228.659C325.326 230.29 329.916 230.769 334.395 230.049C334.415 230.046 334.434 230.039 334.451 230.027C334.468 230.015 334.482 230 334.492 229.982C334.502 229.964 334.508 229.944 334.509 229.924C334.51 229.903 334.506 229.883 334.498 229.864C334.582 229.823 334.656 229.763 334.713 229.689C334.77 229.614 334.808 229.527 334.825 229.435C334.843 229.342 334.838 229.248 334.811 229.158C334.785 229.068 334.737 228.985 334.673 228.917C331.502 226.085 328.495 222.657 324.51 220.886C322.163 219.846 318.714 219.454 317.375 222.193ZM328.938 225.601C330.534 226.96 332.027 228.381 333.705 229.72C331.121 229.442 328.557 229.277 325.973 228.742C324.737 228.503 323.519 228.179 322.328 227.774C320.495 227.115 315.367 223.388 320.454 221.658C323.254 220.669 327.043 223.985 328.938 225.601Z" fill="#263238"/>
<path d="M325.931 247.008C325.931 247.008 256.276 293.166 226.283 298.675C211.951 301.311 195.765 287.688 197.237 272.028C198.607 257.417 233.439 224.51 241.11 213.338C243.53 209.838 246.773 186.866 246.773 186.866L280.102 192.437C280.102 192.437 279.804 208.581 278.517 217.663C278.5 217.82 278.469 217.975 278.424 218.126L288.978 208.859L325.931 247.008Z" fill="#37474F"/>
<path d="M301.292 232.706C295.763 227.238 289.966 222.039 284.437 216.633C284.324 216.53 284.149 216.633 284.252 216.777C289.668 222.317 294.888 228.021 300.407 233.457C305.926 238.894 311.661 244.145 317.303 249.479C317.447 249.612 317.684 249.417 317.54 249.273C312.114 243.764 306.79 238.142 301.292 232.706Z" fill="#263238"/>
<path d="M278.722 218.404C277.25 220.206 275.932 222.162 274.552 224.026C273.173 225.89 271.803 227.702 270.372 229.504C267.479 233.118 264.441 236.629 261.322 240.057C255.043 246.974 248.308 253.462 241.161 259.476C237.166 262.823 233.12 266.148 228.806 269.103C228.713 269.165 228.806 269.309 228.919 269.237C232.008 267.116 235.189 265.016 238.186 262.771C236.816 264.583 235.488 266.447 234.119 268.269C234.057 268.362 234.191 268.475 234.263 268.383C235.787 266.457 237.352 264.563 238.834 262.617C238.852 262.595 238.864 262.57 238.871 262.543C238.877 262.516 238.878 262.488 238.873 262.461C238.869 262.434 238.858 262.408 238.842 262.385C238.827 262.362 238.807 262.343 238.783 262.328L240.338 261.165C244.065 258.268 247.665 255.227 251.139 252.042C258.007 245.731 264.321 238.841 270.012 231.45C271.618 229.39 273.183 227.28 274.707 225.117C276.257 223.019 277.674 220.825 278.949 218.548C279.103 218.404 278.795 218.26 278.722 218.404Z" fill="#263238"/>
<path d="M407.695 216.726C409.321 218.785 403.576 223.573 400.003 223.933C396.898 223.835 393.803 223.536 390.736 223.038C380.821 221.72 366.818 219.454 366.818 219.454L362.38 226.6L339.141 257.201L302.311 232.737C302.311 232.737 313.081 216.263 323.553 200.931C325.169 198.584 326.765 196.277 328.33 194.033L328.608 193.621C335.733 183.469 341.808 175.324 343.023 175.355C346.246 175.386 406.068 214.656 407.695 216.726Z" fill="#FFC4C0"/>
<path d="M407.695 216.726C409.321 218.785 403.576 223.583 400.003 223.933C396.898 223.836 393.803 223.537 390.736 223.037C380.831 221.72 366.818 219.454 366.818 219.454L362.391 226.6L361.732 227.465L322.966 201.786L323.573 200.911C325.18 198.563 326.775 196.257 328.33 194.012C328.433 193.878 328.526 193.734 328.619 193.6C335.744 183.448 341.818 175.314 343.033 175.334C346.246 175.376 406.057 214.656 407.695 216.726Z" fill="#EBEBEB"/>
<path d="M408.591 216.839C406.933 214.78 345.968 174.82 342.694 174.778C341.448 174.778 335.116 183.283 327.754 193.827C327.684 193.941 327.609 194.05 327.527 194.156L366.571 220.34L366.993 219.671C366.993 219.671 397.162 224.5 400.786 224.17C404.41 223.841 410.259 218.94 408.591 216.839Z" fill="#FFC727"/>
<path d="M406.356 218.744C395.916 212.278 354.411 185.178 344.578 177.981C344.496 177.919 344.578 177.867 344.578 177.919C355.07 184.097 396.348 211.547 406.428 218.579C406.675 218.723 406.573 218.888 406.356 218.744Z" fill="#263238"/>
<path d="M371.019 223.099C366.478 221.205 361.938 217.344 360.723 212.443C360.723 212.257 360.949 212.185 361.052 212.319C364.104 216.112 367.556 219.564 371.349 222.615C371.388 222.667 371.409 222.73 371.411 222.794C371.413 222.859 371.394 222.922 371.358 222.976C371.321 223.029 371.269 223.07 371.208 223.092C371.147 223.114 371.081 223.117 371.019 223.099Z" fill="#263238"/>
<path d="M375.086 223.244C370.545 221.359 366.005 217.498 364.79 212.597C364.79 212.401 365.016 212.34 365.119 212.463C368.174 216.253 371.626 219.705 375.416 222.76C375.455 222.811 375.477 222.874 375.478 222.938C375.48 223.003 375.461 223.066 375.425 223.12C375.388 223.173 375.336 223.214 375.275 223.236C375.215 223.258 375.148 223.261 375.086 223.244Z" fill="#263238"/>
<path d="M379.153 223.398C374.623 221.503 370.082 217.653 368.857 212.741C368.805 212.556 369.073 212.494 369.186 212.618C372.241 216.408 375.693 219.859 379.483 222.914C379.522 222.966 379.544 223.028 379.545 223.093C379.547 223.157 379.528 223.221 379.492 223.274C379.455 223.328 379.403 223.368 379.342 223.391C379.282 223.413 379.215 223.415 379.153 223.398Z" fill="#263238"/>
<path d="M372.491 228.412C371.081 224.294 367.961 220.968 365.428 217.55C365.366 217.478 365.287 217.422 365.199 217.387C365.11 217.351 365.015 217.338 364.92 217.347C364.826 217.356 364.734 217.387 364.654 217.439C364.574 217.49 364.508 217.56 364.46 217.642C364.443 217.632 364.424 217.626 364.404 217.625C364.384 217.623 364.364 217.627 364.346 217.635C364.328 217.643 364.312 217.655 364.299 217.671C364.287 217.687 364.279 217.705 364.275 217.725C363.158 222.107 363.214 226.705 364.44 231.058C365.191 233.591 367.528 236.505 370.535 235.362C373.356 234.271 373.274 230.801 372.491 228.412ZM371.39 232.345C369.196 237.247 365.963 231.8 365.469 229.916C365.178 228.692 364.969 227.45 364.841 226.199C364.543 223.604 364.615 221.05 364.573 218.404C365.716 220.165 366.993 221.812 368.198 223.552C369.608 225.56 372.563 229.638 371.359 232.345H371.39Z" fill="#263238"/>
<path d="M346.75 215.089C346.071 218.25 349.314 220.093 351.899 220.453C356.387 220.999 360.94 220.352 365.099 218.579C365.118 218.572 365.136 218.56 365.15 218.545C365.165 218.53 365.175 218.512 365.181 218.492C365.187 218.472 365.189 218.451 365.185 218.43C365.181 218.409 365.173 218.39 365.16 218.373C365.232 218.312 365.288 218.235 365.324 218.148C365.361 218.062 365.377 217.968 365.371 217.874C365.365 217.78 365.337 217.689 365.29 217.608C365.242 217.526 365.177 217.457 365.099 217.405C361.33 215.428 357.541 212.854 353.278 212.092C350.787 211.609 347.337 212.062 346.75 215.089ZM358.797 215.583C360.681 216.51 362.504 217.519 364.409 218.384C361.835 218.744 359.261 219.207 356.676 219.31C355.417 219.375 354.155 219.358 352.897 219.259C350.972 219.063 345.093 216.695 349.603 213.781C352.043 212.134 356.522 214.44 358.756 215.542L358.797 215.583Z" fill="#263238"/>
<path d="M252.889 187.896L298.852 195.752C298.852 195.752 307.254 209.92 308.119 219.063C308.984 228.206 277.024 263.543 277.024 263.543L316.263 208.036L360.98 236.649C360.98 236.649 306.255 293.722 269.919 313.11C256.287 320.39 237.063 309.105 235.941 291.271C234.747 272.511 256.431 219.825 256.431 219.825L252.889 187.896Z" fill="#37474F"/>
<path d="M314.832 208.911C303.65 227.136 292.108 245.123 279.587 262.452C277.847 264.861 276.107 267.26 274.336 269.66C272.565 272.059 270.794 274.746 268.797 277.093C268.694 277.207 268.889 277.361 268.982 277.238C270.568 275.014 272.39 272.965 274.068 270.813C275.747 268.661 277.343 266.591 278.949 264.45L281.008 261.67L280.72 262.411C280.257 263.523 279.804 264.635 279.371 265.767C278.486 268.084 277.868 270.545 276.807 272.79C276.735 272.923 276.962 273.016 277.013 272.882C277.899 270.555 279.186 268.393 280.164 266.107C280.631 264.995 281.073 263.873 281.492 262.74C281.917 261.74 282.262 260.707 282.522 259.651C284.53 256.913 286.527 254.174 288.494 251.414C294.672 242.683 300.571 233.76 306.193 224.644C309.333 219.568 312.371 214.43 315.295 209.199C315.419 208.911 314.955 208.581 314.832 208.911Z" fill="#263238"/>
<path d="M334.395 227.444C327.764 223.398 320.958 219.66 314.296 215.676C314.173 215.604 314.029 215.779 314.163 215.861C320.701 219.98 327.095 224.356 333.726 228.381C340.356 232.407 347.111 236.196 353.855 240.088C354.03 240.191 354.215 239.944 354.04 239.831C347.461 235.733 340.995 231.491 334.395 227.444Z" fill="#263238"/>
<path d="M256.39 219.825C253.476 225.426 245.218 247.45 243.107 253.401C240.996 259.353 239.164 265.304 237.65 271.379C236.888 274.468 236.25 277.557 235.704 280.646C235.139 283.613 234.839 286.624 234.808 289.645C234.783 295.082 236.573 300.372 239.895 304.677C241.661 306.96 243.798 308.93 246.217 310.505C248.667 312.007 251.315 313.161 254.083 313.934C254.186 313.934 254.227 313.779 254.083 313.759C251.508 313.081 249.098 311.886 246.999 310.248C243.889 308.003 241.316 305.096 239.466 301.736C237.616 298.376 236.535 294.647 236.301 290.818C236.013 284.857 237.403 278.813 238.7 273.037C240.055 267.075 241.708 261.185 243.653 255.389C244.744 252.135 245.908 248.902 247.113 245.689C248.317 242.477 255.607 223.274 256.709 220.01C256.728 219.968 256.731 219.921 256.717 219.877C256.703 219.833 256.674 219.795 256.634 219.772C256.594 219.749 256.546 219.741 256.501 219.751C256.456 219.761 256.416 219.787 256.39 219.825Z" fill="#263238"/>
<path d="M268.107 222.471C264.642 221.121 261.025 220.198 257.337 219.722C253.738 219.15 250.113 218.761 246.474 218.559C246.371 218.559 246.371 218.713 246.474 218.734C250.16 219.238 253.826 219.907 257.46 220.669C261.095 221.431 264.503 222.389 268.066 222.852C268.272 222.883 268.282 222.543 268.107 222.471Z" fill="#263238"/>
<path d="M299.325 216.458C296.66 216.712 293.98 216.791 291.305 216.695C289.091 216.644 286.815 216.592 284.838 215.449C280.988 213.225 278.99 208.746 277.734 204.669C277.734 204.576 277.538 204.669 277.569 204.72C278.712 209.179 279.546 214.347 283.891 216.911C286.049 218.038 288.495 218.49 290.913 218.209C293.773 217.975 296.601 217.454 299.356 216.654C299.377 216.644 299.393 216.629 299.404 216.609C299.414 216.589 299.418 216.567 299.415 216.544C299.411 216.522 299.401 216.502 299.385 216.486C299.368 216.471 299.348 216.461 299.325 216.458Z" fill="#263238"/>
<path d="M304.659 218.435C303.916 215.887 302.99 213.396 301.889 210.98C300.798 208.489 299.607 206.045 298.316 203.649C296.854 200.931 295.228 198.285 293.621 195.67C293.609 195.651 293.59 195.637 293.568 195.631C293.546 195.625 293.523 195.627 293.502 195.637C293.482 195.647 293.466 195.665 293.457 195.686C293.449 195.707 293.449 195.731 293.457 195.752C295.948 200.221 298.296 204.782 300.417 209.446C301.467 211.753 302.456 214.09 303.382 216.458C304.4 218.718 304.86 221.19 304.721 223.666C304.471 226.183 303.478 228.57 301.869 230.523C301.869 230.523 301.869 230.574 301.869 230.523C303.294 228.894 304.295 226.938 304.782 224.829C305.269 222.72 305.226 220.524 304.659 218.435Z" fill="#263238"/>
<path d="M316.325 221.267C314.008 223.892 311.897 226.713 309.745 229.504C307.593 232.294 305.421 235.023 303.279 237.792C298.996 243.342 294.774 248.943 290.553 254.534C288.154 257.716 285.827 260.949 283.49 264.161C283.418 264.254 283.551 264.367 283.624 264.274C292.417 253.36 300.997 242.281 309.364 231.038C311.743 227.846 314.224 224.706 316.417 221.39C316.459 221.328 316.376 221.267 316.325 221.267Z" fill="#263238"/>
<path d="M253.61 194.167C253.723 197.07 254.104 205.873 254.32 208.777C254.413 210.105 254.505 211.464 254.722 212.782C254.907 213.894 255.267 215.192 256.41 215.676C257.728 216.232 258.367 215.14 258.47 213.987C258.571 212.682 258.605 211.373 258.572 210.064C258.572 208.571 258.253 194.908 258.253 194.867C258.253 194.826 258.253 194.733 258.367 194.681C258.384 194.666 258.406 194.658 258.428 194.658C258.451 194.658 258.473 194.666 258.49 194.681C258.727 194.887 259.52 206.965 259.52 208.365C259.52 209.766 259.623 211.166 259.664 212.566C259.803 213.611 259.671 214.675 259.283 215.655C259.06 216.118 258.692 216.497 258.235 216.733C257.778 216.969 257.257 217.049 256.75 216.963C256.75 217.066 256.812 217.158 256.832 217.261C256.894 217.56 256.925 217.869 256.966 218.167C257.007 218.466 257.049 218.785 257.069 219.094C257.08 219.241 257.08 219.389 257.069 219.537C257.069 219.702 256.987 219.846 256.977 220.01C256.966 220.175 256.585 220.35 256.513 220.082C256.441 219.815 256.39 219.794 256.338 219.64C256.289 219.475 256.255 219.306 256.235 219.135C256.235 218.837 256.184 218.548 256.163 218.25C256.143 217.951 256.163 217.653 256.163 217.364C256.17 217.188 256.187 217.013 256.215 216.839C255.651 216.666 255.145 216.342 254.753 215.902C254.108 215.073 253.719 214.075 253.63 213.029C253.455 211.794 253.383 210.538 253.301 209.292C253.115 206.203 252.704 197.204 253.064 194.125C253.069 194.053 253.103 193.986 253.158 193.938C253.213 193.891 253.285 193.868 253.357 193.873C253.43 193.879 253.497 193.913 253.544 193.968C253.592 194.023 253.615 194.094 253.61 194.167Z" fill="#263238"/>
<path d="M292.314 88.7215C288 86.1577 277.683 84.2941 270.691 94.6831C260.725 109.438 272.823 140.574 275.747 145.063C275.747 145.063 299.429 147.761 316.459 132.11C316.459 132.11 300.911 112.753 300.129 101.221C299.961 98.6541 299.16 96.1685 297.796 93.9871C296.432 91.8056 294.548 89.9964 292.314 88.7215Z" fill="#263238"/>
<path d="M304.824 112.887C304.927 113.052 305.03 113.216 305.143 113.381C306.554 115.438 308.149 117.361 309.91 119.127C311.555 120.861 313.442 122.349 315.511 123.544C315.511 123.544 315.625 123.492 315.511 123.461C313.456 122.143 311.633 120.494 310.116 118.581C308.563 116.796 307.118 114.919 305.792 112.959C303.08 108.979 300.883 104.672 299.254 100.14C299.254 100.047 299.058 100.14 299.089 100.14C299.264 100.789 299.449 101.437 299.655 102.076C299.641 102.074 299.628 102.075 299.615 102.079C299.602 102.084 299.59 102.092 299.581 102.102C299.571 102.112 299.565 102.125 299.562 102.138C299.559 102.151 299.559 102.165 299.562 102.179C300.842 106.466 302.568 110.607 304.711 114.534C306.975 118.325 309.746 121.789 312.948 124.831C314.737 126.565 316.632 128.188 318.621 129.691C318.621 129.691 318.683 129.691 318.621 129.639C313.081 124.901 308.412 119.232 304.824 112.887Z" fill="#263238"/>
<path d="M274.244 91.9339C264.544 101.293 264.287 115.502 267.036 127.467C267.842 131.158 269.007 134.762 270.516 138.226C270.516 138.24 270.522 138.253 270.531 138.263C270.541 138.272 270.554 138.278 270.568 138.278C270.581 138.278 270.594 138.272 270.604 138.263C270.614 138.253 270.619 138.24 270.619 138.226C268.405 132.075 267.094 125.634 266.727 119.106C266.408 112.99 266.676 106.524 268.92 100.676C270.096 97.464 271.959 94.5475 274.377 92.1296C274.449 92.006 274.326 91.8516 274.244 91.9339Z" fill="#263238"/>
<path d="M272.37 195.433C272.864 196.082 315.213 199.14 317.252 198.615C317.351 198.585 317.447 198.547 317.54 198.501C320.062 197.4 331.955 187.093 332.809 186.228C334.457 184.622 322.976 156.914 313.411 140.337C310.219 134.808 305.05 130.041 303.578 128.548C302.106 127.055 275.778 125.727 271.062 127.745C269.003 128.599 263.988 133.47 263.855 134.365C263.68 135.673 271.886 194.764 272.37 195.433Z" fill="#455A64"/>
<path d="M272.37 195.433C272.864 196.082 315.213 199.14 317.251 198.615C317.351 198.585 317.447 198.547 317.54 198.501C313.771 187.402 296.072 135.323 295.536 134.983C295.001 134.643 269.868 134.098 263.834 134.376C263.679 135.673 271.886 194.764 272.37 195.433Z" fill="#263238"/>
<path d="M289.729 130.267C290.162 129.876 290.605 124.089 289.853 122.957C289.101 121.824 278.908 122.01 278.29 123.091C277.672 124.172 277.26 129.917 277.518 130.133C277.775 130.35 279.495 130.597 279.732 130.236C279.968 129.876 280.082 125.088 280.267 124.862C280.452 124.635 287.526 124.347 287.763 124.718C288 125.088 287.269 129.866 287.547 130.103C287.825 130.339 289.307 130.659 289.729 130.267Z" fill="#37474F"/>
<path d="M273.152 127.302C272.524 109.108 270.763 94.2919 267.86 71.8149C266.336 60.108 263.196 40.9773 262.454 35.9321C261.425 29.2807 230.247 40.6376 231.411 45.1062C232.173 48.0201 236.044 65.6989 241.244 79.2489C247.926 96.6292 251.89 111.796 259.777 130.134C265.739 143.972 273.574 139.349 273.152 127.302Z" fill="#FFC4C0"/>
<path d="M235.107 54.2698C230.309 49.7188 218.005 30.444 216.429 26.1093C214.854 21.7745 211.23 8.96583 214.432 7.42138C217.634 5.87692 218.983 9.54243 218.983 9.54243C218.983 9.54243 218.159 3.36461 221.67 2.63357C224.471 2.04667 226.664 7.10219 226.664 7.10219C226.664 7.10219 226.108 0.285997 229.691 0.00799479C232.945 -0.249414 233.933 5.79455 233.933 5.79455C233.933 5.79455 234.046 0.0491813 237.238 0.399258C241.069 0.831705 240.873 10.778 242.973 15.4319C243.447 16.4616 259.911 38.6811 259.911 38.6811L235.107 54.2698Z" fill="#FFC4C0"/>
<path d="M234.16 5.58869C234.778 13.0536 235.251 16.1322 238.989 22.2894C239.061 22.4027 238.896 22.5365 238.814 22.4232C234.602 16.7294 233.779 13.1565 233.81 5.5681C233.81 5.19743 234.139 5.23861 234.16 5.58869Z" fill="#263238"/>
<path d="M226.736 7.10216C227.261 14.7215 228.682 18.0987 232.121 24.8325C232.173 24.9252 232.008 25.0178 231.956 24.9252C228.023 18.6032 226.015 14.7421 226.479 7.06098C226.499 6.74179 226.705 6.78298 226.736 7.10216Z" fill="#263238"/>
<path d="M219.158 9.88225C220.188 17.2133 221.444 21.1156 225.624 27.2316C225.635 27.2458 225.643 27.262 225.648 27.2793C225.652 27.2965 225.653 27.3145 225.651 27.3322C225.648 27.3499 225.643 27.3669 225.634 27.3823C225.625 27.3978 225.613 27.4113 225.598 27.4221C225.584 27.4329 225.568 27.4408 225.551 27.4454C225.534 27.4499 225.516 27.4511 225.498 27.4487C225.48 27.4463 225.463 27.4404 225.448 27.4315C225.432 27.4225 225.419 27.4106 225.408 27.3964C220.538 21.5789 218.962 16.719 218.942 9.89254C218.942 9.47039 219.076 9.41891 219.158 9.88225Z" fill="#263238"/>
<path d="M263.185 42.6144C263.185 42.6144 264.647 32.3696 257.244 25.3371C254.248 22.4953 253.61 9.89259 250.253 8.77029C246.474 7.50384 245.198 18.14 247.545 25.1003C247.545 25.1003 237.712 32.1224 239.648 38.9283C240.07 40.4007 245.023 46.5476 246.742 46.8771L263.185 42.6144Z" fill="#FFC4C0"/>
<path d="M247.535 25.9034C243.612 28.4981 239.648 33.2756 239.761 37.9604C239.754 37.9835 239.739 38.0036 239.72 38.0179C239.7 38.0322 239.677 38.0399 239.653 38.0399C239.629 38.0399 239.605 38.0322 239.586 38.0179C239.566 38.0036 239.552 37.9835 239.545 37.9604C238.742 32.9461 243.272 27.3655 246.917 25.265C247.617 24.8943 248.544 25.2238 247.535 25.9034Z" fill="#263238"/>
<path opacity="0.1" d="M273.183 128.259L254.588 44.8589L254.083 42.3775L252.364 34.6243L250.315 25.6356L247.144 11.4163C247.803 9.41881 248.853 8.26562 250.232 8.72895C253.589 9.86155 254.227 22.454 257.224 25.2958C262.99 30.7735 263.402 38.2074 263.257 41.214C264.514 49.204 266.655 62.7128 267.839 71.7736C270.743 94.2505 272.503 109.067 273.142 127.261C273.173 127.621 273.183 127.94 273.183 128.259Z" fill="black"/>
<path d="M249.841 111.312L273.121 97.4425C273.121 97.4425 274.758 127.209 272.771 136.095C270.537 146.103 265.904 142.767 260.622 134.581C255.34 126.396 249.841 111.312 249.841 111.312Z" fill="#E88585"/>
<path d="M263.288 118.303C262.681 116.964 261.641 114.308 259.654 115.008C258.109 115.544 258.089 117.531 258.212 118.859C258.418 120.997 259.241 123.029 260.58 124.707C261.126 125.418 262.022 126.314 262.856 126.262C263.68 126.365 264.246 125.716 264.452 124.697C264.756 122.496 264.348 120.256 263.288 118.303ZM269.713 113.247C268.766 113.155 267.438 114.957 267.417 117.768C267.417 120.856 268.57 122.463 269.394 122.37C271.021 122.174 271.525 119.641 271.536 117.675C271.587 116.182 270.856 113.392 269.713 113.278V113.247Z" fill="#263238"/>
<path d="M253.167 115.039C256.369 113.67 265.409 108.223 266.902 107.337C267.695 106.874 270.774 104.866 271.567 104.413C271.669 104.351 271.567 104.207 271.464 104.259C269.95 105.144 268.375 105.865 266.81 106.73C265.245 107.595 255.895 112.805 253.105 114.967C253.104 114.976 253.104 114.985 253.106 114.994C253.109 115.002 253.113 115.011 253.119 115.017C253.125 115.024 253.132 115.03 253.141 115.034C253.149 115.037 253.158 115.039 253.167 115.039Z" fill="#263238"/>
<path opacity="0.1" d="M273.646 126.962C273.607 130.025 273.314 133.08 272.771 136.095C270.537 146.093 265.914 142.767 260.622 134.592C259.891 133.459 259.17 132.193 258.439 130.864L273.646 126.962Z" fill="black"/>
<path d="M308.757 217.683C308.551 217.828 240.163 210.352 239.689 209.446C239.442 208.993 252.94 141.377 273.214 125.129C276.993 122.102 286.712 123.914 290.388 128.424C301.282 141.82 309.488 217.148 308.757 217.683Z" fill="#EBEBEB"/>
<path d="M273.852 124.481C267.222 134.911 256.74 165.46 255.195 177.857C254.506 183.355 254.382 226.332 254.382 226.332L236.58 215.665C236.58 215.665 245.074 176.539 249.893 163.257C254.711 149.975 267.119 130.864 269.672 127.992C272.421 124.841 273.852 124.481 273.852 124.481Z" fill="#E88385"/>
<path d="M286.805 125.006C286.805 125.006 290.151 126.561 292.911 131.338C295.67 136.116 305.009 175.221 308.808 180.761C312.608 186.3 326.477 182.14 326.477 182.14C326.443 184.92 326.79 187.692 327.507 190.377C328.608 193.58 308.201 227.444 306.996 227.444C305.792 227.444 285.6 202.836 283.696 190.913C281.791 178.99 284.972 140.584 285.343 135.807C285.714 131.029 286.805 125.006 286.805 125.006Z" fill="#E88585"/>
<path d="M253.661 189.667C252.653 191.089 251.974 192.717 251.674 194.434C251.53 195.382 251.509 196.833 252.704 196.967C253.068 196.959 253.426 196.869 253.75 196.703C254.075 196.537 254.358 196.3 254.578 196.01C254.578 193.261 254.66 190.614 254.712 188.236C254.286 188.652 253.931 189.136 253.661 189.667ZM247.123 194.3C246.938 193.065 246.269 191.665 244.796 192.241C243.324 192.818 242.675 195.104 242.5 196.627C242.319 197.87 242.358 199.135 242.613 200.365C242.698 201.038 243.002 201.664 243.478 202.146C244.858 203.289 245.62 201.24 246.052 200.231C246.956 198.393 247.327 196.339 247.123 194.3ZM307.625 219.341C307.7 217.289 307.201 215.256 306.183 213.472C305.493 212.443 304.319 211.413 303.218 212.566C302.116 213.719 302.445 216.046 302.909 217.529C303.255 218.73 303.805 219.862 304.536 220.875C304.889 221.457 305.425 221.906 306.06 222.152C307.717 222.626 307.625 220.443 307.625 219.341ZM253.054 181.543C252.117 181.131 251.334 181.708 250.758 182.573C250.037 183.604 249.533 184.77 249.275 186.002C249.141 186.733 248.904 188.061 249.615 188.596C250.325 189.132 251.231 188.514 251.674 187.958C252.539 186.959 255.051 182.491 252.992 181.543H253.054ZM242.562 206.903C241.985 205.657 241.048 203.258 239.318 203.516C238.783 205.822 238.289 207.902 237.928 209.694C238.338 211.019 238.987 212.258 239.844 213.349C240.4 214.039 241.295 214.945 242.129 214.904C242.963 214.862 243.519 214.358 243.725 213.338C244.011 211.118 243.582 208.864 242.5 206.903H242.562ZM248.987 201.848C248.039 201.755 246.711 203.567 246.691 206.378C246.691 209.467 247.844 211.073 248.668 210.981C250.294 210.775 250.799 208.252 250.809 206.285C250.768 204.792 250.068 201.971 248.935 201.848H248.987ZM250.366 170.114C249.337 170.403 248.946 171.473 248.863 172.606C248.765 173.451 248.8 174.305 248.966 175.139C249.09 175.685 249.409 176.375 250.088 176.169C250.768 175.963 251.18 174.84 251.334 174.223C251.468 173.44 252.292 169.527 250.305 170.114H250.366ZM310.878 207.953C309.849 208.242 309.468 209.313 309.385 210.455C309.288 211.3 309.322 212.155 309.488 212.988C309.601 213.524 309.921 214.224 310.6 214.018C311.28 213.812 311.702 212.7 311.846 212.082C311.98 211.279 312.773 207.367 310.816 207.953H310.878ZM299.109 150.767C298.243 151.981 297.71 153.402 297.565 154.886C297.215 156.152 297.236 157.357 298.409 157.47C299.212 157.553 300.026 156.575 300.572 155.885C300.016 154.155 299.532 152.446 299.048 150.767H299.109ZM304.855 170.331C304.12 170.933 303.463 171.625 302.899 172.39C302.322 173.152 301.653 174.449 302.693 175.118C303.733 175.788 305.174 175.046 306.204 174.49C305.709 173.234 305.256 171.844 304.793 170.361L304.855 170.331ZM297.792 167.242C296.062 167.097 294.579 168.817 293.673 170.083C292.95 171.106 292.407 172.245 292.067 173.45C291.833 174.086 291.815 174.78 292.015 175.427C292.705 177.064 294.332 175.613 295.187 174.912C296.837 173.69 298.113 172.032 298.873 170.125C299.254 168.961 299.315 167.417 297.73 167.273L297.792 167.242ZM287.289 174.573C285.673 174.346 284.746 176.086 284.2 177.342C283.414 179.331 283.207 181.501 283.603 183.603C283.778 184.488 284.149 185.662 284.911 186.053C285.673 186.444 286.393 186.197 287.052 185.384C288.331 183.58 289.001 181.416 288.968 179.206C289.009 177.734 289.307 174.933 287.227 174.604L287.289 174.573ZM297.03 177.662C296.237 177.136 294.229 178.125 292.911 180.627C291.49 183.304 291.768 185.312 292.551 185.6C294.095 186.187 295.64 184.169 296.618 182.439C297.266 181.111 297.936 178.31 296.968 177.682L297.03 177.662ZM302.899 189.296C301.632 189.471 300.942 190.686 300.644 192.046C300.372 193.051 300.265 194.094 300.324 195.134C300.324 195.804 300.644 196.689 301.498 196.576C302.353 196.463 303.053 195.165 303.352 194.445C303.671 193.528 305.349 188.946 302.837 189.348L302.899 189.296Z" fill="#263238"/>
<path d="M290.254 124.821C300.633 108.501 309.056 96.7733 323.821 77.7765C331.512 67.8817 341.16 56.0615 344.568 51.8503C349.057 46.2902 371.503 73.4726 368.033 76.9631C365.768 79.218 358.324 86.4975 345.381 98.0295C330.596 111.157 318.106 122.071 301.004 134.602C288.061 144.044 283.397 135.611 290.254 124.821Z" fill="#FFC4C0"/>
<path d="M360.795 81.9156C367.631 80.33 389.274 69.3232 393.043 66.2034C396.811 63.0836 407.036 53.3226 404.945 50.1822C402.855 47.0418 399.632 49.6674 399.632 49.6674C399.632 49.6674 403.751 44.5192 400.899 41.904C398.644 39.8447 393.918 43.3043 393.918 43.3043C393.918 43.3043 398.098 37.3633 394.948 35.1804C392.106 33.1829 387.946 38.187 387.946 38.187C387.946 38.187 390.932 32.8638 387.833 31.4737C384.116 29.7543 378.937 39.021 374.551 42.1099C373.521 42.8203 346.534 54.2596 346.534 54.2596L360.795 81.9156Z" fill="#FFC4C0"/>
<path d="M387.874 37.878C383.292 44.375 381.212 46.9388 374.489 50.5528C374.355 50.6249 374.437 50.8411 374.582 50.7793C381.501 47.8346 384.188 44.9722 388.235 38.0428C388.41 37.7133 388.09 37.5794 387.874 37.878Z" fill="#263238"/>
<path d="M393.846 43.2836C389.264 49.9659 386.155 52.2929 379.369 56.5968C379.277 56.6585 379.369 56.8336 379.472 56.7718C386.474 53.1063 390.397 50.6557 394.093 43.3865C394.268 43.057 394.114 42.985 393.846 43.2836Z" fill="#263238"/>
<path d="M399.262 49.8836C394.361 56.0614 391.117 58.9341 384.003 62.2392C383.971 62.2553 383.946 62.2827 383.933 62.316C383.92 62.3493 383.92 62.3862 383.933 62.4196C383.946 62.4529 383.971 62.4803 384.003 62.4964C384.034 62.5126 384.071 62.5163 384.106 62.5069C391.694 59.8093 395.761 56.2158 399.437 50.0277C399.715 49.6365 399.602 49.5026 399.262 49.8836Z" fill="#263238"/>
<path d="M415.537 54.2225L378.153 3.01147L371.026 8.21426L408.41 59.4253L415.537 54.2225Z" fill="#FFC727"/>
<path d="M408.407 59.422L371.022 8.21094L341.233 29.957L378.618 81.168L408.407 59.422Z" fill="#FFC727"/>
<path opacity="0.1" d="M408.407 59.422L371.022 8.21094L341.233 29.957L378.618 81.168L408.407 59.422Z" fill="black"/>
<path d="M414.797 54.7628L377.412 3.55176L371.766 7.67392L409.15 58.885L414.797 54.7628Z" fill="white"/>
<path d="M375.313 10.191C386.906 25.4091 399.262 42.3981 410.269 58.0485C398.716 42.7996 386.32 25.8003 375.313 10.191Z" fill="#DBDBDB"/>
<path d="M376.425 9.3468C387.936 24.606 400.374 41.595 411.381 57.2455C399.828 41.9966 387.432 24.9973 376.425 9.3468Z" fill="#DBDBDB"/>
<path d="M377.526 8.53345C389.079 23.7927 401.486 40.7817 412.534 56.4321C400.981 41.1832 388.574 24.1839 377.526 8.53345Z" fill="#DBDBDB"/>
<path d="M378.669 7.73035C390.222 22.9793 402.629 39.9785 413.625 55.629C402.042 40.3698 389.645 23.3808 378.669 7.73035Z" fill="#DBDBDB"/>
<path d="M341.376 56.1231C341.376 56.1231 345.566 45.9606 356.12 43.5204C360.393 42.4908 367.755 31.3501 371.441 32.1223C375.56 32.9975 371.029 43.4483 365.119 48.5244C365.119 48.5244 370.339 60.2417 364.903 65.4207C363.719 66.5431 355.883 69.5393 354.133 68.8803L341.376 56.1231Z" fill="#FFC4C0"/>
<path d="M364.707 49.2555C366.9 53.7447 367.94 60.252 365.315 64.4838C365.306 64.4959 365.3 64.5097 365.296 64.5243C365.293 64.5389 365.292 64.5541 365.295 64.5689C365.297 64.5837 365.302 64.5979 365.31 64.6107C365.318 64.6235 365.328 64.6346 365.341 64.6434C365.353 64.6522 365.367 64.6585 365.381 64.6619C365.396 64.6654 365.411 64.6659 365.426 64.6635C365.44 64.6612 365.455 64.6559 365.467 64.648C365.48 64.6401 365.491 64.6298 365.5 64.6176C368.939 60.4991 367.796 52.9313 365.593 49.0392C365.171 48.2876 364.141 48.1023 364.707 49.2555Z" fill="#263238"/>
<path d="M318.446 123.688L305.266 100.006C305.266 100.006 288.916 124.934 286.177 133.624C283.088 143.406 288.761 142.839 297.451 138.412C306.142 133.984 318.446 123.688 318.446 123.688Z" fill="#E88585"/>
<path d="M304.021 120.599C303.084 120.177 302.301 120.753 301.725 121.629C301.015 122.662 300.511 123.823 300.242 125.047C300.108 125.788 299.871 127.106 300.592 127.652C301.313 128.198 302.198 127.559 302.651 127.014C303.568 126.005 306.08 121.536 304.021 120.599ZM300.633 107.276C299.089 109.705 297.328 112.568 295.567 115.513C295.632 115.855 295.765 116.181 295.957 116.471C296.15 116.761 296.399 117.009 296.69 117.201C297.369 117.665 298.172 117.356 298.831 116.542C300.463 113.746 301.098 110.479 300.633 107.276ZM308.778 108.81C307.974 108.295 305.977 109.283 304.659 111.765C303.238 114.452 303.516 116.46 304.299 116.748C305.833 117.325 307.439 115.317 308.366 113.587C309.076 112.228 309.745 109.448 308.778 108.81Z" fill="#263238"/>
<path d="M313.699 125.243C311.64 122.452 306.492 113.206 305.678 111.682C305.225 110.879 303.568 107.564 303.115 106.812C303.053 106.709 303.228 106.637 303.279 106.74C304.155 108.254 305.184 109.685 306.07 111.209C306.955 112.733 312.453 121.938 313.813 125.171C313.802 125.243 313.74 125.305 313.699 125.243Z" fill="#263238"/>
<path d="M294.476 141.202C294.816 140.862 295.166 140.533 295.505 140.172C293.529 141.367 291.51 142.468 289.441 143.498C289.441 143.498 289.359 143.447 289.441 143.416C291.593 141.923 293.755 140.481 295.979 139.112C297.009 138.463 298.584 137.537 299.748 136.775C299.881 136.682 300.036 136.888 299.902 136.97C298.78 137.691 297.729 138.844 296.751 139.452C296.524 139.724 296.28 139.982 296.02 140.224C295.608 140.625 295.176 141.017 294.733 141.377C293.837 142.108 292.911 142.808 292.005 143.519C292.828 142.788 293.662 141.985 294.476 141.202Z" fill="#263238"/>
<path d="M274.727 123.214C266.686 122.339 250.5 144.837 246.402 154.804C244.343 159.859 245.486 176.035 245.774 176.22C246.062 176.405 246.917 172.647 247.329 171.237C247.741 169.826 250.902 159.282 252.951 154.34C256.534 145.691 275.16 124.8 275.458 124.481C275.757 124.162 275.469 123.297 274.727 123.214Z" fill="#455A64"/>
<path d="M273.842 137.145C276.746 138 284.21 134.056 287.732 129.938C287.969 129.66 288.216 126.241 288.761 122.102C289.07 119.58 289.482 116.789 290.038 114.277L273.379 114.627C273.587 117.975 273.383 121.337 272.771 124.635C272.694 124.989 272.581 125.335 272.431 125.665C272.427 125.72 272.427 125.775 272.431 125.83C271.587 127.765 269.301 135.807 273.842 137.145Z" fill="#FFC4C0"/>
<path d="M272.4 125.706C272.371 125.758 272.347 125.813 272.328 125.871C272.855 126.061 273.395 126.209 273.945 126.313C282.975 128.095 287.588 117.623 288.792 114.349L273.348 114.668C273.556 118.023 273.356 121.391 272.751 124.697C272.654 125.04 272.537 125.377 272.4 125.706Z" fill="#263238"/>
<path d="M298.358 95.651C298.296 101.643 290.409 116.542 285.405 118.838C278.146 122.164 268.745 119.734 266.552 111.631C264.421 103.723 275.047 84.4898 280.411 82.657C288.257 79.877 298.358 86.7447 298.358 95.651Z" fill="#FFC4C0"/>
<path d="M284.766 98.2044C284.365 97.8647 284.066 97.494 283.737 97.1748C283.312 96.8459 283.008 96.3863 282.872 95.8672C282.861 95.6971 282.906 95.5281 283.001 95.3865C283.096 95.245 283.235 95.1388 283.397 95.0846C283.733 95.0237 284.079 95.0536 284.399 95.1712C284.72 95.2889 285.003 95.4901 285.219 95.7539C285.741 96.2228 286.071 96.8683 286.146 97.5661C286.152 97.7285 286.11 97.8891 286.025 98.0276C285.94 98.1662 285.816 98.2766 285.669 98.3448C285.521 98.413 285.357 98.4361 285.196 98.4112C285.036 98.3862 284.886 98.3143 284.766 98.2044Z" fill="#263238"/>
<path d="M274.728 93.2621C275.212 93.3922 275.703 93.492 276.2 93.5607C276.707 93.7357 277.258 93.7357 277.765 93.5607C277.913 93.4775 278.03 93.3477 278.097 93.1913C278.164 93.0349 278.178 92.8607 278.136 92.6958C278.005 92.3803 277.791 92.1058 277.518 91.9011C277.244 91.6964 276.921 91.569 276.581 91.5323C275.893 91.3377 275.157 91.4112 274.522 91.7383C274.376 91.8183 274.257 91.9407 274.182 92.0894C274.107 92.238 274.079 92.4059 274.101 92.5709C274.123 92.736 274.195 92.8903 274.307 93.0137C274.419 93.1371 274.565 93.2237 274.728 93.2621Z" fill="#263238"/>
<path d="M278.228 109.695C277.88 109.887 277.476 109.953 277.085 109.881C276.709 109.685 276.377 109.415 276.107 109.088H276.035C276.087 109.358 276.21 109.61 276.391 109.818C276.572 110.026 276.804 110.183 277.065 110.272C277.299 110.318 277.542 110.295 277.763 110.206C277.984 110.116 278.175 109.964 278.311 109.767C278.352 109.747 278.28 109.685 278.228 109.695Z" fill="#263238"/>
<path d="M278.661 106.122C278.202 106.401 277.691 106.581 277.159 106.652C276.628 106.723 276.087 106.683 275.572 106.534C275.124 106.405 274.695 106.218 274.295 105.978C274.216 105.936 274.14 105.888 274.068 105.834L273.863 105.69C273.814 105.652 273.779 105.6 273.762 105.54C273.745 105.481 273.748 105.418 273.77 105.36L273.832 105.257V105.165C274.192 104.372 274.861 103.219 274.861 103.219C274.501 103.219 272.72 103.157 272.936 102.755C274.765 99.264 276.941 95.9662 279.433 92.9121C279.44 92.9006 279.45 92.8907 279.461 92.8829C279.472 92.8752 279.485 92.8697 279.499 92.8668C279.512 92.8639 279.526 92.8637 279.539 92.8662C279.553 92.8687 279.566 92.8738 279.577 92.8812C279.589 92.8887 279.598 92.8983 279.606 92.9096C279.614 92.9208 279.619 92.9335 279.622 92.9469C279.625 92.9603 279.625 92.9741 279.623 92.9876C279.62 93.001 279.615 93.0139 279.608 93.0254C277.94 96.2687 275.716 99.2032 273.986 102.416C274.625 102.431 275.26 102.535 275.87 102.725C275.963 102.807 274.552 104.938 274.419 105.309C275.027 105.687 275.705 105.939 276.413 106.049C277.12 106.159 277.843 106.124 278.537 105.947C278.712 105.947 278.794 106.071 278.661 106.122Z" fill="#263238"/>
<path d="M274.964 105.803C275.13 106.565 275.484 107.273 275.994 107.862C276.285 108.177 276.666 108.393 277.085 108.48C278.002 108.665 278.393 107.924 278.558 107.214C278.64 106.835 278.678 106.448 278.671 106.061C277.44 106.371 276.141 106.281 274.964 105.803Z" fill="#263238"/>
<path d="M275.984 107.893C276.274 108.208 276.656 108.424 277.075 108.511C277.991 108.696 278.383 107.955 278.547 107.245C278.109 107.048 277.618 107.005 277.153 107.123C276.687 107.241 276.276 107.512 275.984 107.893Z" fill="#FF9BBC"/>
<path d="M283.387 100.676C283.468 100.379 283.468 100.066 283.387 99.7695C283.33 99.6116 283.241 99.467 283.126 99.3448C283.011 99.2225 282.872 99.1253 282.717 99.0591C282.551 98.99 282.371 98.9623 282.191 98.9785C282.012 98.9946 281.839 99.0541 281.688 99.1517C281.435 99.3132 281.223 99.5318 281.07 99.7901C280.977 99.944 280.897 100.106 280.833 100.274C280.682 100.617 280.615 100.991 280.638 101.365C280.725 101.109 280.842 100.863 280.988 100.634C281.11 100.423 281.252 100.223 281.41 100.037C281.729 99.6562 282.131 99.3988 282.439 99.5636C282.748 99.7283 282.965 100.12 282.923 100.593C282.876 101.107 282.776 101.614 282.625 102.107C282.988 101.696 283.249 101.206 283.387 100.676Z" fill="#263238"/>
<path d="M273.543 95.5378C273.738 95.3023 273.989 95.1214 274.275 95.0127C274.434 94.957 274.604 94.9355 274.772 94.9497C274.941 94.9639 275.105 95.0134 275.253 95.095C275.401 95.1832 275.528 95.3042 275.622 95.4488C275.717 95.5933 275.777 95.7576 275.798 95.929C275.827 96.2298 275.785 96.533 275.675 96.8145C275.611 96.9826 275.531 97.1445 275.438 97.2984C275.259 97.6276 275.005 97.9098 274.697 98.1221C274.968 97.6859 275.16 97.2048 275.263 96.7013C275.366 96.2173 275.325 95.7334 274.985 95.5686C274.793 95.4809 274.578 95.4596 274.373 95.5081C274.168 95.5565 273.984 95.6721 273.852 95.8363C273.469 96.1909 273.124 96.5843 272.823 97.0101C272.942 96.4688 273.189 95.9639 273.543 95.5378Z" fill="#263238"/>
<path d="M292.273 108.501C291.603 107.471 291.964 101.88 291.964 101.88C291.964 101.88 283.088 95.1875 284.406 85.8487C284.406 85.8487 278.156 89.8437 273.646 89.854C273.646 89.854 276.365 80.5873 285.271 81.6787C285.271 81.6787 294.538 80.7623 299.49 90.7086C304.443 100.655 294.785 109.407 294.785 109.407L292.273 108.501Z" fill="#263238"/>
<path d="M285.137 84.2116C284.406 85.6309 284.072 87.2208 284.169 88.8141C284.197 90.3899 284.45 91.9536 284.921 93.4578C285.359 95.0112 286.055 96.48 286.98 97.8028C288.122 99.2381 289.472 100.494 290.985 101.53C290.985 101.53 290.985 101.643 290.924 101.612C289.322 100.581 287.864 99.3416 286.589 97.9264C285.565 96.6017 284.768 95.1159 284.231 93.5299C283.619 91.957 283.342 90.2737 283.418 88.5876C283.575 86.996 284.108 85.4644 284.972 84.119C285.024 84.016 285.199 84.1087 285.137 84.2116Z" fill="#263238"/>
<path d="M283.459 79.7842C285.415 78.9914 289.976 77.5808 293.652 78.1368C297.328 78.6928 301.889 81.3905 303.475 82.2554C304.772 82.9761 309.334 84.3147 312.525 86.9402C313.434 87.8253 314.087 88.9386 314.417 90.1634C314.747 91.3881 314.741 92.679 314.399 93.9006C313.442 96.3511 308.499 93.9006 308.077 94.8272C307.799 95.4553 308.077 98.8634 306.214 100.089C304.35 101.314 304.453 101.118 303.393 101.746C300.808 103.363 300.304 90.8734 296.401 86.8064C292.499 82.7393 283.459 79.7842 283.459 79.7842Z" fill="#E88585"/>
<path opacity="0.1" d="M283.799 80.0313C283.799 80.0313 292.52 82.7496 296.401 86.8166C300.283 90.8837 300.19 102.776 302.785 101.159C303.918 100.449 304.494 99.3576 305.009 97.5146C304.577 94.0241 303.331 88.5876 300.54 84.7677C297.925 81.1845 293.333 79.2797 288.319 78.5898C286.775 78.9453 285.263 79.4275 283.799 80.0313Z" fill="black"/>
<path d="M301.961 106.915C300.129 102.797 298.769 96.4437 295.526 91.4706C292.283 86.4975 282.429 83.3777 281.039 83.4188C277.652 83.5218 276.869 85.1074 276.344 84.7883C275.819 84.4691 279.299 80.7418 280.267 80.1961C281.74 79.5087 283.347 79.157 284.972 79.1664C286.434 79.2385 295.454 80.402 298.625 84.3146C301.797 88.2272 306.142 99.2135 305.215 101.952C304.988 102.611 304.093 102.982 303.784 103.95C303.382 105.175 303.073 106.596 302.682 107.451C302.353 108.192 302.075 107.162 301.961 106.915Z" fill="#E88585"/>
<path d="M294.816 89.2775C295.603 88.8271 296.351 88.3104 297.05 87.733C297.768 87.1609 298.418 86.508 298.986 85.787C298.986 85.787 299.109 85.787 299.078 85.787C298.619 86.6242 298.028 87.3821 297.328 88.0316C296.612 88.6474 295.788 89.1256 294.898 89.4422C294.785 89.4731 294.723 89.3289 294.816 89.2775Z" fill="#263238"/>
<path d="M302.003 105.041C302.112 104.817 302.236 104.601 302.373 104.392C302.501 104.144 302.608 103.886 302.693 103.62C302.768 103.099 302.903 102.587 303.094 102.096C303.31 101.724 303.569 101.378 303.866 101.067C304.234 100.726 304.471 100.267 304.536 99.7694C304.536 99.6973 304.649 99.6973 304.639 99.7694C304.472 100.659 304.082 101.491 303.506 102.189C303.3 102.72 303.142 103.268 303.032 103.826C302.885 104.34 302.579 104.795 302.157 105.123C302.075 105.185 301.972 105.113 302.003 105.041Z" fill="#263238"/>
<path d="M301.004 101.582C301.323 101.221 301.652 100.912 301.93 100.552C302.196 100.179 302.434 99.7867 302.641 99.3782C302.857 98.9869 303.032 98.575 303.238 98.1735C303.444 97.7719 303.784 97.2468 304 96.7629C304 96.7011 304.113 96.7629 304.082 96.8247C303.866 97.3189 303.722 97.8543 303.516 98.3794C303.31 98.9045 303.104 99.2443 302.878 99.6562C302.65 100.049 302.388 100.421 302.095 100.768C301.813 101.125 301.463 101.423 301.066 101.643C301.066 101.643 300.983 101.602 301.004 101.582Z" fill="#263238"/>
<path d="M298.78 95.4451C299.114 95.2227 299.406 94.944 299.645 94.6214C299.923 94.2713 300.201 93.9212 300.468 93.5917L301.241 92.5621C301.523 92.2269 301.727 91.833 301.838 91.4089C301.843 91.3979 301.851 91.3885 301.861 91.3819C301.871 91.3753 301.882 91.3718 301.894 91.3718C301.906 91.3718 301.918 91.3753 301.928 91.3819C301.938 91.3885 301.946 91.3979 301.951 91.4089C301.894 91.8387 301.758 92.2542 301.55 92.6342C301.331 93.0606 301.076 93.4671 300.788 93.8492C300.508 94.2304 300.201 94.5916 299.871 94.9303C299.604 95.2529 299.245 95.4864 298.842 95.5995C298.749 95.5892 298.697 95.4863 298.78 95.4451Z" fill="#263238"/>
<path d="M297.977 91.6559C298.286 91.3779 298.584 91.0896 298.862 90.791C299.14 90.4924 299.408 90.1732 299.665 89.8541C299.923 89.5349 300.211 89.1848 300.458 88.8244C300.454 88.8166 300.453 88.8079 300.453 88.7992C300.454 88.7905 300.456 88.782 300.461 88.7746C300.466 88.7672 300.472 88.7612 300.48 88.7569C300.487 88.7527 300.496 88.7505 300.505 88.7505C300.513 88.7505 300.522 88.7527 300.529 88.7569C300.537 88.7612 300.544 88.7672 300.548 88.7746C300.553 88.782 300.555 88.7905 300.556 88.7992C300.556 88.8079 300.555 88.8166 300.551 88.8244C300.376 89.2179 300.169 89.5966 299.933 89.957C299.448 90.6506 298.881 91.2832 298.244 91.8413C297.951 92.1384 297.601 92.3731 297.215 92.5311C297.153 92.5311 297.091 92.5311 297.132 92.4281C297.387 92.1425 297.67 91.8838 297.977 91.6559Z" fill="#263238"/>
<path d="M292.437 87.4139C292.761 87.0289 293.105 86.6612 293.467 86.3122C293.831 85.9468 294.216 85.603 294.62 85.2825C295.391 84.6603 296.23 84.1283 297.122 83.6969C297.174 83.6969 297.235 83.6969 297.194 83.7793C295.65 85.0148 294.105 86.1886 292.54 87.4448L292.437 87.4139Z" fill="#263238"/>
<path d="M290.594 84.6339C290.922 84.2503 291.291 83.9049 291.696 83.6043C292.562 83.0305 293.487 82.5507 294.455 82.1731C294.517 82.1731 294.569 82.1731 294.517 82.2658C293.673 82.7909 292.829 83.2954 292.025 83.8617C291.623 84.1404 291.234 84.4394 290.862 84.7575C290.491 85.087 290.213 85.4782 289.832 85.7871H289.76C289.964 85.354 290.247 84.9628 290.594 84.6339Z" fill="#263238"/>
<path d="M287.989 83.2952C288.294 82.9155 288.639 82.5703 289.019 82.2656C289.723 81.7049 290.517 81.2664 291.366 80.9683C291.428 80.9683 291.459 81.0403 291.366 81.0712C290.583 81.511 289.839 82.0174 289.142 82.5848C288.792 82.8731 288.453 83.182 288.113 83.4806C287.773 83.7792 287.485 84.1601 287.083 84.4175C287.083 84.4175 287.021 84.4175 287.032 84.3661C287.319 83.9822 287.64 83.6239 287.989 83.2952Z" fill="#263238"/>
<path d="M286.126 81.6788C286.476 81.4248 286.819 81.1777 287.155 80.9375C287.496 80.684 287.875 80.4859 288.278 80.3506C288.339 80.3506 288.36 80.4124 288.278 80.4433C287.608 80.9478 286.96 81.4729 286.301 81.9671C285.734 82.4846 285.22 83.0571 284.766 83.6763C284.766 83.6763 284.705 83.6763 284.715 83.6763C284.972 82.883 285.464 82.1865 286.126 81.6788Z" fill="#263238"/>
<path d="M283.768 81.1021C284.397 80.5478 285.128 80.1212 285.92 79.8459C285.971 79.8459 286.012 79.918 285.92 79.9386C285.2 80.3031 284.537 80.7714 283.953 81.3286C283.363 81.8842 282.835 82.5022 282.378 83.1717C282.378 83.1717 282.295 83.1717 282.316 83.1717C282.629 82.3764 283.127 81.667 283.768 81.1021Z" fill="#263238"/>
<path d="M280.607 82.4305C280.693 82.2668 280.789 82.1086 280.895 81.9568C281.107 81.6497 281.352 81.3666 281.626 81.1125C282.19 80.6084 282.804 80.1634 283.459 79.7843C283.521 79.7843 283.572 79.7843 283.521 79.877C282.891 80.2629 282.311 80.7227 281.791 81.2464C281.538 81.504 281.304 81.7792 281.091 82.0701C280.982 82.2111 280.882 82.359 280.792 82.5128C280.715 82.6699 280.622 82.8183 280.514 82.9556H280.432C280.454 82.7705 280.513 82.5918 280.607 82.4305Z" fill="#263238"/>
<path d="M278.692 82.5436C278.887 82.3068 279.083 82.07 279.299 81.8538C279.511 81.632 279.738 81.4255 279.979 81.236C280.215 81.0404 280.473 80.855 280.71 80.6491C280.721 80.6409 280.734 80.6374 280.748 80.6393C280.761 80.6412 280.774 80.6485 280.782 80.6594C280.79 80.6703 280.793 80.684 280.792 80.6976C280.79 80.7111 280.782 80.7233 280.771 80.7315C280.527 80.9315 280.296 81.1483 280.082 81.3801L279.474 82.0288L278.856 82.6775C278.65 82.8937 278.475 83.1511 278.249 83.3467H278.177C278.32 83.062 278.493 82.7929 278.692 82.5436Z" fill="#263238"/>
<path d="M290.852 107.42C290.852 107.42 296.123 103.548 297.997 105.587C299.871 107.626 294.713 114.102 291.665 114.184C291.276 114.224 290.883 114.184 290.509 114.068C290.136 113.951 289.79 113.76 289.493 113.506C289.195 113.252 288.953 112.94 288.779 112.589C288.606 112.239 288.505 111.857 288.483 111.466L290.852 107.42Z" fill="#FFC4C0"/>
<path d="M296.474 107.409C296.525 107.409 296.474 107.482 296.474 107.482C294.322 107.605 292.726 109.036 291.408 110.57C291.581 110.417 291.786 110.303 292.008 110.237C292.23 110.171 292.464 110.154 292.693 110.187C292.923 110.221 293.142 110.304 293.336 110.43C293.53 110.557 293.694 110.724 293.817 110.921C293.817 110.972 293.817 111.034 293.735 111.003C293.433 110.793 293.073 110.68 292.705 110.68C292.337 110.68 291.978 110.793 291.675 111.003C291.166 111.356 290.694 111.76 290.265 112.208C290.121 112.352 289.853 112.156 289.977 111.981C290.769 109.52 293.796 106.771 296.474 107.409Z" fill="#263238"/>
<path d="M288.792 125.963C283.088 131.719 290.45 159.746 295.67 169.146C298.327 173.934 308.479 180.822 308.809 180.719C309.138 180.616 309.653 175.231 308.809 174.027C307.964 172.822 303.454 168.415 300.87 163.73C296.34 155.493 290.296 126.664 290.265 126.211C290.234 125.757 289.307 125.438 288.792 125.963Z" fill="#455A64"/>
<path d="M211.302 56.4116C210.888 60.3731 209.382 64.1418 206.951 67.2969C204.52 70.452 201.26 72.8694 197.535 74.2791C193.81 75.6889 189.766 76.0355 185.855 75.2804C181.945 74.5253 178.321 72.6981 175.388 70.0028L164.639 71.5884L170.013 62.3217C168.779 59.2951 168.251 56.0268 168.469 52.7655C168.688 49.5041 169.647 46.3355 171.274 43.5006C172.901 40.6657 175.153 38.2391 177.859 36.4053C180.565 34.5716 183.653 33.379 186.889 32.9182C190.125 32.4574 193.424 32.7406 196.534 33.7461C199.644 34.7517 202.484 36.4532 204.838 38.7213C207.191 40.9894 208.997 43.7643 210.117 46.8351C211.237 49.9058 211.642 53.1916 211.302 56.4425V56.4116Z" fill="white"/>
<path d="M211.302 56.4115C210.885 60.3718 209.385 64.1408 206.967 67.3051C205.776 68.8834 204.353 70.272 202.746 71.4236C199.55 73.8315 195.752 75.3101 191.77 75.6966C190.776 75.7689 189.778 75.7689 188.784 75.6966C187.785 75.6758 186.79 75.5725 185.808 75.3877C181.846 74.6612 178.166 72.8425 175.182 70.1366L175.429 70.2189L164.69 71.9693L163.908 72.0929L164.309 71.403L169.653 62.1363V62.507C168.392 59.425 167.856 56.0949 168.084 52.773C168.313 49.451 169.3 46.2258 170.971 43.3454C172.643 40.4658 174.945 38.0018 177.705 36.138C180.458 34.3167 183.588 33.1419 186.86 32.7015C190.132 32.2611 193.461 32.5665 196.599 33.5948C199.687 34.6586 202.501 36.396 204.836 38.6812C207.184 40.9555 208.985 43.7326 210.105 46.8036C211.225 49.8746 211.634 53.1596 211.302 56.4115ZM211.302 56.4115C211.802 51.5236 210.602 46.6126 207.902 42.5068C205.203 38.401 201.171 35.3516 196.485 33.8728C193.4 32.9195 190.139 32.6753 186.946 33.1585C183.753 33.6416 180.71 34.8396 178.045 36.6631C175.423 38.51 173.231 40.9019 171.62 43.6749C170.032 46.4629 169.099 49.5753 168.891 52.7769C168.689 55.9706 169.206 59.169 170.405 62.1363L170.477 62.3319L170.374 62.507L164.968 71.7737L164.577 71.2074L175.347 69.7041H175.491L175.594 69.7968C178.465 72.4898 182.031 74.3265 185.89 75.0994C186.851 75.2967 187.825 75.4172 188.804 75.4598C189.785 75.5319 190.769 75.5319 191.749 75.4598C193.711 75.3119 195.642 74.8854 197.484 74.1933C199.328 73.5223 201.063 72.582 202.632 71.403C203.426 70.8197 204.183 70.1869 204.898 69.5085C205.598 68.8115 206.252 68.0685 206.854 67.2845C209.315 64.1423 210.855 60.378 211.302 56.4115Z" fill="#263238"/>
<path d="M187.404 66.4299L178.23 57.1426L181.309 54.0948L186.673 59.521L197.814 42.0481L201.469 44.3854L187.404 66.4299Z" fill="#FFC727"/>
</svg>
