<svg width="22" height="22" viewBox="0 0 22 22" fill="none" xmlns="http://www.w3.org/2000/svg">
<path d="M10.6668 21.3337C4.78271 21.3337 0 16.551 0 10.6668C0 4.78271 4.78271 0 10.6668 0C16.551 0 21.3337 4.78271 21.3337 10.6668C21.3337 16.551 16.551 21.3337 10.6668 21.3337ZM10.6668 1.4884C5.60629 1.4884 1.4884 5.60629 1.4884 10.6668C1.4884 15.7274 5.60629 19.8453 10.6668 19.8453C15.7274 19.8453 19.8453 15.7274 19.8453 10.6668C19.8453 5.60629 15.7274 1.4884 10.6668 1.4884Z" fill="#E88385"/>
<path d="M10.6661 12.4033C10.2592 12.4033 9.92188 12.066 9.92188 11.6591V6.69781C9.92188 6.29098 10.2592 5.95361 10.6661 5.95361C11.0729 5.95361 11.4103 6.29098 11.4103 6.69781V11.6591C11.4103 12.066 11.0729 12.4033 10.6661 12.4033Z" fill="#E88385"/>
<path d="M10.6641 15.6282C10.5351 15.6282 10.4062 15.5984 10.2871 15.5488C10.168 15.4992 10.0589 15.4297 9.95963 15.3404C9.87033 15.2412 9.80087 15.142 9.75126 15.013C9.70164 14.8939 9.67188 14.7649 9.67188 14.6359C9.67188 14.5069 9.70164 14.3779 9.75126 14.2589C9.80087 14.1398 9.87033 14.0306 9.95963 13.9314C10.0589 13.8421 10.168 13.7727 10.2871 13.723C10.5252 13.6238 10.8031 13.6238 11.0412 13.723C11.1603 13.7727 11.2694 13.8421 11.3686 13.9314C11.458 14.0306 11.5274 14.1398 11.577 14.2589C11.6266 14.3779 11.6564 14.5069 11.6564 14.6359C11.6564 14.7649 11.6266 14.8939 11.577 15.013C11.5274 15.142 11.458 15.2412 11.3686 15.3404C11.2694 15.4297 11.1603 15.4992 11.0412 15.5488C10.9221 15.5984 10.7931 15.6282 10.6641 15.6282Z" fill="#E88385"/>
</svg>
