<svg width="22" height="21" viewBox="0 0 22 21" fill="none" xmlns="http://www.w3.org/2000/svg">
<path d="M15.8334 2.81482C15.8334 2.70831 15.8798 2.60615 15.9624 2.53084C16.045 2.45552 16.157 2.4132 16.2739 2.4132H18.4762V0.405115C18.4762 0.2986 18.5226 0.196447 18.6052 0.121129C18.6878 0.0458109 18.7999 0.00349767 18.9167 0.00349767C19.0335 0.00349767 19.1455 0.0458109 19.2282 0.121129C19.3108 0.196447 19.3572 0.2986 19.3572 0.405115V2.4132H21.5595C21.6763 2.4132 21.7884 2.45552 21.871 2.53084C21.9536 2.60615 22 2.70831 22 2.81482C22 2.92134 21.9536 3.02349 21.871 3.09881C21.7884 3.17413 21.6763 3.21644 21.5595 3.21644H19.3572V5.22453C19.3572 5.33104 19.3108 5.4332 19.2282 5.50852C19.1455 5.58383 19.0335 5.62615 18.9167 5.62615C18.7999 5.62615 18.6878 5.58383 18.6052 5.50852C18.5226 5.4332 18.4762 5.33104 18.4762 5.22453V3.21644H16.2739C16.157 3.21644 16.045 3.17413 15.9624 3.09881C15.8798 3.02349 15.8334 2.92134 15.8334 2.81482ZM21.848 8.3712C22.2335 10.4677 21.8784 12.6216 20.8341 14.5221C19.7897 16.4226 18.1101 17.9715 16.0376 18.9451C13.9651 19.9186 11.607 20.2666 9.30348 19.9388C6.99998 19.611 4.87029 18.6244 3.22175 17.1213C1.57321 15.6182 0.491102 13.6763 0.131585 11.576C-0.227932 9.47572 0.153742 7.32558 1.22152 5.43591C2.2893 3.54625 3.98797 2.01479 6.07235 1.06256C8.15674 0.110331 10.519 -0.213417 12.8183 0.13804C12.9327 0.156476 13.0344 0.215332 13.1014 0.301805C13.1684 0.388277 13.1952 0.495371 13.1761 0.599791C13.1569 0.70421 13.0933 0.797508 12.9991 0.85939C12.9049 0.921272 12.7877 0.946731 12.673 0.930231C12.1161 0.846987 11.5526 0.805682 10.9882 0.806733C8.98755 0.808064 7.03214 1.34946 5.3685 2.36267C3.70485 3.37587 2.40747 4.81552 1.63993 6.50009C0.872386 8.18466 0.66905 10.0387 1.05556 11.8285C1.44207 13.6183 2.40112 15.2637 3.81178 16.5572C4.90603 14.8891 6.66031 13.6673 8.71314 13.1434C7.75868 12.6806 7.00139 11.94 6.56175 11.0395C6.12211 10.1391 6.02538 9.13037 6.28696 8.17398C6.54853 7.21759 7.15337 6.36842 8.00526 5.76159C8.85715 5.15476 9.90714 4.82512 10.9882 4.82512C12.0692 4.82512 13.1192 5.15476 13.9711 5.76159C14.823 6.36842 15.4278 7.21759 15.6894 8.17398C15.951 9.13037 15.8543 10.1391 15.4146 11.0395C14.975 11.94 14.2177 12.6806 13.2632 13.1434C15.3161 13.6673 17.0703 14.8891 18.1646 16.5572C19.1021 15.7017 19.8456 14.6861 20.3525 13.5686C20.8595 12.451 21.1199 11.2533 21.1191 10.0439C21.1189 9.52791 21.0721 9.01277 20.9792 8.50374C20.9611 8.39916 20.989 8.2923 21.0569 8.2064C21.1248 8.12049 21.2271 8.0625 21.3416 8.04503C21.4561 8.02756 21.5736 8.05203 21.6684 8.11311C21.7633 8.17419 21.8278 8.26695 21.848 8.3712ZM10.9882 12.8553C11.7722 12.8553 12.5387 12.6433 13.1906 12.2461C13.8425 11.8489 14.3506 11.2844 14.6507 10.6239C14.9507 9.96346 15.0292 9.2367 14.8763 8.53554C14.7233 7.83438 14.3457 7.19033 13.7913 6.68483C13.2369 6.17932 12.5306 5.83507 11.7616 5.6956C10.9926 5.55613 10.1955 5.62771 9.47113 5.90129C8.74676 6.17487 8.12762 6.63815 7.69203 7.23256C7.25643 7.82698 7.02393 8.52581 7.02393 9.24071C7.02393 10.1993 7.44159 11.1187 8.18503 11.7966C8.92847 12.4744 9.9368 12.8553 10.9882 12.8553ZM10.9882 19.2812C13.3715 19.283 15.6786 18.5154 17.5006 17.1144C16.8471 16.0649 15.9002 15.192 14.7563 14.5848C13.6124 13.9776 12.3124 13.6577 10.9887 13.6577C9.66509 13.6577 8.3651 13.9776 7.2212 14.5848C6.0773 15.192 5.13038 16.0649 4.4769 17.1144C6.29829 18.5156 8.60512 19.2832 10.9882 19.2812Z" fill="white"/>
</svg>
