<svg width="172" height="172" viewBox="0 0 172 172" fill="none" xmlns="http://www.w3.org/2000/svg">
<circle cx="86" cy="86" r="84.5" stroke="#FFE8AC" stroke-width="3"/>
<path d="M62.7747 134.7H57.2261C56.3109 134.7 55.5723 133.959 55.5723 133.046C55.5723 132.133 56.3131 131.393 57.2261 131.393H62.7747C63.6899 131.393 64.4285 132.133 64.4285 133.046C64.4285 133.959 63.6876 134.7 62.7747 134.7Z" fill="#FFE8AC"/>
<path d="M94.8872 134.7H69.5366C68.6214 134.7 67.8828 133.959 67.8828 133.046C67.8828 132.133 68.6237 131.393 69.5366 131.393H94.8872C95.8024 131.393 96.541 132.133 96.541 133.046C96.541 133.959 95.8001 134.7 94.8872 134.7Z" fill="#FFE8AC"/>
<path d="M51.0237 134.7H42.6538C41.7386 134.7 41 133.959 41 133.046V38.6538C41 37.7409 41.7409 37 42.6538 37H98.5114C98.9403 37 99.3509 37.1652 99.6582 37.461L119.703 56.7286C120.027 57.0406 120.21 57.4695 120.21 57.9214V79.2808C120.21 80.196 119.469 80.9346 118.556 80.9346C117.644 80.9346 116.903 80.1937 116.903 79.2808V58.6255L97.8462 40.3076H44.3076V131.39H51.0214C51.9366 131.39 52.6752 132.131 52.6752 133.044C52.6752 133.957 51.9343 134.698 51.0214 134.698L51.0237 134.7Z" fill="#FFE8AC"/>
<path d="M90.9947 73.7346H68.2246C67.3094 73.7346 66.5708 72.9937 66.5708 72.0808C66.5708 71.1679 67.3117 70.427 68.2246 70.427H90.9947C91.9099 70.427 92.6485 71.1679 92.6485 72.0808C92.6485 72.9937 91.9076 73.7346 90.9947 73.7346Z" fill="#FFE8AC"/>
<path d="M93.5246 86.5796H62.7745C61.8593 86.5796 61.1207 85.8387 61.1207 84.9258C61.1207 84.0129 61.8616 83.272 62.7745 83.272H93.5246C94.4398 83.272 95.1784 84.0129 95.1784 84.9258C95.1784 85.8387 94.4375 86.5796 93.5246 86.5796Z" fill="#FFE8AC"/>
<path d="M81.6521 99.4245H62.7745C61.8593 99.4245 61.1207 98.6837 61.1207 97.7707C61.1207 96.8578 61.8616 96.1169 62.7745 96.1169H81.6521C82.5673 96.1169 83.3059 96.8578 83.3059 97.7707C83.3059 98.6837 82.5651 99.4245 81.6521 99.4245Z" fill="#FFE8AC"/>
<path d="M82.8198 112.27H63.7472C62.832 112.27 62.0934 111.529 62.0934 110.616C62.0934 109.703 62.8343 108.962 63.7472 108.962H82.8198C83.735 108.962 84.4736 109.703 84.4736 110.616C84.4736 111.529 83.7327 112.27 82.8198 112.27Z" fill="#FFE8AC"/>
<path d="M113.96 134.652C100.706 134.652 89.9235 123.869 89.9235 110.616C89.9235 97.3625 100.706 86.5796 113.96 86.5796C127.213 86.5796 137.996 97.3625 137.996 110.616C137.996 123.869 127.213 134.652 113.96 134.652ZM113.96 89.8895C102.532 89.8895 93.2334 99.1884 93.2334 110.616C93.2334 122.043 102.532 131.342 113.96 131.342C125.387 131.342 134.686 122.043 134.686 110.616C134.686 99.1884 125.387 89.8895 113.96 89.8895Z" fill="#FFE8AC"/>
<path d="M111.772 118.596C111.324 118.596 110.895 118.415 110.583 118.094L104.356 111.671C103.718 111.015 103.736 109.969 104.392 109.331C105.049 108.696 106.094 108.712 106.732 109.366L111.684 114.472L121.112 103.228C121.699 102.53 122.743 102.436 123.442 103.024C124.142 103.611 124.233 104.654 123.646 105.354L113.04 118.004C112.737 118.362 112.299 118.578 111.831 118.594C111.811 118.594 111.79 118.594 111.772 118.594V118.596Z" fill="#FFE8AC"/>
</svg>
