<svg width="39" height="32" viewBox="0 0 39 32" fill="none" xmlns="http://www.w3.org/2000/svg">
<path d="M7.462 0V32H0V0H7.462ZM26.0845 0C26.0845 6.7104 23.5121 12.968 18.9101 17.7088L18.4584 18.1616L28.7657 32H19.5553L8.35412 16.96L11.245 14.8288C15.8893 11.4048 18.6144 6.224 18.7801 0.5504L18.7883 0H26.0845ZM34.9375 24C36.0149 24 37.0483 24.4214 37.8101 25.1716C38.572 25.9217 39 26.9391 39 28C39 29.0609 38.572 30.0783 37.8101 30.8284C37.0483 31.5786 36.0149 32 34.9375 32C33.8601 32 32.8267 31.5786 32.0649 30.8284C31.303 30.0783 30.875 29.0609 30.875 28C30.875 26.9391 31.303 25.9217 32.0649 25.1716C32.8267 24.4214 33.8601 24 34.9375 24Z" fill="#EBEBEB"/>
</svg>
