<svg width="26" height="18" viewBox="0 0 26 18" fill="none" xmlns="http://www.w3.org/2000/svg">
<path d="M0.64126 0.755722C1.06876 0.251907 1.61286 0 2.27354 0C2.93423 0 3.47833 0.251907 3.90583 0.755722L13 11.4733L22.0942 0.755722C22.5217 0.251907 23.0658 0 23.7265 0C24.3871 0 24.9312 0.251907 25.3587 0.755722C25.7862 1.25954 26 1.90076 26 2.67938C26 3.45801 25.7862 4.09923 25.3587 4.60304L14.6323 17.2442C14.3991 17.519 14.1465 17.7142 13.8744 17.8296C13.6024 17.945 13.3109 18.0018 13 18C12.6891 18 12.3976 17.9422 12.1256 17.8268C11.8535 17.7114 11.6009 17.5172 11.3677 17.2442L0.64126 4.60304C0.213757 4.09923 0 3.45801 0 2.67938C0 1.90076 0.213757 1.25954 0.64126 0.755722Z" fill="#455A64" fill-opacity="0.5"/>
</svg>
