<svg width="172" height="172" viewBox="0 0 172 172" fill="none" xmlns="http://www.w3.org/2000/svg">
<circle cx="86" cy="86" r="84.5" stroke="#FFE8AC" stroke-width="3"/>
<path d="M85.6679 119.057C83.6946 119.057 81.7213 118.445 80.0371 117.221L74.0137 112.845C73.0764 112.163 71.9681 111.804 70.8092 111.804H63.3642C59.2031 111.804 55.5409 109.145 54.2567 105.186L51.9557 98.1047C51.5967 97.0012 50.9124 96.0591 49.9752 95.3773L43.9517 91.0018C40.5858 88.5539 39.1859 84.2531 40.4725 80.2945L42.7735 73.2133C43.1325 72.1122 43.1325 70.9461 42.7735 69.8426L40.4725 62.7614C39.1859 58.8027 40.5858 54.4996 43.9517 52.054L49.9752 47.6786C50.9124 46.9967 51.5991 46.0546 51.9557 44.9511L54.2567 37.87C55.5433 33.9113 59.2031 31.2514 63.3642 31.2514H70.8092C71.9681 31.2514 73.0764 30.89 74.0161 30.2105L80.0371 25.8351C83.403 23.3871 87.9279 23.3895 91.2962 25.8351L97.3197 30.2105C98.2569 30.8924 99.3653 31.2514 100.524 31.2514H107.969C112.13 31.2514 115.792 33.9113 117.077 37.87L119.378 44.9511C119.737 46.0546 120.421 46.9967 121.358 47.6786L127.382 52.054C130.748 54.4996 132.147 58.8027 130.861 62.7614L128.56 69.8426C128.201 70.9461 128.201 72.1098 128.56 73.2133L130.861 80.2945C132.147 84.2531 130.75 88.5563 127.382 91.0018L121.358 95.3773C120.421 96.0591 119.737 97.0012 119.378 98.1047L117.077 105.186C115.79 109.145 112.13 111.802 107.969 111.802H100.524C99.3653 111.802 98.2569 112.163 97.3173 112.843L91.2962 117.218C89.612 118.442 87.6388 119.054 85.6679 119.054V119.057ZM63.3642 35.3786C60.9933 35.3786 58.9116 36.8917 58.1791 39.1469L55.8782 46.2281C55.2493 48.1653 54.0446 49.8205 52.399 51.0156L46.378 55.391C44.4601 56.7837 43.665 59.234 44.3974 61.4892L46.6984 68.5704C47.3273 70.5075 47.3273 72.5531 46.6984 74.4903L44.3974 81.5715C43.665 83.8242 44.4625 86.277 46.378 87.6696L52.4014 92.0451C54.0495 93.2401 55.2517 94.8978 55.8806 96.835L58.1816 103.916C58.914 106.171 60.9981 107.684 63.3666 107.684H70.8116C72.8451 107.684 74.7943 108.316 76.4399 109.513L82.4634 113.889C84.3789 115.281 86.9545 115.281 88.8724 113.889L94.8958 109.511C96.5439 108.313 98.4907 107.682 100.527 107.682H107.972C110.342 107.682 112.427 106.169 113.157 103.914L115.458 96.8325C116.086 94.8978 117.289 93.2401 118.937 92.0451L124.96 87.6696C126.878 86.277 127.673 83.8267 126.941 81.5715L124.64 74.4903C124.011 72.5555 124.011 70.5075 124.64 68.5728L126.941 61.4916C127.673 59.2364 126.878 56.7885 124.96 55.3959L118.937 51.0204C117.289 49.8229 116.089 48.1677 115.458 46.2329L113.157 39.1517C112.424 36.8966 110.34 35.3835 107.972 35.3835H100.527C98.4931 35.3835 96.5439 34.7522 94.8983 33.5547L88.8748 29.1793C86.9593 27.7867 84.3837 27.7867 82.4658 29.1793L76.4423 33.5547C74.7943 34.7522 72.8475 35.3835 70.8116 35.3835H63.3666L63.3642 35.3786Z" fill="#FFE8AC"/>
<path d="M85.6656 96.0374C72.1513 96.0374 61.1573 85.0433 61.1573 71.5291C61.1573 58.0148 72.1513 47.0208 85.6656 47.0208C99.1799 47.0208 110.174 58.0148 110.174 71.5291C110.174 85.0433 99.1799 96.0374 85.6656 96.0374ZM85.6656 51.1432C74.4258 51.1432 65.2822 60.2869 65.2822 71.5291C65.2822 82.7713 74.4258 91.9149 85.6656 91.9149C96.9054 91.9149 106.051 82.7713 106.051 71.5291C106.051 60.2869 96.9054 51.1432 85.6656 51.1432Z" fill="#FFE8AC"/>
<path d="M57.2249 149.244C56.425 149.244 55.6299 149.02 54.9263 148.574C53.671 147.781 52.9241 146.42 52.9241 144.936V100.76C52.9241 99.6201 53.8469 98.6973 54.9866 98.6973C56.1262 98.6973 57.049 99.6201 57.049 100.76V144.936L57.3068 145.1L84.7955 132.075C85.3545 131.81 86.0026 131.81 86.5616 132.075L114.053 145.1L114.311 144.936V100.69C114.311 99.5502 115.233 98.6274 116.373 98.6274C117.513 98.6274 118.435 99.5502 118.435 100.69V144.936C118.435 146.42 117.686 147.779 116.433 148.574C115.178 149.367 113.629 149.461 112.289 148.825L85.6822 136.219L59.0753 148.827C58.4874 149.107 57.8562 149.244 57.2297 149.244H57.2249Z" fill="#FFE8AC"/>
<path d="M105.09 145.199C103.95 145.199 103.028 144.276 103.028 143.136V125.141C103.028 124.001 103.95 123.078 105.09 123.078C106.23 123.078 107.152 124.001 107.152 125.141V143.136C107.152 144.276 106.23 145.199 105.09 145.199Z" fill="#FFE8AC"/>
<path d="M93.0817 139.508C91.9421 139.508 91.0193 138.585 91.0193 137.445V125.141C91.0193 124.001 91.9421 123.078 93.0817 123.078C94.2214 123.078 95.1442 124.001 95.1442 125.141V137.445C95.1442 138.585 94.2214 139.508 93.0817 139.508Z" fill="#FFE8AC"/>
<path d="M66.2627 145.199C65.1231 145.199 64.2003 144.276 64.2003 143.136V125.141C64.2003 124.001 65.1231 123.078 66.2627 123.078C67.4023 123.078 68.3251 124.001 68.3251 125.141V143.136C68.3251 144.276 67.4023 145.199 66.2627 145.199Z" fill="#FFE8AC"/>
<path d="M78.2711 139.508C77.1315 139.508 76.2087 138.585 76.2087 137.445V125.141C76.2087 124.001 77.1315 123.078 78.2711 123.078C79.4108 123.078 80.3336 124.001 80.3336 125.141V137.445C80.3336 138.585 79.4108 139.508 78.2711 139.508Z" fill="#FFE8AC"/>
</svg>
