<svg width="22" height="27" viewBox="0 0 22 27" fill="none" xmlns="http://www.w3.org/2000/svg">
<path d="M11 13.758C11.7563 13.758 12.4039 13.4883 12.9429 12.949C13.481 12.4106 13.75 11.7631 13.75 11.0064C13.75 10.2497 13.481 9.60168 12.9429 9.06237C12.4039 8.52397 11.7563 8.25478 11 8.25478C10.2437 8.25478 9.59658 8.52397 9.0585 9.06237C8.5195 9.60168 8.25 10.2497 8.25 11.0064C8.25 11.7631 8.5195 12.4106 9.0585 12.949C9.59658 13.4883 10.2437 13.758 11 13.758ZM11 23.8701C13.7958 21.3019 15.8698 18.9686 17.2219 16.87C18.574 14.7724 19.25 12.9096 19.25 11.2815C19.25 8.78217 18.4534 6.73544 16.8602 5.14135C15.268 3.54818 13.3146 2.75159 11 2.75159C8.68542 2.75159 6.73154 3.54818 5.13837 5.14135C3.54612 6.73544 2.75 8.78217 2.75 11.2815C2.75 12.9096 3.42604 14.7724 4.77812 16.87C6.13021 18.9686 8.20417 21.3019 11 23.8701ZM11 27C10.8167 27 10.6333 26.9656 10.45 26.8968C10.2667 26.828 10.1062 26.7363 9.96875 26.6217C6.62292 23.6637 4.125 20.9181 2.475 18.3848C0.825 15.8505 0 13.4828 0 11.2815C0 7.84204 1.10596 5.10191 3.31788 3.06115C5.52888 1.02038 8.08958 0 11 0C13.9104 0 16.4711 1.02038 18.6821 3.06115C20.894 5.10191 22 7.84204 22 11.2815C22 13.4828 21.175 15.8505 19.525 18.3848C17.875 20.9181 15.3771 23.6637 12.0312 26.6217C11.8938 26.7363 11.7333 26.828 11.55 26.8968C11.3667 26.9656 11.1833 27 11 27Z" fill="#C7C7C7"/>
</svg>
