<svg width="221" height="182" viewBox="0 0 221 182" fill="none" xmlns="http://www.w3.org/2000/svg">
<path d="M0 163.349C0 158.905 0.603416 155.32 1.81025 152.595C3.01708 149.869 4.81797 147.876 7.21293 146.602C9.60788 145.332 12.5782 144.697 16.1332 144.697C17.1389 144.697 18.0931 144.716 18.9959 144.749C19.8987 144.781 20.7454 144.856 21.5359 144.973C22.3217 145.089 23.0842 145.239 23.8232 145.425C24.5576 145.607 25.3294 145.836 26.134 146.102L24.9786 150.564C24.0057 150.331 23.0608 150.121 22.1393 149.939C21.2178 149.757 20.3057 149.631 19.4029 149.561C18.5001 149.495 17.5599 149.463 16.5916 149.463C14.7814 149.463 13.191 149.705 11.8157 150.191C10.4405 150.676 9.30383 151.451 8.40105 152.52C7.49826 153.589 6.82001 155.008 6.36627 156.781C5.91254 158.555 5.68802 160.725 5.68802 163.297C5.68802 165.636 5.89851 167.633 6.31482 169.29C6.73113 170.943 7.39536 172.264 8.29814 173.248C9.20093 174.233 10.3142 174.947 11.638 175.381C12.9618 175.815 14.5101 176.035 16.2876 176.035C17.8639 176.035 19.5011 175.927 21.2131 175.708C22.9205 175.493 24.4781 175.181 25.8861 174.779L26.8918 179.19C26.12 179.489 25.3107 179.736 24.4547 179.918C23.6034 180.105 22.6866 180.264 21.7183 180.394C20.7454 180.525 19.7397 180.628 18.7059 180.693C17.6675 180.758 16.5776 180.796 15.4409 180.796C12.8963 180.796 10.6697 180.488 8.75655 179.867C6.84807 179.251 5.22961 178.247 3.91051 176.856C2.58674 175.47 1.60911 173.673 0.97295 171.465C0.33679 169.258 0.0187106 166.55 0.0187106 163.344L0 163.349Z" fill="#E88485"/>
<path d="M29.4411 173.523C29.4411 171.885 29.7825 170.541 30.4702 169.486C31.1578 168.431 32.1588 167.596 33.4826 166.98C34.8063 166.364 36.4622 165.878 38.4549 165.523C40.4476 165.173 42.7817 164.898 45.462 164.697V161.589C45.462 160.216 44.9942 159.18 44.054 158.48C43.1185 157.775 41.7105 157.425 39.8348 157.425C39.1659 157.425 38.3941 157.458 37.524 157.523C36.654 157.589 35.7559 157.71 34.8344 157.873C33.9129 158.041 32.968 158.256 31.9951 158.527L31.0408 154.214C32.5143 153.747 34.0532 153.388 35.6623 153.136C37.2715 152.884 38.7589 152.758 40.1342 152.758C42.6133 152.758 44.6481 153.085 46.2385 153.738C47.8289 154.391 49.0077 155.367 49.7795 156.669C50.5513 157.971 50.9349 159.577 50.9349 161.481V173.411C50.9349 174.448 51.0939 175.148 51.412 175.517C51.7301 175.885 52.123 176.067 52.5907 176.067C52.7591 176.067 52.9696 176.044 53.2175 175.993C53.4701 175.941 53.6947 175.867 53.8958 175.769L54.3963 179.778C53.8584 180.077 53.2737 180.319 52.6375 180.506C52.0014 180.688 51.3137 180.781 50.5793 180.781C49.307 180.781 48.292 180.483 47.5389 179.881C46.7858 179.279 46.2572 178.378 45.9578 177.173C45.1205 177.808 44.2318 178.41 43.2963 178.98C42.3607 179.549 41.327 179.993 40.2043 180.31C39.0817 180.627 37.8515 180.786 36.509 180.786C35.4706 180.786 34.5257 180.627 33.6697 180.31C32.8183 179.993 32.0699 179.517 31.4337 178.882C30.7976 178.247 30.3018 177.486 29.9509 176.599C29.6001 175.713 29.4224 174.686 29.4224 173.514L29.4411 173.523ZM35.0168 173.122C35.0168 174.424 35.3349 175.395 35.9711 176.03C36.6072 176.665 37.4586 176.982 38.5344 176.982C39.339 176.982 40.1576 176.856 40.9949 176.604C41.8322 176.352 42.6461 176.002 43.4319 175.549C44.2178 175.096 44.896 174.555 45.4667 173.92V167.806C43.8903 167.941 42.459 168.105 41.1726 168.305C39.8816 168.506 38.7683 168.8 37.8328 169.183C36.8972 169.57 36.1909 170.084 35.7232 170.737C35.2507 171.39 35.0168 172.184 35.0168 173.117V173.122Z" fill="#E88485"/>
<path d="M62.5544 153.271V156.632C63.5274 155.698 64.4302 154.952 65.2675 154.401C66.1048 153.85 66.9654 153.439 67.8542 153.173C68.743 152.907 69.6691 152.772 70.6421 152.772C71.2455 152.772 71.8723 152.814 72.5272 152.898C73.182 152.982 73.8088 153.122 74.4123 153.323L73.5095 158.284C72.9061 158.116 72.2886 157.995 71.6524 157.911C71.0163 157.827 70.4316 157.785 69.8937 157.785C68.8225 157.785 67.7232 157.995 66.6006 158.41C65.478 158.83 64.2805 159.573 63.0082 160.641V180.296H57.5821V153.271H62.5544Z" fill="#E88485"/>
<path d="M86.9715 180.791C84.9928 180.791 83.2621 180.53 81.7699 180.016C80.2778 179.498 79.0054 178.705 77.953 177.636C76.8958 176.567 76.1006 175.19 75.5674 173.501C75.0294 171.816 74.7628 169.818 74.7628 167.512C74.7628 164.805 75.0902 162.499 75.7451 160.595C76.4 158.691 77.3028 157.169 78.4582 156.035C79.6135 154.901 80.97 154.07 82.5277 153.552C84.0854 153.034 85.7833 152.777 87.6263 152.777C91.2422 152.777 93.9225 153.715 95.6672 155.582C97.4073 157.454 98.282 160.497 98.282 164.707C98.282 164.94 98.2727 165.276 98.2586 165.71C98.2399 166.145 98.2165 166.546 98.1838 166.915C97.412 166.98 96.4343 167.055 95.2462 167.139C94.0581 167.223 92.6829 167.321 91.1252 167.437C89.5676 167.554 87.893 167.648 86.1014 167.713C84.3099 167.778 82.4248 167.83 80.4508 167.862C80.4181 167.998 80.3994 168.138 80.3994 168.287V168.763C80.3994 170.602 80.6847 172.082 81.2507 173.202C81.8214 174.322 82.6587 175.139 83.7626 175.657C84.8665 176.175 86.2558 176.432 87.9351 176.432C88.9408 176.432 89.9885 176.376 91.0738 176.254C92.1637 176.138 93.2348 175.988 94.292 175.802C95.3445 175.62 96.3268 175.41 97.2295 175.176L97.9312 179.237C96.9255 179.536 95.8403 179.806 94.6662 180.04C93.4921 180.273 92.2806 180.455 91.0223 180.59C89.764 180.721 88.4169 180.791 86.9761 180.791H86.9715ZM80.4883 164.198C81.8635 164.198 83.2013 164.175 84.5064 164.124C85.8114 164.072 87.0089 164.021 88.0988 163.974C89.184 163.923 90.1336 163.867 90.9381 163.797C91.7427 163.731 92.3461 163.68 92.7484 163.647C92.7156 162.009 92.4958 160.674 92.0935 159.638C91.6912 158.602 91.0878 157.869 90.2832 157.43C89.4787 156.992 88.459 156.777 87.2194 156.777C86.4476 156.777 85.6945 156.88 84.9601 157.076C84.221 157.276 83.5428 157.659 82.9253 158.229C82.3032 158.798 81.7793 159.554 81.3443 160.511C80.9092 161.463 80.6239 162.691 80.4883 164.194V164.198Z" fill="#E88485"/>
<path d="M110.21 181.174V176.712L129.706 150.793V150.695H111.216V146.083H136.087V150.546L116.796 176.464V176.562H137.195V181.174H110.215H110.21Z" fill="#467888"/>
<path d="M169.551 181.174V154.154H174.523V156.511C175.66 155.876 176.726 155.358 177.713 154.957C178.7 154.555 179.715 154.238 180.754 154.004C181.792 153.771 182.863 153.654 183.967 153.654C185.675 153.654 187.097 153.948 188.238 154.532C189.375 155.115 190.231 155.979 190.801 157.113C191.372 158.252 191.657 159.605 191.657 161.174V181.179H186.231V162.779C186.231 161.276 185.852 160.147 185.099 159.395C184.346 158.644 183.233 158.266 181.759 158.266C180.988 158.266 180.235 158.35 179.5 158.518C178.761 158.686 178.027 158.91 177.288 159.195C176.549 159.479 175.795 159.82 175.024 160.221V181.179H169.546L169.551 181.174Z" fill="#467888"/>
<path d="M209.694 181.678C207.715 181.678 205.985 181.421 204.493 180.898C203 180.38 201.728 179.587 200.676 178.518C199.618 177.449 198.823 176.072 198.29 174.382C197.752 172.697 197.485 170.7 197.485 168.389C197.485 165.682 197.813 163.376 198.463 161.472C199.118 159.568 200.021 158.046 201.176 156.912C202.332 155.778 203.688 154.947 205.246 154.429C206.803 153.911 208.501 153.649 210.344 153.649C213.965 153.649 216.64 154.588 218.385 156.455C220.125 158.326 221 161.369 221 165.58C221 165.813 220.991 166.149 220.972 166.583C220.953 167.017 220.93 167.419 220.897 167.787C220.125 167.853 219.148 167.932 217.96 168.011C216.771 168.095 215.396 168.193 213.839 168.315C212.281 168.431 210.606 168.525 208.815 168.59C207.023 168.655 205.138 168.707 203.164 168.739C203.131 168.875 203.113 169.015 203.113 169.164V169.64C203.113 171.479 203.398 172.959 203.969 174.079C204.539 175.199 205.377 176.016 206.481 176.534C207.589 177.052 208.974 177.314 210.653 177.314C211.659 177.314 212.702 177.258 213.792 177.136C214.882 177.02 215.953 176.87 217.01 176.683C218.067 176.501 219.045 176.291 219.948 176.058L220.649 180.119C219.643 180.418 218.554 180.688 217.384 180.922C216.21 181.155 214.999 181.342 213.74 181.472C212.482 181.603 211.135 181.673 209.694 181.673V181.678ZM203.211 165.085C204.581 165.085 205.924 165.061 207.229 165.01C208.534 164.959 209.732 164.907 210.821 164.861C211.911 164.809 212.856 164.753 213.661 164.683C214.465 164.618 215.069 164.567 215.471 164.534C215.438 162.896 215.223 161.561 214.816 160.525C214.414 159.488 213.81 158.756 213.006 158.317C212.201 157.883 211.182 157.663 209.942 157.663C209.17 157.663 208.417 157.761 207.683 157.962C206.944 158.163 206.265 158.546 205.648 159.115C205.026 159.684 204.502 160.445 204.062 161.397C203.627 162.35 203.342 163.577 203.206 165.08L203.211 165.085Z" fill="#467888"/>
<path d="M152.482 182C151.56 182 150.639 181.696 149.886 181.094C139.24 172.52 139.413 162.98 139.464 162C139.492 154.858 145.32 149.057 152.482 149.057C159.643 149.057 165.476 154.858 165.5 162C165.547 162.98 165.72 172.52 155.078 181.09C154.325 181.696 153.403 181.995 152.482 181.995V182ZM152.482 152.487C147.196 152.487 142.902 156.777 142.902 162.046C142.902 162.084 142.902 162.126 142.902 162.163C142.883 162.499 142.519 170.742 152.052 178.42C152.299 178.621 152.674 178.621 152.926 178.42C162.459 170.746 162.094 162.504 162.076 162.154C162.076 162.121 162.076 162.079 162.076 162.046C162.076 156.772 157.777 152.487 152.496 152.487H152.482Z" fill="#E88385"/>
<path d="M152.482 168.917C148.52 168.917 145.297 165.701 145.297 161.748C145.297 157.795 148.52 154.579 152.482 154.579C156.444 154.579 159.667 157.795 159.667 161.748C159.667 165.701 156.444 168.917 152.482 168.917ZM152.482 158.014C150.419 158.014 148.735 159.69 148.735 161.753C148.735 163.816 150.414 165.491 152.482 165.491C154.55 165.491 156.229 163.816 156.229 161.753C156.229 159.69 154.55 158.014 152.482 158.014Z" fill="#E88385"/>
<path fill-rule="evenodd" clip-rule="evenodd" d="M138.709 107.377C159.361 99.3901 173.701 79.0619 172.941 55.7142C171.982 26.16 147.198 2.98324 117.579 3.93607C93.3775 4.71805 73.4431 21.3729 67.4832 43.5574C74.9281 25.9432 92.1164 13.3297 112.522 12.6726C140.474 11.769 163.866 33.648 164.771 61.5364C165.407 81.1286 154.778 98.4734 138.706 107.374L138.709 107.377Z" fill="#467888"/>
<path fill-rule="evenodd" clip-rule="evenodd" d="M112.245 0.00639849C86.568 -0.364877 61.8096 15.4456 51.6679 41.1424C38.8228 73.6734 54.2659 109.727 86.1597 121.663C112.222 131.422 141.195 122.061 157.932 100.563C141.765 116.439 117.599 122.616 95.6264 114.389C65.5239 103.122 50.9501 69.0998 63.0708 38.3924C71.5859 16.8288 91.0066 2.63818 112.245 0.00639849Z" fill="#E88385"/>
<path d="M103.565 55.8521C97.8788 51.2095 95.8142 45.1245 95.8142 45.1245C91.5764 52.0342 96.071 58.9636 98.0895 61.2142C101.366 64.8711 108.063 69.8258 108.735 80.399C114.007 68.6397 109.252 60.4914 103.565 55.8521Z" fill="#E88285"/>
<path d="M121.758 55.8521C127.444 51.2095 129.509 45.1245 129.509 45.1245C133.747 52.0342 129.252 58.9636 127.234 61.2142C123.957 64.8711 117.26 69.8258 116.588 80.399C111.316 68.6397 116.071 60.4914 121.758 55.8521Z" fill="#477888"/>
<path d="M112.663 54.0155C115.804 54.0155 118.35 51.4751 118.35 48.3413C118.35 45.2075 115.804 42.667 112.663 42.667C109.523 42.667 106.977 45.2075 106.977 48.3413C106.977 51.4751 109.523 54.0155 112.663 54.0155Z" fill="#FEE8AB"/>
<path fill-rule="evenodd" clip-rule="evenodd" d="M77.9541 62.4237C78.1352 61.323 77.3219 59.7919 76.0937 59.1873C74.7404 58.5302 73.5945 58.8785 73.476 60.4391C73.2092 63.9548 73.5945 69.3038 75.3199 73.0921C78.3591 79.7422 84.0556 88.5871 91.6422 91.5704C98.6031 95.2602 105.274 99.3344 107.866 105.104C110.602 102.528 112.153 92.5233 108.742 83.8821C105.373 75.3526 96.6373 76.2233 90.0913 70.8513C87.0817 70.8447 87.9641 74.1829 88.379 74.8137C90.8058 78.2308 94.385 81.3948 99.7193 83.7769C95.5803 84.0004 90.4996 82.2984 86.4429 78.4772C82.7945 75.0405 77.6084 67.6872 77.9541 62.4237Z" fill="#FAC3C0"/>
<path fill-rule="evenodd" clip-rule="evenodd" d="M148.956 62.4233C148.782 61.3227 149.595 59.7916 150.823 59.187C152.177 58.5299 153.316 58.8781 153.441 60.4487C153.708 63.9577 153.322 69.3067 151.587 73.0918C148.555 79.7419 142.858 88.5868 135.265 91.5701C128.304 95.2599 121.633 99.3341 119.048 105.104C116.305 102.528 114.754 92.523 118.172 83.8818C121.534 75.3523 130.276 76.223 136.816 70.851C139.832 70.8444 138.95 74.1826 138.535 74.8134C136.101 78.2305 132.522 81.3945 127.194 83.7766C131.333 84 136.414 82.2981 140.471 78.4769C144.119 75.0401 149.305 67.6869 148.953 62.4233H148.956Z" fill="#FAC3C0"/>
</svg>
