<svg width="505" height="501" viewBox="0 0 505 501" fill="none" xmlns="http://www.w3.org/2000/svg">
<path fill-rule="evenodd" clip-rule="evenodd" d="M320.589 414.613C431.33 376.589 508.223 279.816 504.145 168.668C499.007 27.9743 366.107 -82.36 207.287 -77.824C77.5125 -74.1013 -29.3794 5.18481 -61.3375 110.795C-21.4164 26.942 70.7502 -33.1053 180.167 -36.2336C330.052 -40.5349 455.484 63.621 460.339 196.385C463.747 289.654 406.752 372.225 320.571 414.598L320.589 414.613Z" fill="#2D83AC" fill-opacity="0.05"/>
<path fill-rule="evenodd" clip-rule="evenodd" d="M178.684 -96.5311C40.9988 -98.2985 -91.7598 -23.0322 -146.142 99.2989C-215.019 254.164 -132.211 425.797 38.8094 482.622C178.56 529.077 333.919 484.515 423.666 382.173C336.973 457.752 207.393 487.158 89.5716 447.992C-71.8434 394.358 -149.991 232.391 -84.9974 86.2071C-39.3379 -16.4472 64.7996 -84.0023 178.684 -96.5311Z" fill="#2D83AC" fill-opacity="0.05"/>
<path d="M132.142 169.325C101.649 147.224 90.5787 118.256 90.5787 118.256C67.8549 151.15 91.956 184.138 102.779 194.852C120.347 212.261 156.261 235.848 159.863 286.182C188.13 230.202 162.635 191.411 132.142 169.325Z" fill="#2D83AC" fill-opacity="0.05"/>
<path d="M229.693 169.325C260.186 147.224 271.256 118.256 271.256 118.256C293.98 151.15 269.879 184.138 259.056 194.852C241.488 212.261 205.574 235.848 201.972 286.182C173.705 230.202 199.2 191.411 229.693 169.325Z" fill="#2D83AC" fill-opacity="0.05"/>
<path d="M180.5 160.696C197.345 160.696 211 145.466 211 126.679C211 107.891 197.345 92.6613 180.5 92.6613C163.655 92.6613 150 107.891 150 126.679C150 145.466 163.655 160.696 180.5 160.696Z" fill="#2D83AC" fill-opacity="0.05"/>
<path fill-rule="evenodd" clip-rule="evenodd" d="M-5.19008 200.608C-4.21898 195.368 -8.58011 188.079 -15.166 185.201C-22.4227 182.073 -28.5672 183.731 -29.2028 191.161C-30.633 207.897 -28.5672 233.361 -19.3152 251.396C-3.01834 283.054 27.5273 325.16 68.2077 339.363C105.533 356.928 141.305 376.323 155.201 403.79C169.873 391.527 178.189 343.899 159.897 302.762C141.835 262.157 94.9925 266.302 59.8915 240.728C43.7535 240.697 48.4855 256.589 50.7102 259.592C63.7229 275.859 82.9155 290.921 111.519 302.261C89.3248 303.325 62.0809 295.223 40.3282 277.032C20.7649 260.671 -7.044 225.666 -5.19008 200.608Z" fill="#2D83AC" fill-opacity="0.05"/>
<path fill-rule="evenodd" clip-rule="evenodd" d="M375.536 200.608C374.6 195.368 378.961 188.079 385.547 185.201C392.804 182.073 398.913 183.731 399.584 191.208C401.014 207.913 398.948 233.377 389.643 251.396C373.382 283.054 342.836 325.16 302.121 339.363C264.795 356.928 229.023 376.323 215.163 403.79C200.455 391.527 192.139 343.899 210.466 302.762C228.493 262.157 275.371 266.302 310.437 240.728C326.61 240.697 321.878 256.589 319.653 259.592C306.605 275.859 287.413 290.921 258.845 302.261C281.039 303.325 308.283 295.223 330.035 277.032C349.599 260.671 377.408 225.666 375.518 200.608H375.536Z" fill="#2D83AC" fill-opacity="0.05"/>
</svg>
