<svg width="171" height="140" viewBox="0 0 171 140" fill="none" xmlns="http://www.w3.org/2000/svg">
<path d="M0 125.653C0 122.235 0.466897 119.477 1.40069 117.381C2.33448 115.284 3.72793 113.751 5.58104 112.771C7.43415 111.794 9.73244 111.306 12.4832 111.306C13.2613 111.306 13.9997 111.32 14.6982 111.345C15.3967 111.37 16.0518 111.428 16.6635 111.517C17.2716 111.607 17.8615 111.722 18.4334 111.866C19.0016 112.006 19.5988 112.182 20.2213 112.386L19.3274 115.819C18.5745 115.639 17.8434 115.478 17.1304 115.338C16.4174 115.198 15.7116 115.101 15.0131 115.047C14.3145 114.997 13.5871 114.971 12.8378 114.971C11.4372 114.971 10.2066 115.158 9.14249 115.532C8.0784 115.905 7.19889 116.501 6.50036 117.323C5.80182 118.145 5.27702 119.237 4.92594 120.601C4.57486 121.966 4.40113 123.635 4.40113 125.613C4.40113 127.412 4.564 128.949 4.88613 130.223C5.20825 131.494 5.7222 132.51 6.42073 133.268C7.11927 134.026 7.98067 134.575 9.00495 134.909C10.0292 135.243 11.2272 135.411 12.6026 135.411C13.8223 135.411 15.0891 135.329 16.4138 135.16C17.7348 134.995 18.9401 134.754 20.0295 134.446L20.8077 137.839C20.2105 138.068 19.5843 138.259 18.922 138.399C18.2633 138.542 17.5539 138.664 16.8047 138.765C16.0518 138.865 15.2737 138.944 14.4738 138.995C13.6703 139.045 12.827 139.074 11.9475 139.074C9.97856 139.074 8.25575 138.837 6.77543 138.359C5.29873 137.885 4.04644 137.113 3.02578 136.043C2.0015 134.977 1.24506 133.595 0.752826 131.897C0.260593 130.198 0.0144774 128.116 0.0144774 125.649L0 125.653Z" fill="white"/>
<path d="M22.7802 133.48C22.7802 132.22 23.0444 131.186 23.5765 130.374C24.1085 129.563 24.8831 128.92 25.9073 128.446C26.9316 127.972 28.2129 127.599 29.7547 127.326C31.2966 127.057 33.1026 126.845 35.1765 126.691V124.299C35.1765 123.244 34.8146 122.447 34.0871 121.908C33.3632 121.366 32.2738 121.097 30.8224 121.097C30.3049 121.097 29.7077 121.122 29.0345 121.172C28.3613 121.222 27.6664 121.316 26.9533 121.441C26.2403 121.571 25.5092 121.736 24.7564 121.944L24.018 118.627C25.1581 118.268 26.3489 117.991 27.594 117.797C28.839 117.603 29.99 117.506 31.0541 117.506C32.9723 117.506 34.5467 117.758 35.7773 118.26C37.0079 118.763 37.92 119.513 38.5172 120.515C39.1144 121.517 39.4112 122.752 39.4112 124.217V133.394C39.4112 134.191 39.5342 134.729 39.7803 135.013C40.0264 135.297 40.3305 135.437 40.6924 135.437C40.8227 135.437 40.9856 135.419 41.1774 135.379C41.3728 135.34 41.5466 135.282 41.7022 135.207L42.0895 138.291C41.6733 138.521 41.2208 138.708 40.7286 138.851C40.2364 138.991 39.7043 139.063 39.1361 139.063C38.1516 139.063 37.3662 138.833 36.7835 138.37C36.2008 137.907 35.7918 137.214 35.5602 136.288C34.9123 136.776 34.2246 137.239 33.5008 137.677C32.7769 138.115 31.977 138.456 31.1084 138.7C30.2397 138.945 29.2878 139.067 28.2491 139.067C27.4456 139.067 26.7145 138.945 26.0521 138.7C25.3934 138.456 24.8143 138.09 24.3221 137.602C23.8298 137.113 23.4462 136.528 23.1747 135.846C22.9033 135.164 22.7657 134.374 22.7657 133.473L22.7802 133.48ZM27.0945 133.171C27.0945 134.173 27.3406 134.92 27.8328 135.408C28.3251 135.896 28.9838 136.14 29.8162 136.14C30.4388 136.14 31.0722 136.043 31.72 135.85C32.3679 135.656 32.9977 135.386 33.6057 135.038C34.2138 134.69 34.7386 134.273 35.1801 133.785V129.082C33.9604 129.186 32.8529 129.312 31.8576 129.466C30.8586 129.62 29.9972 129.846 29.2733 130.141C28.5495 130.439 28.003 130.834 27.641 131.336C27.2755 131.839 27.0945 132.45 27.0945 133.168V133.171Z" fill="white"/>
<path d="M48.4018 117.901V120.486C49.1546 119.768 49.8532 119.194 50.501 118.77C51.1489 118.346 51.8149 118.031 52.5025 117.826C53.1902 117.621 53.9069 117.517 54.6597 117.517C55.1266 117.517 55.6116 117.549 56.1183 117.614C56.625 117.679 57.11 117.786 57.5769 117.941L56.8783 121.757C56.4114 121.628 55.9337 121.535 55.4415 121.47C54.9492 121.405 54.4968 121.373 54.0806 121.373C53.2518 121.373 52.4012 121.535 51.5326 121.854C50.6639 122.177 49.7374 122.748 48.7529 123.57V138.69H44.5544V117.901H48.4018Z" fill="white"/>
<path d="M67.2947 139.07C65.7637 139.07 64.4245 138.869 63.2699 138.474C62.1154 138.075 61.1309 137.465 60.3165 136.643C59.4986 135.821 58.8833 134.762 58.4707 133.462C58.0544 132.166 57.8481 130.629 57.8481 128.855C57.8481 126.773 58.1015 124.999 58.6082 123.534C59.1149 122.07 59.8135 120.899 60.7074 120.027C61.6014 119.154 62.651 118.515 63.8563 118.117C65.0615 117.718 66.3753 117.521 67.8014 117.521C70.5991 117.521 72.673 118.242 74.023 119.678C75.3694 121.118 76.0463 123.459 76.0463 126.698C76.0463 126.877 76.039 127.136 76.0282 127.469C76.0137 127.803 75.9956 128.112 75.9702 128.396C75.3731 128.446 74.6166 128.503 73.6973 128.568C72.778 128.633 71.7139 128.708 70.5086 128.798C69.3034 128.888 68.0077 128.959 66.6215 129.01C65.2352 129.06 63.7766 129.099 62.2493 129.125C62.2239 129.229 62.2095 129.336 62.2095 129.451V129.818C62.2095 131.232 62.4302 132.37 62.8682 133.232C63.3097 134.094 63.9576 134.722 64.8118 135.121C65.666 135.519 66.7409 135.717 68.0402 135.717C68.8184 135.717 69.6291 135.673 70.4688 135.58C71.3121 135.49 72.141 135.375 72.9589 135.232C73.7733 135.092 74.5334 134.93 75.2319 134.751L75.7748 137.874C74.9966 138.104 74.157 138.312 73.2485 138.492C72.34 138.671 71.4026 138.811 70.429 138.916C69.4554 139.016 68.413 139.07 67.2983 139.07H67.2947ZM62.2782 126.306C63.3423 126.306 64.3775 126.288 65.3873 126.249C66.3971 126.209 67.3236 126.17 68.1669 126.134C69.0066 126.094 69.7413 126.051 70.3639 125.997C70.9864 125.947 71.4533 125.908 71.7646 125.883C71.7392 124.622 71.5691 123.595 71.2579 122.798C70.9466 122.001 70.4797 121.438 69.8572 121.1C69.2346 120.763 68.4456 120.597 67.4865 120.597C66.8893 120.597 66.3066 120.676 65.7383 120.827C65.1665 120.982 64.6417 121.276 64.1639 121.714C63.6825 122.152 63.2772 122.734 62.9406 123.47C62.604 124.202 62.3832 125.146 62.2782 126.303V126.306Z" fill="white"/>
<path d="M85.2756 139.365V135.932L100.361 115.995V115.919H86.0538V112.372H105.298V115.804L90.3717 135.742V135.817H106.156V139.365H85.2793H85.2756Z" fill="white"/>
<path d="M131.191 139.365V118.58H135.038V120.393C135.918 119.905 136.743 119.506 137.507 119.198C138.27 118.889 139.056 118.645 139.859 118.465C140.663 118.286 141.492 118.196 142.346 118.196C143.667 118.196 144.767 118.422 145.65 118.871C146.53 119.32 147.192 119.984 147.634 120.856C148.075 121.732 148.296 122.774 148.296 123.98V139.368H144.097V125.215C144.097 124.059 143.804 123.19 143.222 122.612C142.639 122.034 141.777 121.743 140.637 121.743C140.04 121.743 139.457 121.808 138.889 121.937C138.317 122.066 137.749 122.239 137.177 122.458C136.605 122.677 136.023 122.939 135.426 123.247V139.368H131.187L131.191 139.365Z" fill="white"/>
<path d="M162.252 139.752C160.721 139.752 159.382 139.555 158.227 139.153C157.073 138.754 156.088 138.144 155.274 137.321C154.456 136.499 153.841 135.44 153.428 134.14C153.012 132.844 152.806 131.308 152.806 129.53C152.806 127.448 153.059 125.674 153.562 124.209C154.069 122.744 154.767 121.574 155.661 120.702C156.555 119.829 157.605 119.19 158.81 118.791C160.015 118.393 161.329 118.192 162.755 118.192C165.557 118.192 167.627 118.914 168.977 120.35C170.323 121.789 171 124.13 171 127.369C171 127.548 170.993 127.807 170.978 128.141C170.964 128.475 170.946 128.784 170.92 129.067C170.323 129.117 169.567 129.178 168.647 129.239C167.728 129.304 166.664 129.38 165.459 129.473C164.254 129.563 162.958 129.634 161.572 129.685C160.185 129.735 158.727 129.774 157.199 129.8C157.174 129.904 157.16 130.011 157.16 130.126V130.493C157.16 131.907 157.38 133.045 157.822 133.907C158.264 134.769 158.911 135.397 159.766 135.796C160.623 136.194 161.695 136.395 162.994 136.395C163.772 136.395 164.579 136.352 165.423 136.259C166.266 136.169 167.095 136.054 167.913 135.91C168.731 135.77 169.487 135.609 170.186 135.429L170.729 138.553C169.95 138.783 169.107 138.991 168.202 139.17C167.294 139.35 166.356 139.494 165.383 139.594C164.409 139.695 163.367 139.749 162.252 139.749V139.752ZM157.236 126.988C158.296 126.988 159.335 126.97 160.345 126.931C161.354 126.891 162.281 126.852 163.124 126.816C163.968 126.776 164.699 126.733 165.321 126.68C165.944 126.629 166.411 126.59 166.722 126.565C166.697 125.304 166.53 124.278 166.215 123.481C165.904 122.683 165.437 122.12 164.815 121.782C164.192 121.448 163.403 121.28 162.444 121.28C161.847 121.28 161.264 121.355 160.696 121.509C160.124 121.664 159.599 121.958 159.121 122.396C158.64 122.834 158.235 123.419 157.894 124.152C157.558 124.884 157.337 125.829 157.232 126.985L157.236 126.988Z" fill="white"/>
<path d="M117.984 140C117.271 140 116.558 139.767 115.975 139.304C107.737 132.708 107.871 125.369 107.911 124.615C107.933 119.122 112.443 114.659 117.984 114.659C123.525 114.659 128.038 119.122 128.056 124.615C128.093 125.369 128.227 132.708 119.992 139.3C119.41 139.767 118.697 139.997 117.984 139.997V140ZM117.984 117.298C113.894 117.298 110.571 120.598 110.571 124.651C110.571 124.68 110.571 124.712 110.571 124.741C110.557 124.999 110.275 131.34 117.651 137.246C117.843 137.401 118.132 137.401 118.328 137.246C125.704 131.344 125.422 125.003 125.407 124.734C125.407 124.709 125.407 124.676 125.407 124.651C125.407 120.594 122.081 117.298 117.995 117.298H117.984Z" fill="white"/>
<path d="M117.984 129.936C114.918 129.936 112.424 127.463 112.424 124.422C112.424 121.381 114.918 118.907 117.984 118.907C121.049 118.907 123.543 121.381 123.543 124.422C123.543 127.463 121.049 129.936 117.984 129.936ZM117.984 121.549C116.388 121.549 115.085 122.838 115.085 124.425C115.085 126.012 116.384 127.301 117.984 127.301C119.584 127.301 120.883 126.012 120.883 124.425C120.883 122.838 119.584 121.549 117.984 121.549Z" fill="white"/>
<path fill-rule="evenodd" clip-rule="evenodd" d="M107.327 82.5979C123.307 76.4538 134.402 60.8168 133.814 42.857C133.072 20.123 113.895 2.29473 90.9777 3.02767C72.2513 3.62919 56.827 16.4406 52.2155 33.5056C57.976 19.9562 71.2755 10.2535 87.0642 9.74804C108.693 9.053 126.792 25.883 127.493 47.3356C127.984 62.4065 119.76 75.7487 107.324 82.5954L107.327 82.5979Z" fill="white"/>
<path fill-rule="evenodd" clip-rule="evenodd" d="M86.8502 0.00492192C66.9825 -0.280675 47.8256 11.8812 39.9784 31.648C30.0394 56.6719 41.9886 84.4051 66.6666 93.5871C86.8324 101.094 109.25 93.8929 122.201 77.3561C109.691 89.5685 90.9929 94.3201 73.9915 87.9914C50.6995 79.325 39.4229 53.1537 48.8014 29.5326C55.39 12.9452 70.4169 2.02937 86.8502 0.00492192Z" fill="white"/>
<path d="M80.1344 42.9634C75.7343 39.3922 74.1368 34.7114 74.1368 34.7114C70.8578 40.0266 74.3356 45.3569 75.8974 47.0881C78.4324 49.9011 83.6146 53.7125 84.1344 61.8456C88.2134 52.8001 84.5344 46.5321 80.1344 42.9634Z" fill="white"/>
<path d="M94.2108 42.9634C98.6108 39.3922 100.208 34.7114 100.208 34.7114C103.487 40.0266 100.01 45.3569 98.4478 47.0881C95.9127 49.9011 90.7305 53.7125 90.2107 61.8456C86.1317 52.8001 89.8107 46.5321 94.2108 42.9634Z" fill="white"/>
<path d="M87.1739 41.5505C89.6039 41.5505 91.5739 39.5963 91.5739 37.1856C91.5739 34.775 89.6039 32.8208 87.1739 32.8208C84.7438 32.8208 82.7738 34.775 82.7738 37.1856C82.7738 39.5963 84.7438 41.5505 87.1739 41.5505Z" fill="white"/>
<path fill-rule="evenodd" clip-rule="evenodd" d="M60.3175 48.0181C60.4576 47.1714 59.8283 45.9937 58.878 45.5286C57.8308 45.0231 56.9442 45.291 56.8525 46.4916C56.6461 49.1959 56.9442 53.3105 58.2792 56.2246C60.6308 61.3401 65.0385 68.1438 70.9087 70.4387C76.2947 73.277 81.4566 76.411 83.4617 80.8491C85.5789 78.8676 86.7789 71.1717 84.1394 64.5246C81.533 57.9635 74.7737 58.6332 69.7087 54.5009C67.38 54.4959 68.0628 57.0637 68.3838 57.549C70.2615 60.1775 73.031 62.6113 77.1584 64.4437C73.9558 64.6156 70.0246 63.3064 66.8857 60.367C64.0627 57.7234 60.0499 52.067 60.3175 48.0181Z" fill="white"/>
<path fill-rule="evenodd" clip-rule="evenodd" d="M115.256 48.0179C115.121 47.1712 115.75 45.9934 116.7 45.5284C117.748 45.0229 118.629 45.2908 118.726 46.4989C118.932 49.1982 118.634 53.3128 117.291 56.2244C114.945 61.3398 110.537 68.1436 104.662 70.4385C99.276 73.2768 94.1142 76.4107 92.1141 80.8489C89.9918 78.8674 88.7918 71.1714 91.4364 64.5244C94.0377 57.9632 100.802 58.633 105.862 54.5007C108.196 54.4956 107.513 57.0635 107.192 57.5487C105.309 60.1772 102.54 62.6111 98.4174 64.4435C101.62 64.6153 105.551 63.3061 108.69 60.3668C111.513 57.7231 115.526 52.0668 115.253 48.0179H115.256Z" fill="white"/>
</svg>
