<svg width="756" height="756" viewBox="0 0 756 756" fill="none" xmlns="http://www.w3.org/2000/svg">
<path fill-rule="evenodd" clip-rule="evenodd" d="M550.152 646.709C674.237 598.603 760.397 476.171 755.826 335.553C750.069 157.555 601.155 17.967 423.198 23.7056C277.786 28.4153 158.013 128.724 122.204 262.336C166.936 156.249 270.208 80.2811 392.81 76.3234C560.756 70.8816 701.302 202.654 706.742 370.619C710.561 488.618 646.698 593.082 550.132 646.689L550.152 646.709Z" fill="white" fill-opacity="0.1"/>
<path fill-rule="evenodd" clip-rule="evenodd" d="M391.148 0.0385366C236.872 -2.19757 88.1163 93.025 27.1816 247.791C-49.9958 443.718 42.7911 660.858 234.419 732.749C391.009 791.521 565.089 735.144 665.651 605.667C568.511 701.286 423.316 738.488 291.298 688.937C110.433 621.083 22.8686 416.172 95.6935 231.228C146.855 101.356 263.541 15.8892 391.148 0.0385366Z" fill="white" fill-opacity="0.1"/>
<path d="M338.998 336.385C304.831 308.423 292.426 271.775 292.426 271.775C266.964 313.39 293.97 355.124 306.097 368.68C325.782 390.704 366.023 420.545 370.059 484.225C401.733 413.402 373.165 364.326 338.998 336.385Z" fill="white" fill-opacity="0.1"/>
<path d="M448.304 336.385C482.471 308.423 494.875 271.775 494.875 271.775C520.337 313.39 493.332 355.124 481.204 368.68C461.519 390.704 421.279 420.545 417.243 484.225C385.569 413.402 414.137 364.326 448.304 336.385Z" fill="white" fill-opacity="0.1"/>
<path d="M393.661 325.323C412.531 325.323 427.828 310.022 427.828 291.148C427.828 272.274 412.531 256.973 393.661 256.973C374.791 256.973 359.494 272.274 359.494 291.148C359.494 310.022 374.791 325.323 393.661 325.323Z" fill="white" fill-opacity="0.1"/>
<path fill-rule="evenodd" clip-rule="evenodd" d="M185.118 375.962C186.206 369.332 181.319 360.111 173.94 356.47C165.808 352.512 158.923 354.61 158.211 364.009C156.609 385.183 158.923 417.399 169.29 440.215C187.551 480.267 221.777 533.538 267.36 551.506C309.183 573.728 349.265 598.266 364.835 633.015C381.276 617.501 390.594 557.245 370.098 505.201C349.859 453.83 297.372 459.074 258.041 426.719C239.959 426.68 245.261 446.785 247.754 450.584C262.334 471.164 283.84 490.221 315.89 504.567C291.021 505.913 260.495 495.663 236.121 472.648C214.2 451.95 183.04 407.663 185.118 375.962Z" fill="white" fill-opacity="0.1"/>
<path fill-rule="evenodd" clip-rule="evenodd" d="M611.72 375.962C610.672 369.332 615.559 360.111 622.938 356.47C631.069 352.512 637.915 354.61 638.666 364.069C640.269 385.203 637.954 417.419 627.528 440.215C609.307 480.267 575.081 533.538 529.459 551.506C487.635 573.728 447.553 598.266 432.022 633.015C415.542 617.501 406.224 557.245 426.76 505.201C446.959 453.83 499.486 459.074 538.777 426.719C556.899 426.68 551.597 446.785 549.104 450.584C534.484 471.164 512.979 490.221 480.968 504.567C505.837 505.913 536.363 495.663 560.737 472.648C582.658 451.95 613.818 407.663 611.701 375.962H611.72Z" fill="white" fill-opacity="0.1"/>
</svg>
