<svg width="505" height="498" viewBox="0 0 505 498" fill="none" xmlns="http://www.w3.org/2000/svg">
<path fill-rule="evenodd" clip-rule="evenodd" d="M320.589 409.533C431.33 370.97 508.223 272.825 504.145 160.101C499.007 17.4113 366.107 -94.4877 207.287 -89.8874C77.5125 -86.1119 -29.3794 -5.70138 -61.3375 101.407C-21.4164 16.3643 70.7502 -44.5345 180.167 -47.7071C330.052 -52.0695 455.484 53.5635 460.339 188.21C463.747 282.802 406.752 366.544 320.571 409.518L320.589 409.533Z" fill="#2D83AC" fill-opacity="0.05"/>
<path fill-rule="evenodd" clip-rule="evenodd" d="M178.684 -108.86C40.9988 -110.652 -91.7598 -34.3186 -146.142 89.7474C-215.019 246.809 -132.211 420.876 38.8094 478.507C178.56 525.62 333.919 480.426 423.666 376.633C336.973 453.284 207.393 483.107 89.5716 443.386C-71.8434 388.991 -149.991 224.727 -84.9974 76.4699C-39.3379 -27.6402 64.7996 -96.1533 178.684 -108.86Z" fill="#2D83AC" fill-opacity="0.05"/>
<path d="M132.142 160.767C101.649 138.352 90.5787 108.974 90.5787 108.974C67.8549 142.334 91.956 175.789 102.779 186.656C120.347 204.311 156.261 228.233 159.863 279.281C188.13 222.506 162.635 183.166 132.142 160.767Z" fill="#2D83AC" fill-opacity="0.05"/>
<path d="M229.693 160.767C260.186 138.352 271.256 108.974 271.256 108.974C293.98 142.334 269.879 175.789 259.056 186.656C241.488 204.311 205.574 228.233 201.972 279.281C173.705 222.506 199.2 183.166 229.693 160.767Z" fill="#2D83AC" fill-opacity="0.05"/>
<path d="M180.927 151.899C197.768 151.899 211.42 139.634 211.42 124.504C211.42 109.373 197.768 97.1079 180.927 97.1079C164.086 97.1079 150.434 109.373 150.434 124.504C150.434 139.634 164.086 151.899 180.927 151.899Z" fill="#2D83AC" fill-opacity="0.05"/>
<path fill-rule="evenodd" clip-rule="evenodd" d="M-5.19008 192.493C-4.21898 187.179 -8.58011 179.787 -15.166 176.868C-22.4227 173.695 -28.5672 175.377 -29.2028 182.912C-30.633 199.885 -28.5672 225.711 -19.3152 244.001C-3.01834 276.108 27.5273 318.812 68.2077 333.216C105.533 351.03 141.305 370.7 155.201 398.556C169.873 386.119 178.189 337.816 159.897 296.096C141.835 254.915 94.9925 259.119 59.8915 233.182C43.7535 233.151 48.4855 249.268 50.7102 252.313C63.7229 268.811 82.9155 284.087 111.519 295.588C89.3248 296.667 62.0809 288.45 40.3282 270.001C20.7649 253.408 -7.044 217.906 -5.19008 192.493Z" fill="#2D83AC" fill-opacity="0.05"/>
<path fill-rule="evenodd" clip-rule="evenodd" d="M375.536 192.493C374.6 187.179 378.961 179.787 385.547 176.868C392.804 173.695 398.913 175.377 399.584 182.959C401.014 199.901 398.948 225.727 389.643 244.001C373.382 276.108 342.836 318.812 302.121 333.216C264.795 351.03 229.023 370.7 215.163 398.556C200.455 386.119 192.139 337.816 210.466 296.096C228.493 254.915 275.371 259.119 310.437 233.182C326.61 233.151 321.878 249.268 319.653 252.313C306.605 268.811 287.413 284.087 258.845 295.588C281.039 296.667 308.283 288.45 330.035 270.001C349.599 253.408 377.408 217.906 375.518 192.493H375.536Z" fill="#2D83AC" fill-opacity="0.05"/>
</svg>
