<svg width="22" height="21" viewBox="0 0 22 21" fill="none" xmlns="http://www.w3.org/2000/svg">
<path d="M20.9371 20.1856C21.5063 20.7017 22.3848 19.9052 21.8156 19.4003L17.1753 15.1819C18.803 13.549 19.7028 11.4256 19.6996 9.22454C19.6996 4.29935 15.2821 0.294117 9.84982 0.294117C4.41757 0.294117 0 4.29935 0 9.22454C0 14.1497 4.41757 18.155 9.84982 18.155C12.2999 18.155 14.5644 17.336 16.2968 15.9785L20.9371 20.1856ZM1.23618 9.22454C1.23618 4.9164 5.10928 1.41603 9.84858 1.41603C14.6003 1.41603 18.461 4.9164 18.461 9.22454C18.461 13.5327 14.6003 17.0331 9.84858 17.0331C5.10928 17.0331 1.23618 13.5327 1.23618 9.22454Z" fill="white"/>
</svg>
