<svg width="53" height="36" viewBox="0 0 53 36" fill="none" xmlns="http://www.w3.org/2000/svg">
<path d="M35.0731 3.56288e-06C32.0725 -0.00190961 29.1213 0.766703 26.5 2.23279C23.8787 0.766703 20.9275 -0.00190961 17.9269 3.56288e-06C13.1724 3.56288e-06 8.61263 1.89643 5.25068 5.27208C1.88873 8.64774 0 13.2261 0 18C0 22.7739 1.88873 27.3523 5.25068 30.7279C8.61263 34.1036 13.1724 36 17.9269 36C20.9275 36.0019 23.8787 35.2333 26.5 33.7672C29.1213 35.2333 32.0725 36.0019 35.0731 36C39.8276 36 44.3874 34.1036 47.7493 30.7279C51.1113 27.3523 53 22.7739 53 18C53 13.2261 51.1113 8.64774 47.7493 5.27208C44.3874 1.89643 39.8276 3.56288e-06 35.0731 3.56288e-06ZM17.9269 33.3514C13.872 33.3514 9.98319 31.734 7.11593 28.8551C4.24867 25.9761 2.63787 22.0714 2.63787 18C2.63787 13.9286 4.24867 10.0239 7.11593 7.14494C9.98319 4.26599 13.872 2.64862 17.9269 2.64862C20.0161 2.64862 22.0816 3.08829 23.9888 3.9385C21.8912 5.62731 20.1982 7.76765 19.0349 10.2015C17.8716 12.6353 17.2676 15.3004 17.2676 18C17.2676 20.6996 17.8716 23.3647 19.0349 25.7985C20.1982 28.2324 21.8912 30.3727 23.9888 32.0615C22.0798 32.9112 20.015 33.3505 17.9269 33.3514ZM26.5 30.6498C24.4639 29.234 22.8002 27.3434 21.6516 25.1401C20.503 22.9369 19.9038 20.4868 19.9053 18C19.9033 15.5127 20.5023 13.0621 21.651 10.8584C22.7996 8.65468 24.4635 6.76365 26.5 5.34756C28.5356 6.76473 30.1989 8.65594 31.3477 10.8594C32.4965 13.0628 33.0965 15.5129 33.0965 18C33.0965 20.4871 32.4965 22.9372 31.3477 25.1406C30.1989 27.3441 28.5356 29.2353 26.5 30.6524V30.6498ZM35.0731 33.3514C32.985 33.3505 30.9202 32.9112 29.0112 32.0615C31.1088 30.3727 32.8018 28.2324 33.9651 25.7985C35.1284 23.3647 35.7324 20.6996 35.7324 18C35.7324 15.3004 35.1284 12.6353 33.9651 10.2015C32.8018 7.76765 31.1088 5.62731 29.0112 3.9385C30.9202 3.08883 32.985 2.64946 35.0731 2.64862C39.128 2.64862 43.0168 4.26599 45.8841 7.14494C48.7513 10.0239 50.3621 13.9286 50.3621 18C50.3621 22.0714 48.7513 25.9761 45.8841 28.8551C43.0168 31.734 39.128 33.3514 35.0731 33.3514Z" fill="#EBEBEB"/>
</svg>
