<svg width="426" height="237" viewBox="0 0 426 237" fill="none" xmlns="http://www.w3.org/2000/svg">
<path d="M398.696 190.974H398.04V108.439L415.574 84.5091V39.7847H416.23V84.719L398.696 108.656V190.974Z" fill="#EBEBEB"/>
<path d="M415.903 40.139C415.529 40.139 415.163 40.0281 414.853 39.8202C414.542 39.6123 414.3 39.3169 414.157 38.9713C414.014 38.6257 413.977 38.2455 414.05 37.8788C414.124 37.5122 414.304 37.1756 414.569 36.9116C414.834 36.6477 415.171 36.4683 415.538 36.3961C415.905 36.3239 416.285 36.3623 416.63 36.5063C416.975 36.6503 417.27 36.8935 417.477 37.205C417.684 37.5165 417.793 37.8824 417.792 38.2564C417.792 38.5042 417.743 38.7495 417.648 38.9783C417.553 39.2072 417.414 39.415 417.238 39.5899C417.063 39.7648 416.855 39.9034 416.625 39.9976C416.396 40.0918 416.151 40.1399 415.903 40.139ZM415.903 37.0231C415.659 37.0231 415.421 37.0955 415.218 37.231C415.015 37.3665 414.857 37.5591 414.764 37.7844C414.67 38.0098 414.646 38.2577 414.693 38.497C414.741 38.7362 414.858 38.9559 415.031 39.1284C415.203 39.3009 415.423 39.4183 415.662 39.4659C415.902 39.5135 416.149 39.4891 416.375 39.3957C416.6 39.3024 416.793 39.1443 416.928 38.9415C417.064 38.7387 417.136 38.5003 417.136 38.2564C417.136 37.9293 417.006 37.6156 416.775 37.3843C416.544 37.1531 416.23 37.0231 415.903 37.0231Z" fill="#EBEBEB"/>
<path d="M403.216 190.974H402.56V111.332L402.619 111.24L420.094 87.3954V56.1841H420.75V87.6119L403.216 111.542V190.974Z" fill="#EBEBEB"/>
<path d="M420.422 56.5384C420.048 56.5397 419.682 56.4299 419.37 56.2228C419.058 56.0157 418.815 55.7207 418.671 55.3752C418.528 55.0297 418.49 54.6493 418.562 54.2823C418.635 53.9152 418.815 53.578 419.08 53.3133C419.344 53.0487 419.682 52.8687 420.049 52.796C420.416 52.7233 420.796 52.7613 421.142 52.9051C421.487 53.0489 421.782 53.292 421.989 53.6037C422.196 53.9154 422.306 54.2816 422.305 54.6558C422.303 55.1545 422.104 55.6324 421.751 55.9851C421.399 56.3378 420.921 56.5367 420.422 56.5384ZM420.422 53.4225C420.178 53.4212 419.939 53.4925 419.735 53.6272C419.532 53.7619 419.372 53.954 419.278 54.1793C419.184 54.4045 419.158 54.6527 419.205 54.8923C419.252 55.132 419.369 55.3523 419.541 55.5255C419.713 55.6986 419.933 55.8167 420.173 55.8648C420.412 55.9129 420.66 55.8889 420.886 55.7958C421.112 55.7026 421.305 55.5445 421.44 55.3416C421.576 55.1387 421.649 54.9 421.649 54.6558C421.649 54.3298 421.52 54.0171 421.29 53.7861C421.06 53.555 420.748 53.4243 420.422 53.4225Z" fill="#EBEBEB"/>
<path d="M394.347 81.8132H393.691V190.974H394.347V81.8132Z" fill="#EBEBEB"/>
<path d="M394.019 82.1412C393.645 82.1425 393.279 82.0326 392.967 81.8256C392.656 81.6185 392.412 81.3235 392.269 80.978C392.125 80.6325 392.087 80.2521 392.16 79.8851C392.232 79.518 392.412 79.1807 392.677 78.9161C392.941 78.6515 393.279 78.4715 393.646 78.3988C394.013 78.3261 394.393 78.3641 394.739 78.5079C395.084 78.6517 395.379 78.8948 395.586 79.2065C395.793 79.5182 395.903 79.8843 395.902 80.2586C395.9 80.7573 395.701 81.2352 395.349 81.5879C394.996 81.9406 394.518 82.1395 394.019 82.1412ZM394.019 79.0253C393.775 79.024 393.536 79.0952 393.332 79.23C393.129 79.3647 392.97 79.5568 392.875 79.7821C392.781 80.0073 392.756 80.2554 392.802 80.4951C392.849 80.7348 392.966 80.9551 393.138 81.1282C393.311 81.3014 393.53 81.4195 393.77 81.4676C394.009 81.5157 394.257 81.4917 394.483 81.3985C394.709 81.3054 394.902 81.1473 395.038 80.9444C395.173 80.7414 395.246 80.5027 395.246 80.2586C395.246 79.9326 395.117 79.6199 394.887 79.3888C394.657 79.1577 394.345 79.0271 394.019 79.0253Z" fill="#EBEBEB"/>
<path d="M390.156 190.974H389.5V135.577L377.601 113.123V72.7935H378.257V112.965L390.156 135.419V190.974Z" fill="#EBEBEB"/>
<path d="M377.921 73.1214C377.548 73.1214 377.183 73.0106 376.872 72.8031C376.561 72.5955 376.319 72.3004 376.176 71.9552C376.033 71.61 375.996 71.2301 376.069 70.8637C376.141 70.4972 376.321 70.1606 376.586 69.8964C376.85 69.6321 377.186 69.4522 377.553 69.3793C377.919 69.3064 378.299 69.3438 378.644 69.4868C378.99 69.6298 379.285 69.872 379.492 70.1826C379.7 70.4933 379.811 70.8586 379.811 71.2322C379.811 71.7333 379.612 72.2138 379.257 72.5681C378.903 72.9224 378.423 73.1214 377.921 73.1214ZM377.921 70.0056C377.677 70.0056 377.439 70.0781 377.236 70.2139C377.033 70.3497 376.875 70.5427 376.781 70.7684C376.688 70.9941 376.664 71.2424 376.712 71.4818C376.761 71.7212 376.879 71.9409 377.052 72.1131C377.225 72.2853 377.445 72.4023 377.685 72.4491C377.925 72.496 378.173 72.4706 378.398 72.3763C378.623 72.2819 378.815 72.1228 378.95 71.9192C379.085 71.7155 379.156 71.4764 379.155 71.2322C379.155 71.0706 379.123 70.9105 379.061 70.7613C378.999 70.612 378.908 70.4765 378.793 70.3625C378.678 70.2485 378.542 70.1583 378.393 70.097C378.243 70.0358 378.083 70.0047 377.921 70.0056Z" fill="#EBEBEB"/>
<path d="M385.99 190.974H385.334V137.984L371.303 113.162V86.5625H371.959V112.985L385.99 137.814V190.974Z" fill="#EBEBEB"/>
<path d="M371.631 86.8905C371.257 86.8918 370.891 86.7819 370.579 86.5748C370.267 86.3677 370.024 86.0727 369.88 85.7273C369.737 85.3818 369.699 85.0014 369.771 84.6343C369.844 84.2672 370.024 83.93 370.289 83.6654C370.553 83.4008 370.891 83.2207 371.258 83.148C371.625 83.0754 372.005 83.1133 372.351 83.2571C372.696 83.4009 372.991 83.6441 373.198 83.9558C373.405 84.2675 373.515 84.6336 373.514 85.0078C373.512 85.5066 373.313 85.9845 372.96 86.3371C372.608 86.6898 372.13 86.8887 371.631 86.8905ZM371.631 83.7746C371.387 83.7733 371.148 83.8445 370.944 83.9792C370.741 84.1139 370.581 84.3061 370.487 84.5313C370.393 84.7565 370.367 85.0047 370.414 85.2444C370.461 85.484 370.578 85.7044 370.75 85.8775C370.922 86.0506 371.142 86.1687 371.382 86.2169C371.621 86.265 371.869 86.2409 372.095 86.1478C372.321 86.0547 372.514 85.8966 372.649 85.6936C372.785 85.4907 372.858 85.252 372.858 85.0078C372.858 84.6819 372.729 84.3692 372.499 84.1381C372.269 83.907 371.957 83.7763 371.631 83.7746Z" fill="#EBEBEB"/>
<path d="M29.7688 190.974H29.1129V148.008L11.5786 124.078V98.8225H12.2346V123.861L29.7688 147.798V190.974Z" fill="#EBEBEB"/>
<path d="M11.9065 99.1769C11.5323 99.1782 11.1661 99.0683 10.8545 98.8612C10.5428 98.6541 10.2996 98.3591 10.1558 98.0136C10.012 97.6682 9.97404 97.2878 10.0467 96.9207C10.1194 96.5536 10.2995 96.2164 10.5641 95.9518C10.8287 95.6872 11.1659 95.5071 11.533 95.4344C11.9001 95.3617 12.2805 95.3997 12.626 95.5435C12.9714 95.6873 13.2664 95.9305 13.4735 96.2421C13.6806 96.5538 13.7905 96.92 13.7892 97.2942C13.7892 97.7935 13.5908 98.2724 13.2377 98.6254C12.8847 98.9785 12.4058 99.1769 11.9065 99.1769ZM11.9065 96.061C11.6623 96.0597 11.4232 96.1309 11.2196 96.2656C11.0159 96.4003 10.8568 96.5925 10.7625 96.8177C10.6681 97.0429 10.6428 97.2911 10.6896 97.5307C10.7365 97.7704 10.8534 97.9908 11.0256 98.1639C11.1978 98.337 11.4175 98.4551 11.6569 98.5032C11.8963 98.5514 12.1446 98.5273 12.3704 98.4342C12.5961 98.341 12.7891 98.183 12.9249 97.98C13.0607 97.7771 13.1332 97.5384 13.1332 97.2942C13.1332 96.9683 13.0042 96.6556 12.7743 96.4245C12.5444 96.1934 12.2324 96.0627 11.9065 96.061Z" fill="#EBEBEB"/>
<path d="M25.2493 190.974H24.5933V150.9L7.05908 126.97V115.222H7.71506V126.754L25.2493 150.691V190.974Z" fill="#EBEBEB"/>
<path d="M7.39994 115.576C7.02601 115.576 6.66049 115.465 6.34967 115.257C6.03885 115.05 5.79672 114.754 5.65392 114.409C5.51113 114.063 5.4741 113.683 5.54753 113.316C5.62096 112.949 5.80154 112.613 6.06641 112.349C6.33127 112.085 6.66851 111.906 7.03541 111.833C7.40232 111.761 7.78238 111.8 8.12747 111.944C8.47256 112.088 8.76716 112.331 8.97396 112.642C9.18076 112.954 9.29045 113.32 9.28915 113.694C9.28742 114.194 9.08761 114.672 8.73351 115.025C8.3794 115.378 7.89986 115.576 7.39994 115.576ZM7.39994 112.46C7.15603 112.46 6.9176 112.533 6.7148 112.668C6.51199 112.804 6.35392 112.996 6.26058 113.222C6.16724 113.447 6.14282 113.695 6.19041 113.934C6.23799 114.173 6.35544 114.393 6.52791 114.566C6.70039 114.738 6.92013 114.856 7.15935 114.903C7.39857 114.951 7.64654 114.926 7.87188 114.833C8.09723 114.74 8.28983 114.582 8.42534 114.379C8.56085 114.176 8.63318 113.938 8.63318 113.694C8.63318 113.367 8.50325 113.053 8.27197 112.822C8.0407 112.59 7.72702 112.46 7.39994 112.46Z" fill="#EBEBEB"/>
<path d="M34.1179 121.172H33.4619V190.974H34.1179V121.172Z" fill="#EBEBEB"/>
<path d="M33.7901 121.5C33.4162 121.5 33.0506 121.389 32.7398 121.181C32.429 120.973 32.1869 120.677 32.0441 120.332C31.9013 119.986 31.8642 119.606 31.9377 119.239C32.0111 118.873 32.1917 118.536 32.4565 118.272C32.7214 118.008 33.0586 117.829 33.4256 117.757C33.7925 117.685 34.1725 117.723 34.5176 117.867C34.8627 118.011 35.1573 118.254 35.3641 118.566C35.5709 118.877 35.6806 119.243 35.6793 119.617C35.6776 120.117 35.4777 120.596 35.1236 120.949C34.7695 121.301 34.29 121.5 33.7901 121.5ZM33.7901 118.384C33.5462 118.384 33.3077 118.456 33.1049 118.592C32.9021 118.727 32.7441 118.92 32.6507 119.145C32.5574 119.37 32.533 119.618 32.5805 119.858C32.6281 120.097 32.7456 120.317 32.9181 120.489C33.0905 120.661 33.3103 120.779 33.5495 120.826C33.7887 120.874 34.0367 120.85 34.262 120.756C34.4874 120.663 34.68 120.505 34.8155 120.302C34.951 120.099 35.0233 119.861 35.0233 119.617C35.0233 119.29 34.8934 118.976 34.6621 118.745C34.4308 118.514 34.1172 118.384 33.7901 118.384Z" fill="#EBEBEB"/>
<path d="M38.3098 190.974H37.6538V155.099L37.6866 155.02L49.5532 132.645V92.4729H50.2092V132.802L50.1764 132.874L38.3098 155.256V190.974Z" fill="#EBEBEB"/>
<path d="M49.8809 92.8009C49.5073 92.8009 49.142 92.6901 48.8313 92.4825C48.5206 92.2749 48.2785 91.9798 48.1355 91.6346C47.9925 91.2894 47.9551 90.9096 48.028 90.5431C48.1009 90.1766 48.2808 89.84 48.545 89.5758C48.8092 89.3116 49.1459 89.1317 49.5123 89.0588C49.8788 88.9859 50.2587 89.0233 50.6039 89.1663C50.9491 89.3093 51.2441 89.5514 51.4517 89.8621C51.6593 90.1728 51.7701 90.538 51.7701 90.9117C51.7701 91.4127 51.5711 91.8933 51.2168 92.2475C50.8625 92.6018 50.382 92.8009 49.8809 92.8009ZM49.8809 89.685C49.6367 89.685 49.398 89.7575 49.1951 89.8933C48.9921 90.0291 48.8341 90.2221 48.7409 90.4478C48.6478 90.6736 48.6238 90.9218 48.6719 91.1612C48.72 91.4006 48.8381 91.6204 49.0112 91.7926C49.1844 91.9648 49.4047 92.0817 49.6444 92.1286C49.884 92.1754 50.1322 92.15 50.3574 92.0557C50.5826 91.9613 50.7748 91.8023 50.9095 91.5986C51.0442 91.3949 51.1154 91.1559 51.1141 90.9117C51.1141 90.75 51.0822 90.59 51.0201 90.4407C50.9581 90.2915 50.8671 90.1559 50.7525 90.042C50.6379 89.928 50.5019 89.8377 50.3524 89.7765C50.2028 89.7152 50.0426 89.6841 49.8809 89.685Z" fill="#EBEBEB"/>
<path d="M42.4748 190.974H41.8188V157.493L41.8582 157.414L55.8502 132.664V106.242H56.5062V132.842L56.4602 132.914L42.4748 157.664V190.974Z" fill="#EBEBEB"/>
<path d="M56.178 106.57C55.8038 106.571 55.4376 106.461 55.1259 106.254C54.8143 106.047 54.5711 105.752 54.4273 105.406C54.2835 105.061 54.2455 104.681 54.3182 104.314C54.3909 103.946 54.571 103.609 54.8356 103.345C55.1002 103.08 55.4374 102.9 55.8045 102.827C56.1716 102.755 56.552 102.793 56.8974 102.936C57.2429 103.08 57.5379 103.323 57.745 103.635C57.9521 103.947 58.0619 104.313 58.0606 104.687C58.0589 105.186 57.86 105.664 57.5073 106.016C57.1546 106.369 56.6768 106.568 56.178 106.57ZM56.178 103.454C55.9338 103.452 55.6947 103.524 55.4911 103.658C55.2874 103.793 55.1283 103.985 55.034 104.211C54.9396 104.436 54.9143 104.684 54.9611 104.924C55.0079 105.163 55.1249 105.384 55.2971 105.557C55.4693 105.73 55.689 105.848 55.9284 105.896C56.1678 105.944 56.4161 105.92 56.6418 105.827C56.8676 105.734 57.0606 105.576 57.1964 105.373C57.3322 105.17 57.4047 104.931 57.4047 104.687C57.4047 104.361 57.2756 104.048 57.0458 103.817C56.8159 103.586 56.5039 103.456 56.178 103.454Z" fill="#EBEBEB"/>
<path d="M416.729 28.6463L421.321 21.2666L419.064 19.8693C418.735 19.665 418.471 19.3718 418.301 19.0236C418.132 18.6754 418.064 18.2863 418.107 17.9014C418.142 17.4641 418.155 17.0268 418.146 16.5894C418.134 16.2087 418.229 15.8322 418.419 15.502C418.609 15.1719 418.887 14.9011 419.222 14.7199L421.564 13.4604L417.385 5.85111L415.043 7.11058C414.705 7.28826 414.325 7.36884 413.944 7.34337C413.563 7.31789 413.196 7.18736 412.885 6.96627C412.531 6.72356 412.164 6.49396 411.783 6.31029C411.446 6.13092 411.165 5.86088 410.972 5.53059C410.78 5.20029 410.684 4.82285 410.694 4.44076L410.779 1.7775L402.101 1.50854L402.016 4.17837C402.001 4.56047 401.88 4.93099 401.667 5.24843C401.454 5.56588 401.157 5.81771 400.809 5.97575C400.612 6.06758 400.422 6.15942 400.238 6.26437C400.054 6.36933 399.864 6.46773 399.68 6.57924C399.356 6.77885 398.982 6.88452 398.601 6.88452C398.22 6.88452 397.847 6.77885 397.522 6.57924L395.246 5.16889L390.654 12.5486L392.917 13.959C393.247 14.1627 393.512 14.4558 393.681 14.8042C393.851 15.1525 393.918 15.5419 393.875 15.9269C393.838 16.3632 393.825 16.8011 393.836 17.2389C393.846 17.621 393.75 17.9984 393.559 18.3295C393.368 18.6606 393.089 18.9324 392.753 19.1149L390.451 20.2826L394.557 27.9378L396.899 26.6849C397.236 26.5063 397.617 26.4246 397.997 26.4489C398.378 26.4732 398.745 26.6026 399.057 26.8227C399.412 27.0611 399.78 27.28 400.159 27.4786C400.497 27.658 400.777 27.9281 400.97 28.2583C401.162 28.5886 401.259 28.9661 401.248 29.3482L401.169 32.0114L409.848 32.2804L409.933 29.6171C409.947 29.2358 410.068 28.866 410.281 28.5496C410.495 28.2331 410.792 27.9826 411.14 27.8263L411.711 27.5377L412.268 27.2163C412.594 27.0168 412.969 26.9112 413.351 26.9112C413.733 26.9112 414.107 27.0168 414.433 27.2163L416.729 28.6463ZM409.382 23.1689C408.141 23.8335 406.731 24.1153 405.33 23.9786C403.929 23.8419 402.601 23.2928 401.512 22.4009C400.423 21.5089 399.623 20.3141 399.213 18.9676C398.803 17.621 398.801 16.1831 399.209 14.8357C399.616 13.4883 400.414 12.2919 401.501 11.3978C402.588 10.5037 403.916 9.95203 405.316 9.81256C406.717 9.67308 408.128 9.95205 409.37 10.6142C410.612 11.2764 411.63 12.292 412.295 13.5326C412.735 14.3585 413.008 15.2631 413.098 16.1947C413.189 17.1263 413.094 18.0666 412.821 18.9617C412.547 19.8568 412.1 20.6891 411.504 21.411C410.908 22.133 410.176 22.7303 409.349 23.1689H409.382Z" fill="#EBEBEB"/>
<path d="M17.3577 94.2504L22.6055 91.2067L21.6741 89.593C21.5406 89.3607 21.4748 89.0956 21.4841 88.8279C21.4934 88.5601 21.5773 88.3003 21.7265 88.0777C21.8927 87.8241 22.0436 87.5617 22.1792 87.2905C22.3009 87.0476 22.4884 86.8437 22.7204 86.7022C22.9523 86.5607 23.2194 86.4873 23.4911 86.4902H25.3541V80.4028H23.4911C23.2194 80.4057 22.9523 80.3323 22.7204 80.1908C22.4884 80.0493 22.3009 79.8454 22.1792 79.6025C22.0436 79.3313 21.8927 79.069 21.7265 78.8153C21.5773 78.5928 21.4934 78.3329 21.4841 78.0651C21.4748 77.7974 21.5406 77.5323 21.6741 77.3L22.6055 75.6863L17.3577 72.6426L16.4262 74.2628C16.2944 74.4907 16.102 74.6775 15.8704 74.8026C15.6388 74.9276 15.3771 74.986 15.1143 74.9713H14.1894C13.9274 74.9852 13.6667 74.9272 13.4354 74.8034C13.2042 74.6797 13.0112 74.495 12.8774 74.2694L11.9394 72.6426L6.69156 75.6863L7.62304 77.3066C7.75647 77.5389 7.82227 77.8039 7.81299 78.0717C7.80372 78.3395 7.71975 78.5993 7.57057 78.8219C7.40571 79.0737 7.25462 79.3343 7.11794 79.6025C6.99624 79.8454 6.8087 80.0493 6.57673 80.1908C6.34476 80.3323 6.0777 80.4057 5.80599 80.4028H3.92334V86.4902H5.78631C6.05802 86.4873 6.32509 86.5607 6.55706 86.7022C6.78903 86.8437 6.97656 87.0476 7.09826 87.2905C7.23494 87.5587 7.38603 87.8193 7.55089 88.0711C7.69993 88.295 7.78377 88.5559 7.79303 88.8246C7.8023 89.0934 7.73663 89.3594 7.60337 89.593L6.67188 91.2067L11.9197 94.2504L12.8577 92.6302C12.9912 92.4038 13.1839 92.2182 13.4151 92.0934C13.6463 91.9685 13.9072 91.9092 14.1697 91.9217C14.314 91.9217 14.4649 91.9217 14.6158 91.9217C14.7666 91.9217 14.9175 91.9217 15.0684 91.9217C15.3307 91.9099 15.5913 91.9696 15.8224 92.0943C16.0535 92.2191 16.2463 92.4043 16.3803 92.6302L17.3577 94.2504ZM14.6158 88.4319C13.63 88.4306 12.6668 88.1371 11.8478 87.5885C11.0288 87.0399 10.3908 86.2609 10.0145 85.3498C9.63818 84.4387 9.54038 83.4365 9.73348 82.4699C9.92659 81.5032 10.4019 80.6155 11.0994 79.919C11.7969 79.2224 12.6852 78.7482 13.6521 78.5564C14.619 78.3646 15.6211 78.4637 16.5317 78.8412C17.4422 79.2187 18.2205 79.8577 18.768 80.6774C19.3155 81.4971 19.6077 82.4608 19.6077 83.4465C19.6086 84.102 19.48 84.7512 19.2294 85.3569C18.9787 85.9626 18.6109 86.5128 18.1471 86.976C17.6833 87.4392 17.1326 87.8062 16.5266 88.0561C15.9206 88.3059 15.2712 88.4336 14.6158 88.4319Z" fill="#EBEBEB"/>
<path d="M389.887 33.986L386.849 28.7382L385.242 29.65C385.009 29.7833 384.743 29.8489 384.474 29.8397C384.205 29.8304 383.944 29.7466 383.72 29.5975C383.467 29.4312 383.204 29.2801 382.933 29.1449C382.69 29.0232 382.486 28.8357 382.345 28.6037C382.203 28.3717 382.13 28.1047 382.133 27.8329V25.97H376.059V27.8329C376.062 28.1047 375.988 28.3717 375.847 28.6037C375.705 28.8357 375.501 29.0232 375.258 29.1449C374.986 29.2815 374.721 29.4326 374.465 29.5975C374.242 29.7467 373.982 29.8307 373.714 29.8399C373.447 29.8492 373.182 29.7834 372.949 29.65L371.336 28.7185L368.298 33.9663L369.919 34.8978C370.149 35.0355 370.336 35.2338 370.461 35.4709C370.586 35.7081 370.643 35.975 370.627 36.2426C370.627 36.3934 370.627 36.5443 370.627 36.6886C370.627 36.8329 370.627 36.9904 370.627 37.1412C370.64 37.4038 370.581 37.665 370.456 37.8963C370.331 38.1277 370.145 38.3203 369.919 38.4532L368.298 39.3912L371.336 44.6391L372.956 43.7076C373.188 43.5741 373.453 43.5083 373.721 43.5176C373.989 43.5269 374.249 43.6109 374.471 43.76C374.729 43.9262 374.992 44.0771 375.258 44.2127C375.501 44.3344 375.705 44.5219 375.847 44.7539C375.988 44.9858 376.062 45.2529 376.059 45.5246V47.3876H382.139V45.5246C382.137 45.2529 382.21 44.9858 382.351 44.7539C382.493 44.5219 382.697 44.3344 382.94 44.2127C383.211 44.0727 383.473 43.9218 383.727 43.76C383.949 43.6109 384.209 43.5269 384.477 43.5176C384.745 43.5083 385.01 43.5741 385.242 43.7076L386.862 44.6391L389.9 39.3912L388.279 38.4598C388.054 38.3254 387.87 38.1323 387.746 37.9012C387.623 37.6701 387.564 37.4096 387.577 37.1478C387.577 36.9969 387.577 36.8461 387.577 36.6952C387.577 36.5443 387.577 36.4 387.577 36.2491C387.56 35.9815 387.617 35.7143 387.742 35.477C387.867 35.2397 388.055 35.0415 388.286 34.9044L389.887 33.986ZM384.068 36.6821C384.068 37.6684 383.775 38.6325 383.227 39.4525C382.679 40.2725 381.9 40.9115 380.989 41.2886C380.078 41.6658 379.075 41.7641 378.108 41.5712C377.14 41.3783 376.252 40.9028 375.555 40.205C374.858 39.5071 374.384 38.6182 374.192 37.6506C374.001 36.6831 374.1 35.6805 374.479 34.7697C374.857 33.8588 375.497 33.0807 376.318 32.5336C377.138 31.9866 378.103 31.6953 379.089 31.6966C379.744 31.6966 380.391 31.8256 380.996 32.0763C381.6 32.3269 382.15 32.6942 382.612 33.1572C383.074 33.6203 383.441 34.1699 383.691 34.7747C383.941 35.3795 384.069 36.0277 384.068 36.6821Z" fill="#EBEBEB"/>
<path d="M31.343 141.028C27.1513 132.415 19.8175 127.994 11.5522 130.441C3.28686 132.888 2.00771 144.406 8.17388 147.319C14.3401 150.232 20.5194 141.73 23.7992 139.985C27.0791 138.24 31.343 141.028 31.343 141.028Z" fill="#FFC727"/>
<path d="M35.3964 163.942C35.3964 162.905 35.3374 161.862 35.298 160.826C35.2281 158.753 35.1537 156.68 35.075 154.607C34.9504 150.822 34.5305 147.109 32.9824 143.606C31.5956 140.438 29.2781 137.766 26.3374 135.945C25.2403 135.275 24.0545 134.762 22.8148 134.423C21.7024 133.293 20.2842 132.513 18.7346 132.179C16.8208 131.79 14.8534 131.741 12.9227 132.035C12.9111 132.039 12.9011 132.046 12.894 132.056C12.8869 132.066 12.883 132.078 12.883 132.091C12.883 132.103 12.8869 132.115 12.894 132.125C12.9011 132.135 12.9111 132.142 12.9227 132.146C14.7625 131.907 16.6317 132.039 18.4198 132.533C19.1864 132.746 19.9293 133.036 20.637 133.399C21.094 133.637 21.5326 133.909 21.9489 134.213C19.6718 133.709 17.2941 133.926 15.1464 134.836C14.6941 134.738 14.2312 134.698 13.7689 134.718C13.1644 134.737 12.5638 134.823 11.9781 134.974C10.7824 135.311 9.63892 135.813 8.58012 136.463C8.52108 136.496 8.58012 136.587 8.63916 136.555C9.68009 135.986 10.795 135.564 11.9518 135.302C12.5134 135.176 13.0835 135.093 13.6574 135.052C13.9769 135.044 14.2965 135.053 14.6151 135.079C12.2622 136.168 10.3707 138.055 9.27545 140.405C9.27545 140.471 9.34105 140.523 9.36729 140.458C10.0194 139.095 10.9702 137.897 12.149 136.952C13.3278 136.007 14.7043 135.34 16.1763 135C16.36 134.954 16.5437 134.928 16.7339 134.895C16.6671 135.172 16.6167 135.452 16.583 135.735C16.5306 136.154 16.4584 136.568 16.3731 136.981C16.2069 137.836 15.9878 138.679 15.7171 139.506C15.4359 140.341 15.1007 141.156 14.7135 141.947C14.3433 142.787 13.8742 143.579 13.3163 144.308C13.2638 144.367 13.3622 144.439 13.4015 144.374C13.9001 143.593 14.4773 142.878 14.93 142.071C15.3701 141.302 15.7495 140.499 16.0648 139.67C16.3812 138.833 16.627 137.971 16.7995 137.092C16.8913 136.627 16.9635 136.161 17.016 135.689C17.0726 135.408 17.0903 135.121 17.0684 134.836C18.041 134.686 19.029 134.664 20.0072 134.77C19.6399 136.83 19.2463 138.969 18.0918 140.753C18.0524 140.812 18.1574 140.871 18.1902 140.805C18.728 139.859 19.2014 138.877 19.6071 137.867C19.9893 136.887 20.2279 135.857 20.3155 134.81C22.0229 135.036 23.6708 135.588 25.1698 136.436C27.9926 138.079 30.2468 140.543 31.6311 143.501C33.0849 146.688 33.8984 150.129 34.0254 153.63C34.3009 158.038 34.36 162.466 34.7995 166.854C34.7995 167.143 35.2783 167.241 35.3374 166.913C35.4507 165.927 35.4705 164.932 35.3964 163.942Z" fill="#263238"/>
<path d="M25.7149 135.262C25.4362 134.928 25.1141 134.632 24.7572 134.383C24.4161 134.101 24.0619 133.826 23.6945 133.576C22.9701 133.07 22.1649 132.691 21.3133 132.455C21.2478 132.455 21.2215 132.546 21.3133 132.56C22.1645 132.792 22.9562 133.204 23.6355 133.767C23.9897 134.022 24.2915 134.298 24.6523 134.587C24.9427 134.892 25.2661 135.165 25.6166 135.4C25.6348 135.413 25.6575 135.418 25.6797 135.415C25.7018 135.411 25.7216 135.399 25.7346 135.38C25.7477 135.362 25.7529 135.339 25.7492 135.317C25.7456 135.295 25.7332 135.275 25.7149 135.262Z" fill="#263238"/>
<path d="M12.3398 138.358C11.6454 139.165 11.0034 140.015 10.4178 140.904C9.84167 141.795 9.36228 142.745 8.98779 143.737C8.98779 143.77 8.98779 143.783 9.03371 143.737C9.99222 141.862 11.1255 140.08 12.4186 138.417C12.4645 138.411 12.3792 138.358 12.3398 138.358Z" fill="#263238"/>
<path d="M21.3522 137.532C21.264 138.071 21.1052 138.596 20.8799 139.093C20.649 139.572 20.3815 140.033 20.0796 140.471C20.0796 140.471 20.0796 140.53 20.1321 140.51C20.8511 139.677 21.3076 138.65 21.444 137.558C21.4703 137.493 21.3653 137.466 21.3522 137.532Z" fill="#263238"/>
<path d="M34.813 141.245C34.813 141.245 40.7168 133.786 52.2029 136.43C63.0856 138.942 68.1103 158.904 57.1096 161.291C46.1089 163.679 48.0506 145.207 44.0426 142.071C41.0972 139.775 36.8662 140.267 34.813 141.245Z" fill="#FFC727"/>
<path d="M61.0456 147.332C60.3009 146.675 59.5119 146.07 58.6841 145.522C57.9097 144.988 57.0639 144.566 56.1717 144.269C55.7258 143.589 55.2256 142.946 54.6761 142.347C53.6685 141.26 52.5032 140.331 51.2191 139.592H51.5602C52.1655 139.559 52.772 139.559 53.3773 139.592C54.5993 139.669 55.7973 139.966 56.913 140.471C56.9786 140.471 57.0245 140.399 56.9589 140.372C55.8267 139.885 54.6427 139.529 53.4297 139.31C52.8386 139.205 52.2393 139.152 51.6389 139.152C51.3175 139.152 50.983 139.152 50.6812 139.211H50.4975C49.4536 138.684 48.3533 138.277 47.2176 137.998L47.5391 137.912C48.1001 137.789 48.6672 137.695 49.2381 137.63C50.3779 137.51 51.5285 137.534 52.6623 137.703C52.7344 137.703 52.7541 137.604 52.6623 137.598C51.5132 137.46 50.355 137.414 49.1987 137.46C48.2284 137.484 47.2632 137.609 46.319 137.834C45.6298 137.707 44.9329 137.626 44.233 137.591C40.2381 137.427 35.8824 138.903 33.4225 142.183C30.9626 145.463 30.4837 149.851 30.0508 153.82C29.3799 159.341 29.2327 164.913 29.6112 170.462C29.6112 170.79 30.0967 170.731 30.1098 170.423C30.2607 165.713 30.4247 161.009 30.8773 156.319C31.0806 154.141 31.3168 151.963 31.6776 149.812C31.9398 147.961 32.4701 146.157 33.2519 144.459C34.1005 142.719 35.4478 141.271 37.1222 140.3C38.7995 139.342 40.6675 138.767 42.593 138.614C44.3225 138.472 46.0635 138.637 47.7359 139.1C47.6837 139.435 47.6837 139.775 47.7359 140.11C47.7758 140.535 47.8594 140.955 47.9851 141.363C48.112 141.746 48.2723 142.117 48.464 142.472C48.6805 142.865 48.9429 143.219 49.1856 143.593C49.1856 143.652 49.3168 143.593 49.2709 143.528C48.8008 142.856 48.4972 142.083 48.3853 141.271C48.3128 140.885 48.2668 140.495 48.2475 140.103C48.2475 139.808 48.2475 139.513 48.2475 139.218C50.0654 139.771 51.7632 140.662 53.2526 141.842C53.5281 142.065 53.7971 142.301 54.0595 142.544C53.6806 142.891 53.3536 143.291 53.0886 143.731C52.6713 144.31 52.3089 144.928 52.0063 145.574C51.476 146.848 51.1186 148.187 50.9436 149.556C50.9476 149.568 50.9552 149.578 50.9651 149.585C50.9751 149.592 50.9871 149.596 50.9994 149.596C51.0116 149.596 51.0236 149.592 51.0336 149.585C51.0435 149.578 51.0511 149.568 51.0551 149.556C51.2703 148.232 51.7142 146.956 52.3671 145.784C52.6715 145.204 53.011 144.643 53.3838 144.105C53.5806 143.829 53.7774 143.554 53.9873 143.291C54.0988 143.154 54.2235 143.009 54.3284 142.852C55.6753 144.177 56.7749 145.732 57.5755 147.444C57.032 148.015 56.5786 148.665 56.2308 149.372C55.819 150.111 55.4616 150.878 55.1615 151.668C54.6056 153.192 54.1476 154.75 53.7905 156.332C53.7946 156.344 53.8021 156.354 53.8121 156.361C53.8221 156.368 53.834 156.372 53.8463 156.372C53.8585 156.372 53.8705 156.368 53.8805 156.361C53.8905 156.354 53.898 156.344 53.902 156.332C54.2518 154.741 54.796 153.199 55.5223 151.74C55.8634 151.025 56.2308 150.317 56.6112 149.622C57.0058 148.975 57.3649 148.307 57.687 147.621C58.4512 149.29 58.8962 151.088 58.999 152.921C58.999 152.993 59.1105 152.987 59.1105 152.921C58.8991 150.044 58.0185 147.257 56.5391 144.781C57.2344 145.076 57.9363 145.364 58.612 145.725C59.4713 146.183 60.271 146.745 60.9931 147.398C61.0259 147.463 61.0981 147.378 61.0456 147.332Z" fill="#263238"/>
<path d="M59.8782 144.951C59.4271 144.515 58.9143 144.149 58.3563 143.862C57.7907 143.608 57.2049 143.402 56.6049 143.246C56.5393 143.246 56.513 143.337 56.6049 143.351C57.1952 143.506 57.7621 143.74 58.2907 144.046C58.8342 144.326 59.3561 144.646 59.8519 145.004C59.8782 145.03 59.9372 144.977 59.8782 144.951Z" fill="#263238"/>
<path d="M40.4546 131.28C40.4546 131.28 41.5501 117.885 51.5078 113.569C59.8256 109.942 64.588 119.289 58.7235 125.009C53.9743 129.614 46.3256 127.522 40.4546 131.28Z" fill="#FFC727"/>
<path d="M56.8673 116.134C55.3518 116.747 53.8733 117.448 52.4395 118.233C51.2444 118.92 50.0941 119.683 48.9956 120.516C49.1596 120.181 49.3039 119.821 49.4744 119.493C49.7307 118.973 50.0132 118.468 50.3206 117.977C50.9311 116.964 51.6672 116.031 52.5116 115.202C52.5641 115.15 52.5116 115.078 52.4329 115.124C51.5937 115.958 50.8216 116.857 50.1239 117.813C49.7792 118.299 49.4638 118.805 49.1792 119.329C48.8877 119.808 48.6668 120.327 48.5233 120.87C48.4839 120.903 48.4446 120.923 48.4118 120.955C46.6733 122.341 45.0798 123.899 43.6559 125.606C43.6559 125.475 43.7084 125.344 43.7412 125.226C43.9314 124.57 44.1348 123.914 44.3447 123.258C44.7707 121.872 45.3772 120.549 46.1486 119.322C46.188 119.263 46.0896 119.21 46.0502 119.27C45.2669 120.49 44.5699 121.763 43.9642 123.081C43.7007 123.721 43.4815 124.378 43.3083 125.049C43.1667 125.488 43.0592 125.938 42.9868 126.393C42.5539 126.944 42.1275 127.502 41.7208 128.073C37.4504 134.16 35.2988 141.52 34.7871 148.887C34.6352 151.085 34.5979 153.29 34.6756 155.493C34.6894 157.711 34.8846 159.925 35.2594 162.111C35.2594 162.249 35.5021 162.21 35.5021 162.072C35.4497 160.137 35.2529 158.208 35.2135 156.273C35.1742 154.338 35.2135 152.39 35.3972 150.455C35.7116 146.587 36.4417 142.765 37.575 139.054C38.7327 135.256 40.4387 131.647 42.6392 128.342C43.059 128.256 43.4723 128.145 43.8855 128.033C44.2988 127.922 44.8826 127.778 45.3746 127.64C46.332 127.397 47.2619 127.057 48.1494 126.623C48.1554 126.62 48.1607 126.615 48.1649 126.609C48.1692 126.604 48.1723 126.598 48.1741 126.591C48.176 126.584 48.1765 126.577 48.1756 126.57C48.1747 126.564 48.1725 126.557 48.169 126.551C48.1656 126.545 48.161 126.54 48.1555 126.535C48.15 126.531 48.1437 126.528 48.137 126.526C48.1303 126.524 48.1233 126.524 48.1165 126.525C48.1096 126.526 48.1029 126.528 48.0969 126.531C47.2164 127.008 46.2634 127.336 45.2762 127.502C44.5021 127.659 43.6887 127.758 42.9081 127.935C43.6297 126.885 44.3972 125.869 45.2237 124.891C47.1232 125.064 49.0381 124.922 50.8913 124.471C51.8763 124.232 52.8448 123.93 53.7908 123.566C54.7878 123.186 55.7587 122.687 56.7164 122.254C56.7951 122.221 56.7164 122.11 56.6771 122.149C54.8931 123.123 52.9453 123.762 50.9307 124.032C49.1535 124.314 47.3577 124.463 45.5583 124.478C46.2667 123.665 46.9948 122.871 47.7755 122.13C50.3994 119.637 53.4956 117.348 56.9591 116.154C56.9657 116.219 56.9329 116.108 56.8673 116.134Z" fill="#263238"/>
<path d="M48.7593 116.18C48.3103 116.745 47.9025 117.341 47.5392 117.964C47.1685 118.622 46.8736 119.32 46.6602 120.044H46.6995C47.0341 119.388 47.3161 118.732 47.6507 118.076C47.9814 117.432 48.3794 116.825 48.838 116.265C48.8839 116.2 48.8052 116.121 48.7593 116.18Z" fill="#263238"/>
<path d="M32.7072 128.873C32.6481 129.45 31.205 124.006 22.7822 119.178C15.1336 114.789 6.00237 103.369 13.5002 96.1595C19.5548 90.341 35.5016 103.028 32.7072 128.873Z" fill="#FFC727"/>
<path d="M38.5061 160.078C38.3903 154.412 37.9523 148.757 37.1941 143.14C36.53 137.981 35.3387 132.904 33.6387 127.987C32.9828 126.216 32.3268 124.471 31.5199 122.74C31.5726 122.072 31.5726 121.4 31.5199 120.732C31.474 119.873 31.3953 119.02 31.3166 118.167C31.2379 117.315 31.1526 116.455 31.0542 115.603C30.9558 114.75 30.7656 113.897 30.7328 113.044C30.7328 112.972 30.6081 112.985 30.6278 113.044C30.7941 113.939 30.895 114.844 30.9296 115.753C30.9951 116.58 31.0411 117.406 31.0673 118.24C31.0935 119.073 31.0673 119.893 31.0673 120.726C31.0673 121.021 31.0673 121.342 31.0673 121.657C30.2736 119.984 29.4274 118.338 28.509 116.731C29.0797 113.241 28.3384 109.594 27.6234 106.176C27.6234 106.111 27.5054 106.143 27.5185 106.209C27.8682 107.992 28.0549 109.804 28.0761 111.621C28.0761 113.057 28.0367 114.487 28.0367 115.924C27.8333 115.576 27.63 115.235 27.4201 114.894C26.3312 113.11 25.1657 111.361 23.9237 109.646C24.0255 108.818 23.999 107.98 23.845 107.16C23.7047 106.242 23.5009 105.334 23.2349 104.444C22.9685 103.555 22.6576 102.679 22.3035 101.821C21.9361 100.935 21.4507 100.095 21.0965 99.1966C21.0965 99.1244 20.9587 99.1966 20.9981 99.2425C21.4472 100.075 21.8014 100.955 22.0542 101.866C22.3323 102.728 22.5622 103.604 22.743 104.49C22.9201 105.382 23.0644 106.268 23.189 107.167C23.2743 107.757 23.3268 108.374 23.4252 108.971C21.6217 106.547 19.6488 104.254 17.5214 102.109C17.4755 102.057 17.4033 102.109 17.4492 102.188C20.6462 105.797 23.501 109.695 25.9769 113.831C26.0688 113.989 26.1606 114.146 26.2459 114.304C25.7867 114.015 25.2554 113.779 24.8159 113.536C24.0024 113.084 23.1825 112.638 22.3625 112.224L19.9747 110.912C19.568 110.683 19.1613 110.447 18.7481 110.256C18.2423 110.044 17.7552 109.789 17.2918 109.495C17.2328 109.45 17.1606 109.548 17.2262 109.587C18.0396 110.033 18.7546 110.696 19.5418 111.194C20.329 111.693 21.1293 112.178 21.9427 112.631C23.4383 113.471 25.0651 114.068 26.5345 114.933C27.5578 116.724 28.5024 118.561 29.3683 120.431C28.4762 119.853 27.5578 119.315 26.6329 118.791C26.036 118.456 25.439 118.135 24.8355 117.813C24.2339 117.533 23.6661 117.185 23.1431 116.777C23.0906 116.731 23.0185 116.777 23.0644 116.855C24.0462 117.74 25.1349 118.498 26.3049 119.112C27.3873 119.768 28.4762 120.352 29.5848 120.903C30.4857 122.875 31.2969 124.885 32.0185 126.931C35.5673 136.968 36.8661 147.621 37.4893 158.208C37.6795 161.363 37.7714 164.512 37.8107 167.674C37.8501 170.836 37.6861 173.984 37.6927 177.133C37.6927 177.232 37.8435 177.251 37.8567 177.133C38.2371 174.339 38.3027 171.492 38.4274 168.671C38.552 165.85 38.5717 162.944 38.5061 160.078Z" fill="#263238"/>
<path d="M23.2024 114.638C21.666 113.957 20.172 113.184 18.7287 112.323C17.2655 111.499 15.8466 110.599 14.4779 109.627C14.4779 109.627 14.432 109.627 14.4779 109.666C15.7696 110.708 17.1306 111.662 18.5515 112.52C20.0336 113.357 21.5673 114.1 23.1434 114.743C23.2155 114.743 23.268 114.665 23.2024 114.638Z" fill="#263238"/>
<path d="M25.6424 103.29C25.5178 102.798 25.3669 102.319 25.2029 101.84C25.2075 101.832 25.21 101.823 25.21 101.814C25.21 101.805 25.2075 101.796 25.2029 101.788C25.098 101.512 24.9864 101.243 24.8749 100.974L24.8356 100.876C24.8356 100.823 24.7897 100.777 24.77 100.725C24.7372 100.725 24.7503 100.673 24.77 100.725C24.8028 100.725 24.8225 100.909 24.8553 101.007C24.8654 101.058 24.8785 101.108 24.8946 101.158C25.4506 103.029 25.8672 104.939 26.141 106.871C26.141 106.931 26.2394 106.931 26.2394 106.871C26.155 105.661 25.9551 104.462 25.6424 103.29Z" fill="#263238"/>
<path d="M47.4075 162.111L46.804 169.235L44.9673 190.961H25.2552L23.4184 169.235L22.8149 162.111H47.4075Z" fill="#37474F"/>
<path d="M47.4075 162.111L46.804 169.235H23.4184L22.8149 162.111H47.4075Z" fill="#263238"/>
<path d="M49.343 159.258H20.8867V166.093H49.343V159.258Z" fill="#37474F"/>
<path d="M0 190.961L53.18 190.804L106.36 190.745L212.72 190.633L319.08 190.745L372.26 190.804L425.44 190.961L372.26 191.125L319.08 191.178L212.72 191.289L106.36 191.178L53.18 191.118L0 190.961Z" fill="#263238"/>
<path d="M366.843 0H57.4912V206.934H366.843V0Z" fill="#EBEBEB"/>
<path d="M364.593 2.52539H59.7412V204.409H364.593V2.52539Z" fill="#263238"/>
<path d="M407.133 222.448H17.2012V236.65H407.133V222.448Z" fill="#DBDBDB"/>
<path d="M17.2012 222.448L57.4978 206.934H366.843L407.14 222.448H17.2012Z" fill="#EBEBEB"/>
<path d="M61.0928 216.945L87.0957 206.934H337.246L363.249 216.945H61.0928Z" fill="#263238"/>
<path d="M347.374 17.8623H76.9736V189.072H347.374V17.8623Z" fill="white"/>
<path d="M347.373 17.8623H76.7437V24.4483H347.373V17.8623Z" fill="#455A64"/>
<path d="M81.9787 21.1554C81.9787 21.4784 81.8829 21.7942 81.7034 22.0628C81.5239 22.3314 81.2688 22.5408 80.9704 22.6644C80.6719 22.788 80.3435 22.8204 80.0266 22.7574C79.7098 22.6943 79.4188 22.5388 79.1903 22.3103C78.9619 22.0819 78.8063 21.7909 78.7433 21.474C78.6803 21.1572 78.7126 20.8288 78.8362 20.5303C78.9599 20.2318 79.1692 19.9767 79.4378 19.7973C79.7065 19.6178 80.0222 19.522 80.3453 19.522C80.7785 19.522 81.194 19.6941 81.5003 20.0004C81.8066 20.3067 81.9787 20.7222 81.9787 21.1554Z" fill="#C7C7C7"/>
<path d="M88.6506 21.1551C88.6506 21.4782 88.5548 21.794 88.3753 22.0626C88.1958 22.3312 87.9407 22.5405 87.6422 22.6642C87.3438 22.7878 87.0154 22.8201 86.6985 22.7571C86.3817 22.6941 86.0906 22.5385 85.8622 22.3101C85.6338 22.0817 85.4782 21.7906 85.4152 21.4738C85.3522 21.1569 85.3845 20.8285 85.5081 20.5301C85.6317 20.2316 85.8411 19.9765 86.1097 19.797C86.3783 19.6175 86.6941 19.5217 87.0172 19.5217C87.2319 19.5209 87.4447 19.5625 87.6433 19.6443C87.8418 19.7261 88.0222 19.8464 88.1741 19.9982C88.3259 20.1501 88.4462 20.3305 88.528 20.529C88.6098 20.7276 88.6514 20.9404 88.6506 21.1551Z" fill="white"/>
<path d="M95.3019 21.1551C95.3019 21.4782 95.2061 21.794 95.0266 22.0626C94.8472 22.3312 94.5921 22.5405 94.2936 22.6642C93.9951 22.7878 93.6667 22.8201 93.3499 22.7571C93.033 22.6941 92.742 22.5385 92.5136 22.3101C92.2851 22.0817 92.1296 21.7906 92.0665 21.4738C92.0035 21.1569 92.0359 20.8285 92.1595 20.5301C92.2831 20.2316 92.4925 19.9765 92.7611 19.797C93.0297 19.6175 93.3455 19.5217 93.6685 19.5217C93.8833 19.5209 94.0961 19.5625 94.2946 19.6443C94.4932 19.7261 94.6736 19.8464 94.8255 19.9982C94.9773 20.1501 95.0976 20.3305 95.1794 20.529C95.2611 20.7276 95.3028 20.9404 95.3019 21.1551Z" fill="#FFC727"/>
<path d="M347.374 24.4482H342.572V189.065H347.374V24.4482Z" fill="#DBDBDB"/>
<path d="M344.966 81.5182C344.637 81.5182 344.322 81.3876 344.089 81.1551C343.857 80.9226 343.726 80.6073 343.726 80.2785V26.6524C343.726 26.3236 343.857 26.0082 344.089 25.7757C344.322 25.5432 344.637 25.4126 344.966 25.4126C345.295 25.4126 345.61 25.5432 345.843 25.7757C346.075 26.0082 346.206 26.3236 346.206 26.6524V80.2785C346.206 80.6073 346.075 80.9226 345.843 81.1551C345.61 81.3876 345.295 81.5182 344.966 81.5182Z" fill="#A6A6A6"/>
<path d="M309.529 67.1455H115.911V96.4939H309.529V67.1455Z" fill="white"/>
<path d="M309.857 96.8154H115.583V66.8176H309.857V96.8154ZM116.239 96.1594H309.201V67.4736H116.239V96.1594Z" fill="#DBDBDB"/>
<path d="M133.006 75.0959C133.382 76.1844 133.64 77.3105 133.773 78.4545C134.057 80.6868 134.057 82.9461 133.773 85.1783C133.637 86.3224 133.377 87.4485 132.999 88.5369C132.618 87.4494 132.358 86.323 132.225 85.1783C131.945 82.9458 131.945 80.6871 132.225 78.4545C132.366 77.3106 132.628 76.1848 133.006 75.0959Z" fill="#37474F"/>
<path d="M139.723 81.8132C138.636 82.2002 137.51 82.4642 136.364 82.6003C135.25 82.7421 134.128 82.8122 133.005 82.8103C131.883 82.8157 130.76 82.7456 129.647 82.6003C128.5 82.4678 127.371 82.2082 126.282 81.8263C127.373 81.4506 128.501 81.1911 129.647 81.0522C130.761 80.9103 131.883 80.8402 133.005 80.8423C134.128 80.8458 135.25 80.9181 136.364 81.0588C137.508 81.1873 138.634 81.4403 139.723 81.8132Z" fill="#37474F"/>
<path d="M137.755 77.064C137.251 78.0999 136.638 79.0786 135.924 79.9831C135.239 80.8728 134.497 81.7164 133.701 82.5086C132.907 83.3051 132.064 84.0501 131.175 84.7389C130.268 85.4521 129.288 86.0657 128.25 86.5691C128.753 85.531 129.366 84.5501 130.08 83.6434C130.768 82.7548 131.513 81.9113 132.31 81.1179C133.105 80.3252 133.949 79.5826 134.836 78.8941C135.741 78.1824 136.719 77.5688 137.755 77.064Z" fill="#37474F"/>
<path d="M137.755 86.569C136.72 86.0641 135.741 85.4506 134.836 84.7388C133.947 84.05 133.104 83.3051 132.31 82.5085C131.507 81.7151 130.758 80.8692 130.067 79.9764C129.354 79.0697 128.74 78.0888 128.237 77.0508C129.276 77.5518 130.257 78.1655 131.162 78.881C132.943 80.2565 134.539 81.8548 135.912 83.6368C136.63 84.5447 137.248 85.5279 137.755 86.569Z" fill="#37474F"/>
<path d="M159.206 75.0959C159.583 76.1844 159.84 77.3105 159.973 78.4545C160.114 79.5686 160.186 80.6902 160.19 81.8131C160.192 82.9382 160.122 84.0622 159.98 85.1783C159.84 86.3219 159.581 87.4476 159.206 88.5369C158.825 87.4494 158.565 86.323 158.432 85.1783C158.287 84.0625 158.217 82.9383 158.222 81.8131C158.22 80.6903 158.29 79.5684 158.432 78.4545C158.568 77.3103 158.827 76.1842 159.206 75.0959Z" fill="#37474F"/>
<path d="M165.922 81.8134C164.835 82.1952 163.709 82.4548 162.564 82.5874C161.45 82.729 160.328 82.7991 159.205 82.7973C158.08 82.8026 156.956 82.7324 155.84 82.5874C154.695 82.4541 153.569 82.1945 152.481 81.8134C153.571 81.4384 154.696 81.179 155.84 81.0393C156.956 80.8975 158.08 80.8274 159.205 80.8294C160.328 80.833 161.45 80.9053 162.564 81.0459C163.708 81.1793 164.834 81.4367 165.922 81.8134Z" fill="#37474F"/>
<path d="M163.955 77.064C163.451 78.0999 162.838 79.0786 162.125 79.9831C161.44 80.8728 160.697 81.7164 159.901 82.5086C159.107 83.3051 158.264 84.0501 157.375 84.7389C156.469 85.4521 155.488 86.0657 154.45 86.5691C154.953 85.531 155.567 84.5501 156.28 83.6434C156.969 82.7548 157.714 81.9113 158.51 81.1179C159.302 80.322 160.146 79.5792 161.036 78.8941C161.94 78.181 162.919 77.5673 163.955 77.064Z" fill="#37474F"/>
<path d="M163.955 86.569C162.919 86.0656 161.94 85.452 161.036 84.7388C160.144 84.0534 159.301 83.3082 158.51 82.5085C157.721 81.7138 156.985 80.868 156.306 79.9764C155.593 79.0697 154.979 78.0888 154.476 77.0508C155.515 77.5518 156.497 78.1655 157.402 78.881C159.182 80.2565 160.778 81.8548 162.151 83.6368C162.856 84.5466 163.461 85.5297 163.955 86.569Z" fill="#37474F"/>
<path d="M185.399 75.0959C185.78 76.1833 186.04 77.3098 186.173 78.4545C186.314 79.5684 186.384 80.6903 186.382 81.8131C186.388 82.9383 186.318 84.0625 186.173 85.1783C186.039 86.323 185.78 87.4494 185.399 88.5369C185.023 87.4483 184.765 86.3222 184.631 85.1783C184.487 84.0624 184.415 82.9383 184.415 81.8131C184.418 80.6902 184.49 79.5686 184.631 78.4545C184.765 77.3105 185.022 76.1844 185.399 75.0959Z" fill="#37474F"/>
<path d="M192.123 81.8133C191.035 82.1945 189.909 82.4541 188.764 82.5874C187.648 82.7292 186.524 82.7993 185.399 82.7973C184.276 82.8024 183.154 82.7322 182.04 82.5874C180.895 82.4548 179.769 82.1951 178.682 81.8133C179.771 81.4377 180.897 81.1782 182.04 81.0393C183.154 80.8977 184.276 80.8276 185.399 80.8294C186.524 80.8329 187.648 80.9052 188.764 81.0459C189.908 81.18 191.034 81.4374 192.123 81.8133Z" fill="#37474F"/>
<path d="M190.155 77.064C189.651 78.0999 189.038 79.0786 188.324 79.9831C187.639 80.8728 186.896 81.7164 186.101 82.5086C185.307 83.3051 184.464 84.0501 183.575 84.7389C182.668 85.4521 181.687 86.0657 180.649 86.5691C181.15 85.5297 181.764 84.5486 182.48 83.6434C183.168 82.7565 183.911 81.913 184.703 81.1179C185.499 80.3236 186.345 79.5808 187.235 78.8941C188.14 78.181 189.119 77.5673 190.155 77.064Z" fill="#37474F"/>
<path d="M190.155 86.569C189.119 86.0656 188.14 85.452 187.235 84.7388C186.343 84.0518 185.498 83.3067 184.703 82.5085C183.909 81.7129 183.166 80.8671 182.48 79.9764C181.764 79.0712 181.15 78.0901 180.649 77.0508C181.689 77.5518 182.67 78.1655 183.575 78.881C185.355 80.2565 186.951 81.8548 188.324 83.6368C189.038 84.5454 189.652 85.5285 190.155 86.569Z" fill="#37474F"/>
<path d="M211.598 75.0959C211.977 76.1842 212.237 77.3103 212.372 78.4545C212.652 80.6871 212.652 82.9458 212.372 85.1783C212.239 86.323 211.979 87.4494 211.598 88.5369C211.22 87.4485 210.961 86.3224 210.824 85.1783C210.682 84.0622 210.612 82.9382 210.614 81.8131C210.618 80.6902 210.69 79.5686 210.831 78.4545C210.964 77.3105 211.222 76.1844 211.598 75.0959Z" fill="#37474F"/>
<path d="M218.322 81.8133C217.234 82.1945 216.108 82.4541 214.963 82.5874C213.847 82.7292 212.723 82.7993 211.598 82.7973C210.475 82.8024 209.353 82.7322 208.239 82.5874C207.095 82.4548 205.968 82.1951 204.881 81.8133C205.97 81.4377 207.096 81.1782 208.239 81.0393C209.353 80.8977 210.475 80.8276 211.598 80.8294C212.723 80.8329 213.847 80.9052 214.963 81.0459C216.107 81.18 217.233 81.4374 218.322 81.8133Z" fill="#37474F"/>
<path d="M216.354 77.064C215.851 78.0999 215.237 79.0786 214.524 79.9831C213.837 80.8728 213.092 81.7165 212.294 82.5086C211.503 83.3083 210.66 84.0535 209.768 84.7389C208.864 85.4521 207.885 86.0657 206.849 86.5691C207.348 85.5283 207.961 84.5469 208.679 83.6434C209.366 82.7549 210.109 81.9114 210.903 81.1179C211.698 80.3252 212.542 79.5826 213.429 78.8941C214.336 78.1823 215.317 77.5688 216.354 77.064Z" fill="#37474F"/>
<path d="M216.354 86.5691C215.317 86.0642 214.336 85.4507 213.429 84.7389C212.54 84.0501 211.696 83.3051 210.903 82.5086C210.107 81.7189 209.364 80.8774 208.679 79.9896C207.961 79.0861 207.348 78.1047 206.849 77.064C207.886 77.5649 208.865 78.1787 209.768 78.8941C210.659 79.5773 211.503 80.3203 212.294 81.1179C213.09 81.9137 213.835 82.7595 214.524 83.65C215.237 84.5544 215.851 85.5331 216.354 86.5691Z" fill="#37474F"/>
<path d="M237.798 75.0959C238.173 76.1851 238.433 77.3109 238.572 78.4545C238.852 80.6871 238.852 82.9458 238.572 85.1783C238.439 86.323 238.179 87.4494 237.798 88.5369C237.42 87.4485 237.16 86.3224 237.024 85.1783C236.739 82.9461 236.739 80.6868 237.024 78.4545C237.159 77.3103 237.419 76.1841 237.798 75.0959Z" fill="#37474F"/>
<path d="M244.522 81.8134C243.432 82.1952 242.304 82.4548 241.157 82.5874C240.043 82.7294 238.921 82.7995 237.798 82.7973C236.675 82.8026 235.553 82.7324 234.439 82.5874C233.297 82.455 232.172 82.1954 231.087 81.8134C232.176 81.437 233.302 81.1775 234.446 81.0393C235.56 80.8975 236.682 80.8274 237.805 80.8294C238.928 80.8327 240.049 80.905 241.163 81.0459C242.307 81.1798 243.433 81.4371 244.522 81.8134Z" fill="#37474F"/>
<path d="M242.554 77.064C242.051 78.1015 241.435 79.0804 240.717 79.9831C239.339 81.7609 237.744 83.3587 235.968 84.7389C235.063 85.4521 234.085 86.0657 233.049 86.5691C233.547 85.5283 234.161 84.5469 234.879 83.6434C235.566 82.7549 236.308 81.9114 237.103 81.1179C237.898 80.3252 238.741 79.5826 239.628 78.8941C240.535 78.1809 241.516 77.5673 242.554 77.064Z" fill="#37474F"/>
<path d="M242.554 86.5691C241.516 86.0657 240.535 85.4521 239.628 84.7389C238.74 84.0501 237.896 83.3051 237.103 82.5086C236.307 81.7189 235.564 80.8774 234.879 79.9896C234.161 79.0861 233.547 78.1047 233.049 77.064C234.086 77.5649 235.065 78.1787 235.968 78.8941C236.859 79.5773 237.703 80.3203 238.493 81.1179C239.29 81.9121 240.032 82.758 240.717 83.65C241.435 84.5526 242.051 85.5315 242.554 86.5691Z" fill="#37474F"/>
<path d="M263.998 75.0959C264.375 76.1844 264.632 77.3105 264.765 78.4545C265.05 80.6868 265.05 82.9461 264.765 85.1783C264.629 86.3224 264.369 87.4485 263.991 88.5369C263.61 87.4494 263.351 86.323 263.217 85.1783C262.937 82.9458 262.937 80.6871 263.217 78.4545C263.358 77.3106 263.62 76.1848 263.998 75.0959Z" fill="#37474F"/>
<path d="M270.715 81.8134C269.628 82.1959 268.501 82.4555 267.356 82.5874C266.242 82.7292 265.121 82.7993 263.998 82.7973C262.875 82.8028 261.753 82.7327 260.639 82.5874C259.492 82.4548 258.364 82.1952 257.274 81.8134C258.365 81.4376 259.493 81.1782 260.639 81.0393C261.753 80.8973 262.875 80.8272 263.998 80.8294C265.121 80.8329 266.242 80.9052 267.356 81.0459C268.5 81.1786 269.627 81.436 270.715 81.8134Z" fill="#37474F"/>
<path d="M268.747 77.064C268.248 78.1026 267.634 79.0819 266.916 79.9831C266.233 80.8743 265.49 81.7181 264.693 82.5086C263.899 83.3051 263.056 84.0501 262.167 84.7389C261.262 85.4507 260.283 86.0642 259.248 86.5691C259.747 85.5299 260.358 84.5487 261.072 83.6434C262.452 81.8675 264.05 80.2719 265.827 78.8941C266.733 78.1824 267.711 77.5688 268.747 77.064Z" fill="#37474F"/>
<path d="M268.747 86.5691C267.711 86.0642 266.733 85.4507 265.827 84.7389C264.054 83.3565 262.456 81.7615 261.072 79.9896C260.358 79.0843 259.747 78.1032 259.248 77.064C260.285 77.5664 261.263 78.1801 262.167 78.8941C263.056 79.5807 263.899 80.3235 264.693 81.1179C265.489 81.9121 266.232 82.758 266.916 83.65C267.634 84.5512 268.248 85.5304 268.747 86.5691Z" fill="#37474F"/>
<path d="M245.827 75.8832V111.608H235.731V75.8832C235.731 62.2979 225.413 51.2513 212.719 51.2513C200.026 51.2513 189.708 62.2979 189.708 75.8832V111.608H179.612V75.8832C179.612 56.4269 194.464 40.6179 212.719 40.6179C230.975 40.6179 245.827 56.4269 245.827 75.8832Z" fill="#455A64"/>
<path d="M179.612 85.1719L189.708 85.5786V111.608H179.612V85.1719Z" fill="#263238"/>
<path d="M245.826 87.8679V111.608H235.731V87.4546L245.826 87.8679Z" fill="#263238"/>
<path d="M258.769 91.2659H166.677V174.818H258.769V91.2659Z" fill="#FFC727"/>
<path opacity="0.1" d="M258.763 91.2659H212.72V174.818H258.763V91.2659Z" fill="black"/>
<path d="M216.616 136.102L220.466 154.384H204.106L207.964 136.102C206.455 135.162 205.294 133.757 204.656 132.098C204.017 130.44 203.936 128.618 204.425 126.91C204.914 125.201 205.946 123.698 207.365 122.628C208.784 121.558 210.513 120.979 212.29 120.979C214.067 120.979 215.796 121.558 217.215 122.628C218.634 123.698 219.665 125.201 220.154 126.91C220.643 128.618 220.562 130.44 219.924 132.098C219.285 133.757 218.124 135.162 216.616 136.102Z" fill="#263238"/>
<path d="M185.97 136.069C185.97 136.069 181.155 174.614 173.244 183.299C163.746 193.703 156.845 192.181 153.014 197.547C149.183 192.175 142.289 193.703 132.777 183.293C124.866 174.614 120.058 136.062 120.058 136.062C140.905 125.947 153.027 114.605 153.027 114.605C153.388 114.96 165.445 126.111 185.97 136.069Z" fill="#EBEBEB"/>
<path d="M153.027 114.612V197.541C149.196 192.168 142.301 193.696 132.79 183.286C124.879 174.608 120.07 136.056 120.07 136.056C140.904 125.947 153.027 114.605 153.027 114.605V114.612Z" fill="#DBDBDB"/>
<path d="M180.86 139.178C180.86 139.178 176.793 171.734 170.108 179.068C162.073 187.871 156.248 186.579 153.007 191.112C149.767 186.579 143.942 187.871 135.912 179.068C129.228 171.734 125.167 139.178 125.167 139.178C142.78 130.651 153.007 121.041 153.007 121.041C153.007 121.041 163.247 130.624 180.86 139.178Z" fill="#DBDBDB"/>
<path d="M125.174 139.178C125.174 139.178 129.241 171.734 135.925 179.068C143.948 187.865 149.747 186.579 153.027 191.099V121.054C152.705 121.342 142.531 130.756 125.174 139.178Z" fill="#C7C7C7"/>
<path d="M162.142 165.206C167.184 160.164 167.184 151.99 162.142 146.949C157.101 141.907 148.927 141.907 143.885 146.949C138.844 151.99 138.844 160.164 143.885 165.206C148.927 170.247 157.101 170.247 162.142 165.206Z" fill="#FFC727"/>
<path d="M151.545 164.466L145.792 158.484L147.924 156.43L151.092 159.73L157.928 149.248L160.407 150.861L151.545 164.466Z" fill="white"/>
<path d="M108.478 200.644L110.009 192.803L201.611 210.691C202.448 210.855 203.185 211.344 203.661 212.051C204.137 212.758 204.313 213.625 204.149 214.462L203.85 215.994C203.687 216.831 203.198 217.568 202.491 218.045C201.783 218.521 200.916 218.696 200.079 218.533L108.478 200.644Z" fill="#FFC727"/>
<path opacity="0.1" d="M110.002 192.794L108.469 200.643L119.53 202.803L121.063 194.954L110.002 192.794Z" fill="black"/>
<path d="M74.9653 182.794L72.2693 196.74C71.8131 199.078 71.822 201.483 72.2952 203.818C72.7685 206.152 73.697 208.371 75.0276 210.346C76.3583 212.322 78.065 214.016 80.0505 215.333C82.0359 216.649 84.2611 217.561 86.5991 218.017C88.937 218.473 91.3419 218.464 93.6764 217.991C96.011 217.518 98.2294 216.589 100.205 215.259C102.181 213.928 103.875 212.221 105.191 210.236C106.507 208.25 107.42 206.025 107.876 203.687L110.591 189.774C111.517 185.05 110.528 180.151 107.842 176.156C105.156 172.161 100.992 169.397 96.2682 168.471C91.5438 167.545 86.6453 168.535 82.6503 171.221C78.6552 173.907 75.8909 178.07 74.9653 182.794ZM104.871 186.277C104.064 190.417 100.45 193.401 95.9828 194.116C99.8531 196.471 102.083 200.584 101.27 204.724C100.194 210.26 94.087 213.737 87.6388 212.477C81.1905 211.218 76.8545 205.701 77.9369 200.171C78.7437 196.032 82.3582 193.047 86.8319 192.299C82.9551 189.958 80.7314 185.831 81.5382 181.692C82.6206 176.149 88.7146 172.686 95.1563 173.945C101.598 175.205 105.98 180.741 104.898 186.277H104.871Z" fill="#FFC727"/>
<path d="M110.689 189.26L107.776 204.177C107.619 204.981 108.144 205.759 108.947 205.916L109.655 206.055C110.459 206.211 111.238 205.687 111.395 204.884L114.308 189.966C114.465 189.163 113.94 188.384 113.137 188.227L112.429 188.089C111.625 187.932 110.846 188.456 110.689 189.26Z" fill="#FFC727"/>
<path d="M114.308 189.968L111.395 204.885C111.238 205.688 111.762 206.467 112.566 206.624L113.274 206.762C114.078 206.919 114.856 206.395 115.013 205.591L117.926 190.674C118.083 189.871 117.559 189.092 116.755 188.935L116.047 188.797C115.244 188.64 114.465 189.164 114.308 189.968Z" fill="#FFC727"/>
<path d="M179.718 203.051L182.447 203.582L183.989 195.658L186.324 196.111L185.517 200.243L188.239 200.775L189.046 196.642L191.113 197.042L189.833 203.576L192.562 204.114L193.841 197.58L196.767 198.151L195.068 206.875L197.797 207.407L199.502 198.682L202.271 199.227L200.093 210.378L175.717 205.616L177.888 194.464L181.26 195.12L179.718 203.051Z" fill="#FFC727"/>
<path d="M273.726 162.203L255.851 176.635C252.42 179.377 249.462 181.843 248.051 183.267C247.687 183.566 247.393 183.942 247.192 184.369C247.192 184.369 247.192 184.369 247.192 184.408C247.317 185.976 268.439 214.032 269.495 214.76C270.551 215.488 272.729 212.51 272.775 210.772C272.821 209.033 269.541 194.667 269.541 194.667L287.252 180.065L273.726 162.203Z" fill="#FFC4C0"/>
<path d="M259.499 173.689L255.832 176.648C252.401 179.39 249.443 181.856 248.032 183.28C247.703 183.612 247.415 183.982 247.173 184.382C247.173 184.382 247.173 184.382 247.173 184.421C247.297 185.989 268.42 214.045 269.476 214.773C270.532 215.501 272.71 212.523 272.756 210.785C272.802 209.046 269.522 194.68 269.522 194.68L273.287 191.722L259.499 173.689Z" fill="#EBEBEB"/>
<path d="M269.456 214.793C268.387 214.064 247.271 186.015 247.153 184.434C247.094 183.837 251.004 180.498 255.838 176.654L255.996 176.53L269.791 194.477L269.482 194.7C269.482 194.7 272.762 209.053 272.716 210.804C272.67 212.556 270.519 215.527 269.456 214.793Z" fill="#FFC727"/>
<path d="M270.302 213.658C266.858 208.843 252.519 189.747 248.747 185.247C248.694 185.247 248.747 185.208 248.747 185.247C252.027 190.095 266.55 209.079 270.256 213.697C270.309 213.796 270.381 213.796 270.302 213.658Z" fill="#263238"/>
<path d="M270.591 196.261C269.535 194.142 267.541 192.076 265.14 191.669C265.048 191.669 265.028 191.781 265.094 191.833C267.003 193.172 268.762 194.711 270.342 196.425C270.366 196.452 270.399 196.469 270.435 196.474C270.47 196.479 270.507 196.47 270.537 196.451C270.567 196.431 270.589 196.401 270.599 196.366C270.609 196.331 270.606 196.294 270.591 196.261Z" fill="#263238"/>
<path d="M270.794 198.216C269.738 196.091 267.737 194.031 265.343 193.624C265.251 193.624 265.231 193.742 265.29 193.788C267.199 195.127 268.958 196.666 270.538 198.38C270.549 198.397 270.563 198.411 270.579 198.423C270.596 198.434 270.614 198.442 270.634 198.447C270.653 198.451 270.673 198.451 270.693 198.448C270.713 198.444 270.731 198.437 270.748 198.426C270.765 198.415 270.779 198.401 270.791 198.385C270.802 198.369 270.81 198.35 270.815 198.331C270.819 198.311 270.819 198.291 270.816 198.271C270.812 198.252 270.805 198.233 270.794 198.216Z" fill="#263238"/>
<path d="M270.991 200.165C269.941 198.046 267.941 195.986 265.546 195.573C265.455 195.573 265.428 195.691 265.494 195.737C267.401 197.077 269.16 198.616 270.742 200.329C270.753 200.345 270.766 200.359 270.783 200.37C270.799 200.381 270.817 200.389 270.836 200.393C270.855 200.397 270.875 200.397 270.894 200.393C270.914 200.389 270.932 200.382 270.948 200.371C270.965 200.36 270.979 200.347 270.99 200.33C271.001 200.314 271.009 200.296 271.013 200.277C271.016 200.258 271.017 200.238 271.013 200.219C271.009 200.199 271.002 200.181 270.991 200.165Z" fill="#263238"/>
<path d="M283.37 145.003C282.104 151.255 256.173 176.188 256.173 176.188L274.252 197.055C274.252 197.055 311.065 160.32 309.143 146.499C307.47 134.488 289.464 86.1885 289.464 86.1885H268.748C268.748 86.1885 284.609 138.857 283.37 145.003Z" fill="#37474F"/>
<path d="M283.37 145.003C282.104 151.255 256.173 176.188 256.173 176.188L274.252 197.055C274.252 197.055 311.065 160.32 309.143 146.499C307.47 134.488 289.464 86.1885 289.464 86.1885H268.748C268.748 86.1885 284.609 138.857 283.37 145.003Z" fill="#37474F"/>
<path d="M276.305 192.096C273.904 189.105 274.639 189.931 272.205 186.966C271.011 185.516 263.172 175.998 261.821 174.837C261.821 174.837 261.742 174.837 261.762 174.89C262.667 176.418 270.67 185.799 271.89 187.229C274.383 190.141 273.701 189.282 276.22 192.168C276.272 192.221 276.351 192.148 276.305 192.096Z" fill="#263238"/>
<path d="M285.947 141.96C285.645 140.398 285.291 138.844 284.983 137.289C284.305 134.114 283.59 130.95 282.838 127.797C281.342 121.539 279.717 115.316 277.964 109.128C276.199 102.922 274.33 96.7235 272.172 90.636C271.909 89.8816 271.634 89.1338 271.358 88.386C271.358 88.3738 271.353 88.3622 271.345 88.3535C271.336 88.3449 271.324 88.3401 271.312 88.3401C271.3 88.3401 271.288 88.3449 271.28 88.3535C271.271 88.3622 271.266 88.3738 271.266 88.386C273.136 94.4866 275.058 100.567 276.803 106.694C278.548 112.821 280.155 118.948 281.677 125.114C282.438 128.21 283.146 131.32 283.841 134.429C284.183 135.957 284.497 137.492 284.838 139.021C285.243 140.576 285.535 142.159 285.711 143.757C285.758 145.271 285.332 146.761 284.491 148.021C283.71 149.293 282.798 150.487 281.913 151.688C280.142 154.089 263.257 172.909 262.712 173.42C262.666 173.46 262.712 173.519 262.778 173.479C265.041 171.446 279.368 155.938 281.185 153.538C282.09 152.35 282.962 151.15 283.809 149.93C284.67 148.829 285.364 147.606 285.868 146.302C286.267 144.885 286.294 143.39 285.947 141.96Z" fill="#263238"/>
<path d="M285.901 86.1885L282.136 135.616C278.541 118.699 268.748 86.1885 268.748 86.1885H285.901Z" fill="#263238"/>
<path d="M277.006 187.957C277.006 187.957 281.487 209.761 281.487 209.781C281.546 214.17 281.677 218.02 281.926 220.008C281.932 220.479 282.049 220.942 282.267 221.359C283.579 222.225 318.694 222.769 319.927 222.376C321.16 221.982 320.137 218.44 318.785 217.338C317.434 216.236 304.092 210.011 304.092 210.011L299.395 188.219L277.006 187.957Z" fill="#FFC4C0"/>
<path d="M319.96 222.435C318.733 222.829 283.619 222.284 282.3 221.418C282.086 220.999 281.97 220.537 281.959 220.067C281.956 220.054 281.956 220.04 281.959 220.027C281.704 218.06 281.579 214.202 281.513 209.807L280.739 206.009H303.246L304.125 210.089C304.125 210.089 317.474 216.315 318.832 217.423C320.19 218.532 321.2 222.048 319.96 222.435Z" fill="#EBEBEB"/>
<path d="M319.96 222.435C318.727 222.828 283.619 222.284 282.3 221.418C281.789 221.097 281.572 215.973 281.487 209.781V209.584L304.138 209.683V210.07C304.138 210.07 317.48 216.288 318.832 217.397C320.183 218.506 321.193 222.048 319.96 222.435Z" fill="#FFC727"/>
<path d="M319.586 221.07C313.682 220.834 289.785 220.414 283.92 220.651C283.874 220.651 283.874 220.683 283.92 220.69C289.778 221.051 313.662 221.254 319.586 221.169C319.71 221.162 319.71 221.077 319.586 221.07Z" fill="#263238"/>
<path d="M306.027 210.168C303.705 209.696 300.851 210.011 299.041 211.644C298.975 211.703 299.041 211.801 299.139 211.782C301.377 211.099 303.682 210.659 306.014 210.47C306.033 210.471 306.053 210.468 306.072 210.461C306.09 210.454 306.108 210.444 306.122 210.43C306.137 210.417 306.149 210.401 306.157 210.383C306.165 210.365 306.17 210.345 306.171 210.325C306.172 210.306 306.169 210.286 306.162 210.267C306.155 210.249 306.145 210.231 306.131 210.217C306.118 210.202 306.102 210.19 306.084 210.182C306.066 210.174 306.047 210.169 306.027 210.168Z" fill="#263238"/>
<path d="M307.686 211.204C305.371 210.732 302.511 211.047 300.707 212.68C300.641 212.746 300.707 212.844 300.805 212.818C303.041 212.136 305.343 211.696 307.673 211.506C307.713 211.508 307.752 211.494 307.782 211.467C307.811 211.44 307.829 211.402 307.83 211.362C307.832 211.322 307.818 211.283 307.791 211.253C307.764 211.224 307.726 211.206 307.686 211.204Z" fill="#263238"/>
<path d="M309.353 212.248C307.031 211.775 304.177 212.09 302.374 213.717C302.301 213.782 302.373 213.881 302.472 213.861C304.708 213.182 307.011 212.742 309.34 212.549C309.36 212.55 309.38 212.547 309.398 212.54C309.417 212.533 309.434 212.523 309.449 212.51C309.463 212.496 309.475 212.48 309.483 212.462C309.492 212.444 309.497 212.425 309.497 212.405C309.498 212.385 309.495 212.365 309.488 212.347C309.482 212.328 309.471 212.311 309.458 212.296C309.444 212.282 309.428 212.27 309.41 212.262C309.392 212.253 309.373 212.248 309.353 212.248Z" fill="#263238"/>
<path d="M287.502 86.1887C286.694 89.599 286.098 93.0561 285.718 96.54C285.291 100.883 284.747 104.727 284.17 105.205C283.592 105.684 280.234 107.829 279.132 108.485C279.132 108.485 289.352 139.474 291.989 149.812C295.813 164.781 304.971 209.709 304.971 209.709H280.568C280.568 209.709 273.149 166.946 269.902 152.685C267.121 140.464 256.468 103.802 256.468 103.802C255.344 100.975 254.839 97.9403 254.987 94.902C255.135 91.8637 255.933 88.8925 257.327 86.1887C257.327 86.1887 287.502 86.1756 287.502 86.1887Z" fill="#37474F"/>
<path d="M304.079 204.986C300.241 204.986 301.343 204.92 297.519 204.94C295.643 204.94 283.311 205.032 281.566 205.353C281.555 205.353 281.545 205.357 281.538 205.365C281.53 205.372 281.526 205.382 281.526 205.393C281.526 205.403 281.53 205.413 281.538 205.42C281.545 205.428 281.555 205.432 281.566 205.432C283.324 205.694 295.65 205.393 297.526 205.347C301.363 205.248 300.261 205.235 304.085 205.097C304.097 205.093 304.106 205.085 304.113 205.074C304.12 205.064 304.123 205.052 304.122 205.039C304.121 205.027 304.117 205.015 304.109 205.006C304.101 204.996 304.091 204.989 304.079 204.986Z" fill="#263238"/>
<path d="M285.882 103.979C283.512 105.283 281.26 106.791 279.152 108.485C279.139 108.499 279.131 108.517 279.13 108.536C279.128 108.555 279.133 108.574 279.144 108.59C279.154 108.606 279.17 108.618 279.188 108.624C279.206 108.63 279.226 108.629 279.244 108.623C281.526 107.193 283.835 105.802 286.059 104.248C286.086 104.221 286.104 104.186 286.108 104.148C286.112 104.11 286.103 104.072 286.082 104.04C286.061 104.008 286.029 103.985 285.993 103.974C285.956 103.962 285.917 103.964 285.882 103.979Z" fill="#263238"/>
<path d="M284.019 87.1201C284.019 87.0348 283.848 87.0414 283.861 87.1201C284.286 89.8481 284.573 92.5957 284.721 95.3526C284.806 96.6252 284.872 103.743 282.608 103.572C282.228 103.572 281.953 103.218 281.841 102.673C281.739 101.952 281.726 101.22 281.802 100.495C281.802 98.9998 281.802 97.5108 281.684 96.0152C281.509 93.2533 281.052 90.5167 280.319 87.8483C280.319 87.8291 280.312 87.8108 280.298 87.7972C280.284 87.7837 280.266 87.7761 280.247 87.7761C280.228 87.7761 280.209 87.7837 280.196 87.7972C280.182 87.8108 280.175 87.8291 280.175 87.8483C280.83 91.6373 281.198 95.4703 281.277 99.3147C281.277 101.171 280.798 104.038 282.733 104.018C284.668 103.998 285.246 99.2426 285.285 97.9634C285.334 94.3094 284.908 90.6645 284.019 87.1201Z" fill="#263238"/>
<path d="M282.693 103.769C282.573 104.268 282.485 104.774 282.431 105.284C282.359 105.688 282.359 106.101 282.431 106.504C282.437 106.52 282.448 106.533 282.462 106.542C282.476 106.552 282.493 106.557 282.51 106.557C282.527 106.557 282.543 106.552 282.557 106.542C282.571 106.533 282.582 106.52 282.588 106.504C282.764 106.114 282.875 105.697 282.916 105.271C283.015 104.799 283.12 104.333 283.205 103.854C283.216 103.786 283.2 103.717 283.16 103.661C283.12 103.605 283.06 103.567 282.992 103.556C282.924 103.544 282.854 103.56 282.798 103.6C282.743 103.64 282.705 103.701 282.693 103.769Z" fill="#263238"/>
<path d="M259.952 103.644C262.054 103.527 264.131 103.135 266.131 102.477C268.401 101.751 270.46 100.481 272.126 98.7769C273.07 97.8405 273.848 96.7516 274.429 95.5561C274.429 95.5101 274.521 95.5561 274.508 95.5954C274.151 96.7532 273.601 97.8423 272.881 98.8163C272.135 99.7809 271.251 100.63 270.257 101.335C268.289 102.778 265.973 103.672 263.546 103.926C262.349 104.112 261.13 104.095 259.938 103.874C259.748 103.848 259.801 103.657 259.952 103.644Z" fill="#263238"/>
<path d="M277.715 191.538C277.656 190.974 277.578 190.41 277.499 189.846C277.348 188.77 277.164 187.688 276.994 186.612C276.666 184.441 276.292 182.276 275.905 180.118C275.144 175.808 274.258 171.511 273.327 167.234C272.795 164.821 272.185 162.433 271.536 160.019C271.497 159.848 271.26 159.933 271.287 160.091C271.68 162.282 272.061 164.466 272.507 166.651C272.953 168.835 273.399 170.987 273.819 173.158C274.672 177.448 275.465 181.758 276.318 186.048C276.554 187.261 276.777 188.475 277.013 189.689C277.131 190.292 277.25 190.902 277.381 191.499C277.512 192.096 277.696 192.693 277.794 193.296C277.794 193.355 277.892 193.329 277.886 193.296C277.794 192.713 277.787 192.148 277.715 191.538Z" fill="#263238"/>
<path d="M294.547 159.114C293.734 155.066 292.639 151.071 291.536 147.089C289.319 139.087 286.708 131.195 284.104 123.304C283.352 121.034 282.6 118.762 281.848 116.488C281.474 115.353 279.637 109.22 279.407 108.616C279.404 108.606 279.397 108.598 279.388 108.592C279.379 108.586 279.369 108.582 279.358 108.582C279.348 108.582 279.337 108.586 279.328 108.592C279.32 108.598 279.313 108.606 279.309 108.616C279.84 110.703 280.562 113.746 281.172 115.832C281.782 117.918 282.432 119.906 283.068 121.933C284.314 125.928 285.58 129.923 286.787 133.924C289.182 141.842 291.556 149.759 293.498 157.802C294.042 160.058 294.587 162.308 295.079 164.571C295.571 166.834 296.004 169.104 296.476 171.367C296.476 171.433 296.594 171.413 296.587 171.367C296.181 167.261 295.374 163.181 294.547 159.114Z" fill="#263238"/>
<path d="M279.375 180.295C278.03 172.574 276.423 164.893 274.638 157.257C272.854 149.622 270.853 141.96 268.656 134.396C266.458 126.833 264.025 119.309 261.44 111.896C260.124 108.399 259.018 104.827 258.128 101.197C257.321 97.5896 256.914 93.6865 257.754 90.0458C257.959 89.122 258.237 88.216 258.587 87.3367C258.587 87.2776 258.521 87.2251 258.495 87.2842C255.563 94.126 257.465 101.604 259.702 108.348C260.922 112.041 262.227 115.708 263.441 119.407C264.655 123.107 265.862 127.017 267.003 130.848C269.253 138.437 271.345 146.073 273.215 153.761C275.085 161.449 276.757 169.189 278.227 176.969C279.696 184.749 280.936 192.614 282.195 200.453C282.359 201.477 282.484 202.5 282.622 203.523C282.622 203.582 282.714 203.582 282.707 203.523C281.736 195.75 280.713 188.009 279.375 180.295Z" fill="#263238"/>
<path d="M278.876 53.7899C281.749 64.2855 290.027 76.9459 293.963 78.717C297.387 80.2389 313.275 74.3613 319.271 70.5435C320.976 69.4546 313.925 59.6346 311.871 60.3169C305.161 62.5537 297.86 65.8599 297.296 65.6696C296.154 65.2826 289.03 56.545 283.842 50.6675C278.023 44.0618 277.734 49.6113 278.876 53.7899Z" fill="#FFC4C0"/>
<path d="M330.6 61.642C331.951 61.0778 342.348 60.7498 342.348 58.4933C342.348 56.2367 329.111 56.8664 329.111 56.8664L330.6 61.642Z" fill="#FFC4C0"/>
<path d="M310.658 61.9042C312.475 59.6477 314.075 57.214 315.656 56.7679C316.745 56.4596 328.52 56.9647 330.357 56.8532C332.193 56.7417 338.76 56.9123 338.884 58.526C339.101 60.8022 331.334 60.7825 330.508 61.9502C327.641 65.9713 316.732 71.921 316.732 71.921L310.658 61.9042Z" fill="#FFC4C0"/>
<path d="M339.088 58.5588C338.967 58.1399 338.699 57.7787 338.333 57.542C337.474 57.0716 336.506 56.8342 335.526 56.8533C334.09 56.7243 332.647 56.7133 331.209 56.8205C331.209 56.8205 331.209 56.8664 331.209 56.873C332.292 56.873 333.361 56.873 334.437 56.991C335.424 57.0278 336.403 57.1775 337.356 57.4371C337.784 57.5472 338.172 57.7744 338.478 58.0931C338.583 58.213 338.656 58.358 338.689 58.5143C338.723 58.6705 338.715 58.8327 338.668 58.9852C338.36 59.9757 336.398 60.2971 335.493 60.4743C334.312 60.7367 333.086 60.9662 331.898 61.209C331.846 61.209 331.898 61.3008 331.898 61.2877C333.131 61.045 334.43 60.9531 335.67 60.7301C336.705 60.629 337.698 60.268 338.556 59.6805C338.743 59.5641 338.893 59.3965 338.987 59.1977C339.081 58.9988 339.116 58.777 339.088 58.5588Z" fill="#263238"/>
<path d="M310.205 60.5136L319.52 74.1513C319.52 74.1513 305.089 81.3671 299.565 81.2555C294.317 81.1309 292.409 80.3569 290.749 78.7891C289.719 77.8182 283.874 69.5595 279.105 55.8299C275.104 44.3241 281.027 45.9903 286.321 52.3926C288.945 55.5675 297.368 65.0333 297.788 65.0005C298.207 64.9677 310.205 60.5136 310.205 60.5136Z" fill="#FFC727"/>
<path d="M307.339 62.7309C308.736 64.7513 310.074 66.8111 311.393 68.8839C312.049 69.8941 314.463 74.0268 315.165 75.201C315.165 75.2469 315.066 75.3256 315.033 75.2797C314.305 74.2433 311.675 70.1172 311.039 69.0939C309.727 67.0013 308.487 64.9022 307.28 62.7702C307.277 62.7664 307.276 62.762 307.275 62.7574C307.274 62.7529 307.274 62.7482 307.275 62.7436C307.276 62.739 307.277 62.7347 307.28 62.7308C307.283 62.7269 307.286 62.7236 307.29 62.721C307.294 62.7185 307.298 62.7167 307.303 62.7158C307.307 62.7149 307.312 62.7149 307.316 62.7158C307.321 62.7167 307.325 62.7185 307.329 62.7211C307.333 62.7237 307.336 62.727 307.339 62.7309Z" fill="#263238"/>
<path opacity="0.1" d="M302.36 80.9079C301.445 81.1328 300.507 81.2495 299.565 81.2556C294.318 81.1309 292.409 80.3569 290.749 78.7891C289.726 77.8182 283.874 69.5661 279.112 55.8299C278.364 53.9283 277.921 51.9202 277.8 49.8802C277.8 49.7556 277.8 49.6244 277.8 49.5063C277.793 49.3905 277.793 49.2744 277.8 49.1586C277.811 49.0639 277.826 48.9698 277.846 48.8766C277.913 48.4484 278.115 48.053 278.423 47.7483C281.683 52.1171 296.968 72.7607 302.36 80.9079Z" fill="black"/>
<path d="M336.556 54.9182H301.238V56.814H336.556V54.9182Z" fill="#C7C7C7"/>
<path d="M336.556 54.9182V56.814H315.105L316.555 54.9182H336.556Z" fill="#A6A6A6"/>
<path d="M318.116 56.8141H341.738L354.031 35.9409H330.409L318.116 56.8141Z" fill="#C7C7C7"/>
<path d="M335.191 46.3643C334.752 47.3286 335.073 48.3322 335.913 48.634C336.383 48.7425 336.876 48.6783 337.302 48.4531C337.729 48.2278 338.06 47.8566 338.235 47.4073C338.675 46.443 338.353 45.4394 337.513 45.1376C337.044 45.0304 336.551 45.0953 336.125 45.3203C335.699 45.5454 335.368 45.9158 335.191 46.3643Z" fill="white"/>
<path d="M255.051 93.3781C255.137 93.47 292.029 93.2076 292.363 92.8271C292.822 92.2892 284.085 52.4058 280.247 47.5057C279.427 46.4561 276.751 46.1938 274.481 46.4955C273.89 46.569 273.306 46.6941 272.736 46.8694H272.677C272.217 47.0134 271.784 47.2353 271.398 47.5254C265.134 52.6354 259.997 70.3206 258.81 75.6274C256.842 84.3781 254.743 93.0304 255.051 93.3781Z" fill="#EBEBEB"/>
<path d="M272.283 46.9612C272.283 46.9612 274.691 63.3606 275.261 67.6376C275.832 71.9145 275.261 94.3686 275.261 94.3686L252.112 96.3365C252.112 96.3365 256.966 81.4065 257.012 80.4619C257.012 80.4619 260.849 62.5209 264.812 55.115C266.581 51.8152 269.15 49.0118 272.283 46.9612Z" fill="#FFC727"/>
<path d="M279.991 47.2498C279.991 47.2498 283.12 63.8591 283.395 65.2301C283.671 66.6011 287.679 93.5945 287.679 93.5945L293.471 93.7191L290.329 81.3868C290.329 81.3868 283.605 49.8015 279.991 47.2498Z" fill="#FFC727"/>
<path d="M278.686 52.5567C276.928 52.7601 273.595 50.3133 272.664 47.7222C272.605 47.5385 273.129 45.8527 273.667 43.7863C273.989 42.5203 274.323 41.1099 274.527 39.798C274.566 39.529 282.438 43.0779 282.438 43.0779C281.707 44.6419 281.172 46.2898 280.844 47.9846C280.828 48.1679 280.828 48.3523 280.844 48.5356V48.6274C280.818 49.6836 280.575 52.3468 278.686 52.5567Z" fill="#FFC4C0"/>
<path d="M280.817 48.5488C280.82 48.5793 280.82 48.6101 280.817 48.6406C280.533 48.6304 280.251 48.5997 279.971 48.5488C275.15 47.6763 274.828 41.4117 274.822 39.8374C276.252 40.2769 282.444 43.1173 282.444 43.1173C281.714 44.6838 281.179 46.3338 280.85 48.0305C280.828 48.2024 280.817 48.3755 280.817 48.5488Z" fill="#263238"/>
<path d="M274.619 29.3351C273.353 32.1558 273.838 40.8146 275.681 42.9597C278.358 46.0756 283.271 46.9611 286.052 43.6157C288.749 40.3817 287.922 29.1055 285.81 27.0982C282.7 24.1463 276.482 25.1762 274.619 29.3351Z" fill="#FFC4C0"/>
<path d="M280.995 35.4685C280.995 35.4685 280.949 35.4685 280.956 35.521C281.001 36.1048 280.956 36.7739 280.444 36.9969C280.444 36.9969 280.444 37.0363 280.444 37.0297C281.087 36.9051 281.133 36.0261 280.995 35.4685Z" fill="#263238"/>
<path d="M280.444 34.8848C279.506 34.8848 279.525 36.7477 280.398 36.7674C281.27 36.7871 281.231 34.9044 280.444 34.8848Z" fill="#263238"/>
<path d="M284.59 35.4358C284.59 35.4358 284.636 35.4686 284.636 35.4883C284.636 36.0721 284.708 36.7477 285.239 36.9314C285.239 36.9314 285.239 36.9708 285.239 36.9642C284.59 36.8855 284.485 36.0262 284.59 35.4358Z" fill="#263238"/>
<path d="M285.101 34.8256C286.039 34.7403 286.138 36.6229 285.265 36.7017C284.393 36.7804 284.314 34.8912 285.101 34.8256Z" fill="#263238"/>
<path d="M279.689 34.0582C279.945 33.9861 280.168 33.8811 280.418 33.7893C280.687 33.7327 280.93 33.5872 281.106 33.376C281.149 33.3 281.166 33.212 281.154 33.1256C281.142 33.0391 281.102 32.9589 281.041 32.8971C280.897 32.7941 280.728 32.7312 280.551 32.7151C280.375 32.6989 280.198 32.7301 280.037 32.8053C279.689 32.913 279.394 33.147 279.211 33.4613C279.177 33.5334 279.164 33.6136 279.173 33.6927C279.183 33.7718 279.214 33.8467 279.264 33.9088C279.314 33.971 279.38 34.0179 279.455 34.0443C279.531 34.0707 279.612 34.0755 279.689 34.0582Z" fill="#263238"/>
<path d="M285.823 33.2382C285.568 33.1901 285.316 33.1288 285.068 33.0545C284.796 33.0243 284.54 32.907 284.34 32.7199C284.286 32.6492 284.257 32.5628 284.257 32.4739C284.257 32.3851 284.286 32.2987 284.34 32.228C284.472 32.1117 284.633 32.0323 284.806 31.9978C284.978 31.9632 285.157 31.9747 285.324 32.0312C285.678 32.0972 285.996 32.2909 286.216 32.5756C286.261 32.6426 286.286 32.721 286.289 32.8017C286.291 32.8823 286.27 32.962 286.229 33.0314C286.188 33.1008 286.128 33.1571 286.056 33.1937C285.984 33.2303 285.903 33.2457 285.823 33.2382Z" fill="#263238"/>
<path d="M280.804 40.8672C280.942 41.005 281.086 41.1886 281.296 41.2083C281.524 41.2049 281.748 41.1511 281.952 41.0509C281.952 41.0509 281.985 41.0509 281.952 41.0837C281.869 41.1987 281.756 41.2892 281.626 41.3457C281.495 41.4023 281.352 41.4228 281.211 41.4051C281.092 41.3766 280.984 41.3134 280.901 41.2234C280.818 41.1335 280.764 41.0209 280.745 40.9C280.739 40.8606 280.778 40.8475 280.804 40.8672Z" fill="#263238"/>
<path d="M281.395 39.1157C281.542 39.3424 281.735 39.5363 281.96 39.6853C282.186 39.8343 282.44 39.9351 282.707 39.9815C282.944 40.0175 283.185 40.0175 283.422 39.9815C283.467 39.9884 283.514 39.9884 283.559 39.9815H283.684C283.715 39.9758 283.744 39.9598 283.765 39.9361C283.787 39.9124 283.8 39.8822 283.802 39.8504C283.805 39.8308 283.805 39.8109 283.802 39.7913V39.7388C283.802 39.2862 283.756 38.604 283.756 38.604C283.92 38.6827 284.766 39.0501 284.747 38.8139C284.669 36.7879 284.388 34.7748 283.907 32.8052C283.907 32.7912 283.902 32.7779 283.892 32.7681C283.882 32.7582 283.869 32.7527 283.855 32.7527C283.841 32.7527 283.827 32.7582 283.817 32.7681C283.808 32.7779 283.802 32.7912 283.802 32.8052C283.861 34.6747 284.248 36.5246 284.34 38.4072C284.04 38.2718 283.722 38.1791 283.395 38.1317C283.33 38.1317 283.52 39.4436 283.5 39.6536C283.133 39.6959 282.76 39.6637 282.405 39.5589C282.05 39.4541 281.72 39.2788 281.434 39.0435C281.408 39.0304 281.362 39.0697 281.395 39.1157Z" fill="#263238"/>
<path d="M283.179 39.785C282.935 40.1061 282.615 40.361 282.248 40.5262C282.039 40.6088 281.81 40.6248 281.592 40.5721C281.126 40.4541 281.113 40.0277 281.191 39.6603C281.237 39.4649 281.305 39.2755 281.395 39.0962C281.901 39.5099 282.526 39.7512 283.179 39.785Z" fill="#263238"/>
<path d="M282.255 40.526C282.046 40.6086 281.817 40.6246 281.599 40.572C281.133 40.4539 281.12 40.0275 281.199 39.6602C281.446 39.6659 281.685 39.7542 281.876 39.9112C282.067 40.0681 282.201 40.2845 282.255 40.526Z" fill="#FF9BBC"/>
<path d="M273.898 36.8199C273.898 36.8199 271.805 31.6246 272.52 28.9482C272.841 27.7347 274.658 27.1771 274.658 27.1771C274.609 26.6553 274.706 26.1301 274.938 25.6599C275.169 25.1897 275.527 24.793 275.97 24.5138C277.656 23.3724 281.146 24.258 281.146 24.258C281.146 24.258 283.98 21.3192 287.01 23.1625C290.041 25.0058 287.325 28.3382 287.325 28.3382C287.325 28.3382 288.244 30.2208 285.115 31.067C281.986 31.9132 276.495 29.6829 276.495 29.6829C276.437 31.7191 276.077 33.7353 275.426 35.6654C275.3 35.9786 275.091 36.2516 274.822 36.455C274.553 36.6584 274.233 36.7846 273.898 36.8199Z" fill="#263238"/>
<path d="M281.723 24.3825C281.045 23.9717 280.291 23.7018 279.506 23.5888C278.808 23.474 278.097 23.474 277.4 23.5888C276.778 23.6622 276.187 23.9029 275.69 24.2852C275.193 24.6675 274.81 25.1771 274.579 25.7601C274.48 26.0668 274.443 26.3903 274.472 26.7115C274.5 27.0326 274.592 27.3448 274.743 27.6296C274.743 27.6296 274.789 27.6296 274.776 27.6296C274.179 26.5735 274.776 25.1959 275.708 24.5465C276.793 23.8767 278.084 23.6248 279.342 23.838C280.148 23.9606 280.937 24.1809 281.69 24.494C281.697 24.4962 281.705 24.4969 281.713 24.4961C281.72 24.4952 281.728 24.4929 281.734 24.4893C281.741 24.4856 281.747 24.4807 281.752 24.4748C281.756 24.4688 281.76 24.462 281.762 24.4547C281.764 24.4473 281.765 24.4397 281.764 24.4321C281.763 24.4245 281.761 24.4171 281.757 24.4104C281.754 24.4037 281.749 24.3978 281.743 24.393C281.737 24.3882 281.73 24.3847 281.723 24.3825Z" fill="#263238"/>
<path d="M289.096 25.091C289.018 24.6361 288.828 24.2078 288.542 23.8447C288.257 23.4817 287.886 23.1954 287.463 23.0116C286.507 22.5363 285.418 22.3976 284.373 22.618C283.323 22.8422 282.351 23.3426 281.559 24.0677C281.559 24.1136 281.559 24.0677 281.559 24.0677C282.27 23.4306 283.139 22.9968 284.075 22.8121C285.011 22.6274 285.98 22.6986 286.879 23.0181C287.298 23.1307 287.682 23.3452 287.998 23.6426C288.313 23.94 288.55 24.311 288.687 24.7223C288.824 25.1336 288.857 25.5725 288.783 25.9997C288.709 26.4269 288.531 26.8292 288.263 27.1704C287.635 27.9708 286.794 28.5779 285.836 28.9219C285.836 28.9219 285.836 28.9678 285.836 28.9547C286.733 28.6835 287.547 28.1918 288.204 27.5247C288.517 27.2056 288.758 26.8235 288.912 26.4039C289.066 25.9843 289.129 25.5367 289.096 25.091Z" fill="#263238"/>
<path d="M275.878 36.5969C275.878 36.5969 274.252 33.6516 272.933 34.2092C271.615 34.7667 272.638 38.8863 274.042 39.5882C274.216 39.6895 274.409 39.7547 274.609 39.7799C274.809 39.805 275.013 39.7895 275.207 39.7344C275.401 39.6793 275.582 39.5857 275.739 39.4592C275.896 39.3326 276.026 39.1757 276.121 38.9978L275.878 36.5969Z" fill="#FFC4C0"/>
<path d="M273.254 35.3701C273.254 35.3701 273.254 35.3701 273.254 35.4095C273.7 35.6919 274.081 36.0652 274.373 36.5049C274.664 36.9445 274.86 37.4408 274.947 37.9612C274.898 37.853 274.826 37.7566 274.737 37.6786C274.647 37.6006 274.542 37.5428 274.428 37.5092C274.314 37.4756 274.194 37.4669 274.076 37.4838C273.959 37.5007 273.846 37.5427 273.746 37.607C273.746 37.607 273.746 37.6726 273.746 37.666C273.933 37.6275 274.128 37.6478 274.303 37.7242C274.478 37.8005 274.625 37.9292 274.724 38.0924C274.881 38.3683 275.013 38.6582 275.117 38.9583C275.157 39.0567 275.327 39.0239 275.301 38.9124C275.465 37.6004 274.645 35.6653 273.254 35.3701Z" fill="#263238"/>
<path d="M267.633 50.7397C258.344 61.1697 251.358 75.857 251.424 79.3206C251.516 83.1253 256.357 96.5269 260.968 102.824C261.565 103.631 265.16 103.29 268.184 101.617C271.392 99.8527 274.022 96.704 273.392 95.7659C271.024 92.2433 265.416 78.599 265.468 76.4671C265.514 74.4992 270.113 62.4161 271.864 55.4299C273.576 48.7062 271.956 45.8658 267.633 50.7397Z" fill="#FFC4C0"/>
<path d="M255.359 101.781L272.657 93.3321C272.657 93.3321 265.855 78.1528 265.855 76.5128C265.855 74.8729 270.329 62.042 272.014 56.112C273.7 50.182 273.051 43.5172 265.665 52.4844C258.278 61.4516 251.823 74.7876 251.089 78.3299C250.354 81.8722 255.359 101.781 255.359 101.781Z" fill="#FFC727"/>
<path d="M266.72 72.1574C267.074 71.0335 267.442 69.9118 267.822 68.7922C268.249 67.5393 268.688 66.293 269.134 65.0532C269.58 63.8134 270.085 62.6588 270.571 61.465C270.571 61.3797 270.755 61.465 270.728 61.524C270.151 63.118 269.613 64.7317 269.075 66.3454C269.482 65.6107 269.889 64.8826 270.322 64.161C270.331 64.1527 270.342 64.1474 270.354 64.1458C270.366 64.1443 270.379 64.1465 270.389 64.1523C270.4 64.1581 270.409 64.1671 270.414 64.178C270.42 64.189 270.422 64.2014 270.42 64.2135C269.935 65.1056 269.423 65.9781 268.905 66.8374C268.78 67.2244 268.649 67.618 268.518 68.0051C267.789 70.1698 267.094 72.3476 266.471 74.5648C266.316 75.0557 266.213 75.5613 266.163 76.0736C266.136 76.6576 266.223 77.2412 266.418 77.7922C266.733 78.809 267.074 79.8126 267.442 80.8097C268.163 82.8236 268.951 84.8046 269.771 86.7725C270.709 89.016 271.778 91.2266 272.841 93.411C272.841 93.411 272.185 93.5816 272.185 93.5947C272.185 93.6078 272.132 93.5947 272.145 93.5619C272.158 93.5291 272.552 93.3454 272.565 93.3454C271.483 91.4562 270.453 89.5998 269.541 87.6122C268.629 85.6246 267.835 83.6763 267.107 81.6166C266.733 80.567 266.373 79.5174 266.045 78.4548C265.672 77.4696 265.57 76.4029 265.749 75.3651C265.992 74.2762 266.386 73.2135 266.72 72.1574Z" fill="#263238"/>
<path d="M255.064 96.9073C255.677 96.5758 256.308 96.2779 256.954 96.0152C257.518 95.7528 258.075 95.4839 258.646 95.228C259.879 94.6704 261.112 94.1063 262.352 93.5553C263.592 93.0043 264.825 92.4467 266.065 91.9088C267.305 91.3709 268.525 90.7936 269.784 90.3279C269.83 90.3279 269.863 90.3804 269.824 90.4066C268.676 91.115 267.449 91.7185 266.242 92.3024C265.035 92.8862 263.848 93.4503 262.634 93.9948C261.421 94.5392 260.148 95.0706 258.895 95.5757C258.292 95.8184 257.682 96.0414 257.065 96.271C256.425 96.5475 255.768 96.782 255.097 96.9729C255.089 96.9736 255.081 96.972 255.074 96.9681C255.068 96.9643 255.062 96.9584 255.058 96.9513C255.055 96.9442 255.053 96.9363 255.055 96.9284C255.056 96.9205 255.059 96.9132 255.064 96.9073Z" fill="#263238"/>
</svg>
