<svg width="141" height="117" viewBox="0 0 141 117" fill="none" xmlns="http://www.w3.org/2000/svg">
<path d="M0 104.173C0 101.339 0.383984 99.0531 1.15195 97.3148C1.91992 95.5764 3.06592 94.3054 4.58994 93.4928C6.11397 92.6831 8.00412 92.2783 10.2664 92.2783C10.9063 92.2783 11.5136 92.2902 12.088 92.3111C12.6625 92.3319 13.2013 92.3795 13.7043 92.4539C14.2044 92.5284 14.6896 92.6236 15.1599 92.7427C15.6272 92.8588 16.1184 93.0046 16.6304 93.1743L15.8951 96.0199C15.276 95.8711 14.6747 95.7372 14.0883 95.6211C13.5019 95.505 12.9215 95.4246 12.347 95.38C11.7725 95.3383 11.1742 95.3175 10.5581 95.3175C9.40611 95.3175 8.39406 95.4722 7.51894 95.7818C6.64381 96.0914 5.92049 96.5855 5.346 97.2671C4.77152 97.9488 4.33991 98.8537 4.05118 99.9848C3.76244 101.116 3.61957 102.5 3.61957 104.14C3.61957 105.631 3.75351 106.905 4.01843 107.962C4.28335 109.016 4.70603 109.858 5.28052 110.486C5.85501 111.114 6.56344 111.57 7.40582 111.847C8.24821 112.123 9.23347 112.263 10.3646 112.263C11.3677 112.263 12.4095 112.195 13.499 112.055C14.5854 111.918 15.5766 111.719 16.4726 111.463L17.1126 114.276C16.6214 114.466 16.1065 114.624 15.5618 114.74C15.02 114.859 14.4366 114.96 13.8204 115.043C13.2013 115.127 12.5613 115.192 11.9035 115.234C11.2427 115.276 10.5491 115.299 9.82581 115.299C8.20653 115.299 6.78966 115.103 5.57223 114.707C4.35777 114.314 3.32786 113.674 2.48845 112.787C1.64607 111.903 1.02396 110.757 0.619136 109.349C0.214316 107.941 0.0119065 106.215 0.0119065 104.17L0 104.173Z" fill="#E88485"/>
<path d="M18.7348 110.662C18.7348 109.617 18.9521 108.76 19.3897 108.087C19.8272 107.414 20.4642 106.882 21.3066 106.489C22.149 106.096 23.2027 105.786 24.4707 105.56C25.7388 105.337 27.2241 105.161 28.9297 105.033V103.051C28.9297 102.176 28.6321 101.515 28.0338 101.068C27.4384 100.619 26.5425 100.396 25.3489 100.396C24.9232 100.396 24.4321 100.416 23.8784 100.458C23.3248 100.5 22.7532 100.577 22.1668 100.681C21.5805 100.788 20.9792 100.925 20.36 101.098L19.7528 98.3476C20.6904 98.05 21.6698 97.8208 22.6937 97.6601C23.7177 97.4993 24.6642 97.4189 25.5394 97.4189C27.117 97.4189 28.4118 97.6273 29.4238 98.044C30.4359 98.4608 31.186 99.0829 31.6771 99.9134C32.1683 100.744 32.4124 101.768 32.4124 102.982V110.59C32.4124 111.251 32.5136 111.698 32.716 111.933C32.9184 112.168 33.1684 112.284 33.4661 112.284C33.5732 112.284 33.7072 112.269 33.865 112.237C34.0257 112.204 34.1686 112.156 34.2966 112.094L34.6151 114.651C34.2727 114.841 33.9007 114.996 33.4959 115.115C33.091 115.231 32.6535 115.291 32.1861 115.291C31.3765 115.291 30.7306 115.1 30.2513 114.716C29.7721 114.332 29.4357 113.758 29.2452 112.99C28.7124 113.394 28.1469 113.778 27.5515 114.142C26.9562 114.505 26.2984 114.788 25.584 114.99C24.8696 115.192 24.0868 115.294 23.2325 115.294C22.5717 115.294 21.9704 115.192 21.4257 114.99C20.8839 114.788 20.4077 114.484 20.0028 114.079C19.598 113.674 19.2825 113.189 19.0593 112.624C18.836 112.058 18.7229 111.403 18.7229 110.656L18.7348 110.662ZM22.2829 110.406C22.2829 111.236 22.4853 111.856 22.8902 112.26C23.295 112.665 23.8367 112.868 24.5213 112.868C25.0333 112.868 25.5542 112.787 26.0871 112.626C26.6199 112.466 27.1378 112.242 27.6379 111.954C28.1379 111.665 28.5695 111.32 28.9327 110.915V107.016C27.9296 107.102 27.0187 107.206 26.2002 107.334C25.3786 107.462 24.6702 107.65 24.0749 107.894C23.4795 108.141 23.0301 108.468 22.7324 108.885C22.4318 109.302 22.2829 109.808 22.2829 110.403V110.406Z" fill="#E88485"/>
<path d="M39.8065 97.7464V99.8895C40.4256 99.2942 41.0001 98.818 41.5329 98.4667C42.0657 98.1155 42.6134 97.8535 43.179 97.6839C43.7445 97.5142 44.3339 97.4279 44.9531 97.4279C45.337 97.4279 45.7359 97.4547 46.1526 97.5082C46.5694 97.5618 46.9682 97.6511 47.3522 97.7791L46.7777 100.943C46.3937 100.836 46.0008 100.759 45.596 100.705C45.1912 100.652 44.8191 100.625 44.4768 100.625C43.7951 100.625 43.0956 100.759 42.3813 101.024C41.6669 101.292 40.9049 101.765 40.0952 102.446V114.981H36.6423V97.7464H39.8065Z" fill="#E88485"/>
<path d="M55.3442 115.297C54.0851 115.297 52.9837 115.13 52.0342 114.802C51.0846 114.472 50.275 113.966 49.6052 113.284C48.9325 112.603 48.4265 111.725 48.0872 110.647C47.7449 109.572 47.5752 108.298 47.5752 106.828C47.5752 105.102 47.7836 103.631 48.2003 102.417C48.617 101.202 49.1915 100.232 49.9267 99.5085C50.6619 98.7852 51.5252 98.2554 52.5164 97.925C53.5076 97.5946 54.5881 97.4308 55.7609 97.4308C58.0618 97.4308 59.7674 98.0292 60.8777 99.2198C61.985 100.413 62.5416 102.354 62.5416 105.039C62.5416 105.188 62.5357 105.402 62.5267 105.679C62.5148 105.956 62.5 106.212 62.4791 106.447C61.988 106.489 61.3659 106.536 60.6098 106.59C59.8537 106.643 58.9786 106.706 57.9874 106.78C56.9962 106.855 55.9306 106.914 54.7905 106.956C53.6505 106.998 52.4509 107.03 51.1948 107.051C51.1739 107.138 51.162 107.227 51.162 107.322V107.626C51.162 108.799 51.3436 109.742 51.7038 110.457C52.0669 111.171 52.5997 111.692 53.3022 112.022C54.0047 112.353 54.8887 112.516 55.9574 112.516C56.5973 112.516 57.2641 112.481 57.9547 112.403C58.6482 112.329 59.3299 112.234 60.0026 112.115C60.6723 111.998 61.2974 111.864 61.8719 111.716L62.3184 114.305C61.6784 114.496 60.9878 114.668 60.2407 114.817C59.4936 114.966 58.7226 115.082 57.9219 115.169C57.1212 115.252 56.2639 115.297 55.3471 115.297H55.3442ZM51.2186 104.715C52.0937 104.715 52.945 104.7 53.7755 104.667C54.606 104.634 55.368 104.602 56.0615 104.572C56.7521 104.539 57.3564 104.503 57.8683 104.459C58.3803 104.417 58.7643 104.384 59.0203 104.363C58.9995 103.319 58.8596 102.467 58.6036 101.806C58.3476 101.146 57.9636 100.678 57.4516 100.399C56.9396 100.119 56.2907 99.9818 55.5019 99.9818C55.0108 99.9818 54.5316 100.047 54.0642 100.172C53.5939 100.3 53.1623 100.544 52.7694 100.908C52.3735 101.271 52.0401 101.753 51.7633 102.363C51.4865 102.97 51.3049 103.753 51.2186 104.712V104.715Z" fill="#E88485"/>
<path d="M70.1321 115.541V112.695L82.5386 96.1658V96.1033H70.7721V93.1624H86.5987V96.008L74.3232 112.537V112.6H87.3042V115.541H70.1351H70.1321Z" fill="#467888"/>
<path d="M107.894 115.541V98.309H111.058V99.8121C111.781 99.4073 112.46 99.0769 113.088 98.8209C113.716 98.5649 114.362 98.3625 115.023 98.2137C115.683 98.0649 116.365 97.9905 117.068 97.9905C118.154 97.9905 119.059 98.178 119.785 98.5501C120.509 98.9221 121.053 99.4728 121.416 100.196C121.78 100.922 121.961 101.786 121.961 102.786V115.544H118.508V103.81C118.508 102.851 118.267 102.131 117.788 101.652C117.309 101.172 116.6 100.931 115.663 100.931C115.171 100.931 114.692 100.985 114.225 101.092C113.755 101.199 113.287 101.342 112.817 101.524C112.347 101.705 111.867 101.923 111.376 102.179V115.544H107.891L107.894 115.541Z" fill="#467888"/>
<path d="M133.439 115.862C132.18 115.862 131.078 115.698 130.129 115.365C129.179 115.035 128.37 114.529 127.7 113.847C127.027 113.165 126.521 112.287 126.182 111.21C125.84 110.135 125.67 108.861 125.67 107.388C125.67 105.661 125.878 104.191 126.292 102.976C126.709 101.762 127.283 100.791 128.018 100.068C128.754 99.3448 129.617 98.815 130.608 98.4846C131.599 98.1542 132.68 97.9875 133.853 97.9875C136.157 97.9875 137.859 98.5858 138.969 99.7764C140.077 100.97 140.633 102.911 140.633 105.596C140.633 105.745 140.627 105.959 140.616 106.236C140.604 106.513 140.589 106.769 140.568 107.004C140.077 107.045 139.455 107.096 138.699 107.147C137.943 107.2 137.067 107.263 136.076 107.34C135.085 107.414 134.019 107.474 132.879 107.516C131.739 107.557 130.54 107.59 129.284 107.611C129.263 107.697 129.251 107.787 129.251 107.882V108.185C129.251 109.358 129.432 110.302 129.796 111.016C130.159 111.731 130.691 112.251 131.394 112.582C132.099 112.912 132.98 113.079 134.049 113.079C134.689 113.079 135.353 113.043 136.046 112.966C136.74 112.891 137.422 112.796 138.094 112.677C138.767 112.561 139.389 112.427 139.964 112.278L140.41 114.868C139.77 115.058 139.077 115.231 138.332 115.38C137.585 115.529 136.814 115.648 136.014 115.731C135.213 115.814 134.356 115.859 133.439 115.859V115.862ZM129.313 105.28C130.185 105.28 131.04 105.265 131.87 105.233C132.701 105.2 133.463 105.167 134.156 105.137C134.85 105.105 135.451 105.069 135.963 105.024C136.475 104.983 136.859 104.95 137.115 104.929C137.094 103.884 136.957 103.033 136.698 102.372C136.442 101.711 136.058 101.244 135.546 100.964C135.034 100.687 134.385 100.547 133.597 100.547C133.106 100.547 132.626 100.61 132.159 100.738C131.689 100.866 131.257 101.11 130.864 101.473C130.468 101.836 130.135 102.321 129.855 102.929C129.578 103.536 129.397 104.319 129.31 105.277L129.313 105.28Z" fill="#467888"/>
<path d="M97.0319 116.067C96.4455 116.067 95.8591 115.874 95.3799 115.49C88.6051 110.022 88.7152 103.938 88.748 103.313C88.7658 98.7584 92.4747 95.0585 97.0319 95.0585C101.589 95.0585 105.301 98.7584 105.316 103.313C105.346 103.938 105.456 110.022 98.6839 115.487C98.2047 115.874 97.6183 116.064 97.0319 116.064V116.067ZM97.0319 97.2463C93.6683 97.2463 90.9358 99.9818 90.9358 103.342C90.9358 103.366 90.9358 103.393 90.9358 103.417C90.9239 103.631 90.6917 108.888 96.758 113.784C96.9158 113.912 97.1539 113.912 97.3147 113.784C103.381 108.891 103.149 103.634 103.137 103.411C103.137 103.39 103.137 103.363 103.137 103.342C103.137 99.9788 100.401 97.2463 97.0408 97.2463H97.0319Z" fill="#E88385"/>
<path d="M97.0318 107.724C94.5106 107.724 92.4597 105.673 92.4597 103.152C92.4597 100.631 94.5106 98.5798 97.0318 98.5798C99.553 98.5798 101.604 100.631 101.604 103.152C101.604 105.673 99.553 107.724 97.0318 107.724ZM97.0318 100.771C95.7191 100.771 94.6475 101.839 94.6475 103.155C94.6475 104.471 95.7161 105.539 97.0318 105.539C98.3475 105.539 99.4161 104.471 99.4161 103.155C99.4161 101.839 98.3475 100.771 97.0318 100.771Z" fill="#E88385"/>
<path fill-rule="evenodd" clip-rule="evenodd" d="M88.2674 68.4781C101.409 63.3843 110.535 50.4204 110.051 35.5308C109.441 16.6831 93.6693 1.90246 74.8216 2.51012C59.4207 3.00881 46.7355 13.6302 42.9429 27.778C47.6805 16.5448 58.6182 8.50073 71.6031 8.08166C89.3905 7.50544 104.276 21.4584 104.852 39.2437C105.257 51.7383 98.4928 62.7997 88.2653 68.476L88.2674 68.4781Z" fill="#467888"/>
<path fill-rule="evenodd" clip-rule="evenodd" d="M71.427 0.00408053C55.0875 -0.232694 39.3325 9.85014 32.8788 26.2379C24.7049 46.984 34.5321 69.9763 54.8277 77.5887C71.4124 83.8119 89.8494 77.8422 100.5 64.1323C90.2119 74.2571 74.8341 78.1964 60.8518 72.9496C41.6961 65.7646 32.4221 44.0672 40.135 24.4841C45.5536 10.7323 57.912 1.68246 71.427 0.00408053Z" fill="#E88385"/>
<path d="M65.9038 35.6188C62.2851 32.6581 60.9713 28.7775 60.9713 28.7775C58.2746 33.184 61.1348 37.6031 62.4192 39.0384C64.5041 41.3705 68.766 44.5303 69.1935 51.2732C72.5481 43.7739 69.5225 38.5774 65.9038 35.6188Z" fill="#E88285"/>
<path d="M77.4804 35.6188C81.099 32.6581 82.4128 28.7775 82.4128 28.7775C85.1095 33.184 82.2494 37.6031 80.9649 39.0384C78.8801 41.3705 74.6181 44.5303 74.1907 51.2732C70.836 43.7739 73.8617 38.5774 77.4804 35.6188Z" fill="#477888"/>
<path d="M71.6931 34.4475C73.6917 34.4475 75.3118 32.8273 75.3118 30.8288C75.3118 28.8303 73.6917 27.2101 71.6931 27.2101C69.6946 27.2101 68.0745 28.8303 68.0745 30.8288C68.0745 32.8273 69.6946 34.4475 71.6931 34.4475Z" fill="#FEE8AB"/>
<path fill-rule="evenodd" clip-rule="evenodd" d="M49.606 39.8095C49.7213 39.1075 49.2037 38.1311 48.4222 37.7456C47.561 37.3265 46.8318 37.5486 46.7563 38.5439C46.5866 40.7859 46.8318 44.1972 47.9297 46.6131C49.8638 50.8541 53.4887 56.4948 58.3164 58.3974C62.746 60.7504 66.9912 63.3487 68.6402 67.0281C70.3814 65.3854 71.3684 59.005 69.1976 53.4942C67.054 48.0547 61.4951 48.61 57.3295 45.1841C55.4143 45.1799 55.9759 47.3088 56.2399 47.7111C57.7842 49.8902 60.0618 51.908 63.4563 53.4272C60.8225 53.5697 57.5893 52.4843 55.0078 50.0474C52.6862 47.8556 49.386 43.1662 49.606 39.8095Z" fill="#FAC3C0"/>
<path fill-rule="evenodd" clip-rule="evenodd" d="M94.7882 39.8095C94.6772 39.1075 95.1947 38.1311 95.9763 37.7456C96.8375 37.3265 97.5625 37.5486 97.6421 38.5502C97.8118 40.788 97.5667 44.1993 96.4624 46.6131C94.5326 50.8541 90.9076 56.4948 86.0758 58.3974C81.6462 60.7504 77.401 63.3487 75.7561 67.0281C74.0107 65.3854 73.0238 59.005 75.1988 53.4942C77.3381 48.0547 82.9013 48.61 87.0627 45.1841C88.982 45.1799 88.4205 47.3088 88.1564 47.7111C86.608 49.8902 84.3303 51.9081 80.94 53.4272C83.5739 53.5697 86.807 52.4843 89.3885 50.0474C91.7102 47.8556 95.0103 43.1662 94.7861 39.8095H94.7882Z" fill="#FAC3C0"/>
</svg>
