<svg width="216" height="216" viewBox="0 0 216 216" fill="none" xmlns="http://www.w3.org/2000/svg">
<g filter="url(#filter0_d_253_1235)">
<circle cx="108" cy="104" r="104" fill="#455A64"/>
<path d="M141.56 107.729C139.321 107.729 137.336 108.74 135.967 110.306C134.599 108.74 132.613 107.729 130.374 107.729C128.135 107.729 126.149 108.74 124.78 110.306C123.412 108.74 121.426 107.729 119.187 107.729C117.822 107.729 116.56 108.124 115.458 108.766V102.963C115.701 102.896 115.945 102.831 116.185 102.758C116.37 102.702 116.549 102.635 116.732 102.576C117.293 102.391 117.847 102.193 118.393 101.975C118.54 101.916 118.686 101.854 118.831 101.793C119.461 101.528 120.08 101.243 120.688 100.933C120.722 100.916 120.755 100.9 120.787 100.883C123.376 99.5515 125.763 97.8306 127.842 95.7387C127.902 95.6772 127.924 95.5933 127.974 95.5262C132.939 90.4251 135.967 83.4875 135.967 76.0334C135.967 68.3071 132.887 61.1178 127.294 55.7855C121.702 50.4588 114.362 47.7311 106.624 48.1002C92.8909 48.7603 81.5178 59.5517 80.1735 73.205C79.3308 81.7591 82.4426 89.8583 88.0788 95.6101C88.1123 95.6492 88.1235 95.7033 88.1608 95.7406C88.2876 95.8693 88.4256 95.9848 88.5542 96.1098C88.6474 96.2011 88.7444 96.2869 88.8395 96.3782C89.3093 96.8201 89.7922 97.2452 90.29 97.6535C90.4392 97.7747 90.5865 97.8978 90.7375 98.0171C91.2372 98.4086 91.748 98.7815 92.2719 99.1376C92.4024 99.2271 92.5274 99.3203 92.6597 99.408C93.3067 99.8312 93.9667 100.23 94.6454 100.599C94.802 100.685 94.966 100.758 95.1245 100.84C95.6503 101.112 96.1835 101.371 96.728 101.612C96.9778 101.722 97.2314 101.824 97.4868 101.927C97.9827 102.128 98.4861 102.313 98.9951 102.486C99.2394 102.57 99.4817 102.656 99.7297 102.732C100 102.816 100.272 102.893 100.546 102.967V131.197L94.472 125.122C92.8723 123.525 90.7487 122.645 88.489 122.645C83.826 122.645 80.0337 126.437 80.0337 131.1C80.0337 133.36 80.9137 135.483 82.5097 137.079L100.543 155.112V158.069C100.543 159.1 101.376 159.934 102.407 159.934H145.289C146.32 159.934 147.154 159.1 147.154 158.069V151.051L148.822 147.716C148.951 147.459 149.018 147.171 149.018 146.882V115.179C149.018 111.072 145.673 107.729 141.56 107.729ZM88.4796 90.3374C85.0509 85.6502 83.276 79.7474 83.8838 73.5686C85.0491 61.7443 94.9027 52.3941 106.802 51.8254C113.517 51.4898 119.875 53.8688 124.719 58.4852C129.568 63.1053 132.238 69.3382 132.238 76.0334C132.238 81.3005 130.497 86.2748 127.519 90.33C125.748 84.8056 121.672 80.2303 116.362 77.8438C118.113 75.8693 119.187 73.2815 119.187 70.4401C119.187 64.2706 114.17 59.2534 108 59.2534C101.831 59.2534 96.8137 64.2706 96.8137 70.4401C96.8137 73.2815 97.8876 75.8693 99.6384 77.8456C94.3265 80.2321 90.249 84.8094 88.4796 90.3374ZM115.458 70.4401C115.458 73.192 113.944 75.5729 111.72 76.8649C111.711 76.8705 111.699 76.8705 111.688 76.8761C111.17 77.1744 110.635 77.3944 110.094 77.5604C109.995 77.5902 109.9 77.6275 109.798 77.6517C109.596 77.7039 109.393 77.7412 109.19 77.7767C108.852 77.8307 108.511 77.8736 108.161 77.8811C108.053 77.8829 107.944 77.8829 107.834 77.8811C107.484 77.8736 107.143 77.8326 106.805 77.7767C106.602 77.7412 106.399 77.7058 106.197 77.6517C106.097 77.6256 106.002 77.5883 105.901 77.5604C105.36 77.3944 104.825 77.1726 104.307 76.8761C104.298 76.8705 104.286 76.8705 104.277 76.8649C102.057 75.5747 100.543 73.192 100.543 70.4401C100.543 66.3271 103.887 62.9823 108 62.9823C112.113 62.9823 115.458 66.3271 115.458 70.4401ZM100.543 92.8134V99.0873C99.7651 98.8375 99.0082 98.5373 98.2643 98.2129C98.0536 98.1196 97.8503 98.0171 97.6434 97.9183C97.1176 97.6703 96.603 97.4056 96.0978 97.1203C95.8591 96.9861 95.6223 96.85 95.3893 96.7064C94.9064 96.4118 94.4365 96.0949 93.9742 95.7667C93.7709 95.6213 93.5603 95.487 93.3626 95.336C92.7623 94.8811 92.1843 94.3963 91.6268 93.8836C91.5709 93.8333 91.5224 93.7773 91.4665 93.7251C92.5255 87.5091 97.0822 82.3352 103.14 80.4987C104.611 81.2147 106.257 81.6267 108 81.6267C109.744 81.6267 111.39 81.2147 112.863 80.4987C118.907 82.3296 123.455 87.4867 124.527 93.6878C124.275 93.9246 124.029 94.167 123.768 94.3926C123.714 94.4392 123.658 94.484 123.602 94.5306C122.715 95.282 121.773 95.9718 120.783 96.5945C120.74 96.6225 120.697 96.6542 120.654 96.6803C120.296 96.9022 119.924 97.0998 119.553 97.303C119.204 97.4913 118.853 97.6759 118.497 97.8474C118.193 97.9947 117.888 98.1401 117.576 98.2744C116.924 98.5541 116.262 98.8169 115.585 99.0388C115.542 99.0537 115.503 99.0705 115.46 99.0854V92.8134C115.46 88.7004 112.115 85.3556 108.002 85.3556C103.889 85.3556 100.543 88.7004 100.543 92.8134ZM145.289 146.442L143.621 149.778C143.492 150.035 143.425 150.322 143.425 150.611V156.205H104.272V154.34C104.272 153.844 104.076 153.371 103.725 153.022L85.146 134.443C84.2548 133.552 83.7626 132.364 83.7626 131.1C83.7626 128.495 85.8843 126.373 88.489 126.373C89.7531 126.373 90.9388 126.866 91.8319 127.757L101.089 137.014C101.624 137.549 102.424 137.711 103.121 137.418C103.818 137.131 104.272 136.449 104.272 135.696V101.52V92.8134C104.272 90.7569 105.944 89.0845 108 89.0845C110.057 89.0845 111.729 90.7569 111.729 92.8134V101.52V115.187V126.373H115.458V115.187C115.458 113.13 117.131 111.458 119.187 111.458C121.244 111.458 122.916 113.13 122.916 115.187V126.373H126.645V115.187C126.645 113.13 128.317 111.458 130.374 111.458C132.43 111.458 134.103 113.13 134.103 115.187V126.373H137.832V115.187C137.832 113.13 139.504 111.458 141.56 111.458C143.617 111.458 145.289 113.128 145.289 115.179V146.442Z" fill="#FFE8AC"/>
<path d="M71.1237 83.1034C73.1354 81.3918 74.4405 78.8748 74.4405 76.0334C74.4405 70.8931 70.2586 66.7112 65.1183 66.7112C59.978 66.7112 55.796 70.8931 55.796 76.0334C55.796 78.8748 57.1011 81.3918 59.1129 83.1034C54.9328 85.2811 52.0671 89.6476 52.0671 94.6779V100.271C52.0671 101.302 52.9005 102.136 53.9316 102.136H76.305C77.336 102.136 78.1694 101.302 78.1694 100.271V94.6779C78.1694 89.6476 75.3037 85.2811 71.1237 83.1034ZM65.1183 70.4401C68.2021 70.4401 70.7116 72.9496 70.7116 76.0334C70.7116 79.1172 68.2021 81.6268 65.1183 81.6268C62.0345 81.6268 59.5249 79.1172 59.5249 76.0334C59.5249 72.9496 62.0345 70.4401 65.1183 70.4401ZM74.4405 98.4068H55.796V94.6779C55.796 89.5376 59.978 85.3557 65.1183 85.3557C70.2586 85.3557 74.4405 89.5376 74.4405 94.6779V98.4068Z" fill="#FFE8AC"/>
<path d="M156.889 81.2389C158.9 79.5273 160.205 77.0103 160.205 74.1689C160.205 69.0286 156.023 64.8467 150.883 64.8467C145.743 64.8467 141.561 69.0286 141.561 74.1689C141.561 77.0103 142.866 79.5273 144.878 81.2389C140.698 83.4166 137.832 87.7831 137.832 92.8134V98.4067C137.832 99.4378 138.665 100.271 139.696 100.271H162.07C163.101 100.271 163.934 99.4378 163.934 98.4067V92.8134C163.934 87.7831 161.069 83.4166 156.889 81.2389ZM150.883 68.5756C153.967 68.5756 156.477 71.0851 156.477 74.1689C156.477 77.2527 153.967 79.7623 150.883 79.7623C147.799 79.7623 145.29 77.2527 145.29 74.1689C145.29 71.0851 147.799 68.5756 150.883 68.5756ZM160.205 96.5423H141.561V92.8134C141.561 87.6731 145.743 83.4912 150.883 83.4912C156.023 83.4912 160.205 87.6731 160.205 92.8134V96.5423Z" fill="#FFE8AC"/>
</g>
<defs>
<filter id="filter0_d_253_1235" x="0" y="0" width="216" height="216" filterUnits="userSpaceOnUse" color-interpolation-filters="sRGB">
<feFlood flood-opacity="0" result="BackgroundImageFix"/>
<feColorMatrix in="SourceAlpha" type="matrix" values="0 0 0 0 0 0 0 0 0 0 0 0 0 0 0 0 0 0 127 0" result="hardAlpha"/>
<feOffset dy="4"/>
<feGaussianBlur stdDeviation="2"/>
<feComposite in2="hardAlpha" operator="out"/>
<feColorMatrix type="matrix" values="0 0 0 0 0 0 0 0 0 0 0 0 0 0 0 0 0 0 0.25 0"/>
<feBlend mode="normal" in2="BackgroundImageFix" result="effect1_dropShadow_253_1235"/>
<feBlend mode="normal" in="SourceGraphic" in2="effect1_dropShadow_253_1235" result="shape"/>
</filter>
</defs>
</svg>
