<svg width="1728" height="558" viewBox="0 0 1728 558" fill="none" xmlns="http://www.w3.org/2000/svg">
<g clip-path="url(#clip0_66_488)">
<rect width="1728" height="558" fill="#455A64"/>
<g opacity="0.3">
<path d="M1488.05 -47C1450.08 -8.50489 1373.83 101.881 1409.07 185.47C1434.89 221.466 1528.86 179.771 1582.74 238.964C1605.01 267.96 1571.8 349.15 1619.19 381.945C1660.2 410.326 1816.86 407.342 1844 294.957" stroke="#F5F5F5" stroke-opacity="0.8" stroke-width="0.5" stroke-linecap="round"/>
<path d="M1532.05 -65C1494.08 -26.5049 1417.83 83.8811 1453.07 167.47C1478.89 203.466 1572.86 161.771 1626.74 220.964C1649.01 249.96 1615.8 331.15 1663.19 363.945C1704.2 392.326 1860.86 389.342 1888 276.957" stroke="#F5F5F5" stroke-opacity="0.8" stroke-width="0.5" stroke-linecap="round"/>
<path d="M1509.05 -134C1471.08 -95.5049 1394.83 14.8811 1430.07 98.4704C1455.89 134.466 1549.86 92.7712 1603.74 151.964C1626.01 180.96 1592.8 262.15 1640.19 294.945C1681.2 323.326 1837.86 320.342 1865 207.957" stroke="#F5F5F5" stroke-opacity="0.8" stroke-width="0.5" stroke-linecap="round"/>
</g>
<g opacity="0.3">
<path d="M-37.3016 207.222C11.7394 184.442 141.366 149.852 208.189 211.202C233.376 247.645 162.45 322.07 200.023 392.74C219.815 423.487 307.449 419.577 322.355 475.25C335.254 523.427 279.648 669.914 164.691 657.59" stroke="#F5F5F5" stroke-opacity="0.8" stroke-width="0.5" stroke-linecap="round"/>
<path d="M-69.0772 242.582C-20.0362 219.802 109.59 185.212 176.413 246.562C201.6 283.004 130.674 357.429 168.248 428.099C188.04 458.847 275.674 454.937 290.579 510.609C303.478 558.787 247.873 705.274 132.915 692.95" stroke="#F5F5F5" stroke-opacity="0.8" stroke-width="0.5" stroke-linecap="round"/>
<path d="M-126.289 197.673C-77.2484 174.894 52.3781 140.304 119.201 201.653C144.388 238.096 73.462 312.521 111.036 383.191C130.828 413.938 218.462 410.028 233.367 465.701C246.266 513.878 190.661 660.366 75.7032 648.042" stroke="#F5F5F5" stroke-opacity="0.8" stroke-width="0.5" stroke-linecap="round"/>
</g>
<g opacity="0.3">
<path d="M600.081 603.056C605.875 549.293 643.135 420.409 730.167 394.827C774.381 392.058 801.532 491.216 881.456 495.498C918.006 494.411 959.877 417.328 1015.26 433.288C1063.18 447.1 1159.97 570.32 1090.09 662.431" stroke="#EBEBEB" stroke-width="0.5" stroke-linecap="round"/>
<path d="M613.973 648.52C619.766 594.758 657.027 465.874 744.059 440.292C788.272 437.523 815.424 536.681 895.347 540.963C931.898 539.876 973.769 462.793 1029.15 478.753C1077.07 492.565 1173.86 615.785 1103.98 707.896" stroke="#EBEBEB" stroke-width="0.5" stroke-linecap="round"/>
<path d="M545.983 674.353C551.776 620.591 589.037 491.707 676.069 466.125C720.282 463.356 747.434 562.514 827.357 566.796C863.907 565.709 905.779 488.626 961.158 504.586C1009.08 518.398 1105.87 641.618 1035.99 733.729" stroke="#EBEBEB" stroke-width="0.5" stroke-linecap="round"/>
</g>
<g opacity="0.3">
<path d="M1084.18 -57.2707C1084.68 -3.1996 1062.67 129.144 979.202 164.676C935.611 172.569 897.11 77.2422 817.231 82.2858C781.055 87.6172 748.434 169.047 691.574 159.637C642.369 151.494 531.909 40.368 590.597 -59.2452" stroke="#EBEBEB" stroke-width="0.5" stroke-linecap="round"/>
<path d="M1065.1 -100.811C1065.6 -46.7396 1043.58 85.6039 960.116 121.135C916.525 129.029 878.024 33.7022 798.145 38.7457C761.969 44.0771 729.348 125.507 672.489 116.097C623.283 107.954 512.823 -3.17199 571.511 -102.785" stroke="#EBEBEB" stroke-width="0.5" stroke-linecap="round"/>
<path d="M1129.62 -134.377C1130.12 -80.306 1108.11 52.0375 1024.64 87.5691C981.049 95.4627 942.548 0.135805 862.669 5.17934C826.493 10.5107 793.872 91.9408 737.012 82.5307C687.807 74.3874 577.347 -36.7384 636.034 -136.352" stroke="#EBEBEB" stroke-width="0.5" stroke-linecap="round"/>
</g>
</g>
<defs>
<clipPath id="clip0_66_488">
<rect width="1728" height="558" fill="white"/>
</clipPath>
</defs>
</svg>
