<svg width="70" height="70" viewBox="0 0 70 70" fill="none" xmlns="http://www.w3.org/2000/svg">
<path fill-rule="evenodd" clip-rule="evenodd" d="M62.8027 49.6737C62.5995 49.8775 62.3581 50.0391 62.0923 50.1494C61.8265 50.2596 61.5416 50.3164 61.2539 50.3164C60.9662 50.3164 60.6813 50.2596 60.4155 50.1494C60.1497 50.0391 59.9084 49.8775 59.7052 49.6737L35.0039 24.9681L10.3027 49.6737C10.0993 49.8771 9.85782 50.0385 9.59209 50.1485C9.32635 50.2586 9.04154 50.3153 8.75391 50.3153C8.46628 50.3153 8.18147 50.2586 7.91573 50.1485C7.65 50.0385 7.40854 49.8771 7.20516 49.6737C7.00177 49.4704 6.84044 49.2289 6.73037 48.9632C6.6203 48.6974 6.56365 48.4126 6.56365 48.125C6.56365 47.8374 6.6203 47.5526 6.73037 47.2868C6.84044 47.0211 7.00177 46.7796 7.20516 46.5762L33.4552 20.3262C33.6584 20.1225 33.8998 19.9609 34.1655 19.8506C34.4313 19.7404 34.7162 19.6836 35.0039 19.6836C35.2916 19.6836 35.5765 19.7404 35.8423 19.8506C36.1081 19.9609 36.3495 20.1225 36.5527 20.3262L62.8027 46.5762C63.0064 46.7794 63.168 47.0208 63.2783 47.2866C63.3885 47.5524 63.4453 47.8373 63.4453 48.125C63.4453 48.4127 63.3885 48.6976 63.2783 48.9634C63.168 49.2292 63.0064 49.4705 62.8027 49.6737Z" fill="#E88585"/>
</svg>
