<svg width="41" height="40" viewBox="0 0 41 40" fill="none" xmlns="http://www.w3.org/2000/svg">
<path d="M4.25 26.25L12.8483 17.6517C13.1966 17.3034 13.61 17.0272 14.0649 16.8388C14.5199 16.6503 15.0075 16.5533 15.5 16.5533C15.9925 16.5533 16.4801 16.6503 16.9351 16.8388C17.39 17.0272 17.8034 17.3034 18.1517 17.6517L26.75 26.25M24.25 23.75L26.5983 21.4017C26.9466 21.0534 27.36 20.7772 27.8149 20.5888C28.2699 20.4003 28.7575 20.3033 29.25 20.3033C29.7425 20.3033 30.2301 20.4003 30.6851 20.5888C31.14 20.7772 31.5534 21.0534 31.9017 21.4017L36.75 26.25M6.75 32.5H34.25C34.913 32.5 35.5489 32.2366 36.0178 31.7678C36.4866 31.2989 36.75 30.663 36.75 30V10C36.75 9.33696 36.4866 8.70107 36.0178 8.23223C35.5489 7.76339 34.913 7.5 34.25 7.5H6.75C6.08696 7.5 5.45107 7.76339 4.98223 8.23223C4.51339 8.70107 4.25 9.33696 4.25 10V30C4.25 30.663 4.51339 31.2989 4.98223 31.7678C5.45107 32.2366 6.08696 32.5 6.75 32.5ZM24.25 13.75H24.2633V13.7633H24.25V13.75ZM24.875 13.75C24.875 13.9158 24.8092 14.0747 24.6919 14.1919C24.5747 14.3092 24.4158 14.375 24.25 14.375C24.0842 14.375 23.9253 14.3092 23.8081 14.1919C23.6908 14.0747 23.625 13.9158 23.625 13.75C23.625 13.5842 23.6908 13.4253 23.8081 13.3081C23.9253 13.1908 24.0842 13.125 24.25 13.125C24.4158 13.125 24.5747 13.1908 24.6919 13.3081C24.8092 13.4253 24.875 13.5842 24.875 13.75Z" stroke="white" stroke-width="2.5" stroke-linecap="round" stroke-linejoin="round"/>
</svg>
