<svg width="22" height="22" viewBox="0 0 22 22" fill="none" xmlns="http://www.w3.org/2000/svg">
<path d="M15.8334 3.08722C15.8334 2.9704 15.8798 2.85836 15.9624 2.77576C16.045 2.69315 16.157 2.64674 16.2739 2.64674H18.4762V0.44432C18.4762 0.327497 18.5226 0.215458 18.6052 0.132851C18.6878 0.0502443 18.7999 0.00383615 18.9167 0.00383615C19.0335 0.00383615 19.1455 0.0502443 19.2282 0.132851C19.3108 0.215458 19.3572 0.327497 19.3572 0.44432V2.64674H21.5595C21.6763 2.64674 21.7884 2.69315 21.871 2.77576C21.9536 2.85836 22 2.9704 22 3.08722C22 3.20405 21.9536 3.31609 21.871 3.39869C21.7884 3.4813 21.6763 3.52771 21.5595 3.52771H19.3572V5.73013C19.3572 5.84695 19.3108 5.95899 19.2282 6.0416C19.1455 6.12421 19.0335 6.17061 18.9167 6.17061C18.7999 6.17061 18.6878 6.12421 18.6052 6.0416C18.5226 5.95899 18.4762 5.84695 18.4762 5.73013V3.52771H16.2739C16.157 3.52771 16.045 3.4813 15.9624 3.39869C15.8798 3.31609 15.8334 3.20405 15.8334 3.08722ZM21.848 9.18132C22.2335 11.4807 21.8784 13.843 20.8341 15.9275C19.7897 18.0119 18.1101 19.7106 16.0376 20.7784C13.9651 21.8463 11.607 22.2279 9.30348 21.8684C6.99998 21.5089 4.87029 20.4267 3.22175 18.7782C1.57321 17.1296 0.491102 14.9998 0.131585 12.6963C-0.227932 10.3927 0.153742 8.03451 1.22152 5.96197C2.2893 3.88943 3.98797 2.20977 6.07235 1.16539C8.15674 0.121008 10.519 -0.23407 12.8183 0.151398C12.9327 0.171619 13.0344 0.236171 13.1014 0.331012C13.1684 0.425853 13.1952 0.543311 13.1761 0.657835C13.1569 0.77236 13.0933 0.874686 12.9991 0.942557C12.9049 1.01043 12.7877 1.03835 12.673 1.02025C12.1161 0.928954 11.5526 0.883651 10.9882 0.884804C8.98755 0.886264 7.03214 1.48006 5.3685 2.59131C3.70485 3.70257 2.40747 5.28154 1.63993 7.12913C0.872386 8.97672 0.66905 11.0102 1.05556 12.9732C1.44207 14.9362 2.40112 16.7408 3.81178 18.1595C4.90603 16.33 6.66031 14.9899 8.71314 14.4154C7.75868 13.9078 7.00139 13.0955 6.56175 12.1079C6.12211 11.1203 6.02538 10.014 6.28696 8.96501C6.54853 7.91606 7.15337 6.98472 8.00526 6.31917C8.85715 5.65361 9.90714 5.29207 10.9882 5.29207C12.0692 5.29207 13.1192 5.65361 13.9711 6.31917C14.823 6.98472 15.4278 7.91606 15.6894 8.96501C15.951 10.014 15.8543 11.1203 15.4146 12.1079C14.975 13.0955 14.2177 13.9078 13.2632 14.4154C15.3161 14.9899 17.0703 16.33 18.1646 18.1595C19.1021 17.2212 19.8456 16.1074 20.3525 14.8817C20.8595 13.6559 21.1199 12.3424 21.1191 11.0159C21.1189 10.45 21.0721 9.88497 20.9792 9.32668C20.9611 9.21198 20.989 9.09478 21.0569 9.00056C21.1248 8.90635 21.2271 8.84274 21.3416 8.82358C21.4561 8.80442 21.5736 8.83126 21.6684 8.89825C21.7633 8.96525 21.8278 9.06698 21.848 9.18132ZM10.9882 14.0993C11.7722 14.0993 12.5387 13.8668 13.1906 13.4312C13.8425 12.9956 14.3506 12.3765 14.6507 11.6521C14.9507 10.9277 15.0292 10.1306 14.8763 9.36156C14.7233 8.59255 14.3457 7.88617 13.7913 7.33175C13.2369 6.77732 12.5306 6.39975 11.7616 6.24679C10.9926 6.09382 10.1955 6.17233 9.47113 6.47238C8.74676 6.77243 8.12762 7.28056 7.69203 7.93249C7.25643 8.58443 7.02393 9.35089 7.02393 10.135C7.02393 11.1864 7.44159 12.1947 8.18503 12.9382C8.92847 13.6817 9.9368 14.0993 10.9882 14.0993ZM10.9882 21.1471C13.3715 21.1491 15.6786 20.3072 17.5006 18.7707C16.8471 17.6195 15.9002 16.6622 14.7563 15.9962C13.6124 15.3302 12.3124 14.9794 10.9887 14.9794C9.66509 14.9794 8.3651 15.3302 7.2212 15.9962C6.0773 16.6622 5.13038 17.6195 4.4769 18.7707C6.29829 20.3074 8.60512 21.1493 10.9882 21.1471Z" fill="black"/>
</svg>
