<svg
      width="124"
      height="119"
      viewBox="0 0 124 119"
      fill="none"
      xmlns="http://www.w3.org/2000/svg"
    >
      <circle cx="52" cy="67" r="52" fill="#E88385" />
      <path
        d="M80.7972 44H23.1999C21.4353 44 20 45.4353 20 47.1999V87.7314C20 89.4959 21.4353 90.9312 23.1999 90.9312H80.7972C82.5617 90.9312 83.997 89.4959 83.997 87.7314V71.9133C83.997 71.9131 83.997 71.913 83.997 71.9127V47.1999C83.997 45.4353 82.5617 44 80.7972 44ZM23.1999 88.7979C22.6119 88.7979 22.1333 88.3193 22.1333 87.7314V74.4991L32.0542 64.5777C32.4552 64.1714 33.1385 64.1662 33.55 64.5829L44.0924 75.1156L30.4059 88.7979H23.1999ZM81.8638 87.7312C81.8638 88.3192 81.3852 88.7978 80.7972 88.7978H33.4229L65.1193 57.1113C65.5203 56.705 66.2041 56.6998 66.6146 57.1165L81.8639 72.3556L81.8638 87.7312ZM81.8638 69.3392L68.1274 55.6125C66.9181 54.3885 64.8062 54.3938 63.6062 55.6072L45.6008 73.6075L35.0624 63.0789C33.8531 61.8549 31.7412 61.8597 30.5413 63.0742L22.1333 71.4826V47.1999C22.1333 46.6119 22.6119 46.1333 23.1999 46.1333H80.7972C81.3852 46.1333 81.8638 46.6119 81.8638 47.1999V69.3392Z"
        fill="white"
      />
      <path
        d="M46.6653 51.4663C43.1364 51.4663 40.2656 54.3371 40.2656 57.866C40.2656 61.395 43.1364 64.2657 46.6653 64.2657C50.1943 64.2657 53.065 61.395 53.065 57.866C53.065 54.3371 50.1944 51.4663 46.6653 51.4663ZM46.6653 62.1324C44.3128 62.1324 42.3989 60.2184 42.3989 57.866C42.3989 55.5136 44.3128 53.5996 46.6653 53.5996C49.0178 53.5996 50.9318 55.5136 50.9318 57.866C50.9318 60.2184 49.0178 62.1324 46.6653 62.1324Z"
        fill="white"
      />
      <g filter="url(#filter0_d_1051_1038)">
        <path
          d="M114.677 12.6089C115.599 10.685 115.468 8.35423 113.887 6.77283L113.228 6.11448C111.647 4.53308 109.253 4.28148 107.392 5.32378C106.082 6.05737 103.31 4.53202 103.105 3.54402C102.674 1.4691 100.672 -0.000183105 98.4498 -0.000183105L97.3186 0.0572824C94.717 0.189462 92.6756 2.33733 92.6756 4.9422C92.7644 6.07198 90.8284 6.908 89.7038 6.173C87.7737 4.24294 84.6445 4.24294 82.7144 6.173L82.1731 6.71431C80.518 8.36945 80.3258 10.8802 81.466 12.813C82.2482 14.1388 81.4854 16.4856 80.2004 16.8015C77.8622 17.3764 76 19.0963 76 21.6306V22.4488C76 24.6932 77.6349 26.3678 79.6686 27.0892C81.7788 27.8378 81.6123 30.9331 81.396 31.304C80.2924 33.1962 80.5514 35.6647 82.1732 37.2865L82.7145 37.8278C84.3281 39.4414 86.738 39.6295 88.6685 38.6214C90.0511 37.8994 92.6325 39.2488 92.8466 40.352C93.2616 42.4899 95.336 44.001 97.618 44.001H98.3222C100.559 44.001 102.454 42.5327 103.094 40.5072C103.513 39.1826 105.54 37.8408 107.556 38.6891C109.474 39.496 111.837 39.2777 113.336 37.7788L113.828 37.2865C115.758 35.3564 115.758 32.2271 113.828 30.2972C112.961 29.51 114.076 27.3392 115.059 27.3254C117.789 27.3254 120.001 25.1126 120.001 22.383V21.5369C120.001 19.2641 118.492 17.2368 116.369 16.7702C114.941 16.4562 114.215 13.5742 114.677 12.6089Z"
          fill="#45C9A5"
        />
      </g>
      <path
        d="M94.1492 28.7176L88.414 22.9824C87.7266 22.295 87.7266 21.1807 88.414 20.4934C89.1014 19.806 90.2157 19.806 90.903 20.4934L95.3937 24.984L105.095 15.2832C105.782 14.5958 106.896 14.5958 107.584 15.2832C108.271 15.9706 108.271 17.0849 107.584 17.7722L96.6383 28.7176C95.9161 29.3339 94.6254 29.2459 94.1492 28.7176Z"
        fill="white"
      />
      <defs>
        <filter
          id="filter0_d_1051_1038"
          x="72"
          y="-0.000183105"
          width="52"
          height="52.0012"
          filterUnits="userSpaceOnUse"
          color-interpolation-filters="sRGB"
        >
          <feFlood flood-opacity="0" result="BackgroundImageFix" />
          <feColorMatrix
            in="SourceAlpha"
            type="matrix"
            values="0 0 0 0 0 0 0 0 0 0 0 0 0 0 0 0 0 0 127 0"
            result="hardAlpha"
          />
          <feOffset dy="4" />
          <feGaussianBlur stdDeviation="2" />
          <feComposite in2="hardAlpha" operator="out" />
          <feColorMatrix
            type="matrix"
            values="0 0 0 0 0 0 0 0 0 0 0 0 0 0 0 0 0 0 0.25 0"
          />
          <feBlend
            mode="normal"
            in2="BackgroundImageFix"
            result="effect1_dropShadow_1051_1038"
          />
          <feBlend
            mode="normal"
            in="SourceGraphic"
            in2="effect1_dropShadow_1051_1038"
            result="shape"
          />
        </filter>
      </defs>
    </svg>