<svg width="48" height="48" viewBox="0 0 48 48" fill="none" xmlns="http://www.w3.org/2000/svg">
<path d="M42.6486 40.125C39.5511 34.77 34.5861 31.1138 28.8336 29.7956C31.567 28.6757 33.8268 26.6414 35.2269 24.0402C36.6269 21.4391 37.0803 18.4325 36.5096 15.5342C35.9389 12.6358 34.3795 10.0256 32.0978 8.14936C29.8162 6.27316 26.9538 5.24744 23.9998 5.24744C21.0458 5.24744 18.1835 6.27316 15.9018 8.14936C13.6201 10.0256 12.0607 12.6358 11.49 15.5342C10.9193 18.4325 11.3727 21.4391 12.7727 24.0402C14.1728 26.6414 16.4326 28.6757 19.1661 29.7956C13.4211 31.1081 8.44856 34.77 5.35106 40.125C5.2614 40.2964 5.24143 40.4958 5.29533 40.6816C5.34922 40.8674 5.47282 41.0252 5.64029 41.122C5.80777 41.2188 6.00617 41.2471 6.19406 41.2011C6.38195 41.1551 6.54479 41.0383 6.64856 40.875C10.3123 34.5356 16.8036 30.75 23.9998 30.75C31.1961 30.75 37.6873 34.5356 41.3511 40.875C41.4168 40.9889 41.5114 41.0835 41.6252 41.1493C41.7391 41.2152 41.8683 41.2499 41.9998 41.25C42.1316 41.2504 42.2611 41.2154 42.3748 41.1488C42.5467 41.0492 42.6721 40.8854 42.7234 40.6935C42.7748 40.5016 42.7478 40.2971 42.6486 40.125ZM12.7498 18C12.7498 15.775 13.4096 13.5999 14.6458 11.7498C15.8819 9.89979 17.639 8.45785 19.6946 7.60636C21.7503 6.75487 24.0123 6.53209 26.1946 6.96617C28.3769 7.40025 30.3814 8.47171 31.9548 10.0451C33.5281 11.6184 34.5996 13.623 35.0336 15.8052C35.4677 17.9875 35.2449 20.2495 34.3935 22.3052C33.542 24.3609 32.1 26.1179 30.25 27.354C28.3999 28.5902 26.2249 29.25 23.9998 29.25C21.0172 29.2465 18.1577 28.0602 16.0487 25.9511C13.9397 23.8421 12.7533 20.9826 12.7498 18Z" fill="white"/>
</svg>
