<svg width="22" height="21" viewBox="0 0 22 21" fill="none" xmlns="http://www.w3.org/2000/svg">
<path d="M15.8334 3.10894C15.8334 3.00242 15.8798 2.90027 15.9624 2.82495C16.045 2.74963 16.157 2.70732 16.2739 2.70732H18.4762V0.699232C18.4762 0.592717 18.5226 0.490564 18.6052 0.415246C18.6878 0.339928 18.7999 0.297615 18.9167 0.297615C19.0335 0.297615 19.1455 0.339928 19.2282 0.415246C19.3108 0.490564 19.3572 0.592717 19.3572 0.699232V2.70732H21.5595C21.6763 2.70732 21.7884 2.74963 21.871 2.82495C21.9536 2.90027 22 3.00242 22 3.10894C22 3.21545 21.9536 3.31761 21.871 3.39293C21.7884 3.46824 21.6763 3.51056 21.5595 3.51056H19.3572V5.51865C19.3572 5.62516 19.3108 5.72731 19.2282 5.80263C19.1455 5.87795 19.0335 5.92026 18.9167 5.92026C18.7999 5.92026 18.6878 5.87795 18.6052 5.80263C18.5226 5.72731 18.4762 5.62516 18.4762 5.51865V3.51056H16.2739C16.157 3.51056 16.045 3.46824 15.9624 3.39293C15.8798 3.31761 15.8334 3.21545 15.8334 3.10894ZM21.848 8.66532C22.2335 10.7618 21.8784 12.9157 20.8341 14.8162C19.7897 16.7168 18.1101 18.2656 16.0376 19.2392C13.9651 20.2128 11.607 20.5608 9.30348 20.233C6.99998 19.9052 4.87029 18.9185 3.22175 17.4154C1.57321 15.9123 0.491102 13.9704 0.131585 11.8701C-0.227932 9.76983 0.153742 7.6197 1.22152 5.73003C2.2893 3.84036 3.98797 2.30891 6.07235 1.35668C8.15674 0.404448 10.519 0.0807004 12.8183 0.432157C12.9327 0.450593 13.0344 0.509449 13.1014 0.595922C13.1684 0.682394 13.1952 0.789488 13.1761 0.893908C13.1569 0.998327 13.0933 1.09162 12.9991 1.15351C12.9049 1.21539 12.7877 1.24085 12.673 1.22435C12.1161 1.1411 11.5526 1.0998 10.9882 1.10085C8.98755 1.10218 7.03214 1.64358 5.3685 2.65679C3.70485 3.66999 2.40747 5.10964 1.63993 6.79421C0.872386 8.47877 0.66905 10.3328 1.05556 12.1226C1.44207 13.9124 2.40112 15.5578 3.81178 16.8513C4.90603 15.1832 6.66031 13.9614 8.71314 13.4375C7.75868 12.9747 7.00139 12.2342 6.56175 11.3337C6.12211 10.4332 6.02538 9.42449 6.28696 8.4681C6.54853 7.5117 7.15337 6.66254 8.00526 6.05571C8.85715 5.44888 9.90714 5.11924 10.9882 5.11924C12.0692 5.11924 13.1192 5.44888 13.9711 6.05571C14.823 6.66254 15.4278 7.5117 15.6894 8.4681C15.951 9.42449 15.8543 10.4332 15.4146 11.3337C14.975 12.2342 14.2177 12.9747 13.2632 13.4375C15.3161 13.9614 17.0703 15.1832 18.1646 16.8513C19.1021 15.9958 19.8456 14.9803 20.3525 13.8627C20.8595 12.7451 21.1199 11.5474 21.1191 10.3381C21.1189 9.82203 21.0721 9.30688 20.9792 8.79786C20.9611 8.69328 20.989 8.58642 21.0569 8.50051C21.1248 8.41461 21.2271 8.35662 21.3416 8.33915C21.4561 8.32168 21.5736 8.34615 21.6684 8.40723C21.7633 8.46831 21.8278 8.56107 21.848 8.66532ZM10.9882 13.1494C11.7722 13.1494 12.5387 12.9374 13.1906 12.5402C13.8425 12.143 14.3506 11.5785 14.6507 10.9181C14.9507 10.2576 15.0292 9.53081 14.8763 8.82966C14.7233 8.1285 14.3457 7.48445 13.7913 6.97894C13.2369 6.47344 12.5306 6.12918 11.7616 5.98972C10.9926 5.85025 10.1955 5.92183 9.47113 6.19541C8.74676 6.46898 8.12762 6.93227 7.69203 7.52668C7.25643 8.12109 7.02393 8.81993 7.02393 9.53482C7.02393 10.4935 7.44159 11.4128 8.18503 12.0907C8.92847 12.7686 9.9368 13.1494 10.9882 13.1494ZM10.9882 19.5753C13.3715 19.5771 15.6786 18.8095 17.5006 17.4085C16.8471 16.359 15.9002 15.4861 14.7563 14.8789C13.6124 14.2717 12.3124 13.9518 10.9887 13.9518C9.66509 13.9518 8.3651 14.2717 7.2212 14.8789C6.0773 15.4861 5.13038 16.359 4.4769 17.4085C6.29829 18.8097 8.60512 19.5773 10.9882 19.5753Z" fill="white"/>
</svg>
