<svg width="22" height="22" viewBox="0 0 22 22" fill="none" xmlns="http://www.w3.org/2000/svg">
<path d="M21.8753 20.6613C20.266 17.7681 17.7859 15.6934 14.8917 14.71C16.3233 13.8237 17.4356 12.4732 18.0577 10.866C18.6799 9.25871 18.7774 7.48351 18.3355 5.81299C17.8935 4.14247 16.9365 2.66901 15.6113 1.61887C14.2861 0.568738 12.6661 0 11 0C9.33391 0 7.71389 0.568738 6.38871 1.61887C5.06353 2.66901 4.10647 4.14247 3.66452 5.81299C3.22256 7.48351 3.32013 9.25871 3.94226 10.866C4.56438 12.4732 5.67666 13.8237 7.10827 14.71C4.21405 15.6923 1.73404 17.767 0.124726 20.6613C0.0657095 20.7614 0.0265643 20.8728 0.00960006 20.9888C-0.00736422 21.1049 -0.00180403 21.2233 0.0259526 21.3371C0.0537092 21.4509 0.1031 21.5577 0.171211 21.6513C0.239322 21.7449 0.324773 21.8234 0.422522 21.8821C0.520272 21.9409 0.628341 21.9786 0.740351 21.9932C0.852362 22.0078 0.966047 21.9989 1.0747 21.967C1.18335 21.9352 1.28476 21.881 1.37296 21.8077C1.46116 21.7345 1.53435 21.6436 1.58822 21.5404C3.57899 17.9626 7.09771 15.8264 11 15.8264C14.9023 15.8264 18.421 17.9626 20.4118 21.5404C20.4657 21.6436 20.5388 21.7345 20.627 21.8077C20.7152 21.881 20.8167 21.9352 20.9253 21.967C21.034 21.9989 21.1476 22.0078 21.2596 21.9932C21.3717 21.9786 21.4797 21.9409 21.5775 21.8821C21.6752 21.8234 21.7607 21.7449 21.8288 21.6513C21.8969 21.5577 21.9463 21.4509 21.974 21.3371C22.0018 21.2233 22.0074 21.1049 21.9904 20.9888C21.9734 20.8728 21.9343 20.7614 21.8753 20.6613ZM5.08263 7.9147C5.08263 6.69764 5.42968 5.50791 6.07989 4.49597C6.7301 3.48402 7.65426 2.69531 8.73552 2.22956C9.81678 1.76381 11.0066 1.64195 12.1544 1.87939C13.3023 2.11682 14.3567 2.70289 15.1842 3.56348C16.0118 4.42407 16.5753 5.52053 16.8037 6.7142C17.032 7.90787 16.9148 9.14515 16.4669 10.2696C16.0191 11.394 15.2606 12.355 14.2875 13.0312C13.3144 13.7073 12.1703 14.0682 11 14.0682C9.43113 14.0665 7.927 13.4176 6.81764 12.264C5.70829 11.1104 5.08431 9.54619 5.08263 7.9147Z" fill="#222222"/>
</svg>
