<svg width="46" height="36" viewBox="0 0 46 36" fill="none" xmlns="http://www.w3.org/2000/svg">
<path fill-rule="evenodd" clip-rule="evenodd" d="M0.194517 1.58657C0.388085 1.11681 0.715735 0.715344 1.13604 0.43294C1.55635 0.150535 2.05044 -0.00012789 2.55584 8.14552e-08H28.1112C30.4604 4.6232e-08 32.7866 0.465584 34.957 1.37017C37.1273 2.27475 39.0994 3.60062 40.7605 5.27208C42.4216 6.94353 43.7393 8.92784 44.6383 11.1117C45.5373 13.2956 46 15.6362 46 18C46 20.3638 45.5373 22.7044 44.6383 24.8883C43.7393 27.0722 42.4216 29.0565 40.7605 30.7279C39.0994 32.3994 37.1273 33.7252 34.957 34.6298C32.7866 35.5344 30.4604 36 28.1112 36H5.11137C4.4336 36 3.78359 35.7291 3.30434 35.2468C2.82508 34.7646 2.55584 34.1106 2.55584 33.4286C2.55584 32.7466 2.82508 32.0925 3.30434 31.6103C3.78359 31.1281 4.4336 30.8571 5.11137 30.8571H28.1112C31.5001 30.8571 34.7501 29.5026 37.1464 27.0914C39.5427 24.6802 40.8889 21.4099 40.8889 18C40.8889 14.5901 39.5427 11.3198 37.1464 8.90863C34.7501 6.49745 31.5001 5.14286 28.1112 5.14286H8.72491L13.307 9.75343C13.7725 10.2384 14.0301 10.888 14.0243 11.5622C14.0184 12.2364 13.7497 12.8813 13.2759 13.3581C12.802 13.8349 12.1611 14.1053 11.491 14.1112C10.821 14.117 10.1754 13.8578 9.69346 13.3894L0.749069 4.38943C0.391466 4.02983 0.147899 3.57158 0.0491867 3.07266C-0.0495261 2.57374 0.00105055 2.05656 0.194517 1.58657Z" fill="#467888"/>
</svg>
