<svg width="11" height="19" viewBox="0 0 11 19" fill="none" xmlns="http://www.w3.org/2000/svg">
<path d="M0.46183 18.5314C0.153943 18.219 0 17.8214 0 17.3386C0 16.8558 0.153943 16.4581 0.46183 16.1457L7.01143 9.5L0.46183 2.85426C0.153943 2.54185 0 2.14424 0 1.66143C0 1.17862 0.153943 0.781016 0.46183 0.468609C0.769718 0.156203 1.16157 0 1.6374 0C2.11323 0 2.50508 0.156203 2.81297 0.468609L10.5381 8.30717C10.7061 8.47758 10.8253 8.66218 10.8959 8.86099C10.9664 9.05979 11.0011 9.27279 11 9.5C11 9.7272 10.9647 9.94021 10.8942 10.139C10.8236 10.3378 10.705 10.5224 10.5381 10.6928L2.81297 18.5314C2.50508 18.8438 2.11323 19 1.6374 19C1.16157 19 0.769718 18.8438 0.46183 18.5314Z" fill="#455A64"/>
</svg>
