<svg width="17" height="18" viewBox="0 0 17 18" fill="none" xmlns="http://www.w3.org/2000/svg">
<path d="M6.82386 0.242357C6.96646 0.109444 7.16001 0.0346279 7.36193 0.0343628C7.56386 0.0340977 7.75764 0.108404 7.90064 0.240942L16.253 7.97915C16.3313 8.05152 16.3934 8.13757 16.4358 8.23234C16.4782 8.32711 16.5 8.42874 16.5 8.53137C16.5 8.63401 16.4782 8.73564 16.4358 8.83041C16.3934 8.92518 16.3313 9.01123 16.253 9.0836L7.90064 16.819C7.83029 16.8865 7.74618 16.9403 7.65322 16.9773C7.56025 17.0143 7.4603 17.0337 7.35919 17.0343C7.25808 17.035 7.15783 17.017 7.0643 16.9813C6.97077 16.9455 6.88583 16.8929 6.81443 16.8263C6.74304 16.7597 6.68661 16.6806 6.64846 16.5936C6.6103 16.5065 6.59117 16.4133 6.59219 16.3193C6.59321 16.2253 6.61435 16.1324 6.65439 16.0461C6.69443 15.9597 6.75255 15.8817 6.82538 15.8165L14.6919 8.53137L6.82538 1.24344C6.68241 1.11086 6.60194 0.930922 6.60165 0.743191C6.60137 0.55546 6.68129 0.375311 6.82386 0.242357ZM0.731703 0.242357C0.874307 0.109444 1.06785 0.0346279 1.26978 0.0343628C1.47171 0.0340977 1.66548 0.108404 1.80849 0.240942L10.1608 7.97915C10.2391 8.05152 10.3012 8.13757 10.3436 8.23234C10.386 8.32711 10.4078 8.42874 10.4078 8.53137C10.4078 8.63401 10.386 8.73564 10.3436 8.83041C10.3012 8.92518 10.2391 9.01123 10.1608 9.0836L1.80849 16.819C1.73814 16.8865 1.65403 16.9403 1.56106 16.9773C1.4681 17.0143 1.36815 17.0337 1.26704 17.0343C1.16593 17.035 1.06568 17.017 0.972151 16.9813C0.878621 16.9455 0.79368 16.8929 0.722282 16.8263C0.650885 16.7597 0.594462 16.6806 0.556304 16.5936C0.518147 16.5065 0.49902 16.4133 0.500039 16.3193C0.501057 16.2253 0.522201 16.1324 0.562238 16.0461C0.602274 15.9597 0.660401 15.8817 0.733226 15.8165L8.59972 8.53137L0.733226 1.24344C0.590261 1.11086 0.509787 0.930922 0.509502 0.743191C0.509216 0.55546 0.589142 0.375311 0.731703 0.242357Z" fill="#455A64"/>
</svg>
