<svg width="32" height="33" viewBox="0 0 32 33" fill="none" xmlns="http://www.w3.org/2000/svg">
<path d="M30.4539 32.2675C31.2818 33.0908 32.5597 31.82 31.7318 31.0146L24.9823 24.285C27.3499 21.6799 28.6586 18.2924 28.654 14.7811C28.654 6.92394 22.2285 0.534363 14.327 0.534363C6.42556 0.534363 0 6.92394 0 14.7811C0 22.6384 6.42556 29.0279 14.327 29.0279C17.8908 29.0279 21.1845 27.7214 23.7044 25.5557L30.4539 32.2675ZM1.79808 14.7811C1.79808 7.90833 7.43169 2.32416 14.3252 2.32416C21.2367 2.32416 26.8523 7.90833 26.8523 14.7811C26.8523 21.654 21.2367 27.2381 14.3252 27.2381C7.43169 27.2381 1.79808 21.654 1.79808 14.7811Z" fill="white"/>
</svg>
