<svg width="40" height="40" viewBox="0 0 40 40" fill="none" xmlns="http://www.w3.org/2000/svg">
<path d="M7.81844 11.0483C9.6037 11.0483 11.0509 9.6011 11.0509 7.81584C11.0509 6.03058 9.6037 4.58334 7.81844 4.58334C6.03318 4.58334 4.58594 6.03058 4.58594 7.81584C4.58594 9.6011 6.03318 11.0483 7.81844 11.0483Z" stroke="white" stroke-width="0.833333" stroke-linecap="round" stroke-linejoin="round"/>
<path d="M7.81844 35.4167C9.6037 35.4167 11.0509 33.9694 11.0509 32.1842C11.0509 30.3989 9.6037 28.9517 7.81844 28.9517C6.03318 28.9517 4.58594 30.3989 4.58594 32.1842C4.58594 33.9694 6.03318 35.4167 7.81844 35.4167Z" stroke="white" stroke-width="0.833333" stroke-linecap="round" stroke-linejoin="round"/>
<path d="M7.81844 23.2325C9.6037 23.2325 11.0509 21.7852 11.0509 20C11.0509 18.2147 9.6037 16.7675 7.81844 16.7675C6.03318 16.7675 4.58594 18.2147 4.58594 20C4.58594 21.7852 6.03318 23.2325 7.81844 23.2325Z" stroke="white" stroke-width="0.833333" stroke-linecap="round" stroke-linejoin="round"/>
<path d="M33.9262 4.58334H16.0229C15.1991 4.58334 14.5312 5.25119 14.5312 6.07501V9.55668C14.5312 10.3805 15.1991 11.0483 16.0229 11.0483H33.9262C34.7501 11.0483 35.4179 10.3805 35.4179 9.55668V6.07501C35.4179 5.25119 34.7501 4.58334 33.9262 4.58334Z" stroke="white" stroke-width="0.833333" stroke-linecap="round" stroke-linejoin="round"/>
<path d="M33.9262 28.9517H16.0229C15.1991 28.9517 14.5312 29.6195 14.5312 30.4433V33.925C14.5312 34.7488 15.1991 35.4167 16.0229 35.4167H33.9262C34.7501 35.4167 35.4179 34.7488 35.4179 33.925V30.4433C35.4179 29.6195 34.7501 28.9517 33.9262 28.9517Z" stroke="white" stroke-width="0.833333" stroke-linecap="round" stroke-linejoin="round"/>
<path d="M33.9262 16.7675H16.0229C15.1991 16.7675 14.5312 17.4353 14.5312 18.2592V21.7408C14.5312 22.5646 15.1991 23.2325 16.0229 23.2325H33.9262C34.7501 23.2325 35.4179 22.5646 35.4179 21.7408V18.2592C35.4179 17.4353 34.7501 16.7675 33.9262 16.7675Z" stroke="white" stroke-width="0.833333" stroke-linecap="round" stroke-linejoin="round"/>
</svg>
