<svg width="14" height="15" viewBox="0 0 14 15" fill="none" xmlns="http://www.w3.org/2000/svg">
<path d="M10 13.6H4C1.6 13.6 1 13 1 10.6V9.40002C1 7.00002 1.6 6.40002 4 6.40002H10C12.4 6.40002 13 7.00002 13 9.40002V10.6C13 13 12.4 13.6 10 13.6Z" stroke="#467888" stroke-linecap="round" stroke-linejoin="round"/>
<path d="M3.3999 5.8V4.6C3.3999 2.614 3.9999 1 6.9999 1C9.9999 1 10.5999 2.614 10.5999 4.6V5.8" stroke="#467888" stroke-linecap="round" stroke-linejoin="round"/>
<path d="M7 10.9C7.82843 10.9 8.5 10.2285 8.5 9.40002C8.5 8.5716 7.82843 7.90002 7 7.90002C6.17157 7.90002 5.5 8.5716 5.5 9.40002C5.5 10.2285 6.17157 10.9 7 10.9Z" stroke="#467888" stroke-linecap="round" stroke-linejoin="round"/>
</svg>
