<svg width="500" height="500" viewBox="0 0 500 500" fill="none" xmlns="http://www.w3.org/2000/svg">
<g opacity="0.5">
<g style="mix-blend-mode:multiply">
<path d="M139.661 294.77C128.971 277.935 122.404 258.816 120.492 238.966C118.581 219.116 121.38 199.095 128.661 180.53C94.6308 201.72 69.0908 228.8 60.8008 261.26C50.1608 302.94 56.9308 355 114.711 373L139.661 294.77Z" fill="#FFC543"/>
</g>
<g style="mix-blend-mode:multiply">
<path d="M330.728 126C328.268 126 325.728 126 323.258 126.09C346.061 143.459 362.298 168.049 369.316 195.841C376.334 223.633 373.717 252.984 361.893 279.096C350.07 305.209 329.738 326.538 304.222 339.599C278.706 352.66 249.514 356.679 221.417 351L172.188 379.31C272.927 377.05 402.987 338.73 429.707 261.31C446.997 211.3 432.598 126 330.728 126Z" fill="#FFC543"/>
</g>
<g style="mix-blend-mode:multiply">
<path d="M128.923 328.44L139.663 294.77C128.948 277.896 122.378 258.727 120.488 238.829C118.599 218.93 121.444 198.867 128.791 180.278C136.138 161.69 147.779 145.103 162.763 131.874C177.746 118.645 195.647 109.148 215.003 104.16L212.493 104.5C144.133 114.93 39.693 165.88 68.223 243.05C79.003 272.2 100.293 302.86 128.923 328.44Z" fill="#FFC4C0"/>
<path d="M437.462 251.2C417.762 197.91 370.122 140.34 306.542 115.28C333.29 129.678 353.974 153.208 364.824 181.581C375.673 209.954 375.966 241.281 365.649 269.853C355.332 298.424 335.091 322.336 308.617 337.232C282.143 352.127 251.198 357.013 221.422 351L190.422 368.84C227.792 385.84 270.722 393.28 315.802 383.99C384.562 369.83 466.002 328.37 437.462 251.2Z" fill="#FFC4C0"/>
</g>
<path d="M332.5 98C336.642 98 340 94.6421 340 90.5C340 86.3579 336.642 83 332.5 83C328.358 83 325 86.3579 325 90.5C325 94.6421 328.358 98 332.5 98Z" fill="#63F7AA"/>
<path d="M48.5 242C52.6421 242 56 238.642 56 234.5C56 230.358 52.6421 227 48.5 227C44.3579 227 41 230.358 41 234.5C41 238.642 44.3579 242 48.5 242Z" fill="#63F7AA"/>
<g style="mix-blend-mode:multiply">
<path d="M354.279 110.58C354.279 111.512 354.003 112.422 353.486 113.197C352.968 113.971 352.232 114.575 351.372 114.931C350.511 115.288 349.564 115.381 348.65 115.2C347.737 115.018 346.898 114.569 346.239 113.91C345.58 113.252 345.132 112.413 344.95 111.499C344.768 110.585 344.861 109.638 345.218 108.778C345.574 107.917 346.178 107.181 346.953 106.664C347.727 106.146 348.638 105.87 349.569 105.87C350.188 105.869 350.801 105.99 351.373 106.226C351.945 106.462 352.465 106.809 352.903 107.247C353.34 107.684 353.687 108.204 353.924 108.776C354.16 109.348 354.281 109.961 354.279 110.58Z" fill="#F9EB3D"/>
</g>
<g style="mix-blend-mode:multiply">
<path d="M187.42 98.34C187.42 99.272 187.144 100.183 186.626 100.958C186.108 101.733 185.371 102.336 184.51 102.692C183.649 103.049 182.701 103.141 181.787 102.959C180.874 102.776 180.034 102.327 179.376 101.667C178.718 101.007 178.27 100.167 178.089 99.2527C177.909 98.3384 178.003 97.3911 178.361 96.5306C178.719 95.6702 179.325 94.9353 180.101 94.4189C180.876 93.9026 181.788 93.628 182.72 93.63C183.967 93.6327 185.163 94.1301 186.044 95.0131C186.925 95.8961 187.42 97.0926 187.42 98.34Z" fill="#F9EB3D"/>
</g>
<path d="M468 259.5C468 261.181 467.501 262.825 466.568 264.222C465.634 265.62 464.306 266.71 462.753 267.353C461.2 267.996 459.491 268.165 457.842 267.837C456.193 267.509 454.678 266.699 453.49 265.51C452.301 264.322 451.491 262.807 451.163 261.158C450.835 259.509 451.004 257.8 451.647 256.247C452.29 254.694 453.38 253.367 454.778 252.433C456.175 251.499 457.819 251 459.5 251C461.754 251.003 463.914 251.899 465.507 253.493C467.101 255.086 467.997 257.246 468 259.5Z" fill="#457888"/>
<path d="M96.5 387C99.5376 387 102 384.538 102 381.5C102 378.462 99.5376 376 96.5 376C93.4624 376 91 378.462 91 381.5C91 384.538 93.4624 387 96.5 387Z" fill="#457888"/>
<path d="M163.347 96.4C163.347 97.6679 162.97 98.9073 162.265 99.9608C161.559 101.014 160.557 101.835 159.384 102.317C158.212 102.8 156.923 102.924 155.68 102.673C154.437 102.422 153.297 101.808 152.404 100.908C151.511 100.007 150.905 98.8624 150.664 97.6177C150.423 96.3729 150.556 95.0845 151.049 93.916C151.541 92.7475 152.369 91.7514 153.428 91.0542C154.487 90.357 155.729 89.9901 156.997 90C158.686 90.0106 160.303 90.6899 161.493 91.8892C162.683 93.0886 163.35 94.7105 163.347 96.4Z" fill="#457888"/>
<g style="mix-blend-mode:multiply">
<path d="M53.6934 257.65C53.6934 258.582 53.4169 259.493 52.899 260.268C52.381 261.043 51.6448 261.646 50.7836 262.002C49.9223 262.359 48.9748 262.451 48.0609 262.269C47.147 262.086 46.3077 261.637 45.6494 260.977C44.9911 260.317 44.5433 259.477 44.3627 258.563C44.1821 257.648 44.2768 256.701 44.6348 255.841C44.9929 254.98 45.5981 254.245 46.374 253.729C47.1499 253.213 48.0615 252.938 48.9934 252.94C49.6115 252.94 50.2235 253.062 50.7944 253.299C51.3652 253.536 51.8838 253.883 52.3204 254.32C52.757 254.758 53.1029 255.277 53.3386 255.848C53.5742 256.42 53.6948 257.032 53.6934 257.65Z" fill="#F9EB3D"/>
</g>
<path d="M455.381 239.77C455.381 240.702 455.104 241.613 454.586 242.388C454.068 243.163 453.332 243.766 452.471 244.122C451.61 244.479 450.662 244.571 449.748 244.389C448.834 244.206 447.995 243.757 447.337 243.097C446.679 242.437 446.231 241.597 446.05 240.683C445.87 239.768 445.964 238.821 446.322 237.961C446.68 237.1 447.286 236.365 448.061 235.849C448.837 235.333 449.749 235.058 450.681 235.06C451.299 235.06 451.911 235.182 452.482 235.419C453.053 235.656 453.571 236.003 454.008 236.44C454.444 236.878 454.79 237.397 455.026 237.968C455.262 238.54 455.382 239.152 455.381 239.77Z" fill="#63F7AA"/>
<path d="M384.451 379.31C384.453 380.242 384.178 381.154 383.662 381.93C383.145 382.707 382.409 383.312 381.548 383.67C380.687 384.027 379.739 384.121 378.825 383.94C377.91 383.759 377.07 383.31 376.411 382.65C375.751 381.991 375.303 381.151 375.121 380.236C374.94 379.322 375.034 378.374 375.392 377.513C375.749 376.652 376.355 375.916 377.131 375.4C377.907 374.883 378.819 374.608 379.751 374.61C380.998 374.61 382.193 375.105 383.075 375.987C383.956 376.868 384.451 378.063 384.451 379.31Z" fill="#63F7AA"/>
<path d="M329.001 146.66C331.791 154.694 333.145 163.157 333.001 171.66C333.102 178.082 332.26 184.483 330.501 190.66C328.911 196.005 326.492 201.066 323.331 205.66C320.211 210.167 316.513 214.246 312.331 217.79C307.808 221.609 303.02 225.101 298.001 228.24C293.555 230.907 289.111 233.49 284.671 235.99C280.37 238.361 276.296 241.123 272.501 244.24C268.92 247.173 265.875 250.705 263.501 254.68C261.06 259.049 259.851 263.998 260.001 269H223.331C223.172 258.867 224.986 248.8 228.671 239.36C232.225 230.6 239.558 222.963 250.671 216.45C254.005 214.45 258.115 212.15 263.001 209.55C268.036 206.878 272.83 203.776 277.331 200.28C281.943 196.747 285.944 192.48 289.171 187.65C292.423 182.714 294.107 176.91 294.001 171C294.091 166.693 293.177 162.423 291.331 158.53C289.642 155.055 287.26 151.961 284.331 149.44C281.352 146.924 277.897 145.033 274.171 143.88C270.345 142.648 266.351 142.014 262.331 142C257.762 141.94 253.228 142.804 249.001 144.54C245.111 146.158 241.466 148.313 238.171 150.94C234.952 153.511 232.042 156.447 229.501 159.69C227.153 162.663 224.983 165.771 223.001 169L194.001 148.79C196.77 142.013 200.657 135.749 205.501 130.26C210.224 124.914 215.73 120.316 221.831 116.62C224.211 115.174 226.672 113.865 229.201 112.7C174.481 121.23 132.581 169.03 132.581 226.7C132.547 249.172 139.059 271.168 151.321 290L115.781 402.65L224.001 339.76V301H261.001V341.16C317.331 334.07 360.921 285.52 360.921 226.68C360.989 196.89 349.554 168.224 329.001 146.66Z" fill="#FF5F5F"/>
<path d="M179.741 247C178.819 243.409 178.608 239.672 179.121 236C179.654 232.567 181.654 229.213 185.121 225.94C186.121 224.94 187.431 223.76 188.971 222.42C190.546 221.028 192.004 219.51 193.331 217.88C194.686 216.226 195.76 214.362 196.511 212.36C197.257 210.32 197.365 208.102 196.821 206C196.495 204.459 195.81 203.016 194.821 201.79C193.916 200.697 192.796 199.802 191.531 199.16C190.238 198.522 188.83 198.148 187.391 198.06C185.911 197.958 184.425 198.08 182.981 198.42C181.333 198.795 179.776 199.496 178.401 200.48C177.139 201.387 176.011 202.468 175.051 203.69C174.114 204.884 173.319 206.183 172.681 207.56C172.085 208.814 171.568 210.103 171.131 211.42L158.961 206.73C159.384 204.075 160.249 201.509 161.521 199.14C162.765 196.824 164.353 194.71 166.231 192.87C168.134 191.004 170.292 189.419 172.641 188.16C175.063 186.855 177.645 185.87 180.321 185.23C183.367 184.499 186.503 184.216 189.631 184.39C192.753 184.544 195.812 185.319 198.631 186.67C201.546 188.1 204.116 190.148 206.161 192.67C208.526 195.654 210.169 199.145 210.961 202.87C211.552 205.154 211.798 207.513 211.691 209.87C211.581 211.927 211.142 213.952 210.391 215.87C209.654 217.748 208.672 219.52 207.471 221.14C206.17 222.905 204.747 224.576 203.211 226.14C201.838 227.473 200.458 228.777 199.071 230.05C197.726 231.266 196.497 232.605 195.401 234.05C194.365 235.403 193.574 236.925 193.061 238.55C192.566 240.316 192.566 242.184 193.061 243.95L179.741 247ZM186.691 274.89L182.691 258.33L196.001 255.13L200.001 271.69L186.691 274.89Z" fill="white"/>
<path d="M295.517 282.8C296.053 280.436 297.049 278.2 298.447 276.22C300.089 274.187 302.362 272.759 304.907 272.16C305.807 271.88 306.907 271.58 308.197 271.26C309.529 270.928 310.83 270.483 312.087 269.93C313.366 269.374 314.545 268.61 315.577 267.67C316.621 266.711 317.347 265.454 317.657 264.07C317.921 263.074 317.948 262.029 317.737 261.02C317.537 260.115 317.152 259.26 316.607 258.51C316.049 257.754 315.345 257.118 314.537 256.64C313.709 256.135 312.808 255.761 311.867 255.53C310.796 255.254 309.681 255.193 308.587 255.35C307.586 255.511 306.611 255.803 305.687 256.22C304.786 256.633 303.937 257.15 303.157 257.76C302.436 258.309 301.751 258.904 301.107 259.54L295.437 253.18C296.47 251.762 297.738 250.531 299.187 249.54C300.601 248.565 302.155 247.809 303.797 247.3C305.46 246.789 307.187 246.513 308.927 246.48C310.722 246.447 312.514 246.648 314.257 247.08C316.245 247.561 318.153 248.333 319.917 249.37C321.681 250.388 323.224 251.748 324.457 253.37C325.723 255.07 326.603 257.025 327.037 259.1C327.518 261.537 327.429 264.053 326.777 266.45C326.437 267.952 325.874 269.395 325.107 270.73C324.436 271.884 323.582 272.921 322.577 273.8C321.59 274.674 320.49 275.411 319.307 275.99C318.029 276.617 316.709 277.155 315.357 277.6C314.157 277.97 312.967 278.31 311.787 278.6C310.642 278.907 309.528 279.315 308.457 279.82C307.453 280.301 306.54 280.95 305.757 281.74C304.936 282.611 304.369 283.69 304.117 284.86L295.517 282.8ZM291.227 301.08L293.857 290.27L302.547 292.39L299.907 303.19L291.227 301.08Z" fill="white"/>
<path d="M114.961 401.84L179.461 320.82L223.721 339.3L114.961 401.84Z" fill="#FF4545"/>
<path d="M150.621 290C152.802 287.091 155.983 285.092 159.551 284.39C151.144 271.684 145.62 257.291 143.369 242.222C141.117 227.154 142.192 211.775 146.518 197.166C150.844 182.557 158.316 169.072 168.409 157.659C178.502 146.246 190.971 137.18 204.941 131.1L205.131 130.89C209.888 125.567 215.42 120.993 221.541 117.32C223.936 115.886 226.41 114.587 228.951 113.43C209.978 116.382 192.049 124.048 176.806 135.726C161.564 147.404 149.496 162.72 141.707 180.271C133.919 197.822 130.659 217.047 132.227 236.185C133.795 255.322 140.14 273.76 150.681 289.81L150.621 290Z" fill="#FF4545"/>
<path d="M329.33 147.26C331.781 154.118 333.131 161.32 333.33 168.6C343.209 183.298 349.185 200.269 350.697 217.914C352.209 235.558 349.206 253.298 341.972 269.463C334.738 285.627 323.51 299.686 309.345 310.314C295.179 320.943 278.543 327.793 261 330.22V340.69C282.121 338.033 302.087 329.553 318.665 316.197C335.242 302.841 347.777 285.137 354.867 265.065C361.958 244.993 363.325 223.344 358.815 202.539C354.305 181.734 344.096 162.594 329.33 147.26Z" fill="#FF4545"/>
</g>
</svg>
