<svg width="30" height="30" viewBox="0 0 30 30" fill="none" xmlns="http://www.w3.org/2000/svg">
<path d="M18.75 10H18.7625M13.75 25H8.75C7.75544 25 6.80161 24.6049 6.09835 23.9017C5.39509 23.1984 5 22.2446 5 21.25V8.75C5 7.75544 5.39509 6.80161 6.09835 6.09835C6.80161 5.39509 7.75544 5 8.75 5H21.25C22.2446 5 23.1984 5.39509 23.9017 6.09835C24.6049 6.80161 25 7.75544 25 8.75V13.75" stroke="white" stroke-width="3.33333" stroke-linecap="round" stroke-linejoin="round"/>
<path d="M5 18.75L10 13.75C11.16 12.6338 12.59 12.6338 13.75 13.75L17.5 17.5L18.75 16.25C19.1375 15.8775 19.555 15.6288 19.9838 15.505M23.025 19.5125C23.2688 19.2688 23.5582 19.0754 23.8767 18.9435C24.1952 18.8115 24.5365 18.7436 24.8813 18.7436C25.226 18.7436 25.5673 18.8115 25.8858 18.9435C26.2043 19.0754 26.4937 19.2688 26.7375 19.5125C26.9813 19.7563 27.1746 20.0457 27.3066 20.3642C27.4385 20.6827 27.5064 21.024 27.5064 21.3688C27.5064 21.7135 27.4385 22.0549 27.3066 22.3734C27.1746 22.6919 26.9813 22.9813 26.7375 23.225L22.5 27.5H18.75V23.75L23.025 19.5125Z" stroke="white" stroke-width="3.33333" stroke-linecap="round" stroke-linejoin="round"/>
</svg>
