<svg width="172" height="172" viewBox="0 0 172 172" fill="none" xmlns="http://www.w3.org/2000/svg">
<circle cx="86" cy="86" r="84.5" stroke="#FFE8AC" stroke-width="3"/>
<path d="M100.329 119.268C97.7387 117.693 95.2596 115.895 92.9591 113.93C88.9166 110.468 86.5939 105.421 86.5939 100.094V83.265C86.5939 80.1159 89.1511 77.5586 92.3003 77.5586C95.4494 77.5586 98.0067 80.1159 98.0067 83.265V96.0514H95.7732V83.265C95.7732 81.3554 94.221 79.792 92.3003 79.792C90.3795 79.792 88.8273 81.3443 88.8273 83.265V100.094C88.8273 104.762 90.8597 109.195 94.4109 112.233C96.622 114.12 99.0005 115.851 101.491 117.358L100.329 119.268Z" fill="#FFE8AC"/>
<path d="M113.049 102.807L105.835 97.1903C104.584 96.2188 103.87 94.7447 103.87 93.159L99.7379 44.1242L98.7552 44.2023C96.6111 44.381 95.0031 46.1342 95.0031 48.2783C94.9807 67.9883 94.9472 78.2956 94.8914 78.8986L92.6691 78.6976C92.7138 78.0276 92.7473 66.9386 92.7696 48.2783C92.7696 44.9617 95.2711 42.2592 98.5654 41.9689L100.665 41.7902C100.966 41.7679 101.257 41.8572 101.48 42.0471C101.703 42.2369 101.849 42.5161 101.871 42.8064L106.092 93.0473C106.092 94.0301 106.505 94.8564 107.209 95.4036L114.423 101.01L113.049 102.774V102.807Z" fill="#FFE8AC"/>
<path d="M123.814 145.377L98.7882 119.938C98.3974 119.536 98.3639 118.91 98.6989 118.475L113.73 99.1C114.098 98.6198 114.791 98.5305 115.282 98.8878L143.01 119.692L141.67 121.479L114.813 101.333L101.055 119.067L125.4 143.813L123.803 145.377H123.814Z" fill="#FFE8AC"/>
<path d="M70.6802 119.268L69.5189 117.358C72.0091 115.851 74.3877 114.12 76.5988 112.233C80.15 109.195 82.1824 104.773 82.1824 100.094V83.265C82.1824 81.3554 80.6302 79.792 78.7094 79.792C76.7887 79.792 75.2364 81.3443 75.2364 83.265V96.0514H73.003V83.265C73.003 80.1159 75.5603 77.5586 78.7094 77.5586C81.8585 77.5586 84.4158 80.1159 84.4158 83.265V100.094C84.4158 105.421 82.093 110.457 78.0505 113.93C75.7501 115.907 73.271 117.693 70.6802 119.268Z" fill="#FFE8AC"/>
<path d="M57.9616 102.807L56.5881 101.043L63.802 95.426C64.5056 94.8788 64.9076 94.0525 64.9076 93.1591L69.1399 42.8177C69.1623 42.5273 69.3074 42.2481 69.5308 42.0583C69.7541 41.8685 70.0445 41.7791 70.346 41.8015L72.4454 41.9801C75.7509 42.2593 78.2411 44.9729 78.2411 48.2896C78.2523 66.9387 78.297 78.0276 78.3416 78.7088L76.1194 78.8987C76.0635 78.2956 76.03 67.9995 76.0077 48.2784C76.0077 46.1343 74.3885 44.3811 72.2556 44.2024L71.2728 44.1242L67.141 93.2596C67.141 94.756 66.4263 96.2189 65.1756 97.1904L57.9616 102.807Z" fill="#FFE8AC"/>
<path d="M47.1963 145.376L45.5994 143.813L69.9437 119.067L56.1858 101.333L29.3401 121.468L28 119.681L55.728 98.8765C56.2193 98.508 56.9117 98.6085 57.2802 99.0886L72.3112 118.464C72.6573 118.91 72.6127 119.536 72.2218 119.927L47.1963 145.365V145.376Z" fill="#FFE8AC"/>
<path d="M86.7949 26H84.5615V37.7925H86.7949V26Z" fill="#FFE8AC"/>
<path d="M69.8854 28.2323L68.3061 29.8115L76.4314 37.9369L78.0107 36.3576L69.8854 28.2323Z" fill="#FFE8AC"/>
<path d="M100.747 28.236L92.6216 36.3613L94.2009 37.9406L102.326 29.8153L100.747 28.236Z" fill="#FFE8AC"/>
</svg>
