<svg
      width="121"
      height="116"
      viewBox="0 0 121 116"
      fill="none"
      xmlns="http://www.w3.org/2000/svg"
    >
      <circle cx="52" cy="64" r="52" fill="#E88385" />
      <path
        d="M36.9296 71.5719C41.7809 77.3491 47.6209 81.8978 54.2863 85.1165C56.8241 86.3145 60.2179 87.736 63.9991 87.9797C64.2335 87.9898 64.4577 88 64.6922 88C67.2299 88 69.2683 87.1268 70.9296 85.3297C70.9397 85.3195 70.9601 85.2992 70.9703 85.2789C71.5614 84.5682 72.2341 83.9285 72.9373 83.2482C73.4164 82.7913 73.9056 82.3141 74.3744 81.8268C76.5453 79.5727 76.5453 76.7095 74.354 74.5265L68.2287 68.4244C67.1892 67.3481 65.9458 66.7795 64.6412 66.7795C63.3366 66.7795 62.0831 67.3481 61.0129 68.4142L57.3642 72.0491C57.0279 71.8562 56.6814 71.6836 56.3552 71.5211C55.9476 71.3181 55.5705 71.1252 55.2341 70.9119C51.9116 68.8102 48.8948 66.0688 46.0105 62.5456C44.5531 60.7078 43.5747 59.1645 42.8918 57.5908C43.8499 56.7277 44.7468 55.8241 45.6131 54.9407C45.9188 54.626 46.2348 54.3112 46.5507 53.9965C47.6514 52.8999 48.2426 51.6307 48.2426 50.3413C48.2426 49.0518 47.6616 47.7826 46.5507 46.6861L43.5135 43.6604C43.1568 43.305 42.8205 42.9598 42.474 42.6044C41.8013 41.914 41.0981 41.2033 40.405 40.5636C39.3553 39.5381 38.1221 39 36.8175 39C35.5232 39 34.2798 39.5381 33.1892 40.5738L29.3775 44.3711C27.9914 45.752 27.2066 47.4273 27.0436 49.3666C26.8499 51.7932 27.2984 54.3722 28.4602 57.4892C30.2438 62.3121 32.9344 66.7897 36.9296 71.5719ZM29.5304 49.5798C29.6527 48.2294 30.1724 47.1024 31.1509 46.1276L34.9422 42.3506C35.5333 41.782 36.1856 41.4876 36.8175 41.4876C37.4392 41.4876 38.0711 41.782 38.652 42.3709C39.3349 43.0004 39.977 43.6604 40.67 44.361C41.0166 44.7163 41.3733 45.0717 41.73 45.4372L44.7671 48.4629C45.399 49.0924 45.7252 49.7321 45.7252 50.3616C45.7252 50.9911 45.399 51.6308 44.7671 52.2603C44.4512 52.575 44.1352 52.8999 43.8193 53.2147C42.8715 54.1691 41.9848 55.0727 41.0064 55.9358C40.986 55.9561 40.9758 55.9662 40.9554 55.9865C40.1095 56.8293 40.242 57.6314 40.4458 58.2406C40.456 58.271 40.4662 58.2913 40.4764 58.3218C41.2612 60.2002 42.3517 61.9872 44.0537 64.1194C47.1113 67.8761 50.3319 70.7901 53.8786 73.034C54.3169 73.3183 54.7857 73.5416 55.224 73.765C55.6316 73.9681 56.0087 74.161 56.3451 74.3742C56.3858 74.3945 56.4164 74.4148 56.4572 74.4351C56.7935 74.6077 57.1196 74.689 57.4458 74.689C58.2611 74.689 58.7911 74.1712 58.9644 73.9986L62.7761 70.2012C63.3672 69.6123 64.0093 69.2976 64.6412 69.2976C65.4158 69.2976 66.0477 69.7748 66.4452 70.2012L72.5908 76.3135C73.8138 77.5319 73.8037 78.8518 72.5602 80.1413C72.1322 80.5982 71.6838 81.0348 71.2047 81.4917C70.4913 82.1821 69.7473 82.8929 69.0746 83.695C67.9026 84.954 66.5063 85.5429 64.7024 85.5429C64.5291 85.5429 64.3456 85.5327 64.1724 85.5226C60.8295 85.3094 57.721 84.0097 55.387 82.903C49.0477 79.8469 43.483 75.5114 38.8661 70.0083C35.0645 65.4494 32.5064 61.2053 30.8145 56.6567C29.7648 53.8645 29.3673 51.6206 29.5304 49.5798Z"
        fill="white"
      />
      <g filter="url(#filter0_d_1051_1037)">
        <path
          d="M111.677 12.6091C112.599 10.6852 112.468 8.35441 110.887 6.77301L110.228 6.11466C108.647 4.53326 106.253 4.28166 104.392 5.32396C103.082 6.05755 100.31 4.53221 100.105 3.5442C99.674 1.46929 97.6716 0 95.4498 0L94.3186 0.0574655C91.717 0.189645 89.6756 2.33752 89.6756 4.94239C89.7644 6.07216 87.8284 6.90818 86.7038 6.17319C84.7737 4.24312 81.6445 4.24312 79.7144 6.17319L79.1731 6.71449C77.518 8.36964 77.3258 10.8804 78.466 12.8131C79.2482 14.139 78.4854 16.4857 77.2004 16.8017C74.8622 17.3766 73 19.0965 73 21.6308V22.4489C73 24.6934 74.6349 26.368 76.6686 27.0894C78.7788 27.8379 78.6123 30.9333 78.396 31.3042C77.2924 33.1964 77.5514 35.6649 79.1732 37.2867L79.7145 37.828C81.3281 39.4416 83.738 39.6296 85.6685 38.6216C87.0511 37.8996 89.6325 39.249 89.8466 40.3522C90.2616 42.4901 92.336 44.0012 94.618 44.0012H95.3222C97.5594 44.0012 99.4537 42.5329 100.094 40.5074C100.513 39.1828 102.54 37.841 104.556 38.6892C106.474 39.4962 108.837 39.2779 110.336 37.779L110.828 37.2867C112.758 35.3566 112.758 32.2273 110.828 30.2973C109.961 29.5102 111.076 27.3394 112.059 27.3256C114.789 27.3256 117.001 25.1128 117.001 22.3832V21.5371C117.001 19.2642 115.492 17.237 113.369 16.7703C111.941 16.4564 111.215 13.5744 111.677 12.6091Z"
          fill="#45C9A5"
        />
      </g>
      <path
        d="M91.1492 28.7178L85.414 22.9826C84.7266 22.2952 84.7266 21.1808 85.414 20.4935C86.1014 19.8062 87.2157 19.8062 87.903 20.4935L92.3937 24.9842L102.095 15.2834C102.782 14.596 103.896 14.596 104.584 15.2834C105.271 15.9707 105.271 17.0851 104.584 17.7724L93.6383 28.7178C92.9161 29.3341 91.6254 29.2461 91.1492 28.7178Z"
        fill="white"
      />
      <defs>
        <filter
          id="filter0_d_1051_1037"
          x="69"
          y="0"
          width="52"
          height="52.0012"
          filterUnits="userSpaceOnUse"
          color-interpolation-filters="sRGB"
        >
          <feFlood flood-opacity="0" result="BackgroundImageFix" />
          <feColorMatrix
            in="SourceAlpha"
            type="matrix"
            values="0 0 0 0 0 0 0 0 0 0 0 0 0 0 0 0 0 0 127 0"
            result="hardAlpha"
          />
          <feOffset dy="4" />
          <feGaussianBlur stdDeviation="2" />
          <feComposite in2="hardAlpha" operator="out" />
          <feColorMatrix
            type="matrix"
            values="0 0 0 0 0 0 0 0 0 0 0 0 0 0 0 0 0 0 0.25 0"
          />
          <feBlend
            mode="normal"
            in2="BackgroundImageFix"
            result="effect1_dropShadow_1051_1037"
          />
          <feBlend
            mode="normal"
            in="SourceGraphic"
            in2="effect1_dropShadow_1051_1037"
            result="shape"
          />
        </filter>
      </defs>
    </svg>