<svg width="26" height="26" viewBox="0 0 26 26" fill="none" xmlns="http://www.w3.org/2000/svg">
<path d="M16.8035 9.79446C16.5426 9.69061 16.2465 9.81807 16.1426 10.0792L13.7471 16.1022C13.6432 16.3634 13.7708 16.6592 14.0319 16.7631C14.0935 16.7876 14.1572 16.7992 14.2198 16.7992C14.422 16.7992 14.6134 16.6778 14.6927 16.4783L17.0882 10.4553C17.1921 10.1942 17.0646 9.89831 16.8035 9.79446Z" fill="#467888"/>
<path d="M16.4229 14.1169C16.4229 14.3979 16.6507 14.6257 16.9317 14.6257H19.4657L17.1317 19.9352C17.0186 20.1924 17.1354 20.4926 17.3927 20.6057C17.4593 20.635 17.5288 20.6489 17.5972 20.6489C17.7928 20.6489 17.9794 20.5353 18.0632 20.3447L20.7109 14.3216C20.78 14.1643 20.7651 13.9826 20.6712 13.8387C20.5772 13.6948 20.4169 13.608 20.2451 13.608H16.9317C16.6507 13.6081 16.4229 13.8358 16.4229 14.1169Z" fill="#467888"/>
<path d="M13.5832 10.6654V7.3165C13.5832 7.30243 13.5826 7.28832 13.5814 7.27425C13.5471 6.86186 13.3044 6.52711 12.9632 6.42143C12.8018 6.37146 12.3844 6.30697 11.9939 6.78609C11.6494 7.20879 9.93235 10.3109 9.59161 10.9285C9.50467 11.0861 9.50747 11.2779 9.59897 11.4329C9.69048 11.5879 9.85709 11.6831 10.0371 11.6831H12.5655V13.0134C12.5655 13.2945 12.7933 13.5223 13.0743 13.5223C13.3553 13.5223 13.5832 13.2945 13.5832 13.0134V11.6831H13.8489C14.1298 11.6831 14.3577 11.4553 14.3577 11.1742C14.3577 10.8932 14.1299 10.6654 13.8489 10.6654H13.5832ZM12.5656 10.6654H10.901C11.5577 9.48664 12.2191 8.32613 12.5656 7.76058V10.6654Z" fill="#467888"/>
<path d="M8.12774 9.68577C6.26559 12.3464 6.0059 12.6919 5.99676 12.7041C5.85432 12.8901 5.85457 13.1544 6.01265 13.3428C6.11086 13.4598 6.25975 13.5222 6.41245 13.5222H9.45252C9.72354 13.5222 9.96013 13.3177 9.97765 13.0472C9.99685 12.7509 9.76213 12.5046 9.46994 12.5046H7.39035C7.71199 12.0502 8.20594 11.3487 8.96136 10.2693C9.33344 9.73767 9.57541 9.23829 9.68053 8.78491C9.69317 8.70199 9.71836 8.5497 9.72344 8.43701C9.72344 7.30667 8.80379 6.38702 7.67345 6.38702C6.70368 6.38702 5.8633 7.07145 5.66648 8.01781C5.61006 8.28898 5.77164 8.56732 6.04078 8.63262C6.32409 8.70138 6.60481 8.51953 6.66047 8.23632C6.75512 7.75441 7.18113 7.40463 7.67345 7.40463C8.17309 7.40463 8.59092 7.76137 8.68572 8.23353C8.7035 8.35947 8.71015 8.46509 8.66734 8.64003C8.58056 8.94645 8.39932 9.2977 8.12774 9.68577Z" fill="#467888"/>
<path d="M1.97795 10.9422C2.01695 10.9514 2.05595 10.9557 2.09434 10.9557C2.32529 10.9557 2.53441 10.7974 2.5893 10.5627C3.12368 8.27952 4.42586 6.20186 6.25596 4.7125C8.05164 3.25122 10.2085 2.43141 12.5125 2.32964L12.1709 2.79094C12.0036 3.01676 12.0511 3.33541 12.277 3.50264C12.368 3.57007 12.4742 3.60257 12.5794 3.60257C12.7351 3.60257 12.8889 3.53133 12.9887 3.39655L13.7333 2.39103C13.9945 2.03831 13.9945 1.56437 13.7332 1.21164L12.9887 0.206172C12.8214 -0.0197025 12.5028 -0.0671322 12.277 0.10004C12.0512 0.267262 12.0036 0.585914 12.1709 0.811738L12.5397 1.3099C9.98874 1.40705 7.59958 2.30709 5.61363 3.92326C3.6098 5.55394 2.18387 7.82955 1.59846 10.3309C1.53443 10.6045 1.70434 10.8782 1.97795 10.9422Z" fill="#467888"/>
<path d="M15.4811 2.60775C16.7708 2.91426 17.9795 3.45361 19.0738 4.21066C19.1622 4.2718 19.263 4.3011 19.3629 4.3011C19.5243 4.3011 19.683 4.22447 19.7818 4.08172C19.9417 3.85062 19.8839 3.53369 19.6528 3.37383C18.4541 2.54448 17.1297 1.95364 15.7164 1.61772C15.4434 1.55297 15.1687 1.72162 15.1038 1.99507C15.0388 2.26843 15.2077 2.54275 15.4811 2.60775Z" fill="#467888"/>
<path d="M23.9775 15.2886C23.7049 15.2193 23.4282 15.3838 23.3588 15.6561C22.7832 17.9158 21.4512 19.9599 19.6082 21.4117C17.8326 22.8104 15.72 23.5926 13.4722 23.6889L13.8275 23.2091C13.9948 22.9832 13.9473 22.6646 13.7215 22.4974C13.4957 22.3301 13.177 22.3776 13.0098 22.6035L12.2652 23.609C12.004 23.9617 12.004 24.4357 12.2652 24.7884L13.0098 25.7939C13.1096 25.9287 13.2633 26 13.4191 26C13.5242 26 13.6304 25.9675 13.7215 25.9C13.9473 25.7328 13.9948 25.4141 13.8275 25.1883L13.4715 24.7075C15.9503 24.6106 18.2808 23.7527 20.2378 22.2111C22.2558 20.6215 23.7143 18.3828 24.3448 15.9072C24.4143 15.6349 24.2498 15.358 23.9775 15.2886Z" fill="#467888"/>
<path d="M10.4053 23.3826C5.81027 22.2374 2.52513 18.1913 2.31967 13.4797L2.79087 13.8286C2.88192 13.896 2.98806 13.9285 3.09328 13.9285C3.24902 13.9285 3.40279 13.8573 3.50257 13.7225C3.66979 13.4967 3.62231 13.178 3.39644 13.0108L2.39092 12.2663C2.03819 12.0052 1.56425 12.0052 1.21153 12.2663L0.206057 13.0108C-0.0197667 13.178 -0.0672979 13.4967 0.0999247 13.7225C0.267198 13.9482 0.585749 13.9957 0.811624 13.8286L1.30044 13.4666C1.50108 18.6514 5.10761 23.111 10.1592 24.37C10.2005 24.3803 10.2419 24.3852 10.2826 24.3852C10.5107 24.3852 10.7183 24.2306 10.7759 23.9993C10.8439 23.7266 10.6779 23.4505 10.4053 23.3826Z" fill="#467888"/>
<path d="M25.9006 12.2776C25.7334 12.0517 25.4147 12.0042 25.1889 12.1714L24.6982 12.5348C24.6166 10.5011 24.0105 8.53 22.9324 6.80684C22.7834 6.56863 22.4693 6.49627 22.2312 6.64536C21.9929 6.7944 21.9207 7.10833 22.0697 7.3466C23.0437 8.90325 23.5955 10.6821 23.679 12.5189L23.2097 12.1714C22.9838 12.0043 22.6652 12.0517 22.498 12.2776C22.3307 12.5034 22.3782 12.822 22.604 12.9893L23.6096 13.7338C23.7859 13.8644 23.9926 13.9297 24.1992 13.9297C24.4059 13.9297 24.6126 13.8644 24.789 13.7338L25.7944 12.9893C26.0204 12.822 26.0678 12.5034 25.9006 12.2776Z" fill="#467888"/>
<path d="M21.1016 5.78584C21.3826 5.78584 21.6104 5.55803 21.6104 5.27702C21.6104 4.996 21.3826 4.76819 21.1016 4.76819C20.8206 4.76819 20.5928 4.996 20.5928 5.27702C20.5928 5.55803 20.8206 5.78584 21.1016 5.78584Z" fill="#467888"/>
</svg>
