<svg width="29" height="29" viewBox="0 0 29 29" fill="none" xmlns="http://www.w3.org/2000/svg">
<path d="M14.004 4.96887C12.1278 4.96887 10.2937 5.52524 8.73363 6.56762C7.1736 7.61 5.9577 9.09158 5.23969 10.825C4.52169 12.5584 4.33383 14.4658 4.69986 16.306C5.0659 18.1462 5.96939 19.8365 7.29609 21.1632C8.62279 22.4899 10.3131 23.3934 12.1533 23.7594C13.9935 24.1255 15.9009 23.9376 17.6343 23.2196C19.3677 22.5016 20.8493 21.2857 21.8917 19.7257C22.9341 18.1656 23.4904 16.3315 23.4904 14.4553C23.4877 11.9402 22.4873 9.52887 20.7089 7.75042C18.9304 5.97196 16.5191 4.97162 14.004 4.96887ZM14.004 23.0382C12.3065 23.0382 10.647 22.5349 9.23557 21.5918C7.82411 20.6486 6.72401 19.3082 6.07439 17.7398C5.42477 16.1715 5.25479 14.4458 5.58597 12.7808C5.91715 11.1159 6.73459 9.58658 7.93494 8.38623C9.13529 7.18588 10.6646 6.36843 12.3296 6.03726C13.9945 5.70608 15.7202 5.87606 17.2886 6.52568C18.8569 7.1753 20.1974 8.2754 21.1405 9.68686C22.0836 11.0983 22.587 12.7577 22.587 14.4553C22.5844 16.7309 21.6794 18.9125 20.0703 20.5216C18.4612 22.1306 16.2796 23.0357 14.004 23.0382Z" fill="#467888"/>
<path d="M14.5871 4.38468L15.2258 3.74593L14.6625 3.18261C17.5372 3.35394 20.2383 4.61576 22.2144 6.71059C24.1905 8.80542 25.2928 11.5754 25.2963 14.4552H26.1998C26.1961 11.3293 24.9939 8.32388 22.8408 6.0578C20.6876 3.79172 17.7475 2.43756 14.6259 2.27418L15.2258 1.67427L14.5871 1.03552L13.2319 2.39073C13.1472 2.47544 13.0996 2.59032 13.0996 2.7101C13.0996 2.82988 13.1472 2.94476 13.2319 3.02948L14.5871 4.38468Z" fill="#467888"/>
<path d="M13.4194 24.5257L12.7806 25.1645L13.3439 25.7278C10.4692 25.5565 7.76819 24.2946 5.79206 22.1998C3.81593 20.105 2.71364 17.335 2.71011 14.4552H1.80664C1.81035 17.5811 3.01256 20.5865 5.16569 22.8526C7.31882 25.1187 10.2589 26.4728 13.3805 26.6362L12.7806 27.2361L13.4194 27.8749L14.7746 26.5197C14.8593 26.435 14.9068 26.3201 14.9068 26.2003C14.9068 26.0805 14.8593 25.9656 14.7746 25.8809L13.4194 24.5257Z" fill="#467888"/>
<path d="M14.0027 6.77576C12.4839 6.77576 10.9991 7.22615 9.73623 8.06998C8.47335 8.91382 7.48905 10.1132 6.90781 11.5164C6.32657 12.9197 6.17449 14.4638 6.4708 15.9534C6.76712 17.4431 7.49852 18.8115 8.57251 19.8855C9.64651 20.9594 11.0149 21.6908 12.5045 21.9872C13.9942 22.2835 15.5383 22.1314 16.9415 21.5502C18.3448 20.9689 19.5441 19.9846 20.388 18.7217C21.2318 17.4588 21.6822 15.9741 21.6822 14.4552C21.6799 12.4192 20.8701 10.4672 19.4304 9.02753C17.9907 7.58784 16.0388 6.77803 14.0027 6.77576ZM19.096 18.9098L17.936 17.7497L17.2972 18.3885L18.4573 19.5485C17.3422 20.5275 15.9351 21.111 14.4545 21.2082V19.876H13.551V21.2082C12.0703 21.111 10.6632 20.5275 9.54818 19.5485L10.7082 18.3885L10.0695 17.7497L8.90942 18.9098C7.93044 17.7947 7.34701 16.3876 7.24975 14.907H8.58192V14.0035H7.24975C7.34701 12.5229 7.93044 11.1157 8.90942 10.0007L10.0695 11.1607L10.7082 10.522L9.54818 9.36194C10.6632 8.38295 12.0703 7.79953 13.551 7.70226V9.03443H14.4545V7.70226C15.9351 7.79953 17.3422 8.38295 18.4573 9.36194L17.2972 10.522L17.936 11.1607L19.096 10.0007C20.075 11.1157 20.6584 12.5229 20.7557 14.0035H19.4235V14.907H20.7557C20.6584 16.3876 20.075 17.7947 19.096 18.9098Z" fill="#467888"/>
<path d="M14.4557 13.1832V11.4801L14.588 11.6125L15.2268 10.9737L14.3233 10.0702C14.2386 9.98556 14.1237 9.93799 14.0039 9.93799C13.8842 9.93799 13.7693 9.98556 13.6846 10.0702L12.7811 10.9737L13.4198 11.6125L13.5522 11.4801V13.1832C13.2889 13.2762 13.0608 13.4484 12.899 13.6761C12.7373 13.9038 12.6499 14.1759 12.6487 14.4552C12.65 14.6623 12.6993 14.8663 12.7928 15.0511L12.7811 15.0393L11.7453 16.0752V15.8104H10.8418V17.1656C10.8418 17.2854 10.8894 17.4003 10.9741 17.4851C11.0588 17.5698 11.1737 17.6174 11.2935 17.6174H12.6487V16.7139H12.384L13.4198 15.6781L13.4081 15.6663C13.5929 15.7598 13.7968 15.8092 14.0039 15.8104C14.3232 15.811 14.6324 15.6986 14.8768 15.4931C15.1212 15.2876 15.2849 15.0022 15.339 14.6875C15.3931 14.3728 15.3341 14.0491 15.1724 13.7738C15.0107 13.4985 14.7568 13.2892 14.4557 13.1832ZM14.0039 14.907C13.9146 14.907 13.8273 14.8805 13.753 14.8308C13.6787 14.7812 13.6208 14.7106 13.5866 14.6281C13.5524 14.5456 13.5435 14.4547 13.5609 14.3671C13.5783 14.2795 13.6213 14.199 13.6845 14.1358C13.7477 14.0726 13.8282 14.0296 13.9158 14.0122C14.0034 13.9947 14.0943 14.0037 14.1768 14.0379C14.2594 14.0721 14.3299 14.13 14.3795 14.2043C14.4292 14.2786 14.4557 14.3659 14.4557 14.4552C14.4557 14.575 14.4081 14.6899 14.3234 14.7747C14.2386 14.8594 14.1237 14.907 14.0039 14.907Z" fill="#467888"/>
<path d="M6.69651 5.64005C6.74751 5.56601 6.77526 5.47844 6.77621 5.38854C6.77715 5.29864 6.75125 5.2105 6.70182 5.13541C6.65239 5.06031 6.58167 5.00168 6.49872 4.967C6.41577 4.93233 6.32436 4.92319 6.23619 4.94077C6.03743 4.98096 5.83228 4.9771 5.63517 4.92947C5.43806 4.88184 5.25379 4.79158 5.09532 4.66507C4.93684 4.53855 4.80802 4.37883 4.71792 4.19717C4.62782 4.0155 4.57863 3.8163 4.57381 3.61357C4.57863 3.41085 4.62782 3.21164 4.71792 3.02998C4.80802 2.84831 4.93684 2.6886 5.09532 2.56208C5.25379 2.43556 5.43806 2.34531 5.63517 2.29768C5.83228 2.25004 6.03743 2.24619 6.23619 2.28638C6.32436 2.30395 6.41577 2.29482 6.49872 2.26014C6.58167 2.22547 6.65239 2.16683 6.70182 2.09174C6.75125 2.01664 6.77715 1.9285 6.77621 1.8386C6.77526 1.7487 6.74751 1.66113 6.69651 1.58709C6.25448 0.946534 5.62043 0.462913 4.8858 0.205971C4.15117 -0.05097 3.35391 -0.0679541 2.609 0.157468C1.86409 0.382891 1.21002 0.839071 0.741117 1.46022C0.27221 2.08138 0.0126967 2.83541 0 3.61357C0.0126967 4.39174 0.27221 5.14577 0.741117 5.76692C1.21002 6.38807 1.86409 6.84425 2.609 7.06968C3.35391 7.2951 4.15117 7.27812 4.8858 7.02117C5.62043 6.76423 6.25448 6.28061 6.69651 5.64005ZM0.903468 3.61357C0.910863 2.88847 1.20555 2.19591 1.7229 1.6878C2.24024 1.17968 2.938 0.897508 3.66311 0.903168C4.25856 0.902482 4.83859 1.09245 5.31827 1.44525C4.84468 1.57726 4.42733 1.8607 4.13 2.25225C3.83267 2.6438 3.6717 3.12193 3.6717 3.61357C3.6717 4.10522 3.83267 4.58335 4.13 4.9749C4.42733 5.36644 4.84468 5.64988 5.31827 5.7819C4.83859 6.1347 4.25856 6.32466 3.66311 6.32398C2.938 6.32964 2.24024 6.04746 1.7229 5.53935C1.20555 5.03124 0.910863 4.33867 0.903468 3.61357Z" fill="#467888"/>
<path d="M24.3944 26.652C24.8411 26.652 25.2778 26.5195 25.6493 26.2713C26.0207 26.0231 26.3102 25.6704 26.4812 25.2577C26.6521 24.845 26.6968 24.3908 26.6097 23.9527C26.5225 23.5145 26.3074 23.1121 25.9915 22.7962C25.6757 22.4803 25.2732 22.2652 24.8351 22.178C24.3969 22.0909 23.9428 22.1356 23.5301 22.3066C23.1173 22.4775 22.7646 22.767 22.5164 23.1385C22.2682 23.5099 22.1357 23.9466 22.1357 24.3933C22.1365 24.9921 22.3747 25.5662 22.7981 25.9896C23.2215 26.4131 23.7956 26.6513 24.3944 26.652ZM24.3944 23.0381C24.6624 23.0381 24.9245 23.1176 25.1473 23.2665C25.3702 23.4154 25.5439 23.6271 25.6465 23.8747C25.749 24.1223 25.7759 24.3948 25.7236 24.6577C25.6713 24.9206 25.5422 25.1621 25.3527 25.3516C25.1632 25.5411 24.9217 25.6702 24.6588 25.7225C24.3959 25.7748 24.1234 25.7479 23.8758 25.6454C23.6282 25.5428 23.4165 25.3691 23.2676 25.1462C23.1187 24.9234 23.0392 24.6613 23.0392 24.3933C23.0392 24.0339 23.182 23.6892 23.4361 23.435C23.6903 23.1809 24.035 23.0381 24.3944 23.0381Z" fill="#467888"/>
<path d="M23.9414 20.7794H24.8449V21.6829H23.9414V20.7794Z" fill="#467888"/>
<path d="M23.9414 27.1038H24.8449V28.0072H23.9414V27.1038Z" fill="#467888"/>
<path d="M27.1035 23.9417H28.007V24.8451H27.1035V23.9417Z" fill="#467888"/>
<path d="M20.7803 23.9417H21.6837V24.8451H20.7803V23.9417Z" fill="#467888"/>
<path d="M25.875 22.2673L26.7783 21.364L27.4172 22.0028L26.5138 22.9062L25.875 22.2673Z" fill="#467888"/>
<path d="M21.3594 22.0024L21.9982 21.3636L22.9016 22.2669L22.2627 22.9058L21.3594 22.0024Z" fill="#467888"/>
<path d="M25.875 26.5198L26.5138 25.8809L27.4172 26.7843L26.7783 27.4231L25.875 26.5198Z" fill="#467888"/>
<path d="M21.3584 26.7838L22.2617 25.8805L22.9006 26.5193L21.9972 27.4227L21.3584 26.7838Z" fill="#467888"/>
</svg>
