<svg width="19" height="21" viewBox="0 0 19 21" fill="none" xmlns="http://www.w3.org/2000/svg">
<path d="M7.128 3.63316C7.28327 3.20688 7.57069 2.83783 7.95071 2.57682C8.33072 2.31581 8.78464 2.17565 9.25 2.17565C9.71536 2.17565 10.1693 2.31581 10.5493 2.57682C10.9293 2.83783 11.2167 3.20688 11.372 3.63316C11.4048 3.72345 11.4556 3.80656 11.5215 3.87776C11.5874 3.94897 11.6671 4.00686 11.756 4.04814C11.8449 4.08942 11.9413 4.11328 12.0397 4.11836C12.1381 4.12343 12.2366 4.10963 12.3295 4.07773C12.4224 4.04582 12.5079 3.99645 12.5812 3.93243C12.6545 3.8684 12.7141 3.79098 12.7566 3.70459C12.799 3.61819 12.8236 3.5245 12.8288 3.42889C12.834 3.33327 12.8198 3.23758 12.787 3.1473C12.5284 2.43664 12.0495 1.82135 11.4162 1.38616C10.7828 0.950971 10.0262 0.717285 9.2505 0.717285C8.4748 0.717285 7.71818 0.950971 7.08483 1.38616C6.45148 1.82135 5.97255 2.43664 5.714 3.1473C5.67929 3.23794 5.66349 3.33438 5.66752 3.43102C5.67155 3.52765 5.69534 3.62253 5.73749 3.71014C5.77964 3.79775 5.83931 3.87633 5.91303 3.94131C5.98675 4.00628 6.07304 4.05635 6.16687 4.08859C6.2607 4.12083 6.3602 4.1346 6.45956 4.1291C6.55893 4.1236 6.65617 4.09894 6.74563 4.05655C6.83508 4.01416 6.91496 3.95489 6.98061 3.88221C7.04626 3.80952 7.09636 3.72486 7.128 3.63316ZM0 5.33368C0 5.14039 0.0790175 4.95502 0.21967 4.81834C0.360322 4.68167 0.551088 4.60488 0.75 4.60488H17.75C17.9489 4.60488 18.1397 4.68167 18.2803 4.81834C18.421 4.95502 18.5 5.14039 18.5 5.33368C18.5 5.52696 18.421 5.71233 18.2803 5.84901C18.1397 5.98568 17.9489 6.06247 17.75 6.06247H0.75C0.551088 6.06247 0.360322 5.98568 0.21967 5.84901C0.0790175 5.71233 0 5.52696 0 5.33368ZM2.367 7.03613C2.56536 7.02333 2.76084 7.08758 2.91047 7.21477C3.0601 7.34195 3.15165 7.52165 3.165 7.71439L3.625 14.4193C3.715 15.7282 3.779 16.6397 3.919 17.3247C4.056 17.9904 4.246 18.3421 4.519 18.5909C4.793 18.8396 5.167 19.0009 5.859 19.0884C6.573 19.1788 7.513 19.1807 8.863 19.1807H9.637C10.987 19.1807 11.927 19.1788 12.641 19.0884C13.333 19.0009 13.707 18.8396 13.981 18.5909C14.254 18.3421 14.444 17.9904 14.581 17.3247C14.721 16.6397 14.785 15.7282 14.875 14.4193L15.335 7.71439C15.3416 7.61888 15.3674 7.52556 15.4111 7.43975C15.4548 7.35395 15.5154 7.27735 15.5896 7.21432C15.6637 7.15129 15.7499 7.10308 15.8433 7.07242C15.9366 7.04176 16.0352 7.02927 16.1335 7.03565C16.2318 7.04203 16.3278 7.06716 16.4161 7.1096C16.5044 7.15205 16.5833 7.21098 16.6481 7.28303C16.713 7.35508 16.7626 7.43884 16.7942 7.52953C16.8257 7.62022 16.8386 7.71605 16.832 7.81157L16.368 14.567C16.283 15.8127 16.214 16.8194 16.052 17.6104C15.883 18.4315 15.597 19.1176 15.005 19.6549C14.414 20.1932 13.69 20.4255 12.835 20.5333C12.013 20.6383 10.975 20.6383 9.689 20.6383H8.811C7.525 20.6383 6.487 20.6383 5.665 20.5333C4.81 20.4255 4.086 20.1932 3.495 19.6549C2.903 19.1176 2.617 18.4305 2.448 17.6104C2.286 16.8194 2.218 15.8127 2.132 14.567L1.668 7.81157C1.66148 7.71605 1.67439 7.62022 1.706 7.52955C1.7376 7.43888 1.78728 7.35515 1.85219 7.28314C1.9171 7.21113 1.99597 7.15225 2.08431 7.10987C2.17264 7.06749 2.2687 7.04243 2.367 7.03613Z" fill="#E88585"/>
</svg>
