<svg width="89" height="27" viewBox="0 0 89 27" fill="none" xmlns="http://www.w3.org/2000/svg">
<path d="M64.6977 1.10596C62.6294 0.35988 60.4431 -0.0145057 58.2418 0.000429857C51.1228 0.000429857 46.0951 3.55045 46.0595 8.64646C46.015 12.3903 49.6323 14.5 52.3686 15.7509C55.1762 17.037 56.115 17.8475 56.1061 18.997C56.0883 20.7456 53.8636 21.5384 51.7947 21.5384C48.9516 21.5384 47.3987 21.1464 45.0094 20.1642L44.124 19.7546L43.114 25.6214C44.8448 26.3349 47.9638 26.9471 51.1851 27C58.7534 27 63.7011 23.472 63.7589 18.0501C63.8212 15.0594 61.8635 12.7999 57.7434 10.9324C55.2385 9.72115 53.6856 8.91073 53.6856 7.68187C53.6856 6.59396 55.016 5.43118 57.7968 5.43118C59.6476 5.38685 61.4868 5.73058 63.1939 6.43981L63.8613 6.7349L64.8713 1.06632L64.6977 1.10596ZM83.1714 0.476115H77.6097C75.8789 0.476115 74.5753 0.947396 73.8189 2.64753L63.1227 26.6344H70.691L72.2038 22.7012L81.4406 22.71C81.6586 23.6306 82.326 26.6344 82.326 26.6344H89L83.1714 0.476115ZM35.8216 0.255889H43.0339L38.5223 26.4274H31.3189L35.8216 0.247081V0.255889ZM17.5126 14.6806L18.2601 18.3143L25.3078 0.476115H32.9473L21.5971 26.5992H13.9754L7.74629 4.4798C7.6454 4.11507 7.40847 3.80183 7.08334 3.60331C4.83821 2.45522 2.45935 1.58397 0 1.00906L0.0978851 0.458494H11.7062C13.2813 0.520157 14.5493 1.00906 14.972 2.67396L17.5081 14.6938V14.6806H17.5126ZM74.2727 17.3497L77.147 10.0295C77.1114 10.1088 77.7387 8.51873 78.1036 7.53652L78.5975 9.79603L80.266 17.3453H74.2683V17.3497H74.2727Z" fill="#EBEBEB"/>
</svg>
